<svg xmlns="http://www.w3.org/2000/svg" xml:space="preserve" width="530px" height="44px" version="1.1" style="shape-rendering:geometricPrecision; text-rendering:geometricPrecision; image-rendering:optimizeQuality; fill-rule:evenodd; clip-rule:evenodd"
viewBox="0 0 520 43"
 xmlns:xlink="http://www.w3.org/1999/xlink">
 <defs>
  <style type="text/css">
   <![CDATA[
    .fil1 {fill:#0c1f3e}
    .fil0 {fill:#0c1f3e;fill-rule:nonzero}
   ]]>
  </style>
 </defs>
 <g>
  <metadata id="CorelCorpID_0Corel-Layer"/>
  <path class="fil0" d="M516 43l4 0 0 -42c-4,0 -7,0 -11,0l0 20 -22 -21 -3 0 0 43c3,0 7,0 11,0l0 -21 21 21z"/>
  <path class="fil0" d="M451 43l10 0 0 -2 -19 -41 -4 0 -20 41 0 2 11 0 3 -5 16 0 3 5zm-6 -15l-10 0 5 -11 5 11z"/>
  <path class="fil0" d="M376 19l-17 -19 -4 0 0 43c4,0 7,0 11,0l0 -19 9 9 1 0 9 -9 0 19c4,0 8,0 11,0l0 -43 -4 0 -16 19z"/>
  <path class="fil0" d="M328 1c-4,0 -8,0 -11,0l0 15 -14 0 0 -15c-3,0 -7,0 -11,0l0 42c4,0 8,0 11,0l0 -17 14 0 0 17c3,0 7,0 11,0l0 -42z"/>
  <path class="fil0" d="M248 10l0 33c3,0 7,0 11,0l0 -33 10 0c0,-3 0,-6 0,-9l-32 0c0,3 0,6 0,9l11 0z"/>
  <path class="fil0" d="M202 1c-4,0 -7,0 -11,0l0 42c9,0 18,0 27,0 0,-4 0,-6 0,-10l-16 0c0,-18 0,-11 0,-32z"/>
  <path class="fil0" d="M158 43l11 0 0 -2 -19 -41 -5 0 -19 41 0 2 11 0 2 -5 17 0 2 5zm-5 -15l-10 0 5 -11 5 11z"/>
  <path class="fil0" d="M26 1l-8 23 0 0 -2 -7 -5 -16 -11 0 0 1 15 41 6 0 7 -20 0 0 7 20 6 0 15 -41 0 -1 -11 0 -6 16 -1 7 -1 0 -7 -23c-2,0 -3,0 -4,0z"/>
  <polygon class="fil1" points="96,1 73,1 73,10 96,10 "/>
  <polygon class="fil1" points="106,33 73,33 73,43 106,43 "/>
  <polygon class="fil1" points="117,17 73,17 73,27 117,27 "/>
 </g>
</svg>
