<?xml version="1.0" standalone="no"?>
<!DOCTYPE svg PUBLIC "-//W3C//DTD SVG 1.1//EN" "http://www.w3.org/Graphics/SVG/1.1/DTD/svg11.dtd" >
<svg xmlns="http://www.w3.org/2000/svg" xmlns:xlink="http://www.w3.org/1999/xlink" version="1.1">
<metadata>
Created by FontForge 20141024 at Fri Mar 27 10:59:57 2015
 By System Administrator
Circe is a geometric sans-serif with some humanist features in 6 weights from Thin to Extra Bold. Name of the font derives from both its geometric shapes and artificial, kinky nature. While being clean and simple in its basic form, Circe can become more intricate with its numerous decorative variations of characters, tempting and challenging the designer to use more and more of them and finally -- probably -- making him look foolish like the sailors who got to Circe's island. Its oversized character set not only allows using Circe for almost all European languages (based on Latin and Cyrillic scripts) but also contains a lot of alternates and swash variants organized in stylistic sets which make the font look in several completely different ways. Circe is good for both text setting in small point sizes and display purposes, such as magazine headlines, posters and so on. Designed by Alexandra Korolkova and released by ParaType in 2011.
</metadata>
<defs>
<font id="Circe-Bold" horiz-adv-x="596" >
  <font-face 
    font-family="Circe Bold"
    font-weight="700"
    font-stretch="normal"
    units-per-em="1000"
    panose-1="2 11 6 2 2 2 3 2 2 3"
    ascent="773"
    descent="-227"
    x-height="450"
    cap-height="700"
    bbox="-512 -423 1676 1012"
    underline-thickness="50"
    underline-position="-50"
    stemh="115"
    stemv="115"
    unicode-range="U+0020-FB02"
  />
<missing-glyph horiz-adv-x="212" 
 />
    <glyph glyph-name="uniF350.var.accented" unicode="&#xf350;`" horiz-adv-x="611" 
d="M6 0l245 526h109l245 -526h-131l-49 108h-247l-49 -108h-123zM302 383l-73 -161h145zM432 688l-149 -118l-55 64l133 142z" />
    <glyph glyph-name="uniF355.var.accented" unicode="&#xf355;`" horiz-adv-x="498" 
d="M78 0v525h359v-115h-237v-88h213v-115h-213v-92h246v-115h-368zM378 688l-149 -118l-55 64l133 142z" />
    <glyph glyph-name="uniF358.var.accented" unicode="&#xf358;`" horiz-adv-x="663" 
d="M185 0h-107v525h122v-330l278 330h107v-525h-122v330zM453 688l-149 -118l-55 64l133 142z" />
    <glyph glyph-name="uniF35E.var.accented" unicode="&#xf35e;`" horiz-adv-x="659" 
d="M35 261c0 152 118 271 294 271c170 0 295 -104 295 -271c0 -159 -125 -272 -295 -272c-169 0 -294 104 -294 272zM165 261c0 -89 72 -157 164 -157c108 0 165 69 165 157c0 95 -72 156 -165 156c-95 0 -164 -61 -164 -156zM463 688l-149 -118l-55 64l133 142z" />
    <glyph glyph-name="uniF363.var.accented" unicode="&#xf363;`" horiz-adv-x="567" 
d="M560 525l-198 -397c-39 -81 -91 -128 -169 -128c-33 0 -62 12 -78 23l43 104c16 -9 24 -12 41 -12c24 0 37 16 45 30l9 14l-244 366h154l152 -245l119 245h126zM423 688l-149 -118l-55 64l133 142z" />
    <glyph glyph-name="uniF36B.var.accented" unicode="&#xf36b;`" horiz-adv-x="736" 
d="M535 0v525h123v-525h-123zM247 250c-13 0 -28 0 -47 -2v-133c17 -2 30 -2 46 -2c61 0 95 23 95 71c0 45 -37 66 -94 66zM200 525v-163c23 3 44 3 57 3c145 0 214 -70 214 -178c0 -112 -87 -189 -240 -189c-59 0 -119 2 -153 2v525h122zM483 688l-149 -118l-55 64l133 142
z" />
    <glyph glyph-name="uniF36D.var.accented" unicode="&#xf36d;`" horiz-adv-x="562" 
d="M154 210v115h240c-22 62 -80 94 -167 94c-68 0 -116 -12 -156 -38l-47 92c40 30 112 61 208 61c170 0 295 -108 295 -272c0 -169 -121 -271 -311 -271c-83 0 -160 25 -197 55l52 103c33 -22 83 -43 160 -43c83 0 147 29 167 104h-244zM363 688l-149 -118l-55 64l133 142z
" />
    <glyph glyph-name="uniF36E.var.accented" unicode="&#xf36e;`" horiz-adv-x="877" 
d="M78 0v525h122v-200h83c24 121 121 209 273 209c177 0 286 -104 286 -271c0 -160 -109 -272 -286 -272c-144 0 -252 82 -274 219h-82v-210h-122zM408 263c0 -90 60 -157 152 -157c102 0 152 69 152 157c0 94 -59 156 -152 156c-90 0 -152 -62 -152 -156zM544 688
l-149 -118l-55 64l133 142z" />
    <glyph glyph-name="uniF36F.var.accented" unicode="&#xf36f;`" horiz-adv-x="559" 
d="M358 0v160h-92l-110 -160h-145l136 187c-49 28 -89 75 -89 147c0 99 69 194 240 194c67 0 148 -3 183 -3v-525h-123zM256 275h102v135c-11 1 -46 3 -72 3c-63 0 -98 -28 -98 -71c0 -38 33 -61 68 -67zM403 688l-149 -118l-55 64l133 142z" />
    <glyph glyph-name="uniF371.var.accented" unicode="&#xf371;`" horiz-adv-x="498" 
d="M89 645c0 37 29 60 65 60c28 0 58 -23 58 -60c0 -40 -30 -62 -58 -62c-36 0 -65 22 -65 62zM308 645c0 37 30 60 64 60c30 0 60 -23 60 -60c0 -40 -30 -62 -60 -62c-34 0 -64 22 -64 62zM78 0v525h359v-115h-237v-88h213v-115h-213v-92h246v-115h-368zM403 778l-149 -118
l-55 64l133 142z" />
    <glyph glyph-name="afii10017.var.accented" unicode="&#x410;`" horiz-adv-x="715" 
d="M7 0l296 702h108l296 -702h-131l-73 179h-299l-73 -179h-124zM354 543l-103 -249h205zM529 812l-225 -81l-32 69l214 111z" />
    <glyph glyph-name="afii10022.var.accented" unicode="&#x415;`" horiz-adv-x="575" 
d="M97 0v700h405v-115h-282v-174h252v-115h-252v-181h292v-115h-415zM489 812l-225 -81l-32 69l214 111z" />
    <glyph glyph-name="afii10026.var.accented" unicode="&#x418;`" horiz-adv-x="792" 
d="M205 0h-108v700h123v-498l367 498h108v-700h-123v497zM579 812l-225 -81l-32 69l214 111z" />
    <glyph glyph-name="afii10032.var.accented" unicode="&#x41e;`" horiz-adv-x="819" 
d="M45 350c0 203 149 361 364 361c208 0 365 -143 365 -361c0 -210 -157 -361 -365 -361s-364 143 -364 361zM175 350c0 -140 103 -246 234 -246c147 0 235 108 235 246c0 145 -103 246 -235 246c-134 0 -234 -101 -234 -246zM589 812l-225 -81l-32 69l214 111z" />
    <glyph glyph-name="afii10037.var.accented" unicode="&#x423;`" horiz-adv-x="683" 
d="M671 700l-238 -537c-48 -107 -103 -163 -190 -163c-36 0 -77 13 -96 28l43 104c19 -13 32 -17 52 -17c33 0 55 19 69 49l10 24l-309 512h139l229 -391l167 391h124zM537 812l-225 -81l-32 69l214 111z" />
    <glyph glyph-name="afii10045.var.accented" unicode="&#x42b;`" horiz-adv-x="864" 
d="M645 0v700h122v-700h-122zM288 350c-19 0 -40 -2 -68 -5v-229c22 -1 42 -3 66 -3c90 0 138 41 138 123c0 75 -50 114 -136 114zM220 700v-240c31 4 58 5 78 5c173 0 256 -89 256 -226c0 -148 -104 -241 -283 -241c-66 0 -133 2 -174 2v700h123zM594 812l-225 -81l-32 69
l214 111z" />
    <glyph glyph-name="afii10047.var.accented" unicode="&#x42d;`" horiz-adv-x="673" 
d="M187 299v115h312c-24 117 -120 182 -252 182c-56 0 -115 -17 -164 -54l-48 92c49 42 134 77 241 77c206 0 352 -142 352 -360c0 -219 -142 -362 -366 -362c-97 0 -186 31 -235 73l53 103c44 -34 107 -61 180 -61c120 0 221 66 242 195h-315zM459 812l-225 -81l-32 69
l214 111z" />
    <glyph glyph-name="afii10048.var.accented" unicode="&#x42e;`" horiz-adv-x="1081" 
d="M97 0v700h123v-286h119c26 171 156 297 342 297c208 0 355 -143 355 -361c0 -210 -147 -361 -355 -361c-178 0 -322 121 -344 310h-117v-299h-123zM464 350c0 -140 98 -246 221 -246c147 0 221 108 221 246c0 145 -89 246 -221 246c-126 0 -221 -101 -221 -246zM739 812
l-225 -81l-32 69l214 111z" />
    <glyph glyph-name="afii10049.var.accented" unicode="&#x42f;`" horiz-adv-x="633" 
d="M413 0v242h-101l-157 -242h-138l179 267c-65 33 -123 97 -123 194c0 129 84 242 288 242c45 0 133 -3 174 -3v-700h-122zM301 357h112v228c-17 1 -56 3 -77 3c-81 0 -133 -49 -133 -119c0 -63 48 -102 98 -112zM537 812l-225 -81l-32 69l214 111z" />
    <glyph glyph-name="afii10023.var.accented" unicode="&#x401;`" horiz-adv-x="575" 
d="M97 824c0 39 26 63 59 63c27 0 55 -24 55 -63c0 -43 -28 -67 -55 -67c-33 0 -59 24 -59 67zM399 824c0 39 28 63 60 63c28 0 54 -24 54 -63c0 -43 -26 -67 -54 -67c-32 0 -60 24 -60 67zM401 884l-133 -144l-41 19l75 152zM97 0v700h405v-115h-282v-174h252v-115h-252
v-181h292v-115h-415z" />
    <glyph glyph-name="afii10065.var.accented" unicode="&#x430;`" horiz-adv-x="463" 
d="M99 334l-29 84c39 23 100 43 159 43c133 0 180 -68 180 -187v-274h-100v52c-24 -34 -72 -58 -133 -58c-82 0 -141 51 -141 138c0 99 73 146 164 146c40 0 80 -13 102 -29c3 75 -17 116 -84 116c-52 0 -85 -16 -118 -31zM214 91c48 0 73 21 87 41v46c-20 15 -46 22 -79 22
c-38 0 -72 -18 -72 -56c0 -34 28 -53 64 -53zM370 662l-126 -145l-69 48l105 165z" />
    <glyph glyph-name="afii10070.var.accented" unicode="&#x435;`" horiz-adv-x="516" 
d="M417 126l33 -81c-45 -38 -109 -56 -172 -56c-145 0 -242 94 -242 236c0 131 90 236 238 236c116 0 213 -83 213 -209c0 -28 -2 -45 -7 -62h-325c10 -68 64 -105 135 -105c55 0 101 20 127 41zM269 365c-69 0 -106 -39 -118 -98h221c1 55 -37 98 -103 98zM397 662
l-126 -145l-69 48l105 165z" />
    <glyph glyph-name="afii10074.var.accented" unicode="&#x438;`" horiz-adv-x="568" 
d="M179 0h-115v450h115v-285l210 285h115v-450h-115v285zM406 662l-126 -145l-69 48l105 165z" />
    <glyph glyph-name="afii10080.var.accented" unicode="&#x43e;`" horiz-adv-x="562" 
d="M36 225c0 135 96 236 245 236s245 -101 245 -236s-96 -236 -245 -236s-245 101 -245 236zM159 225c0 -75 52 -129 122 -129c71 0 123 51 123 129c0 76 -53 128 -123 128c-68 0 -122 -50 -122 -128zM411 662l-126 -145l-69 48l105 165z" />
    <glyph glyph-name="afii10085.var.accented" unicode="&#x443;`" horiz-adv-x="503" 
d="M498 450l-177 -450c-66 -161 -108 -200 -174 -200c-41 0 -71 16 -97 35l37 87c12 -7 29 -16 47 -16c29 0 50 23 69 70l10 24l-208 450h138l105 -246c9 -22 15 -43 22 -65c4 21 8 43 16 66l81 245h131zM382 662l-126 -145l-69 48l105 165z" />
    <glyph glyph-name="afii10093.var.accented" unicode="&#x44b;`" horiz-adv-x="676" 
d="M64 0v450h115v-123h56c153 0 198 -76 198 -156c0 -86 -54 -171 -207 -171h-162zM497 0v450h115v-450h-115zM225 235h-46v-135h45c62 0 87 26 87 67s-24 68 -86 68zM442 662l-126 -145l-69 48l105 165z" />
    <glyph glyph-name="afii10095.var.accented" unicode="&#x44d;`" horiz-adv-x="496" 
d="M140 189v77h200c-15 65 -68 95 -129 95c-52 0 -91 -19 -129 -47l-47 80c43 46 117 67 174 67c154 0 251 -92 251 -236c0 -131 -88 -236 -240 -236c-87 0 -146 25 -187 67l54 76c25 -22 71 -43 126 -43c68 0 116 34 128 100h-201zM344 662l-126 -145l-69 48l105 165z" />
    <glyph glyph-name="afii10096.var.accented" unicode="&#x44e;`" horiz-adv-x="772" 
d="M64 0v450h122v-163h80c23 103 107 174 228 174c146 0 242 -101 242 -236s-98 -236 -242 -236c-125 0 -209 75 -230 183h-78v-172h-122zM389 225c0 -77 46 -121 108 -121c64 0 109 45 109 121c0 74 -42 121 -109 121c-63 0 -108 -47 -108 -121zM519 662l-126 -145l-69 48
l105 165z" />
    <glyph glyph-name="afii10097.var.accented" unicode="&#x44f;`" horiz-adv-x="495" 
d="M284 450h147v-450h-115v135h-64l-93 -135h-132l120 160c-39 14 -87 56 -87 130c0 87 62 160 224 160zM183 282c0 -37 37 -62 73 -62h60v130h-51c-56 0 -82 -34 -82 -68zM403 662l-126 -145l-69 48l105 165z" />
    <glyph glyph-name="afii10071.var.accented" unicode="&#x451;`" horiz-adv-x="516" 
d="M72 588c0 33 24 53 53 53c25 0 50 -20 50 -53c0 -36 -25 -56 -50 -56c-29 0 -53 20 -53 56zM361 588c0 33 24 53 53 53c26 0 50 -20 50 -53c0 -36 -24 -56 -50 -56c-29 0 -53 20 -53 56zM374 662l-126 -145l-53 38l104 164zM417 126l33 -81c-45 -38 -109 -56 -172 -56
c-145 0 -242 94 -242 236c0 131 90 236 238 236c116 0 213 -83 213 -209c0 -28 -2 -45 -7 -62h-325c10 -68 64 -105 135 -105c55 0 101 20 127 41zM269 365c-69 0 -106 -39 -118 -98h221c1 55 -37 98 -103 98z" />
    <glyph glyph-name="fi" unicode="fi" horiz-adv-x="530" 
d="M362 0v342h-178v-342h-115v506c0 142 81 205 200 205c108 0 163 -47 193 -94l-83 -65c-17 27 -47 51 -89 51c-69 0 -106 -27 -106 -107v-46h293v-450h-115z" />
    <glyph glyph-name="fl" unicode="fl" horiz-adv-x="570" 
d="M334 124v455c-17 12 -44 24 -71 24c-52 0 -79 -27 -79 -89v-64h81v-108h-81v-342h-115v523c0 125 60 188 160 188c46 0 88 -11 118 -30h102v-510c0 -51 13 -73 39 -73c19 0 34 8 48 18l24 -88c-26 -21 -65 -38 -119 -38c-69 0 -107 42 -107 134z" />
    <glyph glyph-name=".notdef" horiz-adv-x="212" 
 />
    <glyph glyph-name="space" unicode=" " horiz-adv-x="212" 
 />
    <glyph glyph-name="exclam" unicode="!" horiz-adv-x="310" 
d="M94 242v458h122v-458h-122zM78 75c0 35 30 74 80 74c43 0 73 -39 73 -74c0 -41 -30 -80 -73 -80c-50 0 -80 39 -80 80z" />
    <glyph glyph-name="quotedbl" unicode="&#x22;" horiz-adv-x="432" 
d="M249 459v241h115v-241h-115zM67 459v241h115v-241h-115z" />
    <glyph glyph-name="numbersign" unicode="#" horiz-adv-x="724" 
d="M313 21l59 159h-153l-71 -191l-89 31l59 160h-78v100h115l52 140h-167v100h205l71 191l89 -32l-59 -159h151l71 191l89 -31l-59 -160h86v-100h-123l-52 -140h175v-100h-212l-70 -191zM308 420l-52 -140h153l51 140h-152z" />
    <glyph glyph-name="dollar" unicode="$" 
d="M398 186c0 138 -317 104 -317 332c0 88 63 165 165 187v85h115v-83c62 -10 113 -35 146 -71l-66 -92c-34 33 -68 52 -124 52c-71 0 -106 -31 -106 -77c0 -145 317 -99 317 -332c0 -100 -68 -172 -167 -192v-95h-115v94c-74 12 -146 48 -173 105l70 84
c41 -53 107 -79 161 -79c58 0 94 29 94 82z" />
    <glyph glyph-name="percent" unicode="%" horiz-adv-x="911" 
d="M170 35l505 676l65 -49l-504 -673zM37 531c0 108 83 178 197 178s197 -70 197 -178c0 -107 -83 -179 -197 -179s-197 72 -197 179zM145 531c0 -53 40 -86 89 -86c52 0 90 33 90 86c0 52 -39 85 -90 85c-50 0 -89 -33 -89 -85zM479 169c0 108 83 178 197 178
s197 -70 197 -178c0 -107 -83 -179 -197 -179s-197 72 -197 179zM587 169c0 -53 40 -86 89 -86c52 0 90 33 90 86c0 52 -39 85 -90 85c-50 0 -89 -33 -89 -85z" />
    <glyph glyph-name="ampersand" unicode="&#x26;" horiz-adv-x="753" 
d="M560 0l-59 73c-39 -43 -100 -84 -206 -84c-142 0 -235 85 -235 201c0 117 72 177 155 235c-48 23 -80 68 -80 134c0 95 79 152 166 152s166 -57 166 -152c0 -62 -41 -119 -90 -135l136 -177c24 47 47 113 47 203h114c0 -111 -35 -219 -92 -295l121 -155h-143zM299 104
c62 0 105 23 133 61l-142 194c-67 -54 -100 -93 -100 -146c0 -61 48 -109 109 -109zM242 559c0 -31 25 -58 59 -58s59 27 59 58c0 33 -27 59 -59 59c-33 0 -59 -25 -59 -59z" />
    <glyph glyph-name="quotesingle" unicode="'" horiz-adv-x="250" 
d="M67 459v241h115v-241h-115z" />
    <glyph glyph-name="parenleft" unicode="(" horiz-adv-x="315" 
d="M315 -143l-73 -63c-152 131 -202 284 -202 431s50 293 203 431l71 -63c-109 -108 -159 -221 -159 -368s66 -281 160 -368z" />
    <glyph glyph-name="parenright" unicode=")" horiz-adv-x="315" 
d="M73 -206l-73 63c94 87 160 221 160 368s-50 260 -159 368l71 63c153 -138 203 -284 203 -431s-50 -300 -202 -431z" />
    <glyph glyph-name="asterisk" unicode="*" horiz-adv-x="540" 
d="M199 638c0 39 32 72 73 72c39 0 72 -33 72 -72c0 -41 -33 -73 -72 -73c-41 0 -73 32 -73 73zM197 332c0 40 32 74 72 74c39 0 72 -34 72 -74c0 -39 -33 -71 -72 -71c-40 0 -72 32 -72 71zM339 568c0 39 34 73 73 73c40 0 73 -34 73 -73c0 -40 -33 -72 -73 -72
c-39 0 -73 32 -73 72zM339 405c0 40 34 74 73 74c40 0 73 -34 73 -74c0 -39 -33 -71 -73 -71c-39 0 -73 32 -73 71zM55 405c0 40 33 74 72 74c41 0 74 -34 74 -74c0 -39 -33 -71 -74 -71c-39 0 -72 32 -72 71zM55 568c0 39 33 73 72 73c41 0 74 -34 74 -73
c0 -40 -33 -72 -74 -72c-39 0 -72 32 -72 72z" />
    <glyph glyph-name="plus" unicode="+" 
d="M66 310v100h177v181h108v-181h179v-100h-179v-183h-108v183h-177z" />
    <glyph glyph-name="comma" unicode="," horiz-adv-x="252" 
d="M47 64c0 42 27 73 77 73c54 0 88 -47 88 -112c0 -85 -48 -147 -127 -170l-31 54c25 9 47 22 61 53c9 19 13 36 9 46c-6 -8 -18 -8 -26 -8c-26 0 -51 27 -51 64z" />
    <glyph glyph-name="hyphen" unicode="-" horiz-adv-x="376" 
d="M62 220v107h252v-107h-252z" />
    <glyph glyph-name="period" unicode="." horiz-adv-x="243" 
d="M45 75c0 35 30 74 80 74c43 0 73 -39 73 -74c0 -41 -30 -80 -73 -80c-50 0 -80 39 -80 80z" />
    <glyph glyph-name="slash" unicode="/" horiz-adv-x="359" 
d="M-30 -175l330 886l89 -33l-330 -886z" />
    <glyph glyph-name="zero" unicode="0" horiz-adv-x="554" 
d="M42 350c0 214 74 358 235 358c160 0 234 -144 234 -358s-72 -358 -232 -358c-161 0 -237 144 -237 358zM165 350c0 -171 39 -251 114 -251c80 0 110 78 110 251s-32 250 -112 250c-79 0 -112 -81 -112 -250z" />
    <glyph glyph-name="one" unicode="1" horiz-adv-x="389" 
d="M22 568l179 134h83v-702h-115v538l-86 -65z" />
    <glyph glyph-name="two" unicode="2" horiz-adv-x="524" 
d="M37 0v92c114 112 291 274 291 410c0 56 -31 91 -89 91c-50 0 -86 -35 -101 -94l-96 43c19 102 99 166 210 166c133 0 198 -90 198 -183c0 -196 -209 -373 -264 -418h291v-107h-440z" />
    <glyph glyph-name="three" unicode="3" horiz-adv-x="530" 
d="M244 -11c-107 0 -185 47 -222 118l65 84c35 -52 89 -87 150 -87c75 0 113 44 113 97c0 64 -49 99 -130 99h-50v115h45c57 0 108 36 108 96c0 50 -29 85 -89 85c-56 0 -97 -24 -132 -75l-64 81c38 71 111 109 207 109c120 0 201 -68 201 -178c0 -79 -36 -135 -107 -166v-3
c87 -15 134 -84 134 -167c0 -129 -100 -208 -229 -208z" />
    <glyph glyph-name="four" unicode="4" horiz-adv-x="565" 
d="M335 0v162h-320v85l270 453h132l-253 -423h171v173h115v-173h90v-115h-90v-162h-115z" />
    <glyph glyph-name="five" unicode="5" horiz-adv-x="514" 
d="M81 328l46 372h331v-115h-230l-20 -139c11 2 26 4 40 4c124 0 220 -85 220 -223c0 -151 -108 -238 -241 -238c-75 0 -162 34 -205 100l66 87c30 -44 89 -72 142 -72c67 0 115 49 115 118c0 70 -55 124 -149 124c-45 0 -94 -9 -115 -18z" />
    <glyph glyph-name="six" unicode="6" horiz-adv-x="559" 
d="M45 248c0 257 191 425 344 463l47 -87c-114 -34 -219 -121 -255 -256c29 40 74 65 144 65c107 0 196 -86 196 -214c0 -147 -114 -230 -226 -230c-156 0 -250 118 -250 259zM167 247c0 -80 45 -143 129 -143c64 0 103 51 103 107c0 64 -39 115 -113 115
c-63 0 -101 -41 -119 -79z" />
    <glyph glyph-name="seven" unicode="7" horiz-adv-x="497" 
d="M25 585v115h440v-77l-248 -623h-126l236 585h-302z" />
    <glyph glyph-name="eight" unicode="8" horiz-adv-x="600" 
d="M291 417h19c53 0 90 43 90 90c0 57 -42 89 -102 89s-99 -37 -99 -89c0 -47 37 -90 92 -90zM310 302h-17c-59 0 -113 -37 -113 -99c0 -55 44 -99 119 -99c83 0 122 43 121 99c-1 65 -49 99 -110 99zM300 -11c-136 0 -243 73 -243 192c0 90 52 154 120 177v3
c-54 23 -100 84 -100 166c0 110 99 184 222 184c124 0 224 -74 224 -184c0 -68 -40 -136 -108 -165v-3c69 -14 127 -77 127 -168c0 -129 -106 -202 -242 -202z" />
    <glyph glyph-name="nine" unicode="9" horiz-adv-x="555" 
d="M510 444c0 -269 -159 -431 -359 -455l-38 91c144 29 233 114 261 244c-29 -40 -74 -63 -133 -63c-118 0 -211 93 -211 217c0 147 120 233 232 233c156 0 248 -111 248 -267zM388 445c0 80 -42 151 -126 151c-65 0 -110 -54 -110 -110c0 -61 43 -117 117 -117
c63 0 101 38 119 76z" />
    <glyph glyph-name="colon" unicode=":" horiz-adv-x="318" 
d="M82 387c0 35 30 74 80 74c43 0 73 -39 73 -74c0 -41 -30 -80 -73 -80c-50 0 -80 39 -80 80zM82 75c0 35 30 74 80 74c43 0 73 -39 73 -74c0 -41 -30 -80 -73 -80c-50 0 -80 39 -80 80z" />
    <glyph glyph-name="semicolon" unicode=";" horiz-adv-x="324" 
d="M82 387c0 35 30 74 80 74c43 0 73 -39 73 -74c0 -41 -30 -80 -73 -80c-50 0 -80 39 -80 80zM83 64c0 42 27 73 77 73c54 0 88 -47 88 -112c0 -85 -48 -147 -127 -170l-31 54c25 9 47 22 61 53c9 19 13 36 9 46c-6 -8 -18 -8 -26 -8c-26 0 -51 27 -51 64z" />
    <glyph glyph-name="less" unicode="&#x3c;" 
d="M513 66l-464 271v49l464 269v-124l-306 -169l306 -171v-125z" />
    <glyph glyph-name="equal" unicode="=" 
d="M66 405v100h464v-100h-464zM66 215v100h464v-100h-464z" />
    <glyph glyph-name="greater" unicode="&#x3e;" 
d="M547 337l-465 -271v125l307 171l-307 169v124l465 -269v-49z" />
    <glyph glyph-name="question" unicode="?" horiz-adv-x="473" 
d="M325 510c0 47 -40 86 -94 86c-55 0 -91 -22 -123 -64l-68 77c36 58 108 102 198 102c133 0 210 -80 210 -176c0 -196 -202 -191 -181 -317l-105 -1c-29 176 163 161 163 293zM140 75c0 35 30 74 79 74c44 0 74 -39 74 -74c0 -41 -30 -80 -74 -80c-49 0 -79 39 -79 80z
" />
    <glyph glyph-name="at" unicode="@" horiz-adv-x="996" 
d="M599 0v36c-30 -28 -74 -47 -124 -47c-135 0 -221 95 -221 236c0 131 106 236 258 236c77 0 154 -24 202 -54v-300h20c55 0 97 64 97 166c0 155 -123 285 -323 285c-188 0 -343 -126 -343 -333c0 -195 154 -333 343 -333c38 0 74 4 108 12l5 -107c-36 -8 -74 -13 -113 -13
c-259 0 -451 185 -451 441c0 246 192 440 451 440c244 0 430 -155 430 -392c0 -136 -76 -268 -224 -273h-115zM496 96c41 0 80 22 103 47v188c-27 13 -56 22 -88 22c-88 0 -134 -62 -134 -133c0 -79 49 -124 119 -124z" />
    <glyph glyph-name="A" unicode="A" horiz-adv-x="715" 
d="M7 0l296 702h108l296 -702h-131l-73 179h-299l-73 -179h-124zM354 543l-103 -249h205z" />
    <glyph glyph-name="B" unicode="B" horiz-adv-x="617" 
d="M97 1v697c39 2 132 5 202 5c167 0 230 -76 230 -173c0 -80 -40 -131 -100 -159v-2c69 -17 123 -70 123 -163c0 -144 -112 -210 -260 -210c-64 0 -154 2 -195 5zM307 301h-87v-185c17 -2 46 -5 81 -5c83 0 128 35 128 101c0 59 -45 89 -122 89zM297 588
c-28 0 -55 -1 -77 -3v-177h83c57 0 104 29 104 93c0 57 -44 87 -110 87z" />
    <glyph glyph-name="C" unicode="C" horiz-adv-x="655" 
d="M583 160l47 -92c-44 -47 -133 -79 -224 -79c-214 0 -361 143 -361 361c0 201 127 361 358 361c91 0 167 -29 213 -71l-55 -91c-42 28 -88 47 -158 47c-130 0 -228 -94 -228 -246c0 -146 99 -246 242 -246c59 0 118 19 166 56z" />
    <glyph glyph-name="D" unicode="D" horiz-adv-x="741" 
d="M97 0v700h13c42 0 142 3 193 3c280 0 393 -161 393 -346c0 -197 -134 -359 -401 -359c-42 0 -120 2 -184 2h-14zM301 588c-29 0 -53 -1 -81 -3v-470c34 -2 62 -2 79 -2c169 0 267 96 267 244c0 141 -98 231 -265 231z" />
    <glyph glyph-name="E" unicode="E" horiz-adv-x="575" 
d="M97 0v700h405v-115h-282v-174h252v-115h-252v-181h292v-115h-415z" />
    <glyph glyph-name="F" unicode="F" horiz-adv-x="537" 
d="M97 0v700h400v-115h-277v-198h247v-115h-247v-272h-123z" />
    <glyph glyph-name="G" unicode="G" horiz-adv-x="727" 
d="M388 262v115h284v-290c-62 -62 -175 -98 -262 -98c-229 0 -365 143 -365 361c0 201 135 361 349 361c100 0 168 -26 225 -71l-52 -98c-35 33 -97 54 -158 54c-135 0 -234 -90 -234 -246c0 -149 95 -246 237 -246c54 0 119 23 145 48v110h-169z" />
    <glyph glyph-name="H" unicode="H" horiz-adv-x="759" 
d="M540 0v299h-320v-299h-123v700h123v-286h320v286h122v-700h-122z" />
    <glyph glyph-name="I" unicode="I" horiz-adv-x="347" 
d="M112 0v700h123v-700h-123z" />
    <glyph glyph-name="J" unicode="J" horiz-adv-x="390" 
d="M293 700v-535c0 -112 -55 -176 -169 -176c-53 0 -101 22 -119 43l40 94c16 -12 40 -22 62 -22c45 0 63 32 63 82v514h123z" />
    <glyph glyph-name="K" unicode="K" horiz-adv-x="672" 
d="M97 0v700h123v-332l276 332h148l-288 -326l306 -374h-156l-286 361v-361h-123z" />
    <glyph glyph-name="L" unicode="L" horiz-adv-x="547" 
d="M97 0v700h123v-585h315v-115h-438z" />
    <glyph glyph-name="M" unicode="M" horiz-adv-x="901" 
d="M97 0v700h124l239 -327l228 327h116v-700h-122v506l-221 -311h-18l-223 308v-503h-123z" />
    <glyph glyph-name="N" unicode="N" horiz-adv-x="792" 
d="M695 0h-98l-385 485v-485h-115v700h98l385 -487v487h115v-700z" />
    <glyph glyph-name="O" unicode="O" horiz-adv-x="819" 
d="M45 350c0 203 149 361 364 361c208 0 365 -143 365 -361c0 -210 -157 -361 -365 -361s-364 143 -364 361zM175 350c0 -140 103 -246 234 -246c147 0 235 108 235 246c0 145 -103 246 -235 246c-134 0 -234 -101 -234 -246z" />
    <glyph glyph-name="P" unicode="P" horiz-adv-x="612" 
d="M220 0h-123v700c39 0 150 2 199 2c206 0 271 -110 271 -225c0 -119 -89 -227 -256 -227c-21 0 -61 0 -91 3v-253zM308 587c-25 0 -55 -1 -88 -2v-215c29 -3 59 -5 87 -5c73 0 130 35 130 113c0 73 -45 109 -129 109z" />
    <glyph glyph-name="Q" unicode="Q" horiz-adv-x="819" 
d="M45 350c0 203 149 361 364 361c208 0 365 -143 365 -361c0 -100 -36 -187 -96 -250l86 -100h-143l-29 33c-53 -29 -115 -44 -183 -44c-208 0 -364 143 -364 361zM175 350c0 -140 103 -246 234 -246c39 0 74 8 105 22l-59 69l80 72l62 -73c30 42 47 96 47 156
c0 145 -103 246 -235 246c-134 0 -234 -101 -234 -246z" />
    <glyph glyph-name="R" unicode="R" horiz-adv-x="658" 
d="M220 0h-123v700c39 0 193 2 213 2c191 0 254 -95 254 -216c0 -120 -77 -180 -135 -200l219 -286h-149l-193 262h-86v-262zM304 587c-23 0 -51 -1 -84 -2v-208h80c71 0 134 36 134 108c0 55 -30 102 -130 102z" />
    <glyph glyph-name="S" unicode="S" horiz-adv-x="553" 
d="M378 186c0 138 -317 104 -317 332c0 105 82 193 218 193c86 0 158 -29 200 -75l-66 -92c-34 33 -68 52 -124 52c-61 0 -98 -31 -98 -77c0 -145 317 -99 317 -332c0 -118 -103 -198 -234 -198c-90 0 -195 39 -229 110l70 84c41 -53 107 -79 161 -79c58 0 102 29 102 82z
" />
    <glyph glyph-name="T" unicode="T" horiz-adv-x="597" 
d="M10 585v115h577v-115h-227v-585h-123v585h-227z" />
    <glyph glyph-name="U" unicode="U" horiz-adv-x="751" 
d="M663 700v-410c0 -214 -131 -301 -278 -301c-174 0 -298 103 -298 308v403h123v-377c0 -131 54 -219 175 -219c106 0 156 75 156 211v385h122z" />
    <glyph glyph-name="V" unicode="V" horiz-adv-x="656" 
d="M658 700l-280 -702h-93l-288 702h131l208 -519l199 519h123z" />
    <glyph glyph-name="W" unicode="W" horiz-adv-x="985" 
d="M980 700l-200 -700h-115l-169 506l-166 -506h-116l-209 700h138l141 -499l156 499h122l160 -500l140 500h118z" />
    <glyph glyph-name="X" unicode="X" horiz-adv-x="669" 
d="M650 700l-236 -343l245 -357h-144l-181 263l-180 -263h-144l245 357l-234 343h144l172 -253l169 253h144z" />
    <glyph glyph-name="Y" unicode="Y" horiz-adv-x="629" 
d="M624 700l-249 -408v-292h-123v292l-247 408h140l174 -293l172 293h133z" />
    <glyph glyph-name="Z" unicode="Z" horiz-adv-x="642" 
d="M60 585v115h532v-85l-388 -500h398v-115h-562v84l387 501h-367z" />
    <glyph glyph-name="bracketleft" unicode="[" horiz-adv-x="350" 
d="M60 -200v850h275v-108h-160v-635h160v-107h-275z" />
    <glyph glyph-name="backslash" unicode="\" horiz-adv-x="359" 
d="M58 711l331 -886l-90 -33l-329 886z" />
    <glyph glyph-name="bracketright" unicode="]" horiz-adv-x="350" 
d="M290 650v-850h-275v107h160v635h-160v108h275z" />
    <glyph glyph-name="asciicircum" unicode="^" horiz-adv-x="507" 
d="M30 450l185 258h79l183 -258h-125l-98 143l-100 -143h-124z" />
    <glyph glyph-name="underscore" unicode="_" horiz-adv-x="344" 
d="M0 -200v115h344v-115h-344z" />
    <glyph glyph-name="grave" unicode="`" horiz-adv-x="315" 
d="M187 517l-127 143l91 68l104 -163z" />
    <glyph glyph-name="a" unicode="a" horiz-adv-x="463" 
d="M99 334l-29 84c39 23 100 43 159 43c133 0 180 -68 180 -187v-274h-100v52c-24 -34 -72 -58 -133 -58c-82 0 -141 51 -141 138c0 99 73 146 164 146c40 0 80 -13 102 -29c3 75 -17 116 -84 116c-52 0 -85 -16 -118 -31zM214 91c48 0 73 21 87 41v46c-20 15 -46 22 -79 22
c-38 0 -72 -18 -72 -56c0 -34 28 -53 64 -53z" />
    <glyph glyph-name="b" unicode="b" horiz-adv-x="548" 
d="M64 39v661h115v-278c28 22 71 39 119 39c134 0 214 -96 214 -229c0 -148 -99 -243 -257 -243c-74 0 -150 24 -191 50zM271 353c-40 0 -73 -21 -92 -43v-191c25 -16 50 -23 82 -23c72 0 128 47 128 128c0 86 -53 129 -118 129z" />
    <glyph glyph-name="c" unicode="c" horiz-adv-x="487" 
d="M405 151l54 -84c-38 -51 -106 -78 -179 -78c-146 0 -244 94 -244 236c0 131 96 236 233 236c74 0 139 -19 181 -61l-54 -91c-34 33 -71 44 -112 44c-64 0 -125 -49 -125 -128c0 -80 62 -129 130 -129c49 0 87 23 116 55z" />
    <glyph glyph-name="d" unicode="d" horiz-adv-x="556" 
d="M377 0v47c-30 -32 -71 -55 -129 -55c-129 0 -212 91 -212 228c0 142 102 241 247 241c40 0 69 -7 94 -22v261h115v-700h-115zM272 99c42 0 79 20 105 46v181c-29 18 -58 27 -89 27c-68 0 -129 -46 -129 -129c0 -80 52 -125 113 -125z" />
    <glyph glyph-name="e" unicode="e" horiz-adv-x="516" 
d="M417 126l33 -81c-45 -38 -109 -56 -172 -56c-145 0 -242 94 -242 236c0 131 90 236 238 236c116 0 213 -83 213 -209c0 -28 -2 -45 -7 -62h-325c10 -68 64 -105 135 -105c55 0 101 20 127 41zM269 365c-69 0 -106 -39 -118 -98h221c1 55 -37 98 -103 98z" />
    <glyph glyph-name="f" unicode="f" horiz-adv-x="325" 
d="M69 0v523c0 125 60 188 160 188c54 0 103 -18 126 -42l-39 -88c-15 15 -40 22 -66 22c-39 0 -66 -27 -66 -89v-64h122v-108h-122v-342h-115z" />
    <glyph glyph-name="g" unicode="g" horiz-adv-x="499" 
d="M5 -61c0 75 60 121 146 139c-5 9 -8 21 -8 31c0 11 3 23 10 32c-68 27 -107 85 -107 151c0 90 73 169 192 169c45 0 84 -12 115 -32l136 30l4 -92l-75 -17c7 -18 11 -38 11 -58c0 -90 -75 -166 -191 -166h-8c-2 -6 -2 -12 -2 -17c0 -8 2 -16 6 -23h5
c131 0 234 -46 234 -147s-103 -147 -234 -147s-234 44 -234 147zM112 -61c0 -35 49 -55 127 -55s126 19 126 55c0 33 -43 55 -126 55c-82 0 -127 -22 -127 -55zM154 292c0 -42 32 -73 84 -73c49 0 84 28 84 73c0 42 -30 76 -84 76c-52 0 -84 -35 -84 -76z" />
    <glyph glyph-name="h" unicode="h" horiz-adv-x="546" 
d="M64 0v700h115v-291c29 28 77 49 129 49c110 0 185 -56 185 -197v-261h-115v246c0 67 -37 104 -100 104c-37 0 -73 -15 -99 -41v-309h-115z" />
    <glyph glyph-name="i" unicode="i" horiz-adv-x="277" 
d="M81 0v450h115v-450h-115zM69 612c0 41 33 67 72 67c33 0 66 -26 66 -67c0 -46 -33 -72 -66 -72c-39 0 -72 26 -72 72z" />
    <glyph glyph-name="j" unicode="j" horiz-adv-x="284" 
d="M202 450v-483c0 -110 -41 -175 -141 -175c-48 0 -91 15 -110 32l31 91c16 -10 31 -16 51 -16c40 0 54 31 54 78v473h115zM76 612c0 41 33 67 72 67c33 0 66 -26 66 -67c0 -46 -33 -72 -66 -72c-39 0 -72 26 -72 72z" />
    <glyph glyph-name="k" unicode="k" horiz-adv-x="514" 
d="M487 450l-169 -206l189 -244h-148l-178 235l161 215h145zM64 0v700h115v-700h-115z" />
    <glyph glyph-name="l" unicode="l" horiz-adv-x="299" 
d="M64 124v576h115v-529c0 -51 12 -73 39 -73c18 0 33 8 47 18l24 -88c-26 -21 -65 -38 -119 -38c-69 0 -106 42 -106 134z" />
    <glyph glyph-name="m" unicode="m" horiz-adv-x="800" 
d="M747 294v-294h-115v264c0 56 -23 86 -77 86c-43 0 -77 -21 -93 -52c0 -7 1 -23 1 -33v-265h-115v272c0 47 -26 78 -75 78c-41 0 -74 -18 -94 -48v-302h-115v450h115v-50c32 36 85 58 141 58c69 0 115 -31 131 -72c32 42 82 72 152 72c82 0 144 -41 144 -164z" />
    <glyph glyph-name="n" unicode="n" horiz-adv-x="546" 
d="M64 0v450h115v-45c27 29 75 53 129 53c110 0 185 -53 185 -194v-264h-115v244c0 72 -37 106 -101 106c-39 0 -71 -16 -98 -43v-307h-115z" />
    <glyph glyph-name="o" unicode="o" horiz-adv-x="562" 
d="M36 225c0 135 96 236 245 236s245 -101 245 -236s-96 -236 -245 -236s-245 101 -245 236zM159 225c0 -75 52 -129 122 -129c71 0 123 51 123 129c0 76 -53 128 -123 128c-68 0 -122 -50 -122 -128z" />
    <glyph glyph-name="p" unicode="p" horiz-adv-x="558" 
d="M64 -200v650h115v-43c28 30 81 54 139 54c124 0 204 -96 204 -229c0 -137 -94 -243 -238 -243c-40 0 -79 7 -105 22v-211h-115zM282 353c-39 0 -75 -18 -103 -49v-182c31 -20 57 -26 95 -26c80 0 126 58 126 133c0 72 -42 124 -118 124z" />
    <glyph glyph-name="q" unicode="q" horiz-adv-x="559" 
d="M381 -200v223c-34 -22 -75 -34 -111 -34c-144 0 -234 94 -234 236c0 131 106 236 258 236c77 0 154 -24 202 -54v-607h-115zM285 96c36 0 74 17 96 41v194c-27 13 -56 22 -88 22c-88 0 -134 -62 -134 -133s49 -124 126 -124z" />
    <glyph glyph-name="r" unicode="r" horiz-adv-x="354" 
d="M64 0v450h115v-44c21 29 49 52 103 52c37 0 55 -6 70 -17l-41 -108c-22 13 -34 17 -58 17c-40 0 -61 -22 -74 -48v-302h-115z" />
    <glyph glyph-name="s" unicode="s" horiz-adv-x="444" 
d="M292 127c0 73 -243 33 -243 197c0 88 72 137 165 137c87 0 143 -31 171 -57l-43 -82c-27 21 -74 43 -122 43c-35 0 -56 -19 -56 -39c0 -75 243 -34 243 -193c0 -89 -72 -144 -182 -144c-83 0 -167 45 -188 77l56 75c27 -29 95 -56 140 -56c33 0 59 14 59 42z" />
    <glyph glyph-name="t" unicode="t" horiz-adv-x="360" 
d="M54 171v404h115v-125h145v-108h-145v-164c0 -49 16 -81 54 -81c31 0 53 14 69 26l35 -89c-27 -22 -75 -44 -133 -44c-102 0 -140 66 -140 181z" />
    <glyph glyph-name="u" unicode="u" horiz-adv-x="535" 
d="M471 450v-450h-115v55c-27 -33 -74 -66 -144 -66c-88 0 -158 57 -158 186v275h115v-251c0 -60 23 -103 86 -103c38 0 75 21 101 55v299h115z" />
    <glyph glyph-name="v" unicode="v" horiz-adv-x="481" 
d="M483 450l-194 -452h-85l-207 452h137l83 -193c12 -27 26 -67 34 -102c8 34 21 75 33 104l78 191h121z" />
    <glyph glyph-name="w" unicode="w" horiz-adv-x="721" 
d="M716 450l-142 -452h-103l-96 250c-7 17 -10 36 -15 53c-4 -20 -9 -37 -16 -55l-95 -248h-98l-146 452h123l72 -245c7 -22 9 -39 13 -60c5 19 8 35 17 60l84 245h102l87 -244c7 -20 12 -41 17 -62c4 21 9 43 14 65l66 241h116z" />
    <glyph glyph-name="x" unicode="x" horiz-adv-x="522" 
d="M494 450l-150 -215l160 -235h-140l-105 162l-109 -162h-133l160 229l-150 221h141l95 -149l98 149h133z" />
    <glyph glyph-name="y" unicode="y" horiz-adv-x="503" 
d="M498 450l-177 -450c-66 -161 -108 -200 -174 -200c-41 0 -71 16 -97 35l37 87c12 -7 29 -16 47 -16c29 0 50 23 69 70l10 24l-208 450h138l105 -246c9 -22 15 -43 22 -65c4 21 8 43 16 66l81 245h131z" />
    <glyph glyph-name="z" unicode="z" horiz-adv-x="490" 
d="M57 342v108h390v-83l-244 -260h239v-107h-400v83l244 259h-229z" />
    <glyph glyph-name="braceleft" unicode="{" horiz-adv-x="362" 
d="M110 -54v131c0 79 -50 99 -90 98v100c36 0 90 21 90 110v112c0 102 40 153 157 153h75v-108h-46c-53 0 -71 -19 -71 -85v-117c0 -65 -30 -108 -75 -114c42 -5 75 -37 75 -114v-119c0 -61 21 -86 77 -86h40v-107h-82c-96 0 -150 39 -150 146z" />
    <glyph glyph-name="bar" unicode="|" horiz-adv-x="340" 
d="M112 0v700h115v-700h-115z" />
    <glyph glyph-name="braceright" unicode="}" horiz-adv-x="362" 
d="M252 77v-131c0 -107 -54 -146 -149 -146h-83v107h40c56 0 77 25 77 86v119c0 77 33 109 75 114c-45 6 -75 49 -75 114v117c0 66 -18 85 -71 85h-46v108h75c118 0 157 -51 157 -153v-112c0 -89 54 -110 90 -110v-100c-40 1 -90 -19 -90 -98z" />
    <glyph glyph-name="asciitilde" unicode="~" 
d="M92 288l-50 74c42 48 96 80 146 80c82 0 155 -68 233 -68c31 0 66 20 88 45l45 -79c-38 -36 -88 -66 -134 -66c-80 0 -155 68 -225 68c-42 0 -78 -29 -103 -54z" />
    <glyph glyph-name="uni00A0" unicode="&#xa0;" horiz-adv-x="212" 
 />
    <glyph glyph-name="exclamdown" unicode="&#xa1;" horiz-adv-x="310" 
d="M216 214v-458h-122v458h122zM232 381c0 -35 -30 -74 -80 -74c-43 0 -73 39 -73 74c0 41 30 80 73 80c50 0 80 -39 80 -80z" />
    <glyph glyph-name="cent" unicode="&#xa2;" 
d="M456 151l54 -84c-30 -40 -78 -65 -132 -74v-113h-115v117c-108 24 -176 109 -176 228c0 112 70 205 176 229v110h115v-107c49 -8 92 -27 123 -57l-54 -91c-34 33 -71 44 -112 44c-64 0 -125 -49 -125 -128c0 -80 62 -129 130 -129c49 0 87 23 116 55z" />
    <glyph glyph-name="sterling" unicode="&#xa3;" 
d="M68 265v92h80c-22 47 -53 90 -53 158c0 109 92 193 226 193c88 0 152 -31 196 -79l-63 -90c-40 37 -78 54 -128 54c-60 0 -101 -38 -101 -87c0 -61 38 -94 57 -149h150v-92h-140c-6 -44 -30 -79 -55 -108c60 -14 117 -46 176 -46c37 0 69 8 108 45l51 -90
c-43 -44 -101 -70 -161 -70c-77 0 -151 52 -228 52c-39 0 -74 -23 -106 -55l-46 92c28 33 60 55 94 67c26 34 46 70 47 113h-104z" />
    <glyph glyph-name="currency" unicode="&#xa4;" 
d="M68 342c0 45 12 89 35 125l-77 79l70 70l78 -79c34 20 76 32 124 32s89 -12 123 -32l81 80l70 -70l-79 -79c23 -37 36 -81 36 -126c0 -44 -12 -88 -35 -124l77 -76l-71 -71l-77 77c-34 -21 -76 -33 -125 -33s-91 12 -125 33l-79 -80l-71 71l79 79c-23 37 -34 80 -34 124z
M175 342c0 -69 46 -127 123 -127c81 0 123 58 123 127c0 75 -46 127 -123 127c-75 0 -123 -52 -123 -127z" />
    <glyph glyph-name="yen" unicode="&#xa5;" 
d="M66 292v93h118l-173 315h140l151 -293l150 293h133l-176 -315h121v-93h-172v-82h172v-93h-172v-117h-122v117h-170v93h170v82h-170z" />
    <glyph glyph-name="brokenbar" unicode="&#xa6;" horiz-adv-x="340" 
d="M227 440h-115v260h115v-260zM112 260h115v-260h-115v260z" />
    <glyph glyph-name="section" unicode="&#xa7;" horiz-adv-x="524" 
d="M57 249c0 79 43 146 122 173c-41 26 -72 73 -72 135c0 76 59 143 171 143c65 0 114 -31 144 -70l-69 -77c-19 21 -37 39 -71 39c-32 0 -60 -26 -60 -58c0 -45 29 -76 72 -101c112 -13 172 -89 172 -184c0 -79 -42 -146 -121 -173c40 -27 69 -73 69 -133
c0 -77 -59 -143 -171 -143c-64 0 -113 31 -143 70l69 77c19 -21 37 -40 70 -40s60 27 60 59c0 46 -27 74 -71 99c-111 13 -171 90 -171 184zM172 249c0 -41 31 -86 90 -86c62 0 89 44 89 86s-30 86 -89 86c-58 0 -90 -44 -90 -86z" />
    <glyph glyph-name="dieresis" unicode="&#xa8;" horiz-adv-x="443" 
d="M60 599c0 40 30 64 65 64c30 0 60 -24 60 -64c0 -43 -30 -67 -60 -67c-35 0 -65 24 -65 67zM259 599c0 40 30 64 64 64c31 0 60 -24 60 -64c0 -43 -29 -67 -60 -67c-34 0 -64 24 -64 67z" />
    <glyph glyph-name="copyright" unicode="&#xa9;" horiz-adv-x="1018" 
d="M72 221c0 244 190 436 437 436s436 -192 436 -436c0 -245 -189 -437 -436 -437s-437 192 -437 437zM172 220c0 -184 143 -336 338 -336c193 0 335 152 335 336c0 186 -142 337 -335 337c-195 0 -338 -151 -338 -337zM641 151l54 -84c-38 -51 -106 -78 -179 -78
c-146 0 -244 94 -244 236c0 131 96 236 233 236c74 0 139 -19 181 -61l-54 -91c-34 33 -71 44 -112 44c-64 0 -125 -49 -125 -128c0 -80 62 -129 130 -129c49 0 87 23 116 55z" />
    <glyph glyph-name="ordfeminine" unicode="&#xaa;" horiz-adv-x="445" 
d="M121 553l-40 67c31 19 74 38 146 38c78 0 153 -42 153 -136v-215h-100v43c-24 -28 -56 -48 -124 -48s-111 50 -111 109c0 76 48 116 129 116c43 0 77 -7 106 -21c-3 48 -31 67 -73 67c-39 0 -67 -9 -86 -20zM207 387c27 0 52 11 73 25v31c-21 8 -46 14 -71 14
c-38 0 -57 -15 -57 -35s17 -35 55 -35z" />
    <glyph glyph-name="guillemotleft" unicode="&#xab;" horiz-adv-x="561" 
d="M440 22l-193 226v4l197 226l75 -67l-139 -161l138 -163zM230 22l-193 226v4l197 226l75 -67l-139 -161l138 -163z" />
    <glyph glyph-name="logicalnot" unicode="&#xac;" 
d="M51 310v100h494v-231h-100v131h-394z" />
    <glyph glyph-name="uni00AD" unicode="&#xad;" horiz-adv-x="376" 
d="M62 220v107h252v-107h-252z" />
    <glyph glyph-name="registered" unicode="&#xae;" horiz-adv-x="663" 
d="M45 497c0 158 127 285 288 285c157 0 285 -127 285 -285c0 -161 -128 -288 -285 -288c-161 0 -288 127 -288 288zM137 496c0 -107 87 -194 194 -194s194 87 194 194s-87 194 -194 194s-194 -87 -194 -194zM298 360h-77v280h117c80 0 114 -38 114 -93
c0 -40 -25 -71 -53 -81l58 -106h-89l-43 88h-27v-88zM327 585h-29v-82h29c31 0 47 20 47 43c0 24 -15 39 -47 39z" />
    <glyph glyph-name="macron" unicode="&#xaf;" horiz-adv-x="399" 
d="M60 550v92h279v-92h-279z" />
    <glyph glyph-name="degree" unicode="&#xb0;" horiz-adv-x="425" 
d="M45 568c0 97 75 169 166 169c93 0 169 -67 169 -163c0 -95 -76 -172 -169 -172c-91 0 -166 72 -166 166zM145 570c0 -37 31 -68 67 -68c37 0 68 31 68 68s-31 67 -68 67c-36 0 -67 -30 -67 -67z" />
    <glyph glyph-name="plusminus" unicode="&#xb1;" 
d="M66 402v100h177v181h108v-181h179v-100h-179v-103h-108v103h-177zM66 155v100h464v-100h-464z" />
    <glyph glyph-name="twosuperior" unicode="&#xb2;" horiz-adv-x="363" 
d="M30 350v73c77 46 182 106 182 157c0 24 -17 39 -43 39c-28 0 -50 -26 -54 -50l-83 29c11 65 65 106 147 106c92 0 140 -46 140 -111c0 -87 -111 -138 -159 -158h175v-85h-305z" />
    <glyph glyph-name="threesuperior" unicode="&#xb3;" horiz-adv-x="361" 
d="M175 344c-67 0 -130 24 -158 74l58 53c13 -24 48 -46 83 -46c42 0 61 15 61 35c0 17 -16 32 -59 32h-30v70h28c30 0 48 14 48 34c0 17 -16 29 -45 29c-40 0 -68 -20 -85 -41l-48 55c23 35 70 67 153 67c77 0 133 -34 133 -89c0 -43 -30 -72 -77 -82v-1
c59 -4 89 -40 89 -83c0 -67 -71 -107 -151 -107z" />
    <glyph glyph-name="acute" unicode="&#xb4;" horiz-adv-x="315" 
d="M255 662l-126 -145l-69 48l105 165z" />
    <glyph glyph-name="mu" unicode="&#xb5;" horiz-adv-x="542" 
d="M478 450v-450h-115v55c-27 -33 -74 -66 -144 -66c-15 0 -30 2 -43 5v-194h-115v650h115v-260c2 -56 26 -94 86 -94c38 0 75 21 101 55v299h115z" />
    <glyph glyph-name="mu" unicode="&#x3bc;" horiz-adv-x="542" 
d="M478 450v-450h-115v55c-27 -33 -74 -66 -144 -66c-15 0 -30 2 -43 5v-194h-115v650h115v-260c2 -56 26 -94 86 -94c38 0 75 21 101 55v299h115z" />
    <glyph glyph-name="paragraph" unicode="&#xb6;" horiz-adv-x="491" 
d="M37 481c0 136 95 219 222 219h207v-108h-94v-584c0 -143 -64 -216 -187 -216c-53 0 -105 23 -130 49l45 83c16 -12 45 -25 77 -25c64 0 80 50 80 113v251c-114 1 -220 81 -220 218z" />
    <glyph glyph-name="periodcentered" unicode="&#xb7;" horiz-adv-x="212" 
d="M29 302c0 35 30 74 80 74c43 0 73 -39 73 -74c0 -41 -30 -80 -73 -80c-50 0 -80 39 -80 80z" />
    <glyph glyph-name="cedilla" unicode="&#xb8;" horiz-adv-x="378" 
d="M60 -166l34 54c18 -14 45 -26 70 -26c22 0 39 9 39 25c0 18 -11 28 -41 28h-6v85h58v-35c68 -4 104 -34 104 -85s-47 -88 -138 -88c-64 0 -97 25 -120 42z" />
    <glyph glyph-name="onesuperior" unicode="&#xb9;" horiz-adv-x="269" 
d="M16 624l113 75h72v-349h-100v234l-48 -28z" />
    <glyph glyph-name="ordmasculine" unicode="&#xba;" horiz-adv-x="499" 
d="M52 480c0 108 83 178 197 178s197 -70 197 -178c0 -107 -83 -179 -197 -179s-197 72 -197 179zM160 480c0 -53 40 -86 89 -86c52 0 90 33 90 86c0 52 -39 85 -90 85c-50 0 -89 -33 -89 -85z" />
    <glyph glyph-name="guillemotright" unicode="&#xbb;" horiz-adv-x="561" 
d="M524 248l-193 -226l-78 65l138 163l-139 161l75 67l197 -226v-4zM314 248l-193 -226l-78 65l138 163l-139 161l75 67l197 -226v-4z" />
    <glyph glyph-name="onequarter" unicode="&#xbc;" horiz-adv-x="693" 
d="M21 624l113 75h72v-349h-100v234l-48 -28zM45 35l505 676l65 -49l-504 -673zM525 0v70h-193v67l155 213h95l-148 -202h91v77h92v-77h56v-78h-56v-70h-92z" />
    <glyph glyph-name="onehalf" unicode="&#xbd;" horiz-adv-x="710" 
d="M21 624l113 75h72v-349h-100v234l-48 -28zM35 35l505 676l65 -49l-504 -673zM365 0v73c77 46 182 106 182 157c0 24 -17 39 -43 39c-28 0 -50 -26 -54 -50l-83 29c11 65 65 106 147 106c92 0 140 -46 140 -111c0 -87 -111 -138 -159 -158h175v-85h-305z" />
    <glyph glyph-name="threequarters" unicode="&#xbe;" horiz-adv-x="753" 
d="M115 35l505 676l65 -49l-504 -673zM585 0v70h-193v67l155 213h95l-148 -202h91v77h92v-77h56v-78h-56v-70h-92zM182 344c-67 0 -130 24 -158 74l58 53c13 -24 48 -46 83 -46c42 0 61 15 61 35c0 17 -16 32 -59 32h-30v70h28c30 0 48 14 48 34c0 17 -16 29 -45 29
c-40 0 -68 -20 -85 -41l-48 55c23 35 70 67 153 67c77 0 133 -34 133 -89c0 -43 -30 -72 -77 -82v-1c59 -4 89 -40 89 -83c0 -67 -71 -107 -151 -107z" />
    <glyph glyph-name="questiondown" unicode="&#xbf;" horiz-adv-x="473" 
d="M148 -54c0 -47 40 -86 94 -86c55 0 91 22 123 64l68 -77c-36 -58 -108 -102 -198 -102c-133 0 -210 80 -210 176c0 196 202 191 181 317l105 1c29 -176 -163 -161 -163 -293zM333 381c0 -35 -30 -74 -79 -74c-44 0 -74 39 -74 74c0 41 30 80 74 80c49 0 79 -39 79 -80z
" />
    <glyph glyph-name="Agrave" unicode="&#xc0;" horiz-adv-x="715" 
d="M7 0l296 702h108l296 -702h-131l-73 179h-299l-73 -179h-124zM354 543l-103 -249h205zM410 731l-225 81l43 99l214 -111z" />
    <glyph glyph-name="Aacute" unicode="&#xc1;" horiz-adv-x="715" 
d="M7 0l296 702h108l296 -702h-131l-73 179h-299l-73 -179h-124zM354 543l-103 -249h205zM529 812l-225 -81l-32 69l214 111z" />
    <glyph glyph-name="Acircumflex" unicode="&#xc2;" horiz-adv-x="715" 
d="M7 0l296 702h108l296 -702h-131l-73 179h-299l-73 -179h-124zM354 543l-103 -249h205zM178 792l175 112h4l179 -111l-45 -65l-136 71l-136 -71z" />
    <glyph glyph-name="Atilde" unicode="&#xc3;" horiz-adv-x="715" 
d="M7 0l296 702h108l296 -702h-131l-73 179h-299l-73 -179h-124zM354 543l-103 -249h205zM212 753l-36 73c29 33 73 54 112 54c60 0 89 -35 143 -35c23 0 51 5 76 32l31 -73c-28 -40 -67 -59 -115 -59c-51 0 -88 35 -145 35c-21 0 -43 -8 -66 -27z" />
    <glyph glyph-name="Adieresis" unicode="&#xc4;" horiz-adv-x="715" 
d="M7 0l296 702h108l296 -702h-131l-73 179h-299l-73 -179h-124zM354 543l-103 -249h205zM167 825c0 39 35 62 77 62c36 0 71 -23 71 -62c0 -43 -35 -66 -71 -66c-42 0 -77 23 -77 66zM399 825c0 39 35 62 77 62c37 0 71 -23 71 -62c0 -43 -34 -66 -71 -66
c-42 0 -77 23 -77 66z" />
    <glyph glyph-name="Aring" unicode="&#xc5;" horiz-adv-x="715" 
d="M216 800c0 75 62 108 139 108c79 0 143 -33 143 -108c0 -54 -35 -89 -85 -103l294 -697h-131l-73 179h-299l-73 -179h-124l294 697c-50 14 -85 48 -85 103zM354 543l-103 -249h205zM301 800c0 -32 24 -47 55 -47c32 0 57 15 57 47s-25 45 -57 45c-31 0 -55 -13 -55 -45z
" />
    <glyph glyph-name="AE" unicode="&#xc6;" horiz-adv-x="951" 
d="M473 0v181h-233l-126 -181h-142l503 700h403v-115h-282v-174h252v-115h-252v-181h292v-115h-415zM473 514l-152 -218h152v218z" />
    <glyph glyph-name="Ccedilla" unicode="&#xc7;" horiz-adv-x="655" 
d="M254 -163l37 58c17 -14 49 -33 74 -33c22 0 39 9 39 25c0 18 -11 28 -41 28h-6v77c-187 20 -312 157 -312 358s127 361 358 361c91 0 167 -29 213 -71l-55 -91c-42 28 -88 47 -158 47c-130 0 -228 -94 -228 -246c0 -146 99 -246 242 -246c59 0 118 19 166 56l47 -92
c-43 -46 -127 -77 -215 -79v-24c78 -4 111 -34 111 -85s-48 -88 -133 -88c-76 0 -117 28 -139 45z" />
    <glyph glyph-name="Egrave" unicode="&#xc8;" horiz-adv-x="575" 
d="M97 0v700h405v-115h-282v-174h252v-115h-252v-181h292v-115h-415zM362 731l-225 81l43 99l214 -111z" />
    <glyph glyph-name="Eacute" unicode="&#xc9;" horiz-adv-x="575" 
d="M97 0v700h405v-115h-282v-174h252v-115h-252v-181h292v-115h-415zM474 812l-225 -81l-32 69l214 111z" />
    <glyph glyph-name="Ecircumflex" unicode="&#xca;" horiz-adv-x="575" 
d="M97 0v700h405v-115h-282v-174h252v-115h-252v-181h292v-115h-415zM121 792l175 112h4l179 -111l-45 -65l-136 71l-136 -71z" />
    <glyph glyph-name="Edieresis" unicode="&#xcb;" horiz-adv-x="575" 
d="M97 0v700h405v-115h-282v-174h252v-115h-252v-181h292v-115h-415zM113 825c0 39 35 62 77 62c36 0 71 -23 71 -62c0 -43 -35 -66 -71 -66c-42 0 -77 23 -77 66zM345 825c0 39 35 62 77 62c37 0 71 -23 71 -62c0 -43 -34 -66 -71 -66c-42 0 -77 23 -77 66z" />
    <glyph glyph-name="Igrave" unicode="&#xcc;" horiz-adv-x="347" 
d="M112 0v700h123v-700h-123zM217 731l-225 81l43 99l214 -111z" />
    <glyph glyph-name="Iacute" unicode="&#xcd;" horiz-adv-x="347" 
d="M112 0v700h123v-700h-123zM357 812l-225 -81l-32 69l214 111z" />
    <glyph glyph-name="Icircumflex" unicode="&#xce;" horiz-adv-x="347" 
d="M112 0v700h123v-700h-123zM-6 792l175 112h4l179 -111l-45 -65l-136 71l-136 -71z" />
    <glyph glyph-name="Idieresis" unicode="&#xcf;" horiz-adv-x="347" 
d="M112 0v700h123v-700h-123zM-17 825c0 39 35 62 77 62c36 0 71 -23 71 -62c0 -43 -35 -66 -71 -66c-42 0 -77 23 -77 66zM215 825c0 39 35 62 77 62c37 0 71 -23 71 -62c0 -43 -34 -66 -71 -66c-42 0 -77 23 -77 66z" />
    <glyph glyph-name="Eth" unicode="&#xd0;" horiz-adv-x="749" 
d="M10 297v108h95v295h13c42 0 141 3 193 3c280 0 393 -161 393 -346c0 -197 -134 -359 -401 -359c-42 0 -121 2 -184 2h-14v297h-95zM309 588c-30 0 -54 -1 -82 -3v-180h177v-108h-177v-182c34 -2 63 -2 80 -2c169 0 267 96 267 244c0 141 -98 231 -265 231z" />
    <glyph glyph-name="Ntilde" unicode="&#xd1;" horiz-adv-x="792" 
d="M695 0h-98l-385 485v-485h-115v700h98l385 -487v487h115v-700zM258 753l-36 73c29 33 73 54 112 54c60 0 89 -35 143 -35c23 0 51 5 76 32l31 -73c-28 -40 -67 -59 -115 -59c-51 0 -88 35 -145 35c-21 0 -43 -8 -66 -27z" />
    <glyph glyph-name="Ograve" unicode="&#xd2;" horiz-adv-x="819" 
d="M45 350c0 203 149 361 364 361c208 0 365 -143 365 -361c0 -210 -157 -361 -365 -361s-364 143 -364 361zM175 350c0 -140 103 -246 234 -246c147 0 235 108 235 246c0 145 -103 246 -235 246c-134 0 -234 -101 -234 -246zM482 731l-225 81l43 99l214 -111z" />
    <glyph glyph-name="Oacute" unicode="&#xd3;" horiz-adv-x="819" 
d="M45 350c0 203 149 361 364 361c208 0 365 -143 365 -361c0 -210 -157 -361 -365 -361s-364 143 -364 361zM175 350c0 -140 103 -246 234 -246c147 0 235 108 235 246c0 145 -103 246 -235 246c-134 0 -234 -101 -234 -246zM589 812l-225 -81l-32 69l214 111z" />
    <glyph glyph-name="Ocircumflex" unicode="&#xd4;" horiz-adv-x="819" 
d="M45 350c0 203 149 361 364 361c208 0 365 -143 365 -361c0 -210 -157 -361 -365 -361s-364 143 -364 361zM175 350c0 -140 103 -246 234 -246c147 0 235 108 235 246c0 145 -103 246 -235 246c-134 0 -234 -101 -234 -246zM233 792l175 112h4l179 -111l-45 -65l-136 71
l-136 -71z" />
    <glyph glyph-name="Otilde" unicode="&#xd5;" horiz-adv-x="819" 
d="M45 350c0 203 149 361 364 361c208 0 365 -143 365 -361c0 -210 -157 -361 -365 -361s-364 143 -364 361zM175 350c0 -140 103 -246 234 -246c147 0 235 108 235 246c0 145 -103 246 -235 246c-134 0 -234 -101 -234 -246zM260 753l-36 73c29 33 73 54 112 54
c60 0 89 -35 143 -35c23 0 51 5 76 32l31 -73c-28 -40 -67 -59 -115 -59c-51 0 -88 35 -145 35c-21 0 -43 -8 -66 -27z" />
    <glyph glyph-name="Odieresis" unicode="&#xd6;" horiz-adv-x="819" 
d="M45 350c0 203 149 361 364 361c208 0 365 -143 365 -361c0 -210 -157 -361 -365 -361s-364 143 -364 361zM175 350c0 -140 103 -246 234 -246c147 0 235 108 235 246c0 145 -103 246 -235 246c-134 0 -234 -101 -234 -246zM216 825c0 39 35 62 77 62c36 0 71 -23 71 -62
c0 -43 -35 -66 -71 -66c-42 0 -77 23 -77 66zM448 825c0 39 35 62 77 62c37 0 71 -23 71 -62c0 -43 -34 -66 -71 -66c-42 0 -77 23 -77 66z" />
    <glyph glyph-name="multiply" unicode="&#xd7;" 
d="M99 488l71 71l128 -128l128 128l71 -71l-128 -128l129 -129l-71 -71l-129 129l-129 -129l-71 71l129 129z" />
    <glyph glyph-name="Oslash" unicode="&#xd8;" horiz-adv-x="819" 
d="M45 350c0 203 149 361 364 361c85 0 161 -25 222 -68l40 39l66 -67l-38 -37c47 -60 75 -137 75 -228c0 -210 -157 -361 -365 -361c-91 0 -172 27 -234 76l-42 -41l-67 68l43 42c-41 58 -64 131 -64 216zM644 350c0 52 -14 99 -37 137l-341 -333c39 -32 88 -50 143 -50
c147 0 235 108 235 246zM175 350c0 -45 10 -87 29 -123l338 329c-38 25 -83 40 -133 40c-134 0 -234 -101 -234 -246z" />
    <glyph glyph-name="Ugrave" unicode="&#xd9;" horiz-adv-x="751" 
d="M663 700v-410c0 -214 -131 -301 -278 -301c-174 0 -298 103 -298 308v403h123v-377c0 -131 54 -219 175 -219c106 0 156 75 156 211v385h122zM435 731l-225 81l43 99l214 -111z" />
    <glyph glyph-name="Uacute" unicode="&#xda;" horiz-adv-x="751" 
d="M663 700v-410c0 -214 -131 -301 -278 -301c-174 0 -298 103 -298 308v403h123v-377c0 -131 54 -219 175 -219c106 0 156 75 156 211v385h122zM552 812l-225 -81l-32 69l214 111z" />
    <glyph glyph-name="Ucircumflex" unicode="&#xdb;" horiz-adv-x="751" 
d="M663 700v-410c0 -214 -131 -301 -278 -301c-174 0 -298 103 -298 308v403h123v-377c0 -131 54 -219 175 -219c106 0 156 75 156 211v385h122zM195 792l175 112h4l179 -111l-45 -65l-136 71l-136 -71z" />
    <glyph glyph-name="Udieresis" unicode="&#xdc;" horiz-adv-x="751" 
d="M663 700v-410c0 -214 -131 -301 -278 -301c-174 0 -298 103 -298 308v403h123v-377c0 -131 54 -219 175 -219c106 0 156 75 156 211v385h122zM178 825c0 39 35 62 77 62c36 0 71 -23 71 -62c0 -43 -35 -66 -71 -66c-42 0 -77 23 -77 66zM410 825c0 39 35 62 77 62
c37 0 71 -23 71 -62c0 -43 -34 -66 -71 -66c-42 0 -77 23 -77 66z" />
    <glyph glyph-name="Yacute" unicode="&#xdd;" horiz-adv-x="629" 
d="M624 700l-249 -408v-292h-123v292l-247 408h140l174 -293l172 293h133zM492 812l-225 -81l-32 69l214 111z" />
    <glyph glyph-name="Thorn" unicode="&#xde;" horiz-adv-x="612" 
d="M220 0h-123v700h123v-103c16 0 60 2 76 2c206 0 271 -109 271 -224c0 -119 -89 -228 -256 -228c-21 0 -61 1 -91 4v-151zM298 484c-21 0 -59 -1 -78 -3v-214c29 -3 59 -5 87 -5c73 0 130 36 130 114c0 72 -49 108 -139 108z" />
    <glyph glyph-name="germandbls" unicode="&#xdf;" horiz-adv-x="551" 
d="M398 160c0 90 -163 103 -163 216c0 104 82 116 82 175c0 30 -28 52 -65 52c-52 0 -75 -35 -75 -113v-491h-115v501c0 148 78 211 207 211c98 0 170 -62 170 -138c0 -100 -81 -104 -81 -174c0 -96 163 -86 163 -242c0 -91 -65 -168 -159 -168c-69 0 -118 27 -146 59l37 88
c22 -22 47 -40 81 -40c36 0 64 22 64 64z" />
    <glyph glyph-name="agrave" unicode="&#xe0;" horiz-adv-x="463" 
d="M99 334l-29 84c39 23 100 43 159 43c133 0 180 -68 180 -187v-274h-100v52c-24 -34 -72 -58 -133 -58c-82 0 -141 51 -141 138c0 99 73 146 164 146c40 0 80 -13 102 -29c3 75 -17 116 -84 116c-52 0 -85 -16 -118 -31zM214 91c48 0 73 21 87 41v46c-20 15 -46 22 -79 22
c-38 0 -72 -18 -72 -56c0 -34 28 -53 64 -53zM248 517l-127 143l91 68l104 -163z" />
    <glyph glyph-name="aacute" unicode="&#xe1;" horiz-adv-x="463" 
d="M99 334l-29 84c39 23 100 43 159 43c133 0 180 -68 180 -187v-274h-100v52c-24 -34 -72 -58 -133 -58c-82 0 -141 51 -141 138c0 99 73 146 164 146c40 0 80 -13 102 -29c3 75 -17 116 -84 116c-52 0 -85 -16 -118 -31zM214 91c48 0 73 21 87 41v46c-20 15 -46 22 -79 22
c-38 0 -72 -18 -72 -56c0 -34 28 -53 64 -53zM350 662l-126 -145l-69 48l105 165z" />
    <glyph glyph-name="acircumflex" unicode="&#xe2;" horiz-adv-x="463" 
d="M99 334l-29 84c39 23 100 43 159 43c133 0 180 -68 180 -187v-274h-100v52c-24 -34 -72 -58 -133 -58c-82 0 -141 51 -141 138c0 99 73 146 164 146c40 0 80 -13 102 -29c3 75 -17 116 -84 116c-52 0 -85 -16 -118 -31zM214 91c48 0 73 21 87 41v46c-20 15 -46 22 -79 22
c-38 0 -72 -18 -72 -56c0 -34 28 -53 64 -53zM233 706l152 -134l-54 -68l-101 81l-102 -79l-52 67l153 133h4z" />
    <glyph glyph-name="atilde" unicode="&#xe3;" horiz-adv-x="463" 
d="M99 334l-29 84c39 23 100 43 159 43c133 0 180 -68 180 -187v-274h-100v52c-24 -34 -72 -58 -133 -58c-82 0 -141 51 -141 138c0 99 73 146 164 146c40 0 80 -13 102 -29c3 75 -17 116 -84 116c-52 0 -85 -16 -118 -31zM214 91c48 0 73 21 87 41v46c-20 15 -46 22 -79 22
c-38 0 -72 -18 -72 -56c0 -34 28 -53 64 -53zM102 538l-47 52c38 48 82 69 121 69c47 0 74 -42 115 -42c30 0 43 11 69 31l39 -58c-37 -41 -79 -65 -117 -65c-44 0 -72 41 -117 41c-20 0 -43 -14 -63 -28z" />
    <glyph glyph-name="adieresis" unicode="&#xe4;" horiz-adv-x="463" 
d="M99 334l-29 84c39 23 100 43 159 43c133 0 180 -68 180 -187v-274h-100v52c-24 -34 -72 -58 -133 -58c-82 0 -141 51 -141 138c0 99 73 146 164 146c40 0 80 -13 102 -29c3 75 -17 116 -84 116c-52 0 -85 -16 -118 -31zM214 91c48 0 73 21 87 41v46c-20 15 -46 22 -79 22
c-38 0 -72 -18 -72 -56c0 -34 28 -53 64 -53zM74 599c0 40 30 64 65 64c30 0 60 -24 60 -64c0 -43 -30 -67 -60 -67c-35 0 -65 24 -65 67zM273 599c0 40 30 64 64 64c31 0 60 -24 60 -64c0 -43 -29 -67 -60 -67c-34 0 -64 24 -64 67z" />
    <glyph glyph-name="aring" unicode="&#xe5;" horiz-adv-x="463" 
d="M99 334l-29 84c39 23 100 43 159 43c133 0 180 -68 180 -187v-274h-100v52c-24 -34 -72 -58 -133 -58c-82 0 -141 51 -141 138c0 99 73 146 164 146c40 0 80 -13 102 -29c3 75 -17 116 -84 116c-52 0 -85 -16 -118 -31zM214 91c48 0 73 21 87 41v46c-20 15 -46 22 -79 22
c-38 0 -72 -18 -72 -56c0 -34 28 -53 64 -53zM111 612c0 66 53 120 126 120c74 0 128 -54 128 -120c0 -65 -54 -118 -128 -118c-73 0 -126 53 -126 118zM185 613c0 -31 22 -57 54 -57c31 0 52 26 52 57s-21 56 -52 56c-32 0 -54 -25 -54 -56z" />
    <glyph glyph-name="ae" unicode="&#xe6;" horiz-adv-x="759" 
d="M229 461c65 0 109 -17 138 -47c39 29 90 47 150 47c116 0 213 -83 213 -209c0 -28 -3 -45 -7 -62h-314v-43c18 -37 64 -62 123 -62c55 0 101 20 128 41l32 -81c-46 -37 -109 -56 -169 -56c-72 0 -131 21 -173 59c-61 -48 -111 -57 -154 -57c-105 0 -161 54 -161 147
c0 86 67 140 164 140c34 0 84 -12 102 -22c7 70 -25 109 -79 109c-58 0 -90 -16 -123 -31l-29 84c39 22 100 43 159 43zM409 274v-7h206c-2 56 -38 98 -107 98c-38 0 -78 -17 -101 -57c1 -11 2 -22 2 -34zM214 91c40 0 67 20 86 38l1 57c-23 9 -49 14 -79 14
c-40 0 -72 -22 -72 -56c0 -29 22 -53 64 -53z" />
    <glyph glyph-name="ccedilla" unicode="&#xe7;" horiz-adv-x="487" 
d="M139 -166l34 54c18 -14 45 -26 70 -26c22 0 39 9 39 25c0 18 -11 28 -41 28h-6v78c-121 17 -199 105 -199 232c0 131 96 236 233 236c74 0 139 -19 181 -61l-54 -91c-34 33 -71 44 -112 44c-64 0 -125 -49 -125 -128c0 -80 62 -129 130 -129c49 0 87 23 116 55l54 -84
c-36 -48 -98 -75 -166 -78v-24c68 -4 104 -34 104 -85s-47 -88 -138 -88c-64 0 -97 25 -120 42z" />
    <glyph glyph-name="egrave" unicode="&#xe8;" horiz-adv-x="516" 
d="M417 126l33 -81c-45 -38 -109 -56 -172 -56c-145 0 -242 94 -242 236c0 131 90 236 238 236c116 0 213 -83 213 -209c0 -28 -2 -45 -7 -62h-325c10 -68 64 -105 135 -105c55 0 101 20 127 41zM269 365c-69 0 -106 -39 -118 -98h221c1 55 -37 98 -103 98zM288 517
l-127 143l91 68l104 -163z" />
    <glyph glyph-name="eacute" unicode="&#xe9;" horiz-adv-x="516" 
d="M417 126l33 -81c-45 -38 -109 -56 -172 -56c-145 0 -242 94 -242 236c0 131 90 236 238 236c116 0 213 -83 213 -209c0 -28 -2 -45 -7 -62h-325c10 -68 64 -105 135 -105c55 0 101 20 127 41zM269 365c-69 0 -106 -39 -118 -98h221c1 55 -37 98 -103 98zM400 662
l-126 -145l-69 48l105 165z" />
    <glyph glyph-name="ecircumflex" unicode="&#xea;" horiz-adv-x="516" 
d="M417 126l33 -81c-45 -38 -109 -56 -172 -56c-145 0 -242 94 -242 236c0 131 90 236 238 236c116 0 213 -83 213 -209c0 -28 -2 -45 -7 -62h-325c10 -68 64 -105 135 -105c55 0 101 20 127 41zM269 365c-69 0 -106 -39 -118 -98h221c1 55 -37 98 -103 98zM271 706
l152 -134l-54 -68l-101 81l-102 -79l-52 67l153 133h4z" />
    <glyph glyph-name="edieresis" unicode="&#xeb;" horiz-adv-x="516" 
d="M417 126l33 -81c-45 -38 -109 -56 -172 -56c-145 0 -242 94 -242 236c0 131 90 236 238 236c116 0 213 -83 213 -209c0 -28 -2 -45 -7 -62h-325c10 -68 64 -105 135 -105c55 0 101 20 127 41zM269 365c-69 0 -106 -39 -118 -98h221c1 55 -37 98 -103 98zM107 599
c0 40 30 64 65 64c30 0 60 -24 60 -64c0 -43 -30 -67 -60 -67c-35 0 -65 24 -65 67zM306 599c0 40 30 64 64 64c31 0 60 -24 60 -64c0 -43 -29 -67 -60 -67c-34 0 -64 24 -64 67z" />
    <glyph glyph-name="igrave" unicode="&#xec;" horiz-adv-x="277" 
d="M81 0v450h115v-450h-115zM123 517l-127 143l91 68l104 -163z" />
    <glyph glyph-name="iacute" unicode="&#xed;" horiz-adv-x="277" 
d="M81 0v450h115v-450h-115zM258 662l-126 -145l-69 48l105 165z" />
    <glyph glyph-name="icircumflex" unicode="&#xee;" horiz-adv-x="277" 
d="M81 0v450h115v-450h-115zM141 706l152 -134l-54 -68l-101 81l-102 -79l-52 67l153 133h4z" />
    <glyph glyph-name="idieresis" unicode="&#xef;" horiz-adv-x="277" 
d="M81 0v450h115v-450h-115zM-23 599c0 40 30 64 65 64c30 0 60 -24 60 -64c0 -43 -30 -67 -60 -67c-35 0 -65 24 -65 67zM176 599c0 40 30 64 64 64c31 0 60 -24 60 -64c0 -43 -29 -67 -60 -67c-34 0 -64 24 -64 67z" />
    <glyph glyph-name="eth" unicode="&#xf0;" horiz-adv-x="562" 
d="M189 493l-33 102l82 29c-28 26 -58 49 -88 68l129 19c24 -14 46 -30 67 -48l104 37l32 -102l-59 -21c67 -96 103 -214 103 -313c0 -173 -96 -275 -245 -275s-245 101 -245 236s96 236 245 236c38 0 75 -18 95 -45c-14 44 -35 85 -61 122zM159 225c0 -75 52 -129 122 -129
c77 0 129 65 123 173c-14 48 -60 84 -123 84c-68 0 -122 -50 -122 -128z" />
    <glyph glyph-name="ntilde" unicode="&#xf1;" horiz-adv-x="546" 
d="M64 0v450h115v-45c27 29 75 53 129 53c110 0 185 -53 185 -194v-264h-115v244c0 72 -37 106 -101 106c-39 0 -71 -16 -98 -43v-307h-115zM146 538l-47 52c38 48 82 69 121 69c47 0 74 -42 115 -42c30 0 43 11 69 31l39 -58c-37 -41 -79 -65 -117 -65
c-44 0 -72 41 -117 41c-20 0 -43 -14 -63 -28z" />
    <glyph glyph-name="ograve" unicode="&#xf2;" horiz-adv-x="562" 
d="M36 225c0 135 96 236 245 236s245 -101 245 -236s-96 -236 -245 -236s-245 101 -245 236zM159 225c0 -75 52 -129 122 -129c71 0 123 51 123 129c0 76 -53 128 -123 128c-68 0 -122 -50 -122 -128zM284 517l-127 143l91 68l104 -163z" />
    <glyph glyph-name="oacute" unicode="&#xf3;" horiz-adv-x="562" 
d="M36 225c0 135 96 236 245 236s245 -101 245 -236s-96 -236 -245 -236s-245 101 -245 236zM159 225c0 -75 52 -129 122 -129c71 0 123 51 123 129c0 76 -53 128 -123 128c-68 0 -122 -50 -122 -128zM406 662l-126 -145l-69 48l105 165z" />
    <glyph glyph-name="ocircumflex" unicode="&#xf4;" horiz-adv-x="562" 
d="M36 225c0 135 96 236 245 236s245 -101 245 -236s-96 -236 -245 -236s-245 101 -245 236zM159 225c0 -75 52 -129 122 -129c71 0 123 51 123 129c0 76 -53 128 -123 128c-68 0 -122 -50 -122 -128zM285 706l152 -134l-54 -68l-101 81l-102 -79l-52 67l153 133h4z" />
    <glyph glyph-name="otilde" unicode="&#xf5;" horiz-adv-x="562" 
d="M36 225c0 135 96 236 245 236s245 -101 245 -236s-96 -236 -245 -236s-245 101 -245 236zM159 225c0 -75 52 -129 122 -129c71 0 123 51 123 129c0 76 -53 128 -123 128c-68 0 -122 -50 -122 -128zM154 538l-47 52c38 48 82 69 121 69c47 0 74 -42 115 -42
c30 0 43 11 69 31l39 -58c-37 -41 -79 -65 -117 -65c-44 0 -72 41 -117 41c-20 0 -43 -14 -63 -28z" />
    <glyph glyph-name="odieresis" unicode="&#xf6;" horiz-adv-x="562" 
d="M36 225c0 135 96 236 245 236s245 -101 245 -236s-96 -236 -245 -236s-245 101 -245 236zM159 225c0 -75 52 -129 122 -129c71 0 123 51 123 129c0 76 -53 128 -123 128c-68 0 -122 -50 -122 -128zM126 599c0 40 30 64 65 64c30 0 60 -24 60 -64c0 -43 -30 -67 -60 -67
c-35 0 -65 24 -65 67zM325 599c0 40 30 64 64 64c31 0 60 -24 60 -64c0 -43 -29 -67 -60 -67c-34 0 -64 24 -64 67z" />
    <glyph glyph-name="divide" unicode="&#xf7;" 
d="M230 557c0 32 24 65 68 65c42 0 67 -33 67 -65c0 -35 -25 -70 -67 -70c-44 0 -68 35 -68 70zM230 164c0 31 24 66 68 66c41 0 67 -35 67 -66c0 -36 -25 -70 -67 -70c-44 0 -68 34 -68 70zM66 310v100h464v-100h-464z" />
    <glyph glyph-name="oslash" unicode="&#xf8;" horiz-adv-x="577" 
d="M49 49l35 32c-31 39 -48 89 -48 144c0 135 104 236 253 236c62 0 116 -18 158 -48l39 36l41 -48l-35 -32c31 -39 49 -89 49 -144c0 -135 -103 -236 -252 -236c-62 0 -117 17 -159 47l-39 -36zM419 225c0 23 -5 45 -15 63l-188 -173c20 -12 45 -19 73 -19
c78 0 130 51 130 129zM159 225c0 -23 5 -45 14 -63l188 172c-20 12 -45 19 -72 19c-76 0 -130 -50 -130 -128z" />
    <glyph glyph-name="ugrave" unicode="&#xf9;" horiz-adv-x="535" 
d="M471 450v-450h-115v55c-27 -33 -74 -66 -144 -66c-88 0 -158 57 -158 186v275h115v-251c0 -60 23 -103 86 -103c38 0 75 21 101 55v299h115zM266 517l-127 143l91 68l104 -163z" />
    <glyph glyph-name="uacute" unicode="&#xfa;" horiz-adv-x="535" 
d="M471 450v-450h-115v55c-27 -33 -74 -66 -144 -66c-88 0 -158 57 -158 186v275h115v-251c0 -60 23 -103 86 -103c38 0 75 21 101 55v299h115zM396 662l-126 -145l-69 48l105 165z" />
    <glyph glyph-name="ucircumflex" unicode="&#xfb;" horiz-adv-x="535" 
d="M471 450v-450h-115v55c-27 -33 -74 -66 -144 -66c-88 0 -158 57 -158 186v275h115v-251c0 -60 23 -103 86 -103c38 0 75 21 101 55v299h115zM269 706l152 -134l-54 -68l-101 81l-102 -79l-52 67l153 133h4z" />
    <glyph glyph-name="udieresis" unicode="&#xfc;" horiz-adv-x="535" 
d="M471 450v-450h-115v55c-27 -33 -74 -66 -144 -66c-88 0 -158 57 -158 186v275h115v-251c0 -60 23 -103 86 -103c38 0 75 21 101 55v299h115zM103 599c0 40 30 64 65 64c30 0 60 -24 60 -64c0 -43 -30 -67 -60 -67c-35 0 -65 24 -65 67zM302 599c0 40 30 64 64 64
c31 0 60 -24 60 -64c0 -43 -29 -67 -60 -67c-34 0 -64 24 -64 67z" />
    <glyph glyph-name="yacute" unicode="&#xfd;" horiz-adv-x="503" 
d="M498 450l-177 -450c-66 -161 -108 -200 -174 -200c-41 0 -71 16 -97 35l37 87c12 -7 29 -16 47 -16c29 0 50 23 69 70l10 24l-208 450h138l105 -246c9 -22 15 -43 22 -65c4 21 8 43 16 66l81 245h131zM372 662l-126 -145l-69 48l105 165z" />
    <glyph glyph-name="thorn" unicode="&#xfe;" horiz-adv-x="558" 
d="M64 -200v900h115v-286c31 27 79 47 139 47c124 0 204 -96 204 -229c0 -137 -94 -243 -238 -243c-40 0 -79 7 -105 22v-211h-115zM282 353c-39 0 -75 -18 -103 -49v-182c31 -20 57 -26 95 -26c80 0 126 58 126 133c0 72 -42 124 -118 124z" />
    <glyph glyph-name="ydieresis" unicode="&#xff;" horiz-adv-x="503" 
d="M498 450l-177 -450c-66 -161 -108 -200 -174 -200c-41 0 -71 16 -97 35l37 87c12 -7 29 -16 47 -16c29 0 50 23 69 70l10 24l-208 450h138l105 -246c9 -22 15 -43 22 -65c4 21 8 43 16 66l81 245h131zM97 599c0 40 30 64 65 64c30 0 60 -24 60 -64c0 -43 -30 -67 -60 -67
c-35 0 -65 24 -65 67zM296 599c0 40 30 64 64 64c31 0 60 -24 60 -64c0 -43 -29 -67 -60 -67c-34 0 -64 24 -64 67z" />
    <glyph glyph-name="Amacron" unicode="&#x100;" horiz-adv-x="715" 
d="M7 0l296 702h108l296 -702h-131l-73 179h-299l-73 -179h-124zM354 543l-103 -249h205zM202 760v92h309v-92h-309z" />
    <glyph glyph-name="amacron" unicode="&#x101;" horiz-adv-x="463" 
d="M99 334l-29 84c39 23 100 43 159 43c133 0 180 -68 180 -187v-274h-100v52c-24 -34 -72 -58 -133 -58c-82 0 -141 51 -141 138c0 99 73 146 164 146c40 0 80 -13 102 -29c3 75 -17 116 -84 116c-52 0 -85 -16 -118 -31zM214 91c48 0 73 21 87 41v46c-20 15 -46 22 -79 22
c-38 0 -72 -18 -72 -56c0 -34 28 -53 64 -53zM96 550v92h279v-92h-279z" />
    <glyph glyph-name="Abreve" unicode="&#x102;" horiz-adv-x="715" 
d="M7 0l296 702h108l296 -702h-131l-73 179h-299l-73 -179h-124zM354 543l-103 -249h205zM169 841l50 59c24 -27 67 -63 143 -63c66 0 113 32 140 63l43 -60c-33 -53 -102 -103 -183 -103c-92 0 -164 57 -193 104z" />
    <glyph glyph-name="abreve" unicode="&#x103;" horiz-adv-x="463" 
d="M99 334l-29 84c39 23 100 43 159 43c133 0 180 -68 180 -187v-274h-100v52c-24 -34 -72 -58 -133 -58c-82 0 -141 51 -141 138c0 99 73 146 164 146c40 0 80 -13 102 -29c3 75 -17 116 -84 116c-52 0 -85 -16 -118 -31zM214 91c48 0 73 21 87 41v46c-20 15 -46 22 -79 22
c-38 0 -72 -18 -72 -56c0 -34 28 -53 64 -53zM69 624l51 57c21 -23 54 -56 110 -56c51 0 91 28 112 55l40 -56c-27 -40 -71 -92 -157 -92c-87 0 -138 61 -156 92z" />
    <glyph glyph-name="Aogonek" unicode="&#x104;" horiz-adv-x="715" 
d="M669 -98l35 -70c-17 -17 -60 -32 -103 -32c-68 0 -134 26 -134 94c0 55 47 90 108 109l-72 176h-299l-73 -179h-124l296 702h108l296 -702h-21c-58 -1 -104 -35 -104 -68c0 -30 25 -40 45 -40c16 0 25 2 42 10zM354 543l-103 -249h205z" />
    <glyph glyph-name="aogonek" unicode="&#x105;" horiz-adv-x="463" 
d="M387 -98l35 -70c-17 -17 -60 -32 -103 -32c-68 0 -134 26 -134 94c0 59 56 96 124 113v45c-24 -34 -72 -58 -133 -58c-82 0 -141 51 -141 138c0 99 73 146 164 146c40 0 80 -13 102 -29c3 75 -17 116 -84 116c-52 0 -85 -16 -118 -31l-29 84c39 23 100 43 159 43
c133 0 180 -68 180 -187v-274c-60 0 -109 -34 -109 -68c0 -30 25 -40 45 -40c16 0 25 2 42 10zM214 91c48 0 73 21 87 41v46c-20 15 -46 22 -79 22c-38 0 -72 -18 -72 -56c0 -34 28 -53 64 -53z" />
    <glyph glyph-name="Cacute" unicode="&#x106;" horiz-adv-x="655" 
d="M583 160l47 -92c-44 -47 -133 -79 -224 -79c-214 0 -361 143 -361 361c0 201 127 361 358 361c91 0 167 -29 213 -71l-55 -91c-42 28 -88 47 -158 47c-130 0 -228 -94 -228 -246c0 -146 99 -246 242 -246c59 0 118 19 166 56zM557 812l-225 -81l-32 69l214 111z" />
    <glyph glyph-name="cacute" unicode="&#x107;" horiz-adv-x="487" 
d="M405 151l54 -84c-38 -51 -106 -78 -179 -78c-146 0 -244 94 -244 236c0 131 96 236 233 236c74 0 139 -19 181 -61l-54 -91c-34 33 -71 44 -112 44c-64 0 -125 -49 -125 -128c0 -80 62 -129 130 -129c49 0 87 23 116 55zM391 662l-126 -145l-69 48l105 165z" />
    <glyph glyph-name="Ccircumflex" unicode="&#x108;" horiz-adv-x="655" 
d="M583 160l47 -92c-44 -47 -133 -79 -224 -79c-214 0 -361 143 -361 361c0 201 127 361 358 361c91 0 167 -29 213 -71l-55 -91c-42 28 -88 47 -158 47c-130 0 -228 -94 -228 -246c0 -146 99 -246 242 -246c59 0 118 19 166 56zM208 792l175 112h4l179 -111l-45 -65
l-136 71l-136 -71z" />
    <glyph glyph-name="ccircumflex" unicode="&#x109;" horiz-adv-x="487" 
d="M405 151l54 -84c-38 -51 -106 -78 -179 -78c-146 0 -244 94 -244 236c0 131 96 236 233 236c74 0 139 -19 181 -61l-54 -91c-34 33 -71 44 -112 44c-64 0 -125 -49 -125 -128c0 -80 62 -129 130 -129c49 0 87 23 116 55zM279 706l152 -134l-54 -68l-101 81l-102 -79
l-52 67l153 133h4z" />
    <glyph glyph-name="Cdotaccent" unicode="&#x10a;" horiz-adv-x="655" 
d="M583 160l47 -92c-44 -47 -133 -79 -224 -79c-214 0 -361 143 -361 361c0 201 127 361 358 361c91 0 167 -29 213 -71l-55 -91c-42 28 -88 47 -158 47c-130 0 -228 -94 -228 -246c0 -146 99 -246 242 -246c59 0 118 19 166 56zM304 831c0 44 37 71 79 71
c38 0 75 -27 75 -71c0 -48 -37 -75 -75 -75c-42 0 -79 27 -79 75z" />
    <glyph glyph-name="cdotaccent" unicode="&#x10b;" horiz-adv-x="487" 
d="M405 151l54 -84c-38 -51 -106 -78 -179 -78c-146 0 -244 94 -244 236c0 131 96 236 233 236c74 0 139 -19 181 -61l-54 -91c-34 33 -71 44 -112 44c-64 0 -125 -49 -125 -128c0 -80 62 -129 130 -129c49 0 87 23 116 55zM203 612c0 41 33 67 72 67c33 0 66 -26 66 -67
c0 -46 -33 -72 -66 -72c-39 0 -72 26 -72 72z" />
    <glyph glyph-name="Ccaron" unicode="&#x10c;" horiz-adv-x="655" 
d="M583 160l47 -92c-44 -47 -133 -79 -224 -79c-214 0 -361 143 -361 361c0 201 127 361 358 361c91 0 167 -29 213 -71l-55 -91c-42 28 -88 47 -158 47c-130 0 -228 -94 -228 -246c0 -146 99 -246 242 -246c59 0 118 19 166 56zM387 735l-179 111l45 65l136 -79l135 79
l41 -64l-174 -112h-4z" />
    <glyph glyph-name="ccaron" unicode="&#x10d;" horiz-adv-x="487" 
d="M405 151l54 -84c-38 -51 -106 -78 -179 -78c-146 0 -244 94 -244 236c0 131 96 236 233 236c74 0 139 -19 181 -61l-54 -91c-34 33 -71 44 -112 44c-64 0 -125 -49 -125 -128c0 -80 62 -129 130 -129c49 0 87 23 116 55zM267 509l-152 134l54 68l101 -92l102 90l52 -67
l-153 -133h-4z" />
    <glyph glyph-name="Dcaron" unicode="&#x10e;" horiz-adv-x="741" 
d="M97 0v700h13c42 0 142 3 193 3c280 0 393 -161 393 -346c0 -197 -134 -359 -401 -359c-42 0 -120 2 -184 2h-14zM301 588c-29 0 -53 -1 -81 -3v-470c34 -2 62 -2 79 -2c169 0 267 96 267 244c0 141 -98 231 -265 231zM335 735l-179 111l45 65l136 -79l135 79l41 -64
l-174 -112h-4z" />
    <glyph glyph-name="dcaron" unicode="&#x10f;" horiz-adv-x="556" 
d="M377 0v47c-30 -32 -71 -55 -129 -55c-129 0 -212 91 -212 228c0 142 102 241 247 241c40 0 69 -7 94 -22v261h115v-700h-115zM272 99c42 0 79 20 105 46v181c-29 18 -58 27 -89 27c-68 0 -129 -46 -129 -129c0 -80 52 -125 113 -125zM563 700h112c5 -10 6 -24 6 -35
c0 -94 -52 -148 -99 -174l-53 50c28 27 45 67 45 110c0 21 -4 34 -11 49z" />
    <glyph glyph-name="Dcroat" unicode="&#x110;" horiz-adv-x="749" 
d="M10 297v108h95v295h13c42 0 141 3 193 3c280 0 393 -161 393 -346c0 -197 -134 -359 -401 -359c-42 0 -121 2 -184 2h-14v297h-95zM309 588c-30 0 -54 -1 -82 -3v-180h177v-108h-177v-182c34 -2 63 -2 80 -2c169 0 267 96 267 244c0 141 -98 231 -265 231z" />
    <glyph glyph-name="dcroat" unicode="&#x111;" horiz-adv-x="556" 
d="M247 520v93h130v87h115v-87h79v-93h-79v-520h-115v47c-30 -32 -71 -55 -129 -55c-129 0 -212 91 -212 228c0 142 102 241 247 241c40 0 69 -7 94 -22v81h-130zM272 99c42 0 79 20 105 46v181c-29 18 -58 27 -89 27c-68 0 -129 -46 -129 -129c0 -80 52 -125 113 -125z" />
    <glyph glyph-name="Emacron" unicode="&#x112;" horiz-adv-x="575" 
d="M97 0v700h405v-115h-282v-174h252v-115h-252v-181h292v-115h-415zM145 760v92h309v-92h-309z" />
    <glyph glyph-name="emacron" unicode="&#x113;" horiz-adv-x="516" 
d="M417 126l33 -81c-45 -38 -109 -56 -172 -56c-145 0 -242 94 -242 236c0 131 90 236 238 236c116 0 213 -83 213 -209c0 -28 -2 -45 -7 -62h-325c10 -68 64 -105 135 -105c55 0 101 20 127 41zM269 365c-69 0 -106 -39 -118 -98h221c1 55 -37 98 -103 98zM125 550v92h279
v-92h-279z" />
    <glyph glyph-name="Edotaccent" unicode="&#x116;" horiz-adv-x="575" 
d="M97 0v700h405v-115h-282v-174h252v-115h-252v-181h292v-115h-415zM227 831c0 44 37 71 79 71c38 0 75 -27 75 -71c0 -48 -37 -75 -75 -75c-42 0 -79 27 -79 75z" />
    <glyph glyph-name="edotaccent" unicode="&#x117;" horiz-adv-x="516" 
d="M417 126l33 -81c-45 -38 -109 -56 -172 -56c-145 0 -242 94 -242 236c0 131 90 236 238 236c116 0 213 -83 213 -209c0 -28 -2 -45 -7 -62h-325c10 -68 64 -105 135 -105c55 0 101 20 127 41zM269 365c-69 0 -106 -39 -118 -98h221c1 55 -37 98 -103 98zM197 612
c0 41 33 67 72 67c33 0 66 -26 66 -67c0 -46 -33 -72 -66 -72c-39 0 -72 26 -72 72z" />
    <glyph glyph-name="Eogonek" unicode="&#x118;" horiz-adv-x="575" 
d="M97 0v700h405v-115h-282v-174h252v-115h-252v-181h292v-115h-5c-58 -1 -104 -35 -104 -68c0 -30 25 -40 45 -40c16 0 25 2 42 10l35 -70c-17 -17 -60 -32 -103 -32c-68 0 -134 26 -134 94c0 52 43 87 99 106h-290z" />
    <glyph glyph-name="eogonek" unicode="&#x119;" horiz-adv-x="516" 
d="M417 126l33 -81c-17 -15 -37 -26 -58 -35c-41 -25 -66 -51 -66 -78c0 -30 25 -40 45 -40c16 0 25 2 42 10l35 -70c-17 -17 -60 -32 -103 -32c-68 0 -134 26 -134 94c0 38 29 70 75 95h-8c-145 0 -242 94 -242 236c0 131 90 236 238 236c116 0 213 -83 213 -209
c0 -28 -2 -45 -7 -62h-325c10 -68 64 -105 135 -105c55 0 101 20 127 41zM269 365c-69 0 -106 -39 -118 -98h221c1 55 -37 98 -103 98z" />
    <glyph glyph-name="Ecaron" unicode="&#x11a;" horiz-adv-x="575" 
d="M97 0v700h405v-115h-282v-174h252v-115h-252v-181h292v-115h-415zM307 735l-179 111l45 65l136 -79l135 79l41 -64l-174 -112h-4z" />
    <glyph glyph-name="ecaron" unicode="&#x11b;" horiz-adv-x="516" 
d="M417 126l33 -81c-45 -38 -109 -56 -172 -56c-145 0 -242 94 -242 236c0 131 90 236 238 236c116 0 213 -83 213 -209c0 -28 -2 -45 -7 -62h-325c10 -68 64 -105 135 -105c55 0 101 20 127 41zM269 365c-69 0 -106 -39 -118 -98h221c1 55 -37 98 -103 98zM271 509
l-152 134l54 68l101 -92l102 90l52 -67l-153 -133h-4z" />
    <glyph glyph-name="Gcircumflex" unicode="&#x11c;" horiz-adv-x="727" 
d="M388 262v115h284v-290c-62 -62 -175 -98 -262 -98c-229 0 -365 143 -365 361c0 201 135 361 349 361c100 0 168 -26 225 -71l-52 -98c-35 33 -97 54 -158 54c-135 0 -234 -90 -234 -246c0 -149 95 -246 237 -246c54 0 119 23 145 48v110h-169zM208 792l175 112h4
l179 -111l-45 -65l-136 71l-136 -71z" />
    <glyph glyph-name="gcircumflex" unicode="&#x11d;" horiz-adv-x="499" 
d="M5 -61c0 75 60 121 146 139c-5 9 -8 21 -8 31c0 11 3 23 10 32c-68 27 -107 85 -107 151c0 90 73 169 192 169c45 0 84 -12 115 -32l136 30l4 -92l-75 -17c7 -18 11 -38 11 -58c0 -90 -75 -166 -191 -166h-8c-2 -6 -2 -12 -2 -17c0 -8 2 -16 6 -23h5
c131 0 234 -46 234 -147s-103 -147 -234 -147s-234 44 -234 147zM112 -61c0 -35 49 -55 127 -55s126 19 126 55c0 33 -43 55 -126 55c-82 0 -127 -22 -127 -55zM154 292c0 -42 32 -73 84 -73c49 0 84 28 84 73c0 42 -30 76 -84 76c-52 0 -84 -35 -84 -76zM246 706l152 -134
l-54 -68l-101 81l-102 -79l-52 67l153 133h4z" />
    <glyph glyph-name="Gbreve" unicode="&#x11e;" horiz-adv-x="727" 
d="M388 262v115h284v-290c-62 -62 -175 -98 -262 -98c-229 0 -365 143 -365 361c0 201 135 361 349 361c100 0 168 -26 225 -71l-52 -98c-35 33 -97 54 -158 54c-135 0 -234 -90 -234 -246c0 -149 95 -246 237 -246c54 0 119 23 145 48v110h-169zM214 841l50 59
c24 -27 67 -63 143 -63c66 0 113 32 140 63l43 -60c-33 -53 -102 -103 -183 -103c-92 0 -164 57 -193 104z" />
    <glyph glyph-name="gbreve" unicode="&#x11f;" horiz-adv-x="499" 
d="M5 -61c0 75 60 121 146 139c-5 9 -8 21 -8 31c0 11 3 23 10 32c-68 27 -107 85 -107 151c0 90 73 169 192 169c45 0 84 -12 115 -32l136 30l4 -92l-75 -17c7 -18 11 -38 11 -58c0 -90 -75 -166 -191 -166h-8c-2 -6 -2 -12 -2 -17c0 -8 2 -16 6 -23h5
c131 0 234 -46 234 -147s-103 -147 -234 -147s-234 44 -234 147zM112 -61c0 -35 49 -55 127 -55s126 19 126 55c0 33 -43 55 -126 55c-82 0 -127 -22 -127 -55zM154 292c0 -42 32 -73 84 -73c49 0 84 28 84 73c0 42 -30 76 -84 76c-52 0 -84 -35 -84 -76zM82 624l51 57
c21 -23 54 -56 110 -56c51 0 91 28 112 55l40 -56c-27 -40 -71 -92 -157 -92c-87 0 -138 61 -156 92z" />
    <glyph glyph-name="Gdotaccent" unicode="&#x120;" horiz-adv-x="727" 
d="M388 262v115h284v-290c-62 -62 -175 -98 -262 -98c-229 0 -365 143 -365 361c0 201 135 361 349 361c100 0 168 -26 225 -71l-52 -98c-35 33 -97 54 -158 54c-135 0 -234 -90 -234 -246c0 -149 95 -246 237 -246c54 0 119 23 145 48v110h-169zM299 831c0 44 37 71 79 71
c38 0 75 -27 75 -71c0 -48 -37 -75 -75 -75c-42 0 -79 27 -79 75z" />
    <glyph glyph-name="gdotaccent" unicode="&#x121;" horiz-adv-x="499" 
d="M5 -61c0 75 60 121 146 139c-5 9 -8 21 -8 31c0 11 3 23 10 32c-68 27 -107 85 -107 151c0 90 73 169 192 169c45 0 84 -12 115 -32l136 30l4 -92l-75 -17c7 -18 11 -38 11 -58c0 -90 -75 -166 -191 -166h-8c-2 -6 -2 -12 -2 -17c0 -8 2 -16 6 -23h5
c131 0 234 -46 234 -147s-103 -147 -234 -147s-234 44 -234 147zM112 -61c0 -35 49 -55 127 -55s126 19 126 55c0 33 -43 55 -126 55c-82 0 -127 -22 -127 -55zM154 292c0 -42 32 -73 84 -73c49 0 84 28 84 73c0 42 -30 76 -84 76c-52 0 -84 -35 -84 -76zM169 612
c0 41 33 67 72 67c33 0 66 -26 66 -67c0 -46 -33 -72 -66 -72c-39 0 -72 26 -72 72z" />
    <glyph glyph-name="Gcommaaccent" unicode="&#x122;" horiz-adv-x="727" 
d="M388 262v115h284v-290c-62 -62 -175 -98 -262 -98c-229 0 -365 143 -365 361c0 201 135 361 349 361c100 0 168 -26 225 -71l-52 -98c-35 33 -97 54 -158 54c-135 0 -234 -90 -234 -246c0 -149 95 -246 237 -246c54 0 119 23 145 48v110h-169zM339 -58l112 25
c10 -6 20 -21 20 -49c0 -71 -67 -115 -124 -124l-34 50c34 14 43 34 43 60c0 18 -7 31 -17 38z" />
    <glyph glyph-name="gcommaaccent" unicode="&#x123;" horiz-adv-x="499" 
d="M5 -61c0 75 60 121 146 139c-5 9 -8 21 -8 31c0 11 3 23 10 32c-68 27 -107 85 -107 151c0 90 73 169 192 169c45 0 84 -12 115 -32l136 30l4 -92l-75 -17c7 -18 11 -38 11 -58c0 -90 -75 -166 -191 -166h-8c-2 -6 -2 -12 -2 -17c0 -8 2 -16 6 -23h5
c131 0 234 -46 234 -147s-103 -147 -234 -147s-234 44 -234 147zM112 -61c0 -35 49 -55 127 -55s126 19 126 55c0 33 -43 55 -126 55c-82 0 -127 -22 -127 -55zM154 292c0 -42 32 -73 84 -73c49 0 84 28 84 73c0 42 -30 76 -84 76c-52 0 -84 -35 -84 -76zM303 555l-112 -25
c-10 6 -20 21 -20 49c0 71 67 115 124 124l34 -50c-34 -14 -43 -34 -43 -60c0 -18 7 -31 17 -38z" />
    <glyph glyph-name="Hcircumflex" unicode="&#x124;" horiz-adv-x="760" 
d="M540 0v299h-320v-299h-123v700h123v-286h320v286h122v-700h-122zM202 792l175 112h4l179 -111l-45 -65l-136 71l-136 -71z" />
    <glyph glyph-name="hcircumflex" unicode="&#x125;" horiz-adv-x="546" 
d="M64 0v700h115v-291c29 28 77 49 129 49c110 0 185 -56 185 -197v-261h-115v246c0 67 -37 104 -100 104c-37 0 -73 -15 -99 -41v-309h-115zM-25 792l175 112h4l179 -111l-45 -65l-136 71l-136 -71z" />
    <glyph glyph-name="Hbar" unicode="&#x126;" horiz-adv-x="770" 
d="M22 506v107h80v87h123v-87h320v87h122v-87h80v-107h-80v-506h-122v299h-320v-299h-123v506h-80zM225 414h320v92h-320v-92z" />
    <glyph glyph-name="hbar" unicode="&#x127;" horiz-adv-x="583" 
d="M-5 505v107h106v88h115v-88h148v-107h-148v-96c29 28 77 49 129 49c110 0 185 -56 185 -197v-261h-115v246c0 67 -37 104 -100 104c-37 0 -73 -15 -99 -41v-309h-115v505h-106z" />
    <glyph glyph-name="Imacron" unicode="&#x12a;" horiz-adv-x="347" 
d="M112 0v700h123v-700h-123zM23 760v92h309v-92h-309z" />
    <glyph glyph-name="imacron" unicode="&#x12b;" horiz-adv-x="277" 
d="M81 0v450h115v-450h-115zM-1 550v92h279v-92h-279z" />
    <glyph glyph-name="Iogonek" unicode="&#x12e;" horiz-adv-x="347" 
d="M213 -98l35 -70c-17 -17 -60 -32 -103 -32c-68 0 -134 26 -134 94c0 52 44 87 101 106v700h123v-700c-60 0 -109 -34 -109 -68c0 -30 25 -40 45 -40c16 0 25 2 42 10z" />
    <glyph glyph-name="iogonek" unicode="&#x12f;" horiz-adv-x="277" 
d="M174 -98l35 -70c-17 -17 -60 -32 -103 -32c-68 0 -134 26 -134 94c0 55 48 91 109 109v447h115v-450h-5c-58 -1 -104 -35 -104 -68c0 -30 25 -40 45 -40c16 0 25 2 42 10zM66 612c0 41 33 67 72 67c33 0 66 -26 66 -67c0 -46 -33 -72 -66 -72c-39 0 -72 26 -72 72z" />
    <glyph glyph-name="Idotaccent" unicode="&#x130;" horiz-adv-x="347" 
d="M112 0v700h123v-700h-123zM97 831c0 44 37 71 79 71c38 0 75 -27 75 -71c0 -48 -37 -75 -75 -75c-42 0 -79 27 -79 75z" />
    <glyph glyph-name="dotlessi" unicode="&#x131;" horiz-adv-x="277" 
d="M81 0v450h115v-450h-115z" />
    <glyph glyph-name="Jcircumflex" unicode="&#x134;" horiz-adv-x="390" 
d="M293 700v-535c0 -112 -55 -176 -169 -176c-53 0 -101 22 -119 43l40 94c16 -12 40 -22 62 -22c45 0 63 32 63 82v514h123zM51 792l175 112h4l179 -111l-45 -65l-136 71l-136 -71z" />
    <glyph glyph-name="jcircumflex" unicode="&#x135;" horiz-adv-x="284" 
d="M202 450v-483c0 -110 -41 -175 -141 -175c-48 0 -91 15 -110 32l31 91c16 -10 31 -16 51 -16c40 0 54 31 54 78v473h115zM147 706l152 -134l-54 -68l-101 81l-102 -79l-52 67l153 133h4z" />
    <glyph glyph-name="Kcommaaccent" unicode="&#x136;" horiz-adv-x="672" 
d="M97 0v700h123v-332l276 332h148l-288 -326l306 -374h-156l-286 361v-361h-123zM269 -58l112 25c10 -6 20 -21 20 -49c0 -71 -67 -115 -124 -124l-34 50c34 14 43 34 43 60c0 18 -7 31 -17 38z" />
    <glyph glyph-name="kcommaaccent" unicode="&#x137;" horiz-adv-x="514" 
d="M487 450l-169 -206l189 -244h-148l-178 235l161 215h145zM64 0v700h115v-700h-115zM180 -58l112 25c10 -6 20 -21 20 -49c0 -71 -67 -115 -124 -124l-34 50c34 14 43 34 43 60c0 18 -7 31 -17 38z" />
    <glyph glyph-name="Lacute" unicode="&#x139;" horiz-adv-x="547" 
d="M97 0v700h123v-585h315v-115h-438zM452 812l-225 -81l-32 69l214 111z" />
    <glyph glyph-name="lacute" unicode="&#x13a;" horiz-adv-x="299" 
d="M64 124v576h115v-529c0 -51 12 -73 39 -73c18 0 33 8 47 18l24 -88c-26 -21 -65 -38 -119 -38c-69 0 -106 42 -106 134zM328 812l-225 -81l-32 69l214 111z" />
    <glyph glyph-name="Lcommaaccent" unicode="&#x13b;" horiz-adv-x="547" 
d="M97 0v700h123v-585h315v-115h-438zM244 -58l112 25c10 -6 20 -21 20 -49c0 -71 -67 -115 -124 -124l-34 50c34 14 43 34 43 60c0 18 -7 31 -17 38z" />
    <glyph glyph-name="lcommaaccent" unicode="&#x13c;" horiz-adv-x="299" 
d="M64 124v576h115v-529c0 -51 12 -73 39 -73c18 0 33 8 47 18l24 -88c-26 -21 -65 -38 -119 -38c-69 0 -106 42 -106 134zM110 -58l112 25c10 -6 20 -21 20 -49c0 -71 -67 -115 -124 -124l-34 50c34 14 43 34 43 60c0 18 -7 31 -17 38z" />
    <glyph glyph-name="Lcaron" unicode="&#x13d;" horiz-adv-x="547" 
d="M97 0v700h123v-585h315v-115h-438zM356 700h112c5 -10 6 -24 6 -35c0 -94 -52 -148 -99 -174l-53 50c28 27 45 67 45 110c0 21 -4 34 -11 49z" />
    <glyph glyph-name="lcaron" unicode="&#x13e;" horiz-adv-x="299" 
d="M64 124v576h115v-529c0 -51 12 -73 39 -73c18 0 33 8 47 18l24 -88c-26 -21 -65 -38 -119 -38c-69 0 -106 42 -106 134zM256 700h112c5 -10 6 -24 6 -35c0 -94 -52 -148 -99 -174l-53 50c28 27 45 67 45 110c0 21 -4 34 -11 49z" />
    <glyph glyph-name="Ldot" unicode="&#x13f;" horiz-adv-x="547" 
d="M97 0v700h123v-585h315v-115h-438zM356 375c0 35 30 74 80 74c43 0 73 -39 73 -74c0 -41 -30 -80 -73 -80c-50 0 -80 39 -80 80z" />
    <glyph glyph-name="ldot" unicode="&#x140;" horiz-adv-x="350" 
d="M64 124v576h115v-529c0 -51 12 -73 39 -73c18 0 33 8 47 18l24 -88c-26 -21 -65 -38 -119 -38c-69 0 -106 42 -106 134zM228 338c0 41 33 67 72 67c33 0 66 -26 66 -67c0 -46 -33 -72 -66 -72c-39 0 -72 26 -72 72z" />
    <glyph glyph-name="Lslash" unicode="&#x141;" horiz-adv-x="557" 
d="M22 204v118l85 39v339h123v-282l163 75v-117l-163 -76v-185h315v-115h-438v243z" />
    <glyph glyph-name="lslash" unicode="&#x142;" horiz-adv-x="329" 
d="M12 202v118l72 33v347h115v-294l94 43v-118l-94 -43v-117c0 -51 12 -73 39 -73c18 0 33 8 47 18l24 -88c-26 -21 -65 -38 -119 -38c-69 0 -106 42 -106 134v111z" />
    <glyph glyph-name="Nacute" unicode="&#x143;" horiz-adv-x="792" 
d="M695 0h-98l-385 485v-485h-115v700h98l385 -487v487h115v-700zM579 812l-225 -81l-32 69l214 111z" />
    <glyph glyph-name="nacute" unicode="&#x144;" horiz-adv-x="546" 
d="M64 0v450h115v-45c27 29 75 53 129 53c110 0 185 -53 185 -194v-264h-115v244c0 72 -37 106 -101 106c-39 0 -71 -16 -98 -43v-307h-115zM405 662l-126 -145l-69 48l105 165z" />
    <glyph glyph-name="Ncommaaccent" unicode="&#x145;" horiz-adv-x="792" 
d="M695 0h-98l-385 485v-485h-115v700h98l385 -487v487h115v-700zM331 -58l112 25c10 -6 20 -21 20 -49c0 -71 -67 -115 -124 -124l-34 50c34 14 43 34 43 60c0 18 -7 31 -17 38z" />
    <glyph glyph-name="ncommaaccent" unicode="&#x146;" horiz-adv-x="546" 
d="M64 0v450h115v-45c27 29 75 53 129 53c110 0 185 -53 185 -194v-264h-115v244c0 72 -37 106 -101 106c-39 0 -71 -16 -98 -43v-307h-115zM206 -58l112 25c10 -6 20 -21 20 -49c0 -71 -67 -115 -124 -124l-34 50c34 14 43 34 43 60c0 18 -7 31 -17 38z" />
    <glyph glyph-name="Ncaron" unicode="&#x147;" horiz-adv-x="792" 
d="M695 0h-98l-385 485v-485h-115v700h98l385 -487v487h115v-700zM397 735l-179 111l45 65l136 -79l135 79l41 -64l-174 -112h-4z" />
    <glyph glyph-name="ncaron" unicode="&#x148;" horiz-adv-x="546" 
d="M64 0v450h115v-45c27 29 75 53 129 53c110 0 185 -53 185 -194v-264h-115v244c0 72 -37 106 -101 106c-39 0 -71 -16 -98 -43v-307h-115zM270 509l-152 134l54 68l101 -92l102 90l52 -67l-153 -133h-4z" />
    <glyph glyph-name="Omacron" unicode="&#x14c;" horiz-adv-x="819" 
d="M45 350c0 203 149 361 364 361c208 0 365 -143 365 -361c0 -210 -157 -361 -365 -361s-364 143 -364 361zM175 350c0 -140 103 -246 234 -246c147 0 235 108 235 246c0 145 -103 246 -235 246c-134 0 -234 -101 -234 -246zM262 760v92h309v-92h-309z" />
    <glyph glyph-name="omacron" unicode="&#x14d;" horiz-adv-x="562" 
d="M36 225c0 135 96 236 245 236s245 -101 245 -236s-96 -236 -245 -236s-245 101 -245 236zM159 225c0 -75 52 -129 122 -129c71 0 123 51 123 129c0 76 -53 128 -123 128c-68 0 -122 -50 -122 -128zM149 550v92h279v-92h-279z" />
    <glyph glyph-name="Ohungarumlaut" unicode="&#x150;" horiz-adv-x="819" 
d="M45 350c0 203 149 361 364 361c208 0 365 -143 365 -361c0 -210 -157 -361 -365 -361s-364 143 -364 361zM175 350c0 -140 103 -246 234 -246c147 0 235 108 235 246c0 145 -103 246 -235 246c-134 0 -234 -101 -234 -246zM678 839l-191 -108l-47 49l158 131zM471 860
l-164 -129l-49 46l114 134z" />
    <glyph glyph-name="ohungarumlaut" unicode="&#x151;" horiz-adv-x="562" 
d="M36 225c0 135 96 236 245 236s245 -101 245 -236s-96 -236 -245 -236s-245 101 -245 236zM159 225c0 -75 52 -129 122 -129c71 0 123 51 123 129c0 76 -53 128 -123 128c-68 0 -122 -50 -122 -128zM499 656l-132 -139l-69 48l116 156zM318 670l-114 -153l-69 48l101 166z
" />
    <glyph glyph-name="OE" unicode="&#x152;" horiz-adv-x="1038" 
d="M560 0v20c-44 -19 -98 -31 -154 -31c-214 0 -361 143 -361 361c0 201 127 361 358 361c60 0 114 -13 157 -34v23h405v-115h-282v-174h252v-115h-252v-181h292v-115h-415zM417 104c50 0 100 13 143 40v405c-42 28 -88 47 -157 47c-130 0 -228 -94 -228 -246
c0 -146 99 -246 242 -246z" />
    <glyph glyph-name="oe" unicode="&#x153;" horiz-adv-x="833" 
d="M734 126l32 -81c-44 -38 -109 -56 -172 -56c-62 0 -116 17 -156 48c-41 -31 -94 -48 -157 -48c-149 0 -245 101 -245 236s96 236 245 236c63 0 116 -18 157 -50c39 31 91 50 153 50c116 0 213 -83 213 -209c0 -28 -2 -45 -7 -62h-325c10 -68 63 -105 134 -105
c55 0 102 20 128 41zM281 96c37 0 68 13 89 32c-11 29 -17 61 -17 97c0 35 6 68 18 97c-21 17 -50 31 -90 31c-68 0 -123 -50 -123 -128c0 -75 52 -129 123 -129zM586 365c-69 0 -106 -39 -118 -98h221c1 55 -38 98 -103 98z" />
    <glyph glyph-name="Racute" unicode="&#x154;" horiz-adv-x="658" 
d="M220 0h-123v700c39 0 193 2 213 2c191 0 254 -95 254 -216c0 -120 -77 -180 -135 -200l219 -286h-149l-193 262h-86v-262zM304 587c-23 0 -51 -1 -84 -2v-208h80c71 0 134 36 134 108c0 55 -30 102 -130 102zM464 812l-225 -81l-32 69l214 111z" />
    <glyph glyph-name="racute" unicode="&#x155;" horiz-adv-x="354" 
d="M64 0v450h115v-44c21 29 49 52 103 52c37 0 55 -6 70 -17l-41 -108c-22 13 -34 17 -58 17c-40 0 -61 -22 -74 -48v-302h-115zM317 662l-126 -145l-69 48l105 165z" />
    <glyph glyph-name="Rcommaaccent" unicode="&#x156;" horiz-adv-x="658" 
d="M220 0h-123v700c39 0 193 2 213 2c191 0 254 -95 254 -216c0 -120 -77 -180 -135 -200l219 -286h-149l-193 262h-86v-262zM304 587c-23 0 -51 -1 -84 -2v-208h80c71 0 134 36 134 108c0 55 -30 102 -130 102zM261 -58l112 25c10 -6 20 -21 20 -49
c0 -71 -67 -115 -124 -124l-34 50c34 14 43 34 43 60c0 18 -7 31 -17 38z" />
    <glyph glyph-name="rcommaaccent" unicode="&#x157;" horiz-adv-x="354" 
d="M64 0v450h115v-44c21 29 49 52 103 52c37 0 55 -6 70 -17l-41 -108c-22 13 -34 17 -58 17c-40 0 -61 -22 -74 -48v-302h-115zM104 -58l112 25c10 -6 20 -21 20 -49c0 -71 -67 -115 -124 -124l-34 50c34 14 43 34 43 60c0 18 -7 31 -17 38z" />
    <glyph glyph-name="Rcaron" unicode="&#x158;" horiz-adv-x="658" 
d="M220 0h-123v700c39 0 193 2 213 2c191 0 254 -95 254 -216c0 -120 -77 -180 -135 -200l219 -286h-149l-193 262h-86v-262zM304 587c-23 0 -51 -1 -84 -2v-208h80c71 0 134 36 134 108c0 55 -30 102 -130 102zM302 735l-179 111l45 65l136 -79l135 79l41 -64l-174 -112h-4
z" />
    <glyph glyph-name="rcaron" unicode="&#x159;" horiz-adv-x="354" 
d="M64 0v450h115v-44c21 29 49 52 103 52c37 0 55 -6 70 -17l-41 -108c-22 13 -34 17 -58 17c-40 0 -61 -22 -74 -48v-302h-115zM195 509l-152 134l54 68l101 -92l102 90l52 -67l-153 -133h-4z" />
    <glyph glyph-name="Sacute" unicode="&#x15a;" horiz-adv-x="553" 
d="M378 186c0 138 -317 104 -317 332c0 105 82 193 218 193c86 0 158 -29 200 -75l-66 -92c-34 33 -68 52 -124 52c-61 0 -98 -31 -98 -77c0 -145 317 -99 317 -332c0 -118 -103 -198 -234 -198c-90 0 -195 39 -229 110l70 84c41 -53 107 -79 161 -79c58 0 102 29 102 82z
M466 812l-225 -81l-32 69l214 111z" />
    <glyph glyph-name="sacute" unicode="&#x15b;" horiz-adv-x="444" 
d="M292 127c0 73 -243 33 -243 197c0 88 72 137 165 137c87 0 143 -31 171 -57l-43 -82c-27 21 -74 43 -122 43c-35 0 -56 -19 -56 -39c0 -75 243 -34 243 -193c0 -89 -72 -144 -182 -144c-83 0 -167 45 -188 77l56 75c27 -29 95 -56 140 -56c33 0 59 14 59 42zM340 662
l-126 -145l-69 48l105 165z" />
    <glyph glyph-name="Scircumflex" unicode="&#x15c;" horiz-adv-x="553" 
d="M378 186c0 138 -317 104 -317 332c0 105 82 193 218 193c86 0 158 -29 200 -75l-66 -92c-34 33 -68 52 -124 52c-61 0 -98 -31 -98 -77c0 -145 317 -99 317 -332c0 -118 -103 -198 -234 -198c-90 0 -195 39 -229 110l70 84c41 -53 107 -79 161 -79c58 0 102 29 102 82z
M97 792l175 112h4l179 -111l-45 -65l-136 71l-136 -71z" />
    <glyph glyph-name="scircumflex" unicode="&#x15d;" horiz-adv-x="444" 
d="M292 127c0 73 -243 33 -243 197c0 88 72 137 165 137c87 0 143 -31 171 -57l-43 -82c-27 21 -74 43 -122 43c-35 0 -56 -19 -56 -39c0 -75 243 -34 243 -193c0 -89 -72 -144 -182 -144c-83 0 -167 45 -188 77l56 75c27 -29 95 -56 140 -56c33 0 59 14 59 42zM225 706
l152 -134l-54 -68l-101 81l-102 -79l-52 67l153 133h4z" />
    <glyph glyph-name="Scedilla" unicode="&#x15e;" horiz-adv-x="553" 
d="M136 -163l37 58c17 -14 49 -33 74 -33c22 0 39 9 39 25c0 18 -11 28 -41 28h-6v76c-81 9 -165 46 -194 108l70 84c41 -53 107 -79 161 -79c58 0 102 29 102 82c0 138 -317 104 -317 332c0 105 82 193 218 193c86 0 158 -29 200 -75l-66 -92c-34 33 -68 52 -124 52
c-61 0 -98 -31 -98 -77c0 -145 317 -99 317 -332c0 -111 -91 -188 -211 -197v-25c78 -4 111 -34 111 -85s-48 -88 -133 -88c-76 0 -117 28 -139 45z" />
    <glyph glyph-name="scedilla" unicode="&#x15f;" horiz-adv-x="444" 
d="M84 -166l34 54c18 -14 45 -26 70 -26c22 0 39 9 39 25c0 18 -11 28 -41 28h-6v79c-67 11 -126 46 -143 72l56 75c27 -29 95 -56 140 -56c33 0 59 14 59 42c0 73 -243 33 -243 197c0 88 72 137 165 137c87 0 143 -31 171 -57l-43 -82c-27 21 -74 43 -122 43
c-35 0 -56 -19 -56 -39c0 -75 243 -34 243 -193c0 -86 -67 -139 -169 -143v-25c68 -4 104 -34 104 -85s-47 -88 -138 -88c-64 0 -97 25 -120 42z" />
    <glyph glyph-name="Scaron" unicode="&#x160;" horiz-adv-x="553" 
d="M378 186c0 138 -317 104 -317 332c0 105 82 193 218 193c86 0 158 -29 200 -75l-66 -92c-34 33 -68 52 -124 52c-61 0 -98 -31 -98 -77c0 -145 317 -99 317 -332c0 -118 -103 -198 -234 -198c-90 0 -195 39 -229 110l70 84c41 -53 107 -79 161 -79c58 0 102 29 102 82z
M279 735l-179 111l45 65l136 -79l135 79l41 -64l-174 -112h-4z" />
    <glyph glyph-name="scaron" unicode="&#x161;" horiz-adv-x="444" 
d="M292 127c0 73 -243 33 -243 197c0 88 72 137 165 137c87 0 143 -31 171 -57l-43 -82c-27 21 -74 43 -122 43c-35 0 -56 -19 -56 -39c0 -75 243 -34 243 -193c0 -89 -72 -144 -182 -144c-83 0 -167 45 -188 77l56 75c27 -29 95 -56 140 -56c33 0 59 14 59 42zM219 509
l-152 134l54 68l101 -92l102 90l52 -67l-153 -133h-4z" />
    <glyph glyph-name="Tcedilla" unicode="&#x162;" horiz-adv-x="597" 
d="M168 -163l37 58c17 -14 49 -33 74 -33c22 0 39 9 39 25c0 18 -11 28 -41 28h-6v85h-34v585h-227v115h577v-115h-227v-585h-31v-35c78 -4 111 -34 111 -85s-48 -88 -133 -88c-76 0 -117 28 -139 45z" />
    <glyph glyph-name="tcedilla" unicode="&#x163;" horiz-adv-x="360" 
d="M54 -166l34 54c18 -14 45 -26 70 -26c22 0 39 9 39 25c0 18 -11 28 -41 28h-6v82c-65 19 -90 80 -90 174v404h115v-125h145v-108h-145v-164c0 -49 16 -81 54 -81c31 0 53 14 69 26l35 -89c-26 -21 -71 -42 -125 -44v-25c68 -4 104 -34 104 -85s-47 -88 -138 -88
c-64 0 -97 25 -120 42z" />
    <glyph glyph-name="Tcaron" unicode="&#x164;" horiz-adv-x="597" 
d="M10 585v115h577v-115h-227v-585h-123v585h-227zM294 735l-179 111l45 65l136 -79l135 79l41 -64l-174 -112h-4z" />
    <glyph glyph-name="tcaron" unicode="&#x165;" horiz-adv-x="360" 
d="M54 171v404h115v-125h145v-108h-145v-164c0 -49 16 -81 54 -81c31 0 53 14 69 26l35 -89c-27 -22 -75 -44 -133 -44c-102 0 -140 66 -140 181zM251 700h112c5 -10 6 -24 6 -35c0 -94 -52 -148 -99 -174l-53 50c28 27 45 67 45 110c0 21 -4 34 -11 49z" />
    <glyph glyph-name="Umacron" unicode="&#x16a;" horiz-adv-x="751" 
d="M663 700v-410c0 -214 -131 -301 -278 -301c-174 0 -298 103 -298 308v403h123v-377c0 -131 54 -219 175 -219c106 0 156 75 156 211v385h122zM228 760v92h309v-92h-309z" />
    <glyph glyph-name="umacron" unicode="&#x16b;" horiz-adv-x="535" 
d="M471 450v-450h-115v55c-27 -33 -74 -66 -144 -66c-88 0 -158 57 -158 186v275h115v-251c0 -60 23 -103 86 -103c38 0 75 21 101 55v299h115zM124 550v92h279v-92h-279z" />
    <glyph glyph-name="Ubreve" unicode="&#x16c;" horiz-adv-x="751" 
d="M663 700v-410c0 -214 -131 -301 -278 -301c-174 0 -298 103 -298 308v403h123v-377c0 -131 54 -219 175 -219c106 0 156 75 156 211v385h122zM184 841l50 59c24 -27 67 -63 143 -63c66 0 113 32 140 63l43 -60c-33 -53 -102 -103 -183 -103c-92 0 -164 57 -193 104z" />
    <glyph glyph-name="ubreve" unicode="&#x16d;" horiz-adv-x="535" 
d="M471 450v-450h-115v55c-27 -33 -74 -66 -144 -66c-88 0 -158 57 -158 186v275h115v-251c0 -60 23 -103 86 -103c38 0 75 21 101 55v299h115zM106 624l51 57c21 -23 54 -56 110 -56c51 0 91 28 112 55l40 -56c-27 -40 -71 -92 -157 -92c-87 0 -138 61 -156 92z" />
    <glyph glyph-name="Uring" unicode="&#x16e;" horiz-adv-x="751" 
d="M663 700v-410c0 -214 -131 -301 -278 -301c-174 0 -298 103 -298 308v403h123v-377c0 -131 54 -219 175 -219c106 0 156 75 156 211v385h122zM236 800c0 75 62 108 139 108c79 0 143 -33 143 -108c0 -73 -64 -110 -143 -110c-77 0 -139 37 -139 110zM321 800
c0 -32 24 -47 55 -47c32 0 57 15 57 47s-25 45 -57 45c-31 0 -55 -13 -55 -45z" />
    <glyph glyph-name="uring" unicode="&#x16f;" horiz-adv-x="535" 
d="M471 450v-450h-115v55c-27 -33 -74 -66 -144 -66c-88 0 -158 57 -158 186v275h115v-251c0 -60 23 -103 86 -103c38 0 75 21 101 55v299h115zM137 612c0 66 53 120 126 120c74 0 128 -54 128 -120c0 -65 -54 -118 -128 -118c-73 0 -126 53 -126 118zM211 613
c0 -31 22 -57 54 -57c31 0 52 26 52 57s-21 56 -52 56c-32 0 -54 -25 -54 -56z" />
    <glyph glyph-name="Uhungarumlaut" unicode="&#x170;" horiz-adv-x="751" 
d="M663 700v-410c0 -214 -131 -301 -278 -301c-174 0 -298 103 -298 308v403h123v-377c0 -131 54 -219 175 -219c106 0 156 75 156 211v385h122zM630 839l-191 -108l-47 49l158 131zM423 860l-164 -129l-49 46l114 134z" />
    <glyph glyph-name="uhungarumlaut" unicode="&#x171;" horiz-adv-x="535" 
d="M471 450v-450h-115v55c-27 -33 -74 -66 -144 -66c-88 0 -158 57 -158 186v275h115v-251c0 -60 23 -103 86 -103c38 0 75 21 101 55v299h115zM481 656l-132 -139l-69 48l116 156zM300 670l-114 -153l-69 48l101 166z" />
    <glyph glyph-name="Uogonek" unicode="&#x172;" horiz-adv-x="751" 
d="M663 700v-410c0 -171 -83 -261 -191 -290c-41 -19 -68 -42 -68 -68c0 -30 25 -40 45 -40c16 0 25 2 42 10l35 -70c-17 -17 -60 -32 -103 -32c-68 0 -134 26 -134 94c0 45 33 74 79 95c-165 7 -281 109 -281 308v403h123v-377c0 -131 54 -219 175 -219
c106 0 156 75 156 211v385h122z" />
    <glyph glyph-name="uogonek" unicode="&#x173;" horiz-adv-x="535" 
d="M449 -98l35 -70c-17 -17 -60 -32 -103 -32c-68 0 -134 26 -134 94c0 55 48 91 109 109v52c-27 -33 -74 -66 -144 -66c-88 0 -158 57 -158 186v275h115v-251c0 -60 23 -103 86 -103c38 0 75 21 101 55v299h115v-450h-5c-58 -1 -104 -35 -104 -68c0 -30 25 -40 45 -40
c16 0 25 2 42 10z" />
    <glyph glyph-name="Ydieresis" unicode="&#x178;" horiz-adv-x="629" 
d="M624 700l-249 -408v-292h-123v292l-247 408h140l174 -293l172 293h133zM124 825c0 39 35 62 77 62c36 0 71 -23 71 -62c0 -43 -35 -66 -71 -66c-42 0 -77 23 -77 66zM356 825c0 39 35 62 77 62c37 0 71 -23 71 -62c0 -43 -34 -66 -71 -66c-42 0 -77 23 -77 66z" />
    <glyph glyph-name="Zacute" unicode="&#x179;" horiz-adv-x="642" 
d="M60 585v115h532v-85l-388 -500h398v-115h-562v84l387 501h-367zM502 812l-225 -81l-32 69l214 111z" />
    <glyph glyph-name="zacute" unicode="&#x17a;" horiz-adv-x="490" 
d="M57 342v108h390v-83l-244 -260h239v-107h-400v83l244 259h-229zM371 662l-126 -145l-69 48l105 165z" />
    <glyph glyph-name="Zdotaccent" unicode="&#x17b;" horiz-adv-x="642" 
d="M60 585v115h532v-85l-388 -500h398v-115h-562v84l387 501h-367zM247 831c0 44 37 71 79 71c38 0 75 -27 75 -71c0 -48 -37 -75 -75 -75c-42 0 -79 27 -79 75z" />
    <glyph glyph-name="zdotaccent" unicode="&#x17c;" horiz-adv-x="490" 
d="M57 342v108h390v-83l-244 -260h239v-107h-400v83l244 259h-229zM173 612c0 41 33 67 72 67c33 0 66 -26 66 -67c0 -46 -33 -72 -66 -72c-39 0 -72 26 -72 72z" />
    <glyph glyph-name="Zcaron" unicode="&#x17d;" horiz-adv-x="642" 
d="M60 585v115h532v-85l-388 -500h398v-115h-562v84l387 501h-367zM327 735l-179 111l45 65l136 -79l135 79l41 -64l-174 -112h-4z" />
    <glyph glyph-name="zcaron" unicode="&#x17e;" horiz-adv-x="490" 
d="M57 342v108h390v-83l-244 -260h239v-107h-400v83l244 259h-229zM250 509l-152 134l54 68l101 -92l102 90l52 -67l-153 -133h-4z" />
    <glyph glyph-name="longs" unicode="&#x17f;" horiz-adv-x="258" 
d="M69 0v523c0 125 60 188 160 188c54 0 103 -18 126 -42l-39 -88c-15 15 -40 22 -66 22c-39 0 -66 -27 -66 -89v-514h-115z" />
    <glyph glyph-name="uni018F" unicode="&#x18f;" horiz-adv-x="781" 
d="M47 414h556c-24 115 -118 182 -248 182c-56 0 -115 -17 -165 -54l-47 92c49 42 134 77 241 77c206 0 352 -142 352 -360c0 -219 -140 -362 -354 -362s-363 162 -335 425zM380 104c124 0 207 70 228 195h-434c8 -104 82 -195 206 -195z" />
    <glyph glyph-name="florin" unicode="&#x192;" 
d="M403 514l-11 -64h115v-108h-134l-66 -375c-21 -110 -56 -175 -156 -175c-48 0 -91 15 -110 32l31 91c16 -10 31 -16 52 -16c39 0 59 31 68 79l64 364h-117v108h136l13 73c24 128 68 188 168 188c54 0 102 -18 125 -42l-39 -88c-15 15 -40 22 -66 22
c-39 0 -62 -27 -73 -89z" />
    <glyph glyph-name="uni01DD" unicode="&#x1dd;" horiz-adv-x="516" 
d="M103 324l-32 81c45 38 111 56 174 56c145 0 235 -94 235 -236c0 -131 -78 -236 -228 -236c-126 0 -223 83 -223 209c0 28 2 47 7 64h330c-11 63 -62 103 -133 103c-55 0 -103 -20 -130 -41zM253 85c68 0 106 39 116 100h-221c-1 -58 38 -100 105 -100z" />
    <glyph glyph-name="Scommaaccent" unicode="&#x218;" horiz-adv-x="553" 
d="M378 186c0 138 -317 104 -317 332c0 105 82 193 218 193c86 0 158 -29 200 -75l-66 -92c-34 33 -68 52 -124 52c-61 0 -98 -31 -98 -77c0 -145 317 -99 317 -332c0 -118 -103 -198 -234 -198c-90 0 -195 39 -229 110l70 84c41 -53 107 -79 161 -79c58 0 102 29 102 82z
M221 -58l112 25c10 -6 20 -21 20 -49c0 -71 -67 -115 -124 -124l-34 50c34 14 43 34 43 60c0 18 -7 31 -17 38z" />
    <glyph glyph-name="scommaaccent" unicode="&#x219;" horiz-adv-x="444" 
d="M292 127c0 73 -243 33 -243 197c0 88 72 137 165 137c87 0 143 -31 171 -57l-43 -82c-27 21 -74 43 -122 43c-35 0 -56 -19 -56 -39c0 -75 243 -34 243 -193c0 -89 -72 -144 -182 -144c-83 0 -167 45 -188 77l56 75c27 -29 95 -56 140 -56c33 0 59 14 59 42zM162 -58
l112 25c10 -6 20 -21 20 -49c0 -71 -67 -115 -124 -124l-34 50c34 14 43 34 43 60c0 18 -7 31 -17 38z" />
    <glyph glyph-name="Tcommaaccent" unicode="&#x21a;" horiz-adv-x="597" 
d="M10 585v115h577v-115h-227v-585h-123v585h-227zM229 -58l112 25c10 -6 20 -21 20 -49c0 -71 -67 -115 -124 -124l-34 50c34 14 43 34 43 60c0 18 -7 31 -17 38z" />
    <glyph glyph-name="tcommaaccent" unicode="&#x21b;" horiz-adv-x="360" 
d="M54 171v404h115v-125h145v-108h-145v-164c0 -49 16 -81 54 -81c31 0 53 14 69 26l35 -89c-27 -22 -75 -44 -133 -44c-102 0 -140 66 -140 181zM110 -58l112 25c10 -6 20 -21 20 -49c0 -71 -67 -115 -124 -124l-34 50c34 14 43 34 43 60c0 18 -7 31 -17 38z" />
    <glyph glyph-name="uni0237" unicode="&#x237;" horiz-adv-x="284" 
d="M202 450v-483c0 -110 -41 -175 -141 -175c-48 0 -91 15 -110 32l31 91c16 -10 31 -16 51 -16c40 0 54 31 54 78v473h115z" />
    <glyph glyph-name="uni0259" unicode="&#x259;" horiz-adv-x="516" 
d="M103 324l-32 81c45 38 111 56 174 56c145 0 235 -94 235 -236c0 -131 -78 -236 -228 -236c-126 0 -223 83 -223 209c0 28 2 47 7 64h330c-11 63 -62 103 -133 103c-55 0 -103 -20 -130 -41zM253 85c68 0 106 39 116 100h-221c-1 -58 38 -100 105 -100z" />
    <glyph glyph-name="afii57929" unicode="&#x2bc;" horiz-adv-x="273" 
d="M82 628l97 57c21 -22 34 -60 34 -93c0 -93 -57 -148 -100 -172l-53 49c29 24 45 60 45 97c0 25 -9 48 -23 62z" />
    <glyph glyph-name="circumflex" unicode="&#x2c6;" horiz-adv-x="429" 
d="M217 706l152 -134l-54 -68l-101 81l-102 -79l-52 67l153 133h4z" />
    <glyph glyph-name="caron" unicode="&#x2c7;" horiz-adv-x="429" 
d="M212 509l-152 134l54 68l101 -92l102 90l52 -67l-153 -133h-4z" />
    <glyph glyph-name="breve" unicode="&#x2d8;" horiz-adv-x="433" 
d="M60 624l51 57c21 -23 54 -56 110 -56c51 0 91 28 112 55l40 -56c-27 -40 -71 -92 -157 -92c-87 0 -138 61 -156 92z" />
    <glyph glyph-name="dotaccent" unicode="&#x2d9;" horiz-adv-x="258" 
d="M60 612c0 41 33 67 72 67c33 0 66 -26 66 -67c0 -46 -33 -72 -66 -72c-39 0 -72 26 -72 72z" />
    <glyph glyph-name="ring" unicode="&#x2da;" horiz-adv-x="374" 
d="M60 612c0 66 53 120 126 120c74 0 128 -54 128 -120c0 -65 -54 -118 -128 -118c-73 0 -126 53 -126 118zM134 613c0 -31 22 -57 54 -57c31 0 52 26 52 57s-21 56 -52 56c-32 0 -54 -25 -54 -56z" />
    <glyph glyph-name="ogonek" unicode="&#x2db;" horiz-adv-x="357" 
d="M262 -98l35 -70c-17 -17 -60 -32 -103 -32c-68 0 -134 26 -134 94c0 87 122 126 224 126v-20c-60 0 -109 -34 -109 -68c0 -30 25 -40 45 -40c16 0 25 2 42 10z" />
    <glyph glyph-name="tilde" unicode="&#x2dc;" horiz-adv-x="464" 
d="M107 538l-47 52c38 48 82 69 121 69c47 0 74 -42 115 -42c30 0 43 11 69 31l39 -58c-37 -41 -79 -65 -117 -65c-44 0 -72 41 -117 41c-20 0 -43 -14 -63 -28z" />
    <glyph glyph-name="hungarumlaut" unicode="&#x2dd;" horiz-adv-x="484" 
d="M424 656l-132 -139l-69 48l116 156zM243 670l-114 -153l-69 48l101 166z" />
    <glyph glyph-name="gravecomb" unicode="&#x300;" horiz-adv-x="0" 
d="M-267 517l-127 143l91 68l104 -163z" />
    <glyph glyph-name="acutecomb" unicode="&#x301;" horiz-adv-x="0" 
d="M-115 662l-126 -145l-69 48l105 165z" />
    <glyph glyph-name="uni0394" unicode="&#x394;" horiz-adv-x="741" 
d="M25 0l303 708h78l310 -708h-691zM364 502l-161 -387h330z" />
    <glyph glyph-name="uni0394" unicode="&#x2206;" horiz-adv-x="741" 
d="M25 0l303 708h78l310 -708h-691zM364 502l-161 -387h330z" />
    <glyph glyph-name="uni03A9" unicode="&#x3a9;" horiz-adv-x="823" 
d="M54 0v115h157c-72 23 -156 128 -156 265c0 203 158 331 357 331c203 0 357 -128 357 -331c0 -146 -88 -241 -157 -265h156v-115h-313v115c114 31 184 137 184 245c0 123 -85 236 -227 236c-149 0 -227 -113 -227 -239c0 -94 66 -214 183 -242v-115h-314z" />
    <glyph glyph-name="uni03A9" unicode="&#x2126;" horiz-adv-x="823" 
d="M54 0v115h157c-72 23 -156 128 -156 265c0 203 158 331 357 331c203 0 357 -128 357 -331c0 -146 -88 -241 -157 -265h156v-115h-313v115c114 31 184 137 184 245c0 123 -85 236 -227 236c-149 0 -227 -113 -227 -239c0 -94 66 -214 183 -242v-115h-314z" />
    <glyph glyph-name="pi" unicode="&#x3c0;" horiz-adv-x="627" 
d="M42 342v108h534v-108h-77v-176c0 -48 10 -68 33 -68c17 0 31 8 46 18l24 -88c-26 -21 -65 -38 -118 -38c-64 0 -100 39 -100 129v223h-145v-45c0 -247 -71 -306 -204 -306l-10 112c49 -3 95 27 99 177l1 62h-83z" />
    <glyph glyph-name="afii10023" unicode="&#x401;" horiz-adv-x="575" 
d="M97 0v700h405v-115h-282v-174h252v-115h-252v-181h292v-115h-415zM119 825c0 39 35 62 77 62c36 0 71 -23 71 -62c0 -43 -35 -66 -71 -66c-42 0 -77 23 -77 66zM351 825c0 39 35 62 77 62c37 0 71 -23 71 -62c0 -43 -34 -66 -71 -66c-42 0 -77 23 -77 66z" />
    <glyph glyph-name="afii10051" unicode="&#x402;" horiz-adv-x="764" 
d="M719 203c0 -146 -70 -214 -179 -214c-54 0 -103 24 -119 43l41 94c16 -12 40 -22 62 -22c44 0 73 28 73 97c0 77 -41 107 -111 107c-59 0 -96 -19 -126 -37v-271h-123v585h-227v115h577v-115h-227v-202c33 20 80 40 149 40c116 0 210 -52 210 -220z" />
    <glyph glyph-name="afii10052" unicode="&#x403;" horiz-adv-x="507" 
d="M97 0v700h395v-115h-272v-585h-123zM509 812l-225 -81l-32 69l214 111z" />
    <glyph glyph-name="afii10053" unicode="&#x404;" horiz-adv-x="673" 
d="M486 414v-115h-315c22 -132 132 -195 253 -195c72 0 133 27 177 61l45 -103c-49 -42 -135 -73 -232 -73c-224 0 -369 138 -369 361c0 214 146 361 352 361c107 0 192 -35 241 -77l-55 -92c-49 37 -108 54 -164 54c-132 0 -222 -67 -246 -182h313z" />
    <glyph glyph-name="afii10054" unicode="&#x405;" horiz-adv-x="553" 
d="M378 186c0 138 -317 104 -317 332c0 105 82 193 218 193c86 0 158 -29 200 -75l-66 -92c-34 33 -68 52 -124 52c-61 0 -98 -31 -98 -77c0 -145 317 -99 317 -332c0 -118 -103 -198 -234 -198c-90 0 -195 39 -229 110l70 84c41 -53 107 -79 161 -79c58 0 102 29 102 82z
" />
    <glyph glyph-name="afii10055" unicode="&#x406;" horiz-adv-x="347" 
d="M112 0v700h123v-700h-123z" />
    <glyph glyph-name="afii10056" unicode="&#x407;" horiz-adv-x="347" 
d="M26 825c0 38 30 62 66 62c33 0 63 -24 63 -62c0 -43 -30 -66 -63 -66c-36 0 -66 23 -66 66zM193 825c0 38 30 62 67 62c32 0 62 -24 62 -62c0 -43 -30 -66 -62 -66c-37 0 -67 23 -67 66zM112 0v700h123v-700h-123z" />
    <glyph glyph-name="afii10057" unicode="&#x408;" horiz-adv-x="390" 
d="M293 700v-535c0 -112 -55 -176 -169 -176c-53 0 -101 22 -119 43l40 94c16 -12 40 -22 62 -22c45 0 63 32 63 82v514h123z" />
    <glyph glyph-name="afii10058" unicode="&#x409;" horiz-adv-x="1011" 
d="M510 0v585h-204l-14 -132c-41 -407 -132 -473 -270 -453l3 122c54 -7 125 16 156 438l10 140h441v-240c31 4 58 5 77 5c174 0 257 -89 257 -226c0 -150 -104 -241 -283 -241c-67 0 -133 2 -173 2zM699 350c-18 0 -40 -2 -67 -5v-229c22 -1 41 -3 65 -3
c90 0 139 41 139 123c0 75 -51 114 -137 114z" />
    <glyph glyph-name="afii10059" unicode="&#x40a;" horiz-adv-x="1032" 
d="M97 0v700h123v-262h310v262h122v-257c32 3 59 4 78 4c174 0 257 -87 257 -217c0 -141 -104 -232 -283 -232c-67 0 -133 2 -173 2h-1v323h-310v-323h-123zM652 327v-211c23 -1 42 -3 66 -3c90 0 139 39 139 114c0 68 -51 105 -137 105c-18 0 -40 -1 -68 -5z" />
    <glyph glyph-name="afii10060" unicode="&#x40b;" horiz-adv-x="765" 
d="M10 585v115h577v-115h-227v-202c33 21 83 40 150 40c106 0 210 -57 210 -223v-200h-122v164c0 112 -52 144 -120 144c-48 0 -86 -17 -118 -38v-270h-123v585h-227z" />
    <glyph glyph-name="afii10061" unicode="&#x40c;" horiz-adv-x="672" 
d="M97 0v700h123v-332l276 332h148l-288 -326l306 -374h-156l-286 361v-361h-123zM554 812l-225 -81l-32 69l214 111z" />
    <glyph glyph-name="afii10062" unicode="&#x40e;" horiz-adv-x="683" 
d="M671 700l-238 -537c-48 -107 -103 -163 -190 -163c-36 0 -77 13 -96 28l43 104c19 -13 32 -17 52 -17c33 0 55 19 69 49l10 24l-309 512h139l229 -391l167 391h124zM156 870h115c8 -39 35 -58 85 -58c45 0 76 15 80 58h115c-3 -86 -85 -143 -195 -143
c-120 0 -193 58 -200 143z" />
    <glyph glyph-name="afii10145" unicode="&#x40f;" horiz-adv-x="742" 
d="M97 0v700h123v-585h302v585h123v-700h-217v-153h-115v153h-216z" />
    <glyph glyph-name="afii10017" unicode="&#x410;" horiz-adv-x="715" 
d="M7 0l296 702h108l296 -702h-131l-73 179h-299l-73 -179h-124zM354 543l-103 -249h205z" />
    <glyph glyph-name="afii10018" unicode="&#x411;" horiz-adv-x="614" 
d="M97 0v700h409v-115h-286v-156c27 4 69 6 94 6c146 0 235 -82 235 -211c0 -145 -98 -228 -270 -228c-81 0 -141 4 -182 4zM304 320c-23 0 -53 -2 -84 -6v-199c28 -2 52 -4 78 -4c91 0 129 42 129 104c0 60 -37 105 -123 105z" />
    <glyph glyph-name="afii10019" unicode="&#x412;" horiz-adv-x="617" 
d="M97 1v697c39 2 132 5 202 5c167 0 230 -76 230 -173c0 -80 -40 -131 -100 -159v-2c69 -17 123 -70 123 -163c0 -144 -112 -210 -260 -210c-64 0 -154 2 -195 5zM307 301h-87v-185c17 -2 46 -5 81 -5c83 0 128 35 128 101c0 59 -45 89 -122 89zM297 588
c-28 0 -55 -1 -77 -3v-177h83c57 0 104 29 104 93c0 57 -44 87 -110 87z" />
    <glyph glyph-name="afii10020" unicode="&#x413;" horiz-adv-x="507" 
d="M97 0v700h395v-115h-272v-585h-123z" />
    <glyph glyph-name="afii10021" unicode="&#x414;" horiz-adv-x="756" 
d="M12 -125v240h75c29 36 96 184 108 445l7 140h434v-585h95v-240h-115v125h-489v-125h-115zM310 463c-13 -181 -63 -317 -88 -348h292v470h-193z" />
    <glyph glyph-name="afii10022" unicode="&#x415;" horiz-adv-x="575" 
d="M97 0v700h405v-115h-282v-174h252v-115h-252v-181h292v-115h-415z" />
    <glyph glyph-name="afii10024" unicode="&#x416;" horiz-adv-x="954" 
d="M284 365l-263 335h141l254 -334v334h122v-334l253 334h142l-263 -334l274 -366h-142l-264 363v-363h-122v363l-265 -363h-141z" />
    <glyph glyph-name="afii10025" unicode="&#x417;" horiz-adv-x="585" 
d="M275 -11c-124 0 -203 62 -240 118l67 83c43 -49 110 -86 167 -86c67 0 129 32 129 104c0 55 -42 92 -124 92h-72v115h68c52 0 101 34 101 92c0 60 -44 89 -102 89s-103 -24 -142 -76l-71 82c46 64 131 109 227 109c123 0 210 -68 210 -192c0 -54 -29 -116 -94 -154v-3
c84 -21 121 -86 121 -166c0 -129 -118 -207 -245 -207z" />
    <glyph glyph-name="afii10026" unicode="&#x418;" horiz-adv-x="792" 
d="M205 0h-108v700h123v-498l367 498h108v-700h-123v497z" />
    <glyph glyph-name="afii10027" unicode="&#x419;" horiz-adv-x="792" 
d="M205 0h-108v700h123v-498l367 498h108v-700h-123v497zM208 870h115c8 -39 35 -58 85 -58c45 0 76 15 80 58h115c-3 -86 -85 -143 -195 -143c-120 0 -193 58 -200 143z" />
    <glyph glyph-name="afii10028" unicode="&#x41a;" horiz-adv-x="672" 
d="M97 0v700h123v-332l276 332h148l-288 -326l306 -374h-156l-286 361v-361h-123z" />
    <glyph glyph-name="afii10029" unicode="&#x41b;" horiz-adv-x="729" 
d="M510 0v585h-204l-14 -132c-41 -407 -132 -473 -270 -453l3 122c54 -7 125 16 156 438l10 140h441v-700h-122z" />
    <glyph glyph-name="afii10030" unicode="&#x41c;" horiz-adv-x="901" 
d="M97 0v700h124l239 -327l228 327h116v-700h-122v506l-221 -311h-18l-223 308v-503h-123z" />
    <glyph glyph-name="afii10031" unicode="&#x41d;" horiz-adv-x="759" 
d="M540 0v299h-320v-299h-123v700h123v-286h320v286h122v-700h-122z" />
    <glyph glyph-name="afii10032" unicode="&#x41e;" horiz-adv-x="819" 
d="M45 350c0 203 149 361 364 361c208 0 365 -143 365 -361c0 -210 -157 -361 -365 -361s-364 143 -364 361zM175 350c0 -140 103 -246 234 -246c147 0 235 108 235 246c0 145 -103 246 -235 246c-134 0 -234 -101 -234 -246z" />
    <glyph glyph-name="afii10033" unicode="&#x41f;" horiz-adv-x="752" 
d="M532 0v585h-312v-585h-123v700h558v-700h-123z" />
    <glyph glyph-name="afii10034" unicode="&#x420;" horiz-adv-x="612" 
d="M220 0h-123v700c39 0 150 2 199 2c206 0 271 -110 271 -225c0 -119 -89 -227 -256 -227c-21 0 -61 0 -91 3v-253zM308 587c-25 0 -55 -1 -88 -2v-215c29 -3 59 -5 87 -5c73 0 130 35 130 113c0 73 -45 109 -129 109z" />
    <glyph glyph-name="afii10035" unicode="&#x421;" horiz-adv-x="655" 
d="M583 160l47 -92c-44 -47 -133 -79 -224 -79c-214 0 -361 143 -361 361c0 201 127 361 358 361c91 0 167 -29 213 -71l-55 -91c-42 28 -88 47 -158 47c-130 0 -228 -94 -228 -246c0 -146 99 -246 242 -246c59 0 118 19 166 56z" />
    <glyph glyph-name="afii10036" unicode="&#x422;" horiz-adv-x="597" 
d="M10 585v115h577v-115h-227v-585h-123v585h-227z" />
    <glyph glyph-name="afii10037" unicode="&#x423;" horiz-adv-x="683" 
d="M671 700l-238 -537c-48 -107 -103 -163 -190 -163c-36 0 -77 13 -96 28l43 104c19 -13 32 -17 52 -17c33 0 55 19 69 49l10 24l-309 512h139l229 -391l167 391h124z" />
    <glyph glyph-name="afii10038" unicode="&#x424;" horiz-adv-x="839" 
d="M358 -8v93c-193 0 -323 98 -323 275c0 175 131 272 323 275v73h123v-73c191 -3 323 -103 323 -275c0 -175 -132 -274 -323 -275v-93h-123zM674 360c0 94 -62 160 -193 162v-324c127 1 193 55 193 162zM165 360c0 -105 70 -161 193 -162v324c-128 -1 -193 -67 -193 -162z
" />
    <glyph glyph-name="afii10039" unicode="&#x425;" horiz-adv-x="669" 
d="M650 700l-236 -343l245 -357h-144l-181 263l-180 -263h-144l245 357l-234 343h144l172 -253l169 253h144z" />
    <glyph glyph-name="afii10040" unicode="&#x426;" horiz-adv-x="770" 
d="M97 0v700h123v-585h307v585h123v-585h95v-240h-115v125h-533z" />
    <glyph glyph-name="afii10041" unicode="&#x427;" horiz-adv-x="667" 
d="M570 700v-700h-123v287c-33 -24 -92 -48 -167 -48c-106 0 -213 57 -213 224v237h123v-202c0 -112 54 -144 123 -144c54 0 99 21 134 45v301h123z" />
    <glyph glyph-name="afii10042" unicode="&#x428;" horiz-adv-x="997" 
d="M97 0v700h123v-585h217v585h123v-585h217v585h123v-700h-803z" />
    <glyph glyph-name="afii10043" unicode="&#x429;" horiz-adv-x="1020" 
d="M97 0v700h123v-585h217v585h123v-585h217v585h123v-585h95v-240h-115v125h-783z" />
    <glyph glyph-name="afii10044" unicode="&#x42a;" horiz-adv-x="673" 
d="M7 585v115h276v-240c32 4 61 5 81 5c181 0 264 -89 264 -226c0 -148 -104 -241 -291 -241c-66 0 -135 2 -176 2v585h-154zM354 350c-19 0 -43 -2 -71 -5v-229c23 -1 45 -3 69 -3c90 0 146 37 146 123c0 79 -58 114 -144 114z" />
    <glyph glyph-name="afii10045" unicode="&#x42b;" horiz-adv-x="864" 
d="M645 0v700h122v-700h-122zM288 350c-19 0 -40 -2 -68 -5v-229c22 -1 42 -3 66 -3c90 0 138 41 138 123c0 75 -50 114 -136 114zM220 700v-240c31 4 58 5 78 5c173 0 256 -89 256 -226c0 -148 -104 -241 -283 -241c-66 0 -133 2 -174 2v700h123z" />
    <glyph glyph-name="afii10046" unicode="&#x42c;" horiz-adv-x="609" 
d="M290 350c-18 0 -42 -2 -70 -5v-229c22 -1 44 -3 68 -3c90 0 146 37 146 123c0 79 -58 114 -144 114zM220 700v-240c31 4 61 5 80 5c181 0 264 -89 264 -226c0 -148 -104 -241 -290 -241c-67 0 -136 2 -177 2v700h123z" />
    <glyph glyph-name="afii10047" unicode="&#x42d;" horiz-adv-x="673" 
d="M187 299v115h312c-24 117 -120 182 -252 182c-56 0 -115 -17 -164 -54l-48 92c49 42 134 77 241 77c206 0 352 -142 352 -360c0 -219 -142 -362 -366 -362c-97 0 -186 31 -235 73l53 103c44 -34 107 -61 180 -61c120 0 221 66 242 195h-315z" />
    <glyph glyph-name="afii10048" unicode="&#x42e;" horiz-adv-x="1081" 
d="M97 0v700h123v-286h119c26 171 156 297 342 297c208 0 355 -143 355 -361c0 -210 -147 -361 -355 -361c-178 0 -322 121 -344 310h-117v-299h-123zM464 350c0 -140 98 -246 221 -246c147 0 221 108 221 246c0 145 -89 246 -221 246c-126 0 -221 -101 -221 -246z" />
    <glyph glyph-name="afii10049" unicode="&#x42f;" horiz-adv-x="632" 
d="M413 0v242h-101l-157 -242h-138l179 267c-65 33 -123 97 -123 194c0 129 84 242 288 242c45 0 133 -3 174 -3v-700h-122zM301 357h112v228c-17 1 -56 3 -77 3c-81 0 -133 -49 -133 -119c0 -63 48 -102 98 -112z" />
    <glyph glyph-name="afii10065" unicode="&#x430;" horiz-adv-x="463" 
d="M99 334l-29 84c39 23 100 43 159 43c133 0 180 -68 180 -187v-274h-100v52c-24 -34 -72 -58 -133 -58c-82 0 -141 51 -141 138c0 99 73 146 164 146c40 0 80 -13 102 -29c3 75 -17 116 -84 116c-52 0 -85 -16 -118 -31zM214 91c48 0 73 21 87 41v46c-20 15 -46 22 -79 22
c-38 0 -72 -18 -72 -56c0 -34 28 -53 64 -53z" />
    <glyph glyph-name="afii10066" unicode="&#x431;" horiz-adv-x="548" 
d="M402 711l60 -94c-59 -70 -131 -48 -218 -91c-65 -30 -90 -97 -97 -168h2c28 49 92 84 158 84c124 0 205 -86 205 -221c0 -126 -94 -232 -236 -232c-151 0 -244 110 -244 285c0 147 33 303 170 362c99 42 153 21 200 75zM155 250c1 -87 45 -154 118 -154s116 55 116 120
c0 67 -38 119 -111 119c-64 0 -108 -39 -123 -85z" />
    <glyph glyph-name="afii10067" unicode="&#x432;" horiz-adv-x="502" 
d="M64 0v450c39 1 107 5 177 5c131 0 204 -36 204 -118c0 -54 -39 -93 -84 -100v-2c63 -15 96 -52 96 -104c0 -89 -69 -136 -214 -136c-56 0 -138 5 -179 5zM251 191h-72v-100c17 -1 48 -4 76 -4c51 0 81 21 81 52c0 34 -31 52 -85 52zM251 362c-27 0 -60 -1 -72 -2v-99h75
c38 0 69 17 69 52c0 33 -29 49 -72 49z" />
    <glyph glyph-name="afii10068" unicode="&#x433;" horiz-adv-x="374" 
d="M64 0v450h302v-108h-187v-342h-115z" />
    <glyph glyph-name="afii10069" unicode="&#x434;" horiz-adv-x="556" 
d="M10 -105v212h57c32 42 57 133 63 235l7 108h332v-343h75v-212h-108v105h-319v-105h-107zM241 296c-9 -95 -34 -161 -54 -189h167v235h-110z" />
    <glyph glyph-name="afii10070" unicode="&#x435;" horiz-adv-x="516" 
d="M417 126l33 -81c-45 -38 -109 -56 -172 -56c-145 0 -242 94 -242 236c0 131 90 236 238 236c116 0 213 -83 213 -209c0 -28 -2 -45 -7 -62h-325c10 -68 64 -105 135 -105c55 0 101 20 127 41zM269 365c-69 0 -106 -39 -118 -98h221c1 55 -37 98 -103 98z" />
    <glyph glyph-name="afii10072" unicode="&#x436;" horiz-adv-x="709" 
d="M689 450l-149 -218l161 -232h-136l-150 232l138 218h136zM295 0v450h115v-450h-115zM166 232l-150 218h140l134 -218l-146 -232h-137z" />
    <glyph glyph-name="afii10073" unicode="&#x437;" horiz-adv-x="472" 
d="M223 -11c-80 0 -163 33 -196 75l59 72c27 -30 84 -55 127 -55c60 0 92 23 92 55c0 30 -24 51 -68 51h-84v77h79c38 0 60 26 60 55c0 31 -29 49 -79 49c-52 0 -95 -28 -123 -52l-48 69c41 48 108 76 193 76c119 0 180 -50 180 -128c0 -43 -30 -82 -83 -100v-2
c63 -12 95 -54 95 -106c0 -84 -82 -136 -204 -136z" />
    <glyph glyph-name="afii10074" unicode="&#x438;" horiz-adv-x="568" 
d="M179 0h-115v450h115v-285l210 285h115v-450h-115v285z" />
    <glyph glyph-name="afii10075" unicode="&#x439;" horiz-adv-x="568" 
d="M179 0h-115v450h115v-285l210 285h115v-450h-115v285zM131 675h105c0 -37 14 -73 52 -73c34 0 48 36 48 73h105c0 -86 -52 -155 -153 -155c-112 0 -157 68 -157 155z" />
    <glyph glyph-name="afii10076" unicode="&#x43a;" horiz-adv-x="515" 
d="M490 450l-173 -214l194 -236h-150l-178 227l162 223h145zM64 0v450h115v-450h-115z" />
    <glyph glyph-name="afii10077" unicode="&#x43b;" horiz-adv-x="539" 
d="M360 0v335h-119l-3 -48c-22 -245 -82 -296 -203 -296l-10 112c39 -4 92 33 102 207l7 140h341v-450h-115z" />
    <glyph glyph-name="afii10078" unicode="&#x43c;" horiz-adv-x="631" 
d="M64 0v450h104l153 -188l145 188h101v-450h-115v275l-133 -168h-3l-137 168v-275h-115z" />
    <glyph glyph-name="afii10079" unicode="&#x43d;" horiz-adv-x="555" 
d="M376 0v172h-197v-172h-115v450h115v-170h197v170h115v-450h-115z" />
    <glyph glyph-name="afii10080" unicode="&#x43e;" horiz-adv-x="562" 
d="M36 225c0 135 96 236 245 236s245 -101 245 -236s-96 -236 -245 -236s-245 101 -245 236zM159 225c0 -75 52 -129 122 -129c71 0 123 51 123 129c0 76 -53 128 -123 128c-68 0 -122 -50 -122 -128z" />
    <glyph glyph-name="afii10081" unicode="&#x43f;" horiz-adv-x="550" 
d="M371 0v342h-192v-342h-115v450h422v-450h-115z" />
    <glyph glyph-name="afii10082" unicode="&#x440;" horiz-adv-x="558" 
d="M64 -200v650h115v-43c28 30 81 54 139 54c124 0 204 -96 204 -229c0 -137 -94 -243 -238 -243c-40 0 -79 7 -105 22v-211h-115zM282 353c-39 0 -75 -18 -103 -49v-182c31 -20 57 -26 95 -26c80 0 126 58 126 133c0 72 -42 124 -118 124z" />
    <glyph glyph-name="afii10083" unicode="&#x441;" horiz-adv-x="487" 
d="M405 151l54 -84c-38 -51 -106 -78 -179 -78c-146 0 -244 94 -244 236c0 131 96 236 233 236c74 0 139 -19 181 -61l-54 -91c-34 33 -71 44 -112 44c-64 0 -125 -49 -125 -128c0 -80 62 -129 130 -129c49 0 87 23 116 55z" />
    <glyph glyph-name="afii10084" unicode="&#x442;" horiz-adv-x="445" 
d="M17 335v115h410v-115h-147v-335h-115v335h-148z" />
    <glyph glyph-name="afii10085" unicode="&#x443;" horiz-adv-x="503" 
d="M498 450l-177 -450c-66 -161 -108 -200 -174 -200c-41 0 -71 16 -97 35l37 87c12 -7 29 -16 47 -16c29 0 50 23 69 70l10 24l-208 450h138l105 -246c9 -22 15 -43 22 -65c4 21 8 43 16 66l81 245h131z" />
    <glyph glyph-name="afii10086" unicode="&#x444;" horiz-adv-x="687" 
d="M286 -200v189h-6c-157 0 -244 102 -244 236c0 122 86 236 243 236h7v239h115v-239h8c155 0 242 -104 242 -236c0 -134 -79 -236 -242 -236h-8v-189h-115zM409 353h-8v-257h4c83 0 123 53 123 129c0 67 -38 128 -119 128zM159 225c0 -75 41 -129 124 -129h3v257h-8
c-85 0 -119 -59 -119 -128z" />
    <glyph glyph-name="afii10087" unicode="&#x445;" horiz-adv-x="522" 
d="M494 450l-150 -215l160 -235h-140l-105 162l-109 -162h-133l160 229l-150 221h141l95 -149l98 149h133z" />
    <glyph glyph-name="afii10088" unicode="&#x446;" horiz-adv-x="566" 
d="M64 0v450h115v-343h185v343h115v-343h75v-212h-108v105h-382z" />
    <glyph glyph-name="afii10089" unicode="&#x447;" horiz-adv-x="491" 
d="M427 450v-450h-115v155c-28 -15 -69 -26 -112 -26c-116 0 -163 63 -163 177v144h123v-130c0 -56 27 -83 73 -83c29 0 62 8 79 18v195h115z" />
    <glyph glyph-name="afii10090" unicode="&#x448;" horiz-adv-x="728" 
d="M64 0v450h115v-343h127v343h115v-343h128v343h115v-450h-600z" />
    <glyph glyph-name="afii10091" unicode="&#x449;" horiz-adv-x="751" 
d="M64 0v450h115v-343h127v343h115v-343h128v343h115v-343h75v-212h-108v105h-567z" />
    <glyph glyph-name="afii10092" unicode="&#x44a;" horiz-adv-x="536" 
d="M15 342v108h232v-123h63c153 0 198 -76 198 -156c0 -86 -54 -171 -207 -171h-169v342h-117zM300 235h-53v-135h52c62 0 86 26 86 67s-24 68 -85 68z" />
    <glyph glyph-name="afii10093" unicode="&#x44b;" horiz-adv-x="676" 
d="M64 0v450h115v-123h56c153 0 198 -76 198 -156c0 -86 -54 -171 -207 -171h-162zM497 0v450h115v-450h-115zM225 235h-46v-135h45c62 0 87 26 87 67s-24 68 -86 68z" />
    <glyph glyph-name="afii10094" unicode="&#x44c;" horiz-adv-x="467" 
d="M64 0v450h115v-123h62c153 0 198 -76 198 -156c0 -86 -54 -171 -207 -171h-168zM231 235h-52v-135h51c62 0 87 26 87 67s-24 68 -86 68z" />
    <glyph glyph-name="afii10095" unicode="&#x44d;" horiz-adv-x="496" 
d="M140 189v77h200c-15 65 -68 95 -129 95c-52 0 -91 -19 -129 -47l-47 80c43 46 117 67 174 67c154 0 251 -92 251 -236c0 -131 -88 -236 -240 -236c-87 0 -146 25 -187 67l54 76c25 -22 71 -43 126 -43c68 0 116 34 128 100h-201z" />
    <glyph glyph-name="afii10096" unicode="&#x44e;" horiz-adv-x="772" 
d="M64 0v450h122v-163h80c23 103 107 174 228 174c146 0 242 -101 242 -236s-98 -236 -242 -236c-125 0 -209 75 -230 183h-78v-172h-122zM389 225c0 -77 46 -121 108 -121c64 0 109 45 109 121c0 74 -42 121 -109 121c-63 0 -108 -47 -108 -121z" />
    <glyph glyph-name="afii10097" unicode="&#x44f;" horiz-adv-x="495" 
d="M284 450h147v-450h-115v135h-64l-93 -135h-132l120 160c-39 14 -87 56 -87 130c0 87 62 160 224 160zM183 282c0 -37 37 -62 73 -62h60v130h-51c-56 0 -82 -34 -82 -68z" />
    <glyph glyph-name="afii10071" unicode="&#x451;" horiz-adv-x="516" 
d="M417 126l33 -81c-45 -38 -109 -56 -172 -56c-145 0 -242 94 -242 236c0 131 90 236 238 236c116 0 213 -83 213 -209c0 -28 -2 -45 -7 -62h-325c10 -68 64 -105 135 -105c55 0 101 20 127 41zM269 365c-69 0 -106 -39 -118 -98h221c1 55 -37 98 -103 98zM109 599
c0 40 30 64 65 64c30 0 60 -24 60 -64c0 -43 -30 -67 -60 -67c-35 0 -65 24 -65 67zM308 599c0 40 30 64 64 64c31 0 60 -24 60 -64c0 -43 -29 -67 -60 -67c-34 0 -64 24 -64 67z" />
    <glyph glyph-name="afii10099" unicode="&#x452;" horiz-adv-x="590" 
d="M7 432v93h118v175h115v-175h158v-93h-158v-118c29 28 77 49 129 49c110 0 185 -56 185 -193c0 -175 -73 -306 -165 -370h-123c113 91 172 218 172 342c0 76 -36 113 -98 113c-38 0 -74 -15 -100 -41v-214h-115v432h-118z" />
    <glyph glyph-name="afii10100" unicode="&#x453;" horiz-adv-x="374" 
d="M64 0v450h302v-108h-187v-342h-115zM361 662l-126 -145l-69 48l105 165z" />
    <glyph glyph-name="afii10101" unicode="&#x454;" horiz-adv-x="495" 
d="M356 266v-77h-202c14 -66 68 -100 137 -100c55 0 94 21 119 43l54 -76c-42 -42 -93 -67 -180 -67c-157 0 -248 105 -248 236c0 144 97 236 251 236c57 0 131 -21 174 -67l-47 -80c-32 28 -76 47 -129 47c-61 0 -114 -30 -130 -95h201z" />
    <glyph glyph-name="afii10102" unicode="&#x455;" horiz-adv-x="444" 
d="M292 127c0 73 -243 33 -243 197c0 88 72 137 165 137c87 0 143 -31 171 -57l-43 -82c-27 21 -74 43 -122 43c-35 0 -56 -19 -56 -39c0 -75 243 -34 243 -193c0 -89 -72 -144 -182 -144c-83 0 -167 45 -188 77l56 75c27 -29 95 -56 140 -56c33 0 59 14 59 42z" />
    <glyph glyph-name="afii10103" unicode="&#x456;" horiz-adv-x="277" 
d="M81 0v450h115v-450h-115zM69 612c0 41 33 67 72 67c33 0 66 -26 66 -67c0 -46 -33 -72 -66 -72c-39 0 -72 26 -72 72z" />
    <glyph glyph-name="afii10104" unicode="&#x457;" horiz-adv-x="315" 
d="M25 597c0 35 26 56 59 56c27 0 54 -21 54 -56c0 -38 -27 -59 -54 -59c-33 0 -59 21 -59 59zM177 597c0 35 27 56 59 56c28 0 54 -21 54 -56c0 -38 -26 -59 -54 -59c-32 0 -59 21 -59 59zM113 0v450h115v-450h-115z" />
    <glyph glyph-name="afii10105" unicode="&#x458;" horiz-adv-x="284" 
d="M202 450v-483c0 -110 -41 -175 -141 -175c-48 0 -91 15 -110 32l31 91c16 -10 31 -16 51 -16c40 0 54 31 54 78v473h115zM76 612c0 41 33 67 72 67c33 0 66 -26 66 -67c0 -46 -33 -72 -66 -72c-39 0 -72 26 -72 72z" />
    <glyph glyph-name="afii10106" unicode="&#x459;" horiz-adv-x="742" 
d="M360 0v335h-119l-3 -48c-22 -245 -82 -296 -203 -296l-10 112c39 -4 92 33 102 207l7 140h341v-123h42c153 0 198 -76 198 -156c0 -86 -54 -171 -207 -171h-148zM507 235h-32v-135h31c62 0 86 26 86 67s-24 68 -85 68z" />
    <glyph glyph-name="afii10107" unicode="&#x45a;" horiz-adv-x="759" 
d="M376 0v177h-197v-177h-115v450h115v-165h197v165h115v-128h42c153 0 198 -73 198 -153c0 -87 -54 -169 -207 -169h-148zM523 230h-32v-130h31c62 0 87 23 87 65c0 41 -24 65 -86 65z" />
    <glyph glyph-name="afii10108" unicode="&#x45b;" horiz-adv-x="590" 
d="M7 432v93h118v175h115v-175h158v-93h-158v-118c29 28 77 49 129 49c110 0 185 -56 185 -197v-166h-115v151c0 67 -37 104 -99 104c-38 0 -74 -15 -100 -41v-214h-115v432h-118z" />
    <glyph glyph-name="afii10109" unicode="&#x45c;" horiz-adv-x="515" 
d="M490 450l-173 -214l194 -236h-150l-178 227l162 223h145zM64 0v450h115v-450h-115zM384 662l-126 -145l-69 48l105 165z" />
    <glyph glyph-name="afii10110" unicode="&#x45e;" horiz-adv-x="503" 
d="M498 450l-177 -450c-66 -161 -108 -200 -174 -200c-41 0 -71 16 -97 35l37 87c12 -7 29 -16 47 -16c29 0 50 23 69 70l10 24l-208 450h138l105 -246c9 -22 15 -43 22 -65c4 21 8 43 16 66l81 245h131zM103 675h105c0 -37 14 -73 52 -73c34 0 48 36 48 73h105
c0 -86 -52 -155 -153 -155c-112 0 -157 68 -157 155z" />
    <glyph glyph-name="afii10193" unicode="&#x45f;" horiz-adv-x="540" 
d="M64 0v450h115v-343h182v343h115v-450h-152v-118h-108v118h-152z" />
    <glyph glyph-name="afii10146" unicode="&#x462;" horiz-adv-x="648" 
d="M258 700v-80h148v-115h-148v-75c32 4 61 5 81 5c181 0 264 -74 264 -211c0 -148 -104 -226 -291 -226c-66 0 -135 2 -176 2v505h-121v115h121v80h122zM329 320c-19 0 -43 -2 -71 -5v-199c23 -1 45 -3 69 -3c90 0 146 22 146 108c0 79 -58 99 -144 99z" />
    <glyph glyph-name="afii10194" unicode="&#x463;" horiz-adv-x="517" 
d="M7 357v93h118v250h115v-250h136v-93h-136v-60h51c153 0 198 -61 198 -141c0 -86 -54 -156 -207 -156h-157v357h-118zM281 212h-41v-120h40c62 0 87 19 87 60s-24 60 -86 60z" />
    <glyph glyph-name="afii10147" unicode="&#x472;" horiz-adv-x="819" 
d="M45 350c0 203 149 361 364 361c208 0 365 -143 365 -361c0 -210 -157 -361 -365 -361s-364 143 -364 361zM304 339c-46 0 -94 -30 -122 -54c26 -107 117 -181 227 -181c129 0 212 83 231 197c-37 -21 -80 -36 -116 -36c-92 0 -138 74 -220 74zM533 373c34 0 78 20 104 41
c-26 110 -117 182 -228 182c-116 0 -207 -76 -229 -191c39 25 85 41 124 41c94 0 140 -73 229 -73z" />
    <glyph glyph-name="afii10195" unicode="&#x473;" horiz-adv-x="577" 
d="M36 225c0 135 96 236 253 236c156 0 252 -101 252 -236s-96 -236 -252 -236c-157 0 -253 101 -253 236zM217 211c-21 0 -39 -7 -61 -29c16 -69 73 -101 133 -101c61 0 119 33 133 108c-23 -20 -49 -28 -71 -28c-60 0 -89 50 -134 50zM366 239c19 0 38 5 56 24
c-15 71 -74 105 -133 105c-61 0 -121 -33 -135 -108c24 19 50 28 68 28c63 0 102 -49 144 -49z" />
    <glyph glyph-name="afii10148" unicode="&#x474;" horiz-adv-x="661" 
d="M563 499l-185 -501h-93l-288 702h131l207 -518l130 378c42 122 88 172 216 139l-16 -107c-58 19 -74 -16 -102 -93z" />
    <glyph glyph-name="afii10196" unicode="&#x475;" horiz-adv-x="492" 
d="M402 268l-110 -270h-86l-209 452h137l85 -193c13 -27 26 -66 34 -101c8 34 20 74 31 103l30 79c36 97 73 142 198 110l-17 -108c-51 20 -67 -11 -93 -72z" />
    <glyph glyph-name="afii10050" unicode="&#x490;" horiz-adv-x="507" 
d="M97 0v700h280v117h115v-232h-272v-585h-123z" />
    <glyph glyph-name="afii10098" unicode="&#x491;" horiz-adv-x="374" 
d="M64 0v450h195v97h107v-205h-187v-342h-115z" />
    <glyph glyph-name="uni1E9E" unicode="&#x1e9e;" horiz-adv-x="674" 
d="M491 184c0 73 -102 132 -206 194l132 181c-15 21 -51 37 -90 37c-62 0 -107 -36 -107 -121v-476h-123v468c0 173 98 244 235 244c82 0 173 -41 233 -124l-135 -172c95 -51 191 -136 191 -250c0 -109 -95 -176 -179 -176c-89 0 -139 33 -173 64l53 96
c31 -26 55 -45 93 -45c41 0 76 30 76 80z" />
    <glyph glyph-name="uni2010" unicode="&#x2010;" horiz-adv-x="376" 
d="M62 220v107h252v-107h-252z" />
    <glyph glyph-name="uni2011" unicode="&#x2011;" horiz-adv-x="376" 
d="M62 220v107h252v-107h-252z" />
    <glyph glyph-name="figuredash" unicode="&#x2012;" horiz-adv-x="599" 
d="M85 304v100h429v-100h-429z" />
    <glyph glyph-name="endash" unicode="&#x2013;" horiz-adv-x="599" 
d="M85 220v100h429v-100h-429z" />
    <glyph glyph-name="emdash" unicode="&#x2014;" horiz-adv-x="814" 
d="M85 220v100h644v-100h-644z" />
    <glyph glyph-name="afii00208" unicode="&#x2015;" horiz-adv-x="814" 
d="M85 220v100h644v-100h-644z" />
    <glyph glyph-name="quoteleft" unicode="&#x2018;" horiz-adv-x="241" 
d="M178 550l-97 -56c-21 22 -34 60 -34 93c0 93 57 147 100 172l53 -49c-29 -24 -45 -61 -45 -98c0 -24 9 -48 23 -62z" />
    <glyph glyph-name="quoteright" unicode="&#x2019;" horiz-adv-x="241" 
d="M63 698l97 57c21 -22 34 -60 34 -93c0 -93 -57 -148 -100 -172l-53 49c29 24 45 60 45 97c0 25 -9 48 -23 62z" />
    <glyph glyph-name="quotesinglbase" unicode="&#x201a;" horiz-adv-x="241" 
d="M63 33l97 57c21 -22 34 -60 34 -93c0 -93 -57 -148 -100 -172l-53 49c29 24 45 60 45 97c0 25 -9 48 -23 62z" />
    <glyph glyph-name="quotedblleft" unicode="&#x201c;" horiz-adv-x="404" 
d="M340 550l-97 -56c-21 22 -34 60 -34 93c0 93 57 147 100 172l53 -49c-29 -24 -45 -61 -45 -98c0 -24 9 -48 23 -62zM178 550l-97 -56c-21 22 -34 60 -34 93c0 93 57 147 100 172l53 -49c-29 -24 -45 -61 -45 -98c0 -24 9 -48 23 -62z" />
    <glyph glyph-name="quotedblright" unicode="&#x201d;" horiz-adv-x="404" 
d="M225 698l97 57c21 -22 34 -60 34 -93c0 -93 -57 -148 -100 -172l-53 49c29 24 45 60 45 97c0 25 -9 48 -23 62zM63 698l97 57c21 -22 34 -60 34 -93c0 -93 -57 -148 -100 -172l-53 49c29 24 45 60 45 97c0 25 -9 48 -23 62z" />
    <glyph glyph-name="quotedblbase" unicode="&#x201e;" horiz-adv-x="404" 
d="M225 33l97 57c21 -22 34 -60 34 -93c0 -93 -57 -148 -100 -172l-53 49c29 24 45 60 45 97c0 25 -9 48 -23 62zM63 33l97 57c21 -22 34 -60 34 -93c0 -93 -57 -148 -100 -172l-53 49c29 24 45 60 45 97c0 25 -9 48 -23 62z" />
    <glyph glyph-name="dagger" unicode="&#x2020;" horiz-adv-x="491" 
d="M40 395v100h152v205h107v-205h152v-100h-152v-495h-107v495h-152z" />
    <glyph glyph-name="daggerdbl" unicode="&#x2021;" horiz-adv-x="491" 
d="M40 395v100h152v205h107v-205h152v-100h-152v-160h152v-100h-152v-235h-107v235h-152v100h152v160h-152z" />
    <glyph glyph-name="bullet" unicode="&#x2022;" horiz-adv-x="285" 
d="M25 264c0 65 53 118 117 118s118 -53 118 -118c0 -63 -54 -117 -118 -117s-117 54 -117 117z" />
    <glyph glyph-name="ellipsis" unicode="&#x2026;" horiz-adv-x="863" 
d="M655 75c0 35 30 74 80 74c43 0 73 -39 73 -74c0 -41 -30 -80 -73 -80c-50 0 -80 39 -80 80zM355 75c0 35 30 74 80 74c43 0 73 -39 73 -74c0 -41 -30 -80 -73 -80c-50 0 -80 39 -80 80zM55 75c0 35 30 74 80 74c43 0 73 -39 73 -74c0 -41 -30 -80 -73 -80
c-50 0 -80 39 -80 80z" />
    <glyph glyph-name="perthousand" unicode="&#x2030;" horiz-adv-x="1345" 
d="M913 169c0 108 83 178 197 178s197 -70 197 -178c0 -107 -83 -179 -197 -179s-197 72 -197 179zM1021 169c0 -53 40 -86 89 -86c52 0 90 33 90 86c0 52 -39 85 -90 85c-50 0 -89 -33 -89 -85zM170 35l505 676l65 -49l-504 -673zM37 531c0 108 83 178 197 178
s197 -70 197 -178c0 -107 -83 -179 -197 -179s-197 72 -197 179zM145 531c0 -53 40 -86 89 -86c52 0 90 33 90 86c0 52 -39 85 -90 85c-50 0 -89 -33 -89 -85zM479 169c0 108 83 178 197 178s197 -70 197 -178c0 -107 -83 -179 -197 -179s-197 72 -197 179zM587 169
c0 -53 40 -86 89 -86c52 0 90 33 90 86c0 52 -39 85 -90 85c-50 0 -89 -33 -89 -85z" />
    <glyph glyph-name="guilsinglleft" unicode="&#x2039;" horiz-adv-x="351" 
d="M230 22l-193 226v4l197 226l75 -67l-139 -161l138 -163z" />
    <glyph glyph-name="guilsinglright" unicode="&#x203a;" horiz-adv-x="351" 
d="M314 248l-193 -226l-78 65l138 163l-139 161l75 67l197 -226v-4z" />
    <glyph glyph-name="fraction" unicode="&#x2044;" horiz-adv-x="210" 
d="M-180 35l505 676l65 -49l-504 -673z" />
    <glyph glyph-name="uni2070" unicode="&#x2070;" horiz-adv-x="398" 
d="M35 525c0 100 56 179 164 179s164 -82 164 -179c0 -98 -55 -179 -163 -179c-109 0 -165 75 -165 179zM142 525c0 -71 26 -94 58 -94c38 0 55 26 55 94c0 69 -19 94 -56 94s-57 -28 -57 -94z" />
    <glyph glyph-name="uni2074" unicode="&#x2074;" horiz-adv-x="373" 
d="M205 350v70h-193v67l155 213h95l-148 -202h91v77h92v-77h56v-78h-56v-70h-92z" />
    <glyph glyph-name="uni2075" unicode="&#x2075;" horiz-adv-x="347" 
d="M58 498l20 202h226v-78h-156l-8 -54c8 3 27 8 48 8c76 0 126 -41 126 -107c0 -81 -64 -125 -152 -125c-70 0 -121 20 -146 57l51 54c16 -19 46 -34 78 -34c43 0 62 16 62 43c0 24 -24 42 -76 42c-24 0 -60 -4 -73 -8z" />
    <glyph glyph-name="uni2076" unicode="&#x2076;" horiz-adv-x="395" 
d="M31 484c0 119 111 217 258 222l20 -68c-86 -9 -145 -47 -170 -101c20 17 56 32 96 32c78 0 130 -42 130 -107c0 -70 -69 -118 -159 -118c-115 0 -175 57 -175 140zM139 469c1 -24 24 -48 67 -48c33 0 52 18 52 39c0 22 -18 39 -54 39c-30 0 -53 -15 -65 -30z" />
    <glyph glyph-name="uni2077" unicode="&#x2077;" horiz-adv-x="329" 
d="M14 615v85h302v-61l-153 -289h-109l146 265h-186z" />
    <glyph glyph-name="uni2078" unicode="&#x2078;" horiz-adv-x="412" 
d="M202 565h9c31 0 47 15 47 32c0 19 -20 32 -53 32c-31 0 -51 -13 -51 -33c0 -18 19 -31 48 -31zM211 495h-8c-34 0 -61 -14 -61 -37c0 -21 20 -37 64 -37c39 0 63 15 63 37c0 24 -25 37 -58 37zM206 344c-98 0 -164 37 -164 97c0 47 28 75 66 88v2c-31 13 -54 37 -54 83
c0 55 63 92 152 92c88 0 152 -37 152 -92c0 -34 -19 -67 -62 -83v-1c42 -9 73 -37 73 -82c0 -67 -64 -104 -163 -104z" />
    <glyph glyph-name="uni2079" unicode="&#x2079;" horiz-adv-x="395" 
d="M364 553c0 -128 -108 -206 -260 -209l-16 70c93 8 163 47 168 99c-20 -24 -56 -40 -96 -40c-78 0 -130 50 -130 110c0 75 69 123 159 123c115 0 175 -58 175 -153zM256 573c-2 33 -24 56 -67 56c-33 0 -52 -18 -52 -39c0 -22 18 -47 54 -47c30 0 53 15 65 30z" />
    <glyph glyph-name="uni207A" unicode="&#x207a;" horiz-adv-x="360" 
d="M42 491v78h98v94h78v-94h99v-78h-99v-96h-78v96h-98z" />
    <glyph glyph-name="uni207B" unicode="&#x207b;" horiz-adv-x="360" 
d="M42 491v78h275v-78h-275z" />
    <glyph glyph-name="uni207C" unicode="&#x207c;" horiz-adv-x="360" 
d="M42 416v78h275v-78h-275zM42 566v78h275v-78h-275z" />
    <glyph glyph-name="uni207D" unicode="&#x207d;" horiz-adv-x="235" 
d="M225 365l-59 -58c-103 52 -136 142 -136 216c0 73 38 155 137 215l52 -57c-59 -40 -89 -85 -89 -158c0 -74 44 -124 95 -158z" />
    <glyph glyph-name="uni207E" unicode="&#x207e;" horiz-adv-x="235" 
d="M10 679l59 59c102 -52 136 -142 136 -216c0 -73 -38 -155 -137 -215l-53 57c59 40 90 85 90 158c0 74 -44 124 -95 157z" />
    <glyph glyph-name="uni2080" unicode="&#x2080;" horiz-adv-x="398" 
d="M35 175c0 100 56 179 164 179s164 -82 164 -179c0 -98 -55 -179 -163 -179c-109 0 -165 75 -165 179zM142 175c0 -71 26 -94 58 -94c38 0 55 26 55 94c0 69 -19 94 -56 94s-57 -28 -57 -94z" />
    <glyph glyph-name="uni2081" unicode="&#x2081;" horiz-adv-x="269" 
d="M16 274l113 75h72v-349h-100v234l-48 -28z" />
    <glyph glyph-name="uni2082" unicode="&#x2082;" horiz-adv-x="363" 
d="M30 0v73c77 46 182 106 182 157c0 24 -17 39 -43 39c-28 0 -50 -26 -54 -50l-83 29c11 65 65 106 147 106c92 0 140 -46 140 -111c0 -87 -111 -138 -159 -158h175v-85h-305z" />
    <glyph glyph-name="uni2083" unicode="&#x2083;" horiz-adv-x="361" 
d="M175 -6c-67 0 -130 24 -158 74l58 53c13 -24 48 -46 83 -46c42 0 61 15 61 35c0 17 -16 32 -59 32h-30v70h28c30 0 48 14 48 34c0 17 -16 29 -45 29c-40 0 -68 -20 -85 -41l-48 55c23 35 70 67 153 67c77 0 133 -34 133 -89c0 -43 -30 -72 -77 -82v-1
c59 -4 89 -40 89 -83c0 -67 -71 -107 -151 -107z" />
    <glyph glyph-name="uni2084" unicode="&#x2084;" horiz-adv-x="373" 
d="M205 0v70h-193v67l155 213h95l-148 -202h91v77h92v-77h56v-78h-56v-70h-92z" />
    <glyph glyph-name="uni2085" unicode="&#x2085;" horiz-adv-x="347" 
d="M58 148l20 202h226v-78h-156l-8 -54c8 3 27 8 48 8c76 0 126 -41 126 -107c0 -81 -64 -125 -152 -125c-70 0 -121 20 -146 57l51 54c16 -19 46 -34 78 -34c43 0 62 16 62 43c0 24 -24 42 -76 42c-24 0 -60 -4 -73 -8z" />
    <glyph glyph-name="uni2086" unicode="&#x2086;" horiz-adv-x="395" 
d="M31 134c0 119 111 217 258 222l20 -68c-86 -9 -145 -47 -170 -101c20 17 56 32 96 32c78 0 130 -42 130 -107c0 -70 -69 -118 -159 -118c-115 0 -175 57 -175 140zM139 119c1 -24 24 -48 67 -48c33 0 52 18 52 39c0 22 -18 39 -54 39c-30 0 -53 -15 -65 -30z" />
    <glyph glyph-name="uni2087" unicode="&#x2087;" horiz-adv-x="329" 
d="M14 265v85h302v-61l-153 -289h-109l146 265h-186z" />
    <glyph glyph-name="uni2088" unicode="&#x2088;" horiz-adv-x="412" 
d="M202 215h9c31 0 47 15 47 32c0 19 -20 32 -53 32c-31 0 -51 -13 -51 -33c0 -18 19 -31 48 -31zM211 145h-8c-34 0 -61 -14 -61 -37c0 -21 20 -37 64 -37c39 0 63 15 63 37c0 24 -25 37 -58 37zM206 -6c-98 0 -164 37 -164 97c0 47 28 75 66 88v2c-31 13 -54 37 -54 83
c0 55 63 92 152 92c88 0 152 -37 152 -92c0 -34 -19 -67 -62 -83v-1c42 -9 73 -37 73 -82c0 -67 -64 -104 -163 -104z" />
    <glyph glyph-name="uni2089" unicode="&#x2089;" horiz-adv-x="395" 
d="M364 203c0 -128 -108 -206 -260 -209l-16 70c93 8 163 47 168 99c-20 -24 -56 -40 -96 -40c-78 0 -130 50 -130 110c0 75 69 123 159 123c115 0 175 -58 175 -153zM256 223c-2 33 -24 56 -67 56c-33 0 -52 -18 -52 -39c0 -22 18 -47 54 -47c30 0 53 15 65 30z" />
    <glyph glyph-name="uni208A" unicode="&#x208a;" horiz-adv-x="360" 
d="M42 141v78h98v94h78v-94h99v-78h-99v-96h-78v96h-98z" />
    <glyph glyph-name="uni208B" unicode="&#x208b;" horiz-adv-x="360" 
d="M42 141v78h275v-78h-275z" />
    <glyph glyph-name="uni208C" unicode="&#x208c;" horiz-adv-x="360" 
d="M42 66v78h275v-78h-275zM42 216v78h275v-78h-275z" />
    <glyph glyph-name="uni208D" unicode="&#x208d;" horiz-adv-x="235" 
d="M225 15l-59 -58c-103 52 -136 142 -136 216c0 73 38 155 137 215l52 -57c-59 -40 -89 -85 -89 -158c0 -74 44 -124 95 -158z" />
    <glyph glyph-name="uni208E" unicode="&#x208e;" horiz-adv-x="235" 
d="M10 329l59 59c102 -52 136 -142 136 -216c0 -73 -38 -155 -137 -215l-53 57c59 40 90 85 90 158c0 74 -44 124 -95 157z" />
    <glyph glyph-name="Euro" unicode="&#x20ac;" 
d="M18 397l35 93h75c45 130 158 221 323 221c49 0 103 -12 132 -28l-43 -106c-23 12 -58 19 -90 19c-76 0 -144 -37 -183 -106h250l-35 -93h-244c-2 -15 -3 -31 -3 -47c0 -12 0 -24 2 -35h222l-31 -93h-163c39 -74 112 -118 201 -118c37 0 68 6 87 15l19 -111
c-23 -10 -66 -19 -116 -19c-161 0 -286 88 -332 233h-105l35 93h52c-1 11 -1 23 -1 35c0 16 1 31 2 47h-89z" />
    <glyph glyph-name="uni20B4" unicode="&#x20b4;" horiz-adv-x="600" 
d="M68 401v93h292c2 10 3 20 3 28c-1 57 -34 74 -67 74c-48 0 -84 -17 -115 -44l-59 86c43 50 110 73 181 73c112 0 184 -65 184 -157c0 -19 -7 -49 -16 -60h61v-93h-117c-33 -34 -66 -55 -96 -82h213v-93h-295c-10 -13 -17 -29 -17 -48c0 -45 40 -74 98 -74
c43 0 89 16 131 58l60 -79c-44 -60 -118 -94 -207 -94c-97 0 -197 60 -197 168c0 23 7 50 19 69h-56v93h122c29 29 63 51 98 82h-220z" />
    <glyph glyph-name="uni20B6" unicode="&#x20b6;" horiz-adv-x="600" 
d="M13 298v92h98v310c39 0 149 2 198 2c207 0 271 -90 271 -205c0 -120 -89 -199 -255 -199h-92v-83h164v-92h-164v-123h-122v123h-98v92h98v83h-98zM322 587c-25 0 -56 -1 -89 -2v-195h88c72 0 129 25 129 96c0 73 -45 101 -128 101z" />
    <glyph glyph-name="uni20B6" unicode="&#x20cf;" horiz-adv-x="600" 
d="M13 298v92h98v310c39 0 149 2 198 2c207 0 271 -90 271 -205c0 -120 -89 -199 -255 -199h-92v-83h164v-92h-164v-123h-122v123h-98v92h98v83h-98zM322 587c-25 0 -56 -1 -89 -2v-195h88c72 0 129 25 129 96c0 73 -45 101 -128 101z" />
    <glyph glyph-name="uni20B6" unicode="&#x20ce;" horiz-adv-x="600" 
d="M13 298v92h98v310c39 0 149 2 198 2c207 0 271 -90 271 -205c0 -120 -89 -199 -255 -199h-92v-83h164v-92h-164v-123h-122v123h-98v92h98v83h-98zM322 587c-25 0 -56 -1 -89 -2v-195h88c72 0 129 25 129 96c0 73 -45 101 -128 101z" />
    <glyph glyph-name="uni20B6" unicode="&#x20cd;" horiz-adv-x="600" 
d="M13 298v92h98v310c39 0 149 2 198 2c207 0 271 -90 271 -205c0 -120 -89 -199 -255 -199h-92v-83h164v-92h-164v-123h-122v123h-98v92h98v83h-98zM322 587c-25 0 -56 -1 -89 -2v-195h88c72 0 129 25 129 96c0 73 -45 101 -128 101z" />
    <glyph glyph-name="uni20B6" unicode="&#x20cc;" horiz-adv-x="600" 
d="M13 298v92h98v310c39 0 149 2 198 2c207 0 271 -90 271 -205c0 -120 -89 -199 -255 -199h-92v-83h164v-92h-164v-123h-122v123h-98v92h98v83h-98zM322 587c-25 0 -56 -1 -89 -2v-195h88c72 0 129 25 129 96c0 73 -45 101 -128 101z" />
    <glyph glyph-name="uni20B6" unicode="&#x20cb;" horiz-adv-x="600" 
d="M13 298v92h98v310c39 0 149 2 198 2c207 0 271 -90 271 -205c0 -120 -89 -199 -255 -199h-92v-83h164v-92h-164v-123h-122v123h-98v92h98v83h-98zM322 587c-25 0 -56 -1 -89 -2v-195h88c72 0 129 25 129 96c0 73 -45 101 -128 101z" />
    <glyph glyph-name="uni20B6" unicode="&#x20ca;" horiz-adv-x="600" 
d="M13 298v92h98v310c39 0 149 2 198 2c207 0 271 -90 271 -205c0 -120 -89 -199 -255 -199h-92v-83h164v-92h-164v-123h-122v123h-98v92h98v83h-98zM322 587c-25 0 -56 -1 -89 -2v-195h88c72 0 129 25 129 96c0 73 -45 101 -128 101z" />
    <glyph glyph-name="uni20B6" unicode="&#x20c9;" horiz-adv-x="600" 
d="M13 298v92h98v310c39 0 149 2 198 2c207 0 271 -90 271 -205c0 -120 -89 -199 -255 -199h-92v-83h164v-92h-164v-123h-122v123h-98v92h98v83h-98zM322 587c-25 0 -56 -1 -89 -2v-195h88c72 0 129 25 129 96c0 73 -45 101 -128 101z" />
    <glyph glyph-name="uni20B6" unicode="&#x20c8;" horiz-adv-x="600" 
d="M13 298v92h98v310c39 0 149 2 198 2c207 0 271 -90 271 -205c0 -120 -89 -199 -255 -199h-92v-83h164v-92h-164v-123h-122v123h-98v92h98v83h-98zM322 587c-25 0 -56 -1 -89 -2v-195h88c72 0 129 25 129 96c0 73 -45 101 -128 101z" />
    <glyph glyph-name="uni20B6" unicode="&#x20c7;" horiz-adv-x="600" 
d="M13 298v92h98v310c39 0 149 2 198 2c207 0 271 -90 271 -205c0 -120 -89 -199 -255 -199h-92v-83h164v-92h-164v-123h-122v123h-98v92h98v83h-98zM322 587c-25 0 -56 -1 -89 -2v-195h88c72 0 129 25 129 96c0 73 -45 101 -128 101z" />
    <glyph glyph-name="uni20B6" unicode="&#x20c6;" horiz-adv-x="600" 
d="M13 298v92h98v310c39 0 149 2 198 2c207 0 271 -90 271 -205c0 -120 -89 -199 -255 -199h-92v-83h164v-92h-164v-123h-122v123h-98v92h98v83h-98zM322 587c-25 0 -56 -1 -89 -2v-195h88c72 0 129 25 129 96c0 73 -45 101 -128 101z" />
    <glyph glyph-name="uni20B6" unicode="&#x20c5;" horiz-adv-x="600" 
d="M13 298v92h98v310c39 0 149 2 198 2c207 0 271 -90 271 -205c0 -120 -89 -199 -255 -199h-92v-83h164v-92h-164v-123h-122v123h-98v92h98v83h-98zM322 587c-25 0 -56 -1 -89 -2v-195h88c72 0 129 25 129 96c0 73 -45 101 -128 101z" />
    <glyph glyph-name="uni20B6" unicode="&#x20c4;" horiz-adv-x="600" 
d="M13 298v92h98v310c39 0 149 2 198 2c207 0 271 -90 271 -205c0 -120 -89 -199 -255 -199h-92v-83h164v-92h-164v-123h-122v123h-98v92h98v83h-98zM322 587c-25 0 -56 -1 -89 -2v-195h88c72 0 129 25 129 96c0 73 -45 101 -128 101z" />
    <glyph glyph-name="uni20B6" unicode="&#x20c3;" horiz-adv-x="600" 
d="M13 298v92h98v310c39 0 149 2 198 2c207 0 271 -90 271 -205c0 -120 -89 -199 -255 -199h-92v-83h164v-92h-164v-123h-122v123h-98v92h98v83h-98zM322 587c-25 0 -56 -1 -89 -2v-195h88c72 0 129 25 129 96c0 73 -45 101 -128 101z" />
    <glyph glyph-name="uni20B6" unicode="&#x20c2;" horiz-adv-x="600" 
d="M13 298v92h98v310c39 0 149 2 198 2c207 0 271 -90 271 -205c0 -120 -89 -199 -255 -199h-92v-83h164v-92h-164v-123h-122v123h-98v92h98v83h-98zM322 587c-25 0 -56 -1 -89 -2v-195h88c72 0 129 25 129 96c0 73 -45 101 -128 101z" />
    <glyph glyph-name="uni20B6" unicode="&#x20c1;" horiz-adv-x="600" 
d="M13 298v92h98v310c39 0 149 2 198 2c207 0 271 -90 271 -205c0 -120 -89 -199 -255 -199h-92v-83h164v-92h-164v-123h-122v123h-98v92h98v83h-98zM322 587c-25 0 -56 -1 -89 -2v-195h88c72 0 129 25 129 96c0 73 -45 101 -128 101z" />
    <glyph glyph-name="uni20B6" unicode="&#x20c0;" horiz-adv-x="600" 
d="M13 298v92h98v310c39 0 149 2 198 2c207 0 271 -90 271 -205c0 -120 -89 -199 -255 -199h-92v-83h164v-92h-164v-123h-122v123h-98v92h98v83h-98zM322 587c-25 0 -56 -1 -89 -2v-195h88c72 0 129 25 129 96c0 73 -45 101 -128 101z" />
    <glyph glyph-name="uni20B6" unicode="&#x20bf;" horiz-adv-x="600" 
d="M13 298v92h98v310c39 0 149 2 198 2c207 0 271 -90 271 -205c0 -120 -89 -199 -255 -199h-92v-83h164v-92h-164v-123h-122v123h-98v92h98v83h-98zM322 587c-25 0 -56 -1 -89 -2v-195h88c72 0 129 25 129 96c0 73 -45 101 -128 101z" />
    <glyph glyph-name="uni20B6" unicode="&#x20be;" horiz-adv-x="600" 
d="M13 298v92h98v310c39 0 149 2 198 2c207 0 271 -90 271 -205c0 -120 -89 -199 -255 -199h-92v-83h164v-92h-164v-123h-122v123h-98v92h98v83h-98zM322 587c-25 0 -56 -1 -89 -2v-195h88c72 0 129 25 129 96c0 73 -45 101 -128 101z" />
    <glyph glyph-name="uni20B6" unicode="&#x20bd;" horiz-adv-x="600" 
d="M13 298v92h98v310c39 0 149 2 198 2c207 0 271 -90 271 -205c0 -120 -89 -199 -255 -199h-92v-83h164v-92h-164v-123h-122v123h-98v92h98v83h-98zM322 587c-25 0 -56 -1 -89 -2v-195h88c72 0 129 25 129 96c0 73 -45 101 -128 101z" />
    <glyph glyph-name="uni20B6" unicode="&#x20bc;" horiz-adv-x="600" 
d="M13 298v92h98v310c39 0 149 2 198 2c207 0 271 -90 271 -205c0 -120 -89 -199 -255 -199h-92v-83h164v-92h-164v-123h-122v123h-98v92h98v83h-98zM322 587c-25 0 -56 -1 -89 -2v-195h88c72 0 129 25 129 96c0 73 -45 101 -128 101z" />
    <glyph glyph-name="uni20B6" unicode="&#x20bb;" horiz-adv-x="600" 
d="M13 298v92h98v310c39 0 149 2 198 2c207 0 271 -90 271 -205c0 -120 -89 -199 -255 -199h-92v-83h164v-92h-164v-123h-122v123h-98v92h98v83h-98zM322 587c-25 0 -56 -1 -89 -2v-195h88c72 0 129 25 129 96c0 73 -45 101 -128 101z" />
    <glyph glyph-name="uni20B6" unicode="&#x20ba;" horiz-adv-x="600" 
d="M13 298v92h98v310c39 0 149 2 198 2c207 0 271 -90 271 -205c0 -120 -89 -199 -255 -199h-92v-83h164v-92h-164v-123h-122v123h-98v92h98v83h-98zM322 587c-25 0 -56 -1 -89 -2v-195h88c72 0 129 25 129 96c0 73 -45 101 -128 101z" />
    <glyph glyph-name="uni20B6" unicode="&#x20b9;" horiz-adv-x="600" 
d="M13 298v92h98v310c39 0 149 2 198 2c207 0 271 -90 271 -205c0 -120 -89 -199 -255 -199h-92v-83h164v-92h-164v-123h-122v123h-98v92h98v83h-98zM322 587c-25 0 -56 -1 -89 -2v-195h88c72 0 129 25 129 96c0 73 -45 101 -128 101z" />
    <glyph glyph-name="uni20B6" unicode="&#x20b7;" horiz-adv-x="600" 
d="M13 298v92h98v310c39 0 149 2 198 2c207 0 271 -90 271 -205c0 -120 -89 -199 -255 -199h-92v-83h164v-92h-164v-123h-122v123h-98v92h98v83h-98zM322 587c-25 0 -56 -1 -89 -2v-195h88c72 0 129 25 129 96c0 73 -45 101 -128 101z" />
    <glyph glyph-name="afii61352" unicode="&#x2116;" horiz-adv-x="1189" 
d="M675 0h-98l-365 485v-485h-115v700h98l365 -487v487h115v-700zM730 480c0 108 83 178 197 178s197 -70 197 -178c0 -107 -83 -179 -197 -179s-197 72 -197 179zM837 480c0 -53 41 -86 90 -86c51 0 89 33 89 86c0 52 -39 85 -89 85s-90 -33 -90 -85zM767 146v107h319v-107
h-319z" />
    <glyph glyph-name="trademark" unicode="&#x2122;" horiz-adv-x="865" 
d="M379 385v315h97l119 -108l113 108h94v-315h-109v179l-100 -97h-2l-104 97v-179h-108zM17 596v104h323v-104h-107v-211h-108v211h-108z" />
    <glyph glyph-name="arrowleft" unicode="&#x2190;" horiz-adv-x="643" 
d="M323 556l81 -82l-144 -143h343v-115h-343l144 -145l-81 -81l-283 283z" />
    <glyph glyph-name="arrowup" unicode="&#x2191;" horiz-adv-x="646" 
d="M121 199l-81 81l283 283l283 -283l-82 -81l-144 144v-343h-115v343z" />
    <glyph glyph-name="arrowright" unicode="&#x2192;" horiz-adv-x="643" 
d="M239 474l81 82l283 -283l-283 -283l-81 81l144 145h-343v115h343z" />
    <glyph glyph-name="arrowdown" unicode="&#x2193;" horiz-adv-x="646" 
d="M40 263l81 81l144 -144v343h115v-343l144 144l82 -81l-283 -283z" />
    <glyph glyph-name="partialdiff" unicode="&#x2202;" horiz-adv-x="594" 
d="M36 201c0 139 99 260 252 260c76 0 125 -33 148 -66c0 130 -81 206 -237 213l17 103c216 -4 342 -118 342 -322c0 -217 -97 -400 -297 -400c-139 0 -225 95 -225 212zM159 211c0 -62 43 -115 115 -115c88 0 141 90 153 192c-32 39 -74 65 -134 65
c-78 0 -134 -64 -134 -142z" />
    <glyph glyph-name="product" unicode="&#x220f;" horiz-adv-x="882" 
d="M662 -200v785h-442v-785h-123v900h688v-900h-123z" />
    <glyph glyph-name="summation" unicode="&#x2211;" horiz-adv-x="642" 
d="M323 250l-283 365v85h562v-115h-390l253 -335l-261 -335h398v-115h-562v84z" />
    <glyph glyph-name="minus" unicode="&#x2212;" 
d="M66 310v100h464v-100h-464z" />
    <glyph glyph-name="uni2215" unicode="&#x2215;" horiz-adv-x="359" 
d="M-30 -175l330 886l89 -33l-330 -886z" />
    <glyph glyph-name="radical" unicode="&#x221a;" horiz-adv-x="623" 
d="M7 335v115h179l152 -256l122 506h293v-115h-193l-146 -587h-100l-207 337h-100z" />
    <glyph glyph-name="infinity" unicode="&#x221e;" horiz-adv-x="756" 
d="M552 168c-80 0 -134 42 -176 92c-38 -50 -87 -92 -164 -92c-84 0 -167 66 -167 173c0 91 66 175 170 175c73 0 122 -45 162 -97c37 52 86 97 174 97c97 0 160 -75 160 -179c0 -88 -62 -169 -159 -169zM224 268c44 0 71 29 97 66c-31 45 -59 82 -96 82
c-45 0 -73 -33 -73 -75c0 -47 33 -73 72 -73zM531 416c-41 0 -69 -33 -97 -74c31 -41 62 -74 104 -74c40 0 65 33 65 73c0 39 -24 75 -72 75z" />
    <glyph glyph-name="integral" unicode="&#x222b;" horiz-adv-x="325" 
d="M184 -8c0 -120 -27 -195 -131 -199c-17 -1 -32 0 -49 3c-31 4 -58 15 -72 28l31 91c16 -10 30 -16 51 -16c49 0 55 45 55 100v524c0 120 56 182 149 187c17 0 34 -1 51 -4c38 -5 69 -20 86 -37l-39 -88c-11 10 -24 17 -44 19c-15 3 -30 2 -42 -1c-25 -7 -46 -34 -46 -85
v-522z" />
    <glyph glyph-name="approxequal" unicode="&#x2248;" 
d="M92 193l-50 74c42 48 96 80 146 80c82 0 155 -68 233 -68c31 0 66 20 88 45l45 -79c-38 -36 -88 -66 -134 -66c-80 0 -155 68 -225 68c-42 0 -78 -29 -103 -54zM92 383l-50 74c42 48 96 80 146 80c82 0 155 -68 233 -68c31 0 66 20 88 45l45 -79
c-38 -36 -88 -66 -134 -66c-80 0 -155 68 -225 68c-42 0 -78 -29 -103 -54z" />
    <glyph glyph-name="notequal" unicode="&#x2260;" 
d="M66 405v100h234l78 206l88 -33l-65 -173h129v-100h-166l-33 -90h199v-100h-237l-84 -226l-90 33l72 193h-125v100h163l34 90h-197z" />
    <glyph glyph-name="lessequal" unicode="&#x2264;" 
d="M49 242v105l464 -266v-110zM513 161l-464 271v49l464 269v-124l-306 -169l306 -171v-125z" />
    <glyph glyph-name="greaterequal" unicode="&#x2265;" 
d="M547 347v-105l-465 -271v110zM547 432l-465 -271v125l307 171l-307 169v124l465 -269v-49z" />
    <glyph glyph-name="lozenge" unicode="&#x25ca;" horiz-adv-x="488" 
d="M197 -2l-167 251l168 267h93l167 -256l-168 -262h-93zM146 250l98 -147l98 157l-98 144z" />
    <glyph glyph-name="spade" unicode="&#x2660;" horiz-adv-x="632" 
d="M316 510c105 -66 256 -220 256 -311c0 -51 -35 -104 -117 -104c-63 0 -103 33 -131 72c17 -72 46 -130 107 -167h-230c51 36 85 93 105 164c-28 -38 -68 -69 -129 -69c-82 0 -117 53 -117 105c0 90 151 244 256 310z" />
    <glyph glyph-name="club" unicode="&#x2663;" horiz-adv-x="612" 
d="M177 381c0 71 58 129 129 129s129 -58 129 -129c0 -6 -1 -13 -2 -19c66 -5 119 -61 119 -128c0 -71 -58 -129 -129 -129c-43 0 -81 21 -104 53c17 -63 46 -124 102 -158h-230c46 32 80 95 100 156c-23 -29 -62 -51 -102 -51c-71 0 -129 58 -129 129c0 67 52 123 118 128
c-1 6 -1 13 -1 19z" />
    <glyph glyph-name="heart" unicode="&#x2665;" horiz-adv-x="649" 
d="M325 0c-109 82 -265 259 -265 370c0 64 36 130 121 130c71 0 115 -50 144 -104c28 54 72 104 143 104c85 0 121 -66 121 -129c0 -112 -156 -289 -264 -371z" />
    <glyph glyph-name="diamond" unicode="&#x2666;" horiz-adv-x="583" 
d="M523 249c-85 -85 -160 -175 -232 -268c-70 92 -147 181 -231 268c85 89 160 179 231 269c73 -93 149 -183 232 -269z" />
    <glyph glyph-name="uniF350" unicode="&#xf350;" horiz-adv-x="611" 
d="M6 0l245 526h109l245 -526h-131l-49 108h-247l-49 -108h-123zM302 383l-73 -161h145z" />
    <glyph glyph-name="uniF351" unicode="&#xf351;" horiz-adv-x="539" 
d="M450 525v-115h-250v-80c19 3 58 4 86 4c125 0 201 -56 201 -162c0 -120 -82 -176 -228 -176c-73 0 -147 4 -181 4v525h372zM271 220c-19 0 -49 0 -71 -4v-103c23 -1 45 -2 72 -2c70 0 93 20 93 55s-26 54 -94 54z" />
    <glyph glyph-name="uniF352" unicode="&#xf352;" horiz-adv-x="540" 
d="M78 1v522c32 2 135 5 197 5c140 0 195 -58 195 -130c0 -55 -28 -101 -81 -122v-1c61 -11 99 -48 99 -116c0 -110 -95 -163 -221 -163c-56 0 -155 2 -189 5zM282 210h-82v-94c11 -2 49 -5 77 -5c58 0 88 17 88 51c0 32 -31 48 -83 48zM273 413c-19 0 -56 -1 -73 -3v-92h76
c39 0 72 14 72 48c0 32 -25 47 -75 47z" />
    <glyph glyph-name="uniF353" unicode="&#xf353;" horiz-adv-x="441" 
d="M78 0v525h348v-115h-226v-410h-122z" />
    <glyph glyph-name="uniF354" unicode="&#xf354;" horiz-adv-x="638" 
d="M9 -90v205h63c24 27 77 136 87 305l5 105h376v-410h80v-205h-115v90h-381v-90h-115zM273 335c-12 -116 -45 -198 -66 -220h210v295h-134z" />
    <glyph glyph-name="uniF355" unicode="&#xf355;" horiz-adv-x="498" 
d="M78 0v525h359v-115h-237v-88h213v-115h-213v-92h246v-115h-368z" />
    <glyph glyph-name="uniF356" unicode="&#xf356;" horiz-adv-x="818" 
d="M223 274l-206 251h148l183 -237v237h123v-237l183 237h148l-206 -249l215 -276h-148l-192 259v-259h-123v259l-192 -259h-148z" />
    <glyph glyph-name="uniF357" unicode="&#xf357;" horiz-adv-x="516" 
d="M247 -11c-115 0 -190 53 -221 95l67 83c35 -34 87 -63 155 -63c60 0 93 19 93 53c0 30 -24 52 -95 52h-78v115h74c41 0 77 17 77 46c0 32 -28 47 -72 47c-51 0 -100 -15 -132 -54l-71 83c39 49 111 86 207 86c106 0 190 -52 190 -148c0 -47 -21 -90 -68 -111v-3
c63 -14 91 -65 91 -125c0 -97 -88 -156 -217 -156z" />
    <glyph glyph-name="uniF358" unicode="&#xf358;" horiz-adv-x="663" 
d="M185 0h-107v525h122v-330l278 330h107v-525h-122v330z" />
    <glyph glyph-name="uniF359" unicode="&#xf359;" horiz-adv-x="663" 
d="M185 0h-107v525h122v-330l278 330h107v-525h-122v330zM166 700h107c0 -37 22 -53 60 -53c34 0 55 16 55 53h108c0 -86 -62 -138 -163 -138c-112 0 -167 51 -167 138z" />
    <glyph glyph-name="uniF35A" unicode="&#xf35a;" horiz-adv-x="586" 
d="M78 0v525h122v-238l203 238h159l-224 -242l240 -283h-166l-212 260v-260h-122z" />
    <glyph glyph-name="uniF35B" unicode="&#xf35b;" horiz-adv-x="613" 
d="M412 0v410h-146l-12 -99c-31 -274 -107 -331 -237 -311l2 118c48 -8 102 13 126 302l9 105h381v-525h-123z" />
    <glyph glyph-name="uniF35C" unicode="&#xf35c;" horiz-adv-x="761" 
d="M78 0v525h123l188 -219l178 219h116v-525h-122v338l-172 -202h-17l-172 199v-335h-122z" />
    <glyph glyph-name="uniF35D" unicode="&#xf35d;" horiz-adv-x="649" 
d="M449 0v210h-249v-210h-122v525h122v-200h249v200h122v-525h-122z" />
    <glyph glyph-name="uniF35E" unicode="&#xf35e;" horiz-adv-x="659" 
d="M35 261c0 152 118 271 294 271c170 0 295 -104 295 -271c0 -159 -125 -272 -295 -272c-169 0 -294 104 -294 272zM165 261c0 -89 72 -157 164 -157c108 0 165 69 165 157c0 95 -72 156 -165 156c-95 0 -164 -61 -164 -156z" />
    <glyph glyph-name="uniF35F" unicode="&#xf35f;" horiz-adv-x="649" 
d="M449 0v410h-249v-410h-122v525h493v-525h-122z" />
    <glyph glyph-name="uniF360" unicode="&#xf360;" horiz-adv-x="521" 
d="M200 0h-122v525c32 0 131 2 174 2c177 0 234 -85 234 -186c0 -107 -79 -189 -216 -189c-15 0 -47 1 -70 3v-155zM265 412c-19 0 -45 -1 -65 -2v-139c21 -2 45 -4 66 -4c52 0 90 24 90 74c0 47 -29 71 -91 71z" />
    <glyph glyph-name="uniF361" unicode="&#xf361;" horiz-adv-x="549" 
d="M476 142l47 -92c-36 -35 -112 -61 -189 -61c-182 0 -299 108 -299 272c0 144 96 271 296 271c78 0 143 -24 180 -54l-55 -92c-33 16 -68 31 -124 31c-97 0 -167 -54 -167 -156c0 -92 69 -157 180 -157c44 0 92 12 131 38z" />
    <glyph glyph-name="uniF362" unicode="&#xf362;" horiz-adv-x="503" 
d="M9 410v115h485v-115h-182v-410h-122v410h-181z" />
    <glyph glyph-name="uniF363" unicode="&#xf363;" horiz-adv-x="567" 
d="M560 525l-198 -397c-39 -81 -91 -128 -169 -128c-33 0 -62 12 -78 23l43 104c16 -9 24 -12 41 -12c24 0 37 16 45 30l9 14l-244 366h154l152 -245l119 245h126z" />
    <glyph glyph-name="uniF364" unicode="&#xf364;" horiz-adv-x="705" 
d="M290 -6v56c-158 2 -264 81 -264 220c0 137 108 217 264 220v41h123v-41c156 -3 265 -77 265 -220c0 -139 -107 -219 -265 -220v-56h-123zM548 270c0 48 -38 106 -135 108v-216c95 2 135 47 135 108zM156 270c0 -59 44 -106 134 -108v216c-93 -2 -134 -59 -134 -108z" />
    <glyph glyph-name="uniF365" unicode="&#xf365;" horiz-adv-x="563" 
d="M552 525l-191 -257l199 -268h-152l-128 174l-125 -174h-152l199 268l-190 257h152l120 -167l117 167h151z" />
    <glyph glyph-name="uniF366" unicode="&#xf366;" horiz-adv-x="657" 
d="M78 0v525h122v-410h237v410h123v-410h79v-205h-114v90h-447z" />
    <glyph glyph-name="uniF367" unicode="&#xf367;" horiz-adv-x="576" 
d="M498 525v-525h-122v201c-26 -17 -71 -32 -132 -32c-85 0 -186 40 -186 168v188h122v-144c0 -73 38 -97 90 -97c46 0 77 10 106 28v213h122z" />
    <glyph glyph-name="uniF368" unicode="&#xf368;" horiz-adv-x="837" 
d="M78 0v525h122v-410h157v410h123v-410h157v410h122v-525h-681z" />
    <glyph glyph-name="uniF369" unicode="&#xf369;" horiz-adv-x="857" 
d="M78 0v525h122v-410h157v410h123v-410h157v410h122v-410h80v-205h-115v90h-646z" />
    <glyph glyph-name="uniF36A" unicode="&#xf36a;" horiz-adv-x="565" 
d="M7 410v115h244v-163c23 3 44 3 58 3c152 0 221 -70 221 -178c0 -112 -86 -189 -247 -189c-59 0 -120 2 -155 2v410h-121zM298 250c-12 0 -28 -1 -47 -3v-132c17 -2 36 -2 55 -2c53 0 94 19 94 71c0 47 -38 66 -102 66z" />
    <glyph glyph-name="uniF36B" unicode="&#xf36b;" horiz-adv-x="736" 
d="M535 0v525h123v-525h-123zM247 250c-13 0 -28 0 -47 -2v-133c17 -2 30 -2 46 -2c61 0 95 23 95 71c0 45 -37 66 -94 66zM200 525v-163c23 3 44 3 57 3c145 0 214 -70 214 -178c0 -112 -87 -189 -240 -189c-59 0 -119 2 -153 2v525h122z" />
    <glyph glyph-name="uniF36C" unicode="&#xf36c;" horiz-adv-x="515" 
d="M248 250c-13 0 -29 -1 -48 -2v-133c17 -1 31 -2 46 -2c63 0 104 19 104 71c0 47 -38 66 -102 66zM200 525v-163c23 3 44 3 58 3c152 0 222 -70 222 -178c0 -112 -88 -189 -249 -189c-58 0 -119 2 -153 2v525h122z" />
    <glyph glyph-name="uniF36D" unicode="&#xf36d;" horiz-adv-x="562" 
d="M154 210v115h240c-22 62 -80 94 -167 94c-68 0 -116 -12 -156 -38l-47 92c40 30 112 61 208 61c170 0 295 -108 295 -272c0 -169 -121 -271 -311 -271c-83 0 -160 25 -197 55l52 103c33 -22 83 -43 160 -43c83 0 147 29 167 104h-244z" />
    <glyph glyph-name="uniF36E" unicode="&#xf36e;" horiz-adv-x="877" 
d="M78 0v525h122v-200h83c24 121 121 209 273 209c177 0 286 -104 286 -271c0 -160 -109 -272 -286 -272c-144 0 -252 82 -274 219h-82v-210h-122zM408 263c0 -90 60 -157 152 -157c102 0 152 69 152 157c0 94 -59 156 -152 156c-90 0 -152 -62 -152 -156z" />
    <glyph glyph-name="uniF36F" unicode="&#xf36f;" horiz-adv-x="559" 
d="M358 0v160h-92l-110 -160h-145l136 187c-49 28 -89 75 -89 147c0 99 69 194 240 194c67 0 148 -3 183 -3v-525h-123zM256 275h102v135c-11 1 -46 3 -72 3c-63 0 -98 -28 -98 -71c0 -38 33 -61 68 -67z" />
    <glyph glyph-name="uniF371" unicode="&#xf371;" horiz-adv-x="498" 
d="M78 0v525h359v-115h-237v-88h213v-115h-213v-92h246v-115h-368zM108 645c0 37 29 60 65 60c28 0 58 -23 58 -60c0 -40 -30 -62 -58 -62c-36 0 -65 22 -65 62zM287 645c0 37 30 60 64 60c30 0 60 -23 60 -60c0 -40 -30 -62 -60 -62c-34 0 -64 22 -64 62z" />
    <glyph glyph-name="uniF372" unicode="&#xf372;" horiz-adv-x="642" 
d="M607 160c0 -115 -59 -169 -154 -169c-48 0 -92 20 -106 37l40 94c14 -9 32 -16 50 -16c29 0 47 12 47 49s-29 54 -77 54c-43 0 -71 -14 -95 -25v-184h-122v410h-181v115h485v-115h-182v-107c30 11 64 21 118 21c97 0 177 -44 177 -164z" />
    <glyph glyph-name="uniF373" unicode="&#xf373;" horiz-adv-x="441" 
d="M78 0v525h348v-115h-226v-410h-122zM380 688l-149 -118l-55 64l133 142z" />
    <glyph glyph-name="uniF374" unicode="&#xf374;" horiz-adv-x="562" 
d="M409 322v-115h-243c23 -73 93 -101 178 -101c72 0 122 21 155 43l44 -103c-37 -30 -112 -55 -196 -55c-191 0 -312 102 -312 272c0 163 125 271 296 271c96 0 167 -31 207 -61l-54 -92c-40 26 -105 38 -149 38c-103 0 -154 -33 -171 -97h245z" />
    <glyph glyph-name="uniF375" unicode="&#xf375;" horiz-adv-x="500" 
d="M335 151c0 76 -287 50 -287 229c0 81 58 152 215 152c63 0 158 -31 197 -73l-56 -91c-39 29 -106 49 -146 49c-51 0 -80 -14 -80 -43c0 -70 287 -40 287 -229c0 -93 -87 -156 -212 -156c-84 0 -185 35 -226 91l70 83c33 -31 108 -59 165 -59c42 0 73 17 73 47z" />
    <glyph glyph-name="uniF376" unicode="&#xf376;" horiz-adv-x="297" 
d="M87 0v525h123v-525h-123z" />
    <glyph glyph-name="uniF377" unicode="&#xf377;" horiz-adv-x="322" 
d="M29 645c0 34 26 56 59 56c27 0 54 -22 54 -56c0 -38 -27 -60 -54 -60c-33 0 -59 22 -59 60zM181 645c0 34 27 56 59 56c28 0 54 -22 54 -56c0 -38 -26 -60 -54 -60c-32 0 -59 22 -59 60zM100 0v525h123v-525h-123z" />
    <glyph glyph-name="uniF378" unicode="&#xf378;" horiz-adv-x="336" 
d="M258 525v-396c0 -90 -52 -138 -149 -138c-49 0 -93 19 -107 37l40 94c13 -9 32 -16 49 -16c29 0 45 15 45 44v375h122z" />
    <glyph glyph-name="uniF379" unicode="&#xf379;" horiz-adv-x="840" 
d="M412 0v410h-143l-14 -99c-34 -274 -108 -331 -238 -311l2 122c48 -7 102 9 126 298l9 105h381v-163c22 3 42 3 56 3c145 0 214 -70 214 -178c0 -114 -87 -189 -240 -189c-59 0 -119 2 -153 2zM580 250c-13 0 -27 -1 -45 -3v-131c15 -2 29 -3 44 -3c62 0 96 23 96 71
c0 45 -37 66 -95 66z" />
    <glyph glyph-name="uniF37A" unicode="&#xf37a;" horiz-adv-x="869" 
d="M78 0v525h122v-183h241v183h122v-178c23 2 43 2 57 2c144 0 214 -69 214 -169c0 -106 -87 -182 -240 -182c-47 0 -95 2 -129 2h-24v227h-241v-227h-122zM563 232v-116c16 -2 30 -3 45 -3c62 0 96 23 96 63c0 38 -37 59 -95 59c-12 0 -27 -1 -46 -3z" />
    <glyph glyph-name="uniF37B" unicode="&#xf37b;" horiz-adv-x="642" 
d="M9 410v115h485v-115h-182v-116c28 13 72 23 116 23c86 0 179 -39 179 -167v-150h-123v113c0 70 -35 89 -82 89c-38 0 -66 -8 -90 -21v-181h-122v410h-181z" />
    <glyph glyph-name="uniF37C" unicode="&#xf37c;" horiz-adv-x="586" 
d="M78 0v525h122v-238l203 238h159l-224 -242l240 -283h-166l-212 260v-260h-122zM415 688l-149 -118l-55 64l133 142z" />
    <glyph glyph-name="uniF37E" unicode="&#xf37e;" horiz-adv-x="567" 
d="M560 525l-198 -397c-39 -81 -91 -128 -169 -128c-33 0 -62 12 -78 23l43 104c16 -9 24 -12 41 -12c24 0 37 16 45 30l9 14l-244 366h154l152 -245l119 245h126zM122 700h107c0 -37 22 -53 60 -53c34 0 55 16 55 53h108c0 -86 -62 -138 -163 -138c-112 0 -167 51 -167 138
z" />
    <glyph glyph-name="uniF37F" unicode="&#xf37f;" horiz-adv-x="641" 
d="M78 0v525h122v-410h241v410h122v-525h-185v-113h-115v113h-185z" />
    <glyph glyph-name="uniF381" unicode="&#xf381;" horiz-adv-x="527" 
d="M7 375v100h83v50h123v-50h123v-100h-123v-43c23 3 44 3 57 3c152 0 222 -55 222 -163c0 -112 -87 -174 -248 -174c-59 0 -119 2 -154 2v375h-83zM260 227c-13 0 -28 -1 -47 -1v-119c16 0 30 -2 45 -2c63 0 104 17 104 64c0 42 -38 58 -102 58z" />
    <glyph glyph-name="uniF389" unicode="&#xf389;" horiz-adv-x="659" 
d="M35 261c0 152 118 271 294 271c170 0 295 -104 295 -271c0 -159 -125 -272 -295 -272c-169 0 -294 104 -294 272zM242 247c-28 0 -50 -9 -72 -28c19 -68 82 -115 159 -115c70 0 119 29 144 74c-17 -8 -34 -12 -50 -12c-79 0 -125 81 -181 81zM433 274c17 0 39 7 57 21
c-15 75 -80 122 -161 122c-65 0 -117 -28 -144 -76c20 9 40 14 58 14c85 0 128 -81 190 -81z" />
    <glyph glyph-name="uniF38A" unicode="&#xf38a;" horiz-adv-x="548" 
d="M468 354l-143 -354h-94l-237 525h139l149 -358l87 239c39 112 84 144 194 119v-100c-43 8 -70 -11 -95 -71z" />
    <glyph glyph-name="uniF393" unicode="&#xf393;" horiz-adv-x="449" 
d="M78 0v525h241v82h115v-197h-234v-410h-122z" />
    <glyph glyph-name="uniF3CF" unicode="&#xf3cf;" horiz-adv-x="1003" 
d="M569 0h-99l-277 326v-326h-115v525h98l278 -327v327h115v-525zM606 361c0 85 73 140 173 140s172 -55 172 -140c0 -86 -72 -142 -172 -142s-173 56 -173 142zM714 361c0 -32 28 -50 65 -50c38 0 65 18 65 50c0 30 -27 48 -65 48s-65 -18 -65 -48zM639 77v107h279v-107
h-279z" />
    <glyph glyph-name="uniF3D0" unicode="&#xf3d0;" horiz-adv-x="450" 
d="M60 700h107c0 -37 22 -53 60 -53c34 0 55 16 55 53h108c0 -86 -62 -138 -163 -138c-112 0 -167 51 -167 138z" />
    <glyph glyph-name="uniF400" unicode="&#xf400;" horiz-adv-x="0" 
d="M-126 662l-126 -145l-69 48l105 165z" />
    <glyph glyph-name="uniF401" unicode="&#xf401;" horiz-adv-x="0" 
d="M-235 812l-225 -81l-32 69l214 111z" />
    <glyph glyph-name="uniF406" unicode="&#xf406;" horiz-adv-x="496" 
d="M60 841l50 59c24 -27 67 -63 143 -63c66 0 113 32 140 63l43 -60c-33 -53 -102 -103 -183 -103c-92 0 -164 57 -193 104z" />
    <glyph glyph-name="uniF407" unicode="&#xf407;" horiz-adv-x="392" 
d="M60 -163l37 58c17 -14 49 -33 74 -33c22 0 39 9 39 25c0 18 -11 28 -41 28h-6v85h58v-35c78 -4 111 -34 111 -85s-48 -88 -133 -88c-76 0 -117 28 -139 45z" />
    <glyph glyph-name="uniF408" unicode="&#xf408;" horiz-adv-x="478" 
d="M60 792l175 112h4l179 -111l-45 -65l-136 71l-136 -71z" />
    <glyph glyph-name="uniF409" unicode="&#xf409;" horiz-adv-x="278" 
d="M86 -58l112 25c10 -6 20 -21 20 -49c0 -71 -67 -115 -124 -124l-34 50c34 14 43 34 43 60c0 18 -7 31 -17 38z" />
    <glyph glyph-name="uniF40A" unicode="&#xf40a;" horiz-adv-x="273" 
d="M82 716l97 57c21 -22 34 -60 34 -93c0 -93 -57 -148 -100 -172l-53 49c29 24 45 60 45 97c0 25 -9 48 -23 62z" />
    <glyph glyph-name="uniF40B" unicode="&#xf40b;" horiz-adv-x="274" 
d="M60 831c0 44 37 71 79 71c38 0 75 -27 75 -71c0 -48 -37 -75 -75 -75c-42 0 -79 27 -79 75z" />
    <glyph glyph-name="uniF40C" unicode="&#xf40c;" horiz-adv-x="402" 
d="M60 800c0 75 62 108 139 108c79 0 143 -33 143 -108c0 -73 -64 -110 -143 -110c-77 0 -139 37 -139 110zM145 800c0 -32 24 -47 55 -47c32 0 57 15 57 47s-25 45 -57 45c-31 0 -55 -13 -55 -45z" />
    <glyph glyph-name="uniF40D" unicode="&#xf40d;" horiz-adv-x="482" 
d="M96 753l-36 73c29 33 73 54 112 54c60 0 89 -35 143 -35c23 0 51 5 76 32l31 -73c-28 -40 -67 -59 -115 -59c-51 0 -88 35 -145 35c-21 0 -43 -8 -66 -27z" />
    <glyph glyph-name="uniF40E" unicode="&#xf40e;" horiz-adv-x="357" 
d="M262 -98l35 -70c-17 -17 -60 -32 -103 -32c-68 0 -134 26 -134 94c0 87 122 126 224 126v-20c-60 0 -109 -34 -109 -68c0 -30 25 -40 45 -40c16 0 25 2 42 10z" />
    <glyph glyph-name="uniF410" unicode="&#xf410;" horiz-adv-x="0" 
d="M-287 731l-225 81l43 99l214 -111z" />
    <glyph glyph-name="uniF416" unicode="&#xf416;" horiz-adv-x="278" 
d="M86 -58l112 25c10 -6 20 -21 20 -49c0 -71 -67 -115 -124 -124l-34 50c34 14 43 34 43 60c0 18 -7 31 -17 38z" />
    <glyph glyph-name="uniF418" unicode="&#xf418;" horiz-adv-x="273" 
d="M82 519l97 57c21 -22 34 -60 34 -93c0 -93 -57 -148 -100 -172l-53 49c29 24 45 60 45 97c0 25 -9 48 -23 62z" />
    <glyph glyph-name="uniF447" unicode="&#xf447;" horiz-adv-x="503" 
d="M125 -166l34 54c18 -14 45 -26 70 -26c22 0 39 9 39 25c0 18 -11 28 -41 28h-6v85h-31v410h-181v115h485v-115h-182v-410h-33v-35c68 -4 104 -34 104 -85s-47 -88 -138 -88c-64 0 -97 25 -120 42z" />
    <glyph glyph-name="uniF44E" unicode="&#xf44e;" horiz-adv-x="624" 
d="M38 324h418c-17 62 -81 93 -159 93c-61 0 -94 -11 -133 -37l-48 91c40 31 97 61 193 61c171 0 280 -108 280 -272c0 -169 -118 -271 -285 -271c-177 0 -294 121 -266 335zM303 104c99 0 147 41 158 105h-296c1 -55 53 -105 138 -105z" />
    <glyph glyph-name="uniF639" unicode="&#xf639;" 
d="M63 350c0 214 74 358 235 358c160 0 234 -144 234 -358s-72 -358 -232 -358c-161 0 -237 144 -237 358zM186 350c0 -171 39 -251 114 -251c80 0 110 78 110 251s-32 250 -112 250c-79 0 -112 -81 -112 -250z" />
    <glyph glyph-name="uniF63A" unicode="&#xf63a;" 
d="M81 0v92c114 112 290 274 290 410c0 56 -31 91 -89 91c-49 0 -86 -35 -101 -94l-96 43c20 102 100 166 210 166c134 0 199 -90 199 -183c0 -196 -210 -373 -264 -418h290v-107h-439z" />
    <glyph glyph-name="uniF63B" unicode="&#xf63b;" 
d="M292 -11c-107 0 -185 47 -222 118l65 84c35 -52 89 -87 150 -87c75 0 113 44 113 97c0 64 -49 99 -130 99h-50v115h45c57 0 108 36 108 96c0 50 -29 85 -89 85c-56 0 -97 -24 -132 -75l-64 81c38 71 111 109 207 109c120 0 201 -68 201 -178c0 -79 -36 -135 -107 -166v-3
c87 -15 134 -84 134 -167c0 -129 -100 -208 -229 -208z" />
    <glyph glyph-name="uniF63C" unicode="&#xf63c;" 
d="M355 0v162h-321v85l270 453h132l-253 -423h172v173h115v-173h89v-115h-89v-162h-115z" />
    <glyph glyph-name="uniF63D" unicode="&#xf63d;" 
d="M126 328l46 372h331v-115h-230l-20 -139c11 2 26 4 40 4c124 0 220 -85 220 -223c0 -151 -108 -238 -241 -238c-75 0 -162 34 -205 100l66 87c30 -44 89 -72 142 -72c67 0 115 49 115 118c0 70 -55 124 -149 124c-45 0 -94 -9 -115 -18z" />
    <glyph glyph-name="uniF63E" unicode="&#xf63e;" 
d="M50 248c0 257 191 425 344 463l47 -87c-114 -34 -219 -121 -255 -256c29 40 74 65 144 65c107 0 196 -86 196 -214c0 -147 -114 -230 -226 -230c-156 0 -250 118 -250 259zM172 247c0 -80 45 -143 129 -143c64 0 103 51 103 107c0 64 -39 115 -113 115
c-63 0 -101 -41 -119 -79z" />
    <glyph glyph-name="uniF63F" unicode="&#xf63f;" 
d="M86 585v115h440v-77l-247 -623h-126l235 585h-302z" />
    <glyph glyph-name="uniF640" unicode="&#xf640;" 
d="M289 417h20c53 0 90 43 90 90c0 57 -42 89 -102 89c-61 0 -99 -37 -99 -89c0 -47 37 -90 91 -90zM308 302h-17c-59 0 -113 -37 -113 -99c0 -55 44 -99 120 -99c83 0 121 43 120 99c0 65 -49 99 -110 99zM299 -11c-136 0 -243 73 -243 192c0 90 52 154 119 177v3
c-53 23 -100 84 -100 166c0 110 99 184 223 184c123 0 223 -74 223 -184c0 -68 -39 -136 -107 -165v-3c69 -14 127 -77 127 -168c0 -129 -106 -202 -242 -202z" />
    <glyph glyph-name="uniF641" unicode="&#xf641;" 
d="M542 444c0 -269 -159 -431 -359 -455l-38 91c144 29 233 114 261 244c-29 -40 -74 -63 -133 -63c-118 0 -211 93 -211 217c0 147 120 233 232 233c156 0 248 -111 248 -267zM420 445c0 80 -42 151 -126 151c-65 0 -110 -54 -110 -110c0 -61 43 -117 117 -117
c63 0 101 38 119 76z" />
    <glyph glyph-name="uniF643" unicode="&#xf643;" 
d="M33 250c0 135 96 261 265 261s265 -126 265 -261s-96 -261 -265 -261s-265 126 -265 261zM155 250c0 -81 55 -146 143 -146c93 0 142 65 142 146c0 86 -55 146 -142 146s-143 -61 -143 -146z" />
    <glyph glyph-name="uniF644" unicode="&#xf644;" 
d="M117 415l170 93h80v-508h-123v362l-89 -51z" />
    <glyph glyph-name="uniF645" unicode="&#xf645;" 
d="M81 0v85c104 43 291 127 291 227c0 49 -30 85 -84 85c-50 0 -94 -27 -118 -84l-74 74c28 74 110 125 196 125c136 0 195 -79 195 -173c0 -115 -106 -198 -164 -224h198v-115h-440z" />
    <glyph glyph-name="uniF646" unicode="&#xf646;" 
d="M292 -211c-107 0 -185 47 -222 118l65 84c35 -52 89 -87 150 -87c75 0 113 44 113 97c0 64 -49 99 -130 99h-50v115h45c57 0 108 36 108 96c0 50 -29 85 -89 85c-56 0 -97 -24 -132 -75l-64 81c38 71 111 109 207 109c120 0 201 -68 201 -178c0 -79 -36 -135 -107 -166
v-3c87 -15 134 -84 134 -167c0 -129 -100 -208 -229 -208z" />
    <glyph glyph-name="uniF647" unicode="&#xf647;" 
d="M354 -200v200h-320v84l250 416h132l-233 -385h171v172h115v-172h90v-115h-90v-200h-115z" />
    <glyph glyph-name="uniF648" unicode="&#xf648;" 
d="M126 128l46 372h331v-115h-230l-20 -139c11 2 26 4 40 4c124 0 220 -85 220 -223c0 -151 -108 -238 -241 -238c-75 0 -162 34 -205 100l66 87c30 -44 89 -72 142 -72c67 0 115 49 115 118c0 70 -55 124 -149 124c-45 0 -94 -9 -115 -18z" />
    <glyph glyph-name="uniF649" unicode="&#xf649;" 
d="M50 248c0 257 191 425 344 463l47 -87c-114 -34 -219 -121 -255 -256c29 40 74 65 144 65c107 0 196 -86 196 -214c0 -147 -114 -230 -226 -230c-156 0 -250 118 -250 259zM172 247c0 -80 45 -143 129 -143c64 0 103 51 103 107c0 64 -39 115 -113 115
c-63 0 -101 -41 -119 -79z" />
    <glyph glyph-name="uniF64A" unicode="&#xf64a;" 
d="M86 385v115h440v-77l-248 -623h-126l236 585h-302z" />
    <glyph glyph-name="uniF64B" unicode="&#xf64b;" 
d="M290 417h19c53 0 90 43 90 90c0 57 -42 89 -102 89s-99 -37 -99 -89c0 -47 37 -90 92 -90zM309 302h-17c-59 0 -113 -37 -113 -99c0 -55 44 -99 119 -99c83 0 122 43 121 99c-1 65 -49 99 -110 99zM299 -11c-136 0 -243 73 -243 192c0 90 52 154 120 177v3
c-54 23 -100 84 -100 166c0 110 99 184 222 184c124 0 224 -74 224 -184c0 -68 -40 -136 -108 -165v-3c69 -14 127 -77 127 -168c0 -129 -106 -202 -242 -202z" />
    <glyph glyph-name="uniF64C" unicode="&#xf64c;" 
d="M542 244c0 -269 -159 -431 -359 -455l-38 91c144 29 233 114 261 244c-29 -40 -74 -63 -133 -63c-118 0 -211 93 -211 217c0 147 120 233 232 233c156 0 248 -111 248 -267zM420 245c0 80 -42 151 -126 151c-65 0 -110 -54 -110 -110c0 -61 43 -117 117 -117
c63 0 101 38 119 76z" />
    <glyph glyph-name="uniF66D" unicode="&#xf66d;" horiz-adv-x="611" 
d="M6 0l245 526h109l245 -526h-131l-49 108h-247l-49 -108h-123zM302 383l-73 -161h145zM149 671l51 58c21 -24 54 -57 110 -57c51 0 91 29 112 55l40 -55c-27 -41 -71 -92 -157 -92c-87 0 -138 60 -156 91z" />
    <glyph glyph-name="uniF66E" unicode="&#xf66e;" horiz-adv-x="611" 
d="M6 0l245 526h109l245 -526h-131l-49 108h-247l-49 -108h-123zM302 383l-73 -161h145zM166 597v93h279v-93h-279z" />
    <glyph glyph-name="uniF66F" unicode="&#xf66f;" horiz-adv-x="611" 
d="M563 -98l35 -70c-17 -17 -60 -32 -103 -32c-68 0 -134 26 -134 94c0 55 49 91 111 110l-47 104h-247l-49 -108h-123l245 526h109l245 -526h-25c-58 -1 -104 -35 -104 -68c0 -30 25 -40 45 -40c16 0 25 2 42 10zM302 383l-73 -161h145z" />
    <glyph glyph-name="uniF671" unicode="&#xf671;" horiz-adv-x="549" 
d="M476 142l47 -92c-36 -35 -112 -61 -189 -61c-182 0 -299 108 -299 272c0 144 96 271 296 271c78 0 143 -24 180 -54l-55 -92c-33 16 -68 31 -124 31c-97 0 -167 -54 -167 -156c0 -92 69 -157 180 -157c44 0 92 12 131 38zM443 688l-149 -118l-55 64l133 142z" />
    <glyph glyph-name="uniF672" unicode="&#xf672;" horiz-adv-x="549" 
d="M476 142l47 -92c-36 -35 -112 -61 -189 -61c-182 0 -299 108 -299 272c0 144 96 271 296 271c78 0 143 -24 180 -54l-55 -92c-33 16 -68 31 -124 31c-97 0 -167 -54 -167 -156c0 -92 69 -157 180 -157c44 0 92 12 131 38zM311 564l-155 122l54 67l104 -79l104 78l53 -67
l-156 -121h-4z" />
    <glyph glyph-name="uniF673" unicode="&#xf673;" horiz-adv-x="549" 
d="M476 142l47 -92c-36 -35 -112 -61 -189 -61c-182 0 -299 108 -299 272c0 144 96 271 296 271c78 0 143 -24 180 -54l-55 -92c-33 16 -68 31 -124 31c-97 0 -167 -54 -167 -156c0 -92 69 -157 180 -157c44 0 92 12 131 38zM318 749l157 -122l-54 -68l-106 80l-107 -78
l-52 67l158 121h4z" />
    <glyph glyph-name="uniF674" unicode="&#xf674;" horiz-adv-x="549" 
d="M476 142l47 -92c-36 -35 -112 -61 -189 -61c-182 0 -299 108 -299 272c0 144 96 271 296 271c78 0 143 -24 180 -54l-55 -92c-33 16 -68 31 -124 31c-97 0 -167 -54 -167 -156c0 -92 69 -157 180 -157c44 0 92 12 131 38zM240 659c0 42 33 67 72 67c33 0 66 -25 66 -67
c0 -46 -33 -71 -66 -71c-39 0 -72 25 -72 71z" />
    <glyph glyph-name="uniF675" unicode="&#xf675;" horiz-adv-x="622" 
d="M78 0v525h12c32 0 128 2 168 2c235 0 329 -111 329 -261c0 -154 -111 -268 -335 -268c-33 0 -106 2 -161 2h-13zM257 412c-19 0 -38 0 -57 -2v-295c22 -2 38 -2 56 -2c125 0 201 52 201 153c0 97 -71 146 -200 146zM279 564l-155 122l54 67l104 -79l104 78l53 -67
l-156 -121h-4z" />
    <glyph glyph-name="uniF676" unicode="&#xf676;" horiz-adv-x="625" 
d="M9 212v107h71v206h12c32 0 128 2 185 2c218 0 313 -120 313 -261c0 -146 -112 -268 -312 -268c-56 0 -130 2 -184 2h-14v212h-71zM280 412c-27 0 -58 -1 -78 -4v-89h142v-107h-142v-97c22 -1 49 -2 66 -2c120 0 192 55 192 153c0 97 -70 146 -180 146z" />
    <glyph glyph-name="uniF678" unicode="&#xf678;" horiz-adv-x="498" 
d="M78 0v525h359v-115h-237v-88h213v-115h-213v-92h246v-115h-368zM259 564l-155 122l54 67l104 -79l104 78l53 -67l-156 -121h-4z" />
    <glyph glyph-name="uniF679" unicode="&#xf679;" horiz-adv-x="498" 
d="M78 0v525h359v-115h-237v-88h213v-115h-213v-92h246v-115h-368zM187 659c0 42 33 67 72 67c33 0 66 -25 66 -67c0 -46 -33 -71 -66 -71c-39 0 -72 25 -72 71z" />
    <glyph glyph-name="uniF67A" unicode="&#xf67a;" horiz-adv-x="498" 
d="M78 0v525h359v-115h-237v-88h213v-115h-213v-92h246v-115h-368zM116 597v93h279v-93h-279z" />
    <glyph glyph-name="uniF67C" unicode="&#xf67c;" horiz-adv-x="498" 
d="M423 -98l35 -70c-17 -17 -60 -32 -103 -32c-68 0 -134 26 -134 94c0 52 43 87 99 106h-242v525h359v-115h-237v-88h213v-115h-213v-92h246v-115h-6c-58 -1 -104 -35 -104 -68c0 -30 25 -40 45 -40c16 0 25 2 42 10z" />
    <glyph glyph-name="uniF67D" unicode="&#xf67d;" horiz-adv-x="609" 
d="M320 191v108h246v-236c-52 -46 -147 -74 -220 -74c-197 0 -311 108 -311 272c0 150 113 271 296 271c86 0 142 -21 190 -54l-52 -96c-28 19 -76 35 -124 35c-102 0 -180 -49 -180 -156c0 -96 73 -157 183 -157c39 0 78 10 103 26v61h-131zM161 671l51 58
c21 -24 54 -57 110 -57c51 0 91 29 112 55l40 -55c-27 -41 -71 -92 -157 -92c-87 0 -138 60 -156 91z" />
    <glyph glyph-name="uniF67E" unicode="&#xf67e;" horiz-adv-x="609" 
d="M320 191v108h246v-236c-52 -46 -147 -74 -220 -74c-197 0 -311 108 -311 272c0 150 113 271 296 271c86 0 142 -21 190 -54l-52 -96c-28 19 -76 35 -124 35c-102 0 -180 -49 -180 -156c0 -96 73 -157 183 -157c39 0 78 10 103 26v61h-131zM328 749l157 -122l-54 -68
l-106 80l-107 -78l-52 67l158 121h4z" />
    <glyph glyph-name="uniF67F" unicode="&#xf67f;" horiz-adv-x="609" 
d="M320 191v108h246v-236c-52 -46 -147 -74 -220 -74c-197 0 -311 108 -311 272c0 150 113 271 296 271c86 0 142 -21 190 -54l-52 -96c-28 19 -76 35 -124 35c-102 0 -180 -49 -180 -156c0 -96 73 -157 183 -157c39 0 78 10 103 26v61h-131zM266 -58l112 25
c10 -6 20 -21 20 -49c0 -71 -67 -115 -124 -124l-34 50c34 14 43 34 43 60c0 18 -7 31 -17 38z" />
    <glyph glyph-name="uniF680" unicode="&#xf680;" horiz-adv-x="609" 
d="M320 191v108h246v-236c-52 -46 -147 -74 -220 -74c-197 0 -311 108 -311 272c0 150 113 271 296 271c86 0 142 -21 190 -54l-52 -96c-28 19 -76 35 -124 35c-102 0 -180 -49 -180 -156c0 -96 73 -157 183 -157c39 0 78 10 103 26v61h-131zM255 659c0 42 33 67 72 67
c33 0 66 -25 66 -67c0 -46 -33 -71 -66 -71c-39 0 -72 25 -72 71z" />
    <glyph glyph-name="uniF681" unicode="&#xf681;" horiz-adv-x="649" 
d="M30 373v107h48v45h122v-45h249v45h122v-45h48v-107h-48v-373h-122v210h-249v-210h-122v373h-48zM200 325h249v48h-249v-48z" />
    <glyph glyph-name="uniF682" unicode="&#xf682;" horiz-adv-x="649" 
d="M449 0v210h-249v-210h-122v525h122v-200h249v200h122v-525h-122zM327 749l157 -122l-54 -68l-106 80l-107 -78l-52 67l158 121h4z" />
    <glyph glyph-name="uniF685" unicode="&#xf685;" horiz-adv-x="297" 
d="M87 0v525h123v-525h-123zM9 597v93h279v-93h-279z" />
    <glyph glyph-name="uniF686" unicode="&#xf686;" horiz-adv-x="297" 
d="M180 -98l35 -70c-17 -17 -60 -32 -103 -32c-68 0 -134 26 -134 94c0 55 48 91 109 109v522h123v-525h-13c-58 -1 -104 -35 -104 -68c0 -30 25 -40 45 -40c16 0 25 2 42 10z" />
    <glyph glyph-name="uniF688" unicode="&#xf688;" horiz-adv-x="336" 
d="M258 525v-396c0 -90 -52 -138 -149 -138c-49 0 -93 19 -107 37l40 94c13 -9 32 -16 49 -16c29 0 45 15 45 44v375h122zM193 749l157 -122l-54 -68l-106 80l-107 -78l-52 67l158 121h4z" />
    <glyph glyph-name="uniF689" unicode="&#xf689;" horiz-adv-x="586" 
d="M78 0v525h122v-238l203 238h159l-224 -242l240 -283h-166l-212 260v-260h-122zM211 -58l112 25c10 -6 20 -21 20 -49c0 -71 -67 -115 -124 -124l-34 50c34 14 43 34 43 60c0 18 -7 31 -17 38z" />
    <glyph glyph-name="uniF68A" unicode="&#xf68a;" horiz-adv-x="467" 
d="M78 0v525h122v-403h248v-122h-370zM353 688l-149 -118l-55 64l133 142z" />
    <glyph glyph-name="uniF68B" unicode="&#xf68b;" horiz-adv-x="467" 
d="M78 0v525h122v-403h248v-122h-370zM298 525h112c5 -10 6 -24 6 -35c0 -94 -52 -148 -99 -174l-53 50c28 27 45 67 45 110c0 21 -4 34 -11 49z" />
    <glyph glyph-name="uniF68C" unicode="&#xf68c;" horiz-adv-x="467" 
d="M78 0v525h122v-403h248v-122h-370zM206 -58l112 25c10 -6 20 -21 20 -49c0 -71 -67 -115 -124 -124l-34 50c34 14 43 34 43 60c0 18 -7 31 -17 38z" />
    <glyph glyph-name="uniF68D" unicode="&#xf68d;" horiz-adv-x="467" 
d="M78 0v525h122v-403h248v-122h-370zM297 307c0 35 30 74 80 74c43 0 73 -39 73 -74c0 -41 -30 -80 -73 -80c-50 0 -80 39 -80 80z" />
    <glyph glyph-name="uniF68E" unicode="&#xf68e;" horiz-adv-x="663" 
d="M585 0h-98l-294 326v-326h-115v525h98l294 -327v327h115v-525zM470 688l-149 -118l-55 64l133 142z" />
    <glyph glyph-name="uniF68F" unicode="&#xf68f;" horiz-adv-x="663" 
d="M585 0h-98l-294 326v-326h-115v525h98l294 -327v327h115v-525zM329 564l-155 122l54 67l104 -79l104 78l53 -67l-156 -121h-4z" />
    <glyph glyph-name="uniF690" unicode="&#xf690;" horiz-adv-x="663" 
d="M585 0h-98l-294 326v-326h-115v525h98l294 -327v327h115v-525zM264 -58l112 25c10 -6 20 -21 20 -49c0 -71 -67 -115 -124 -124l-34 50c34 14 43 34 43 60c0 18 -7 31 -17 38z" />
    <glyph glyph-name="uniF692" unicode="&#xf692;" horiz-adv-x="659" 
d="M35 261c0 152 118 271 294 271c170 0 295 -104 295 -271c0 -159 -125 -272 -295 -272c-169 0 -294 104 -294 272zM165 261c0 -89 72 -157 164 -157c108 0 165 69 165 157c0 95 -72 156 -165 156c-95 0 -164 -61 -164 -156zM551 704l-158 -131l-51 42l124 153zM370 717
l-124 -144l-59 40l101 166z" />
    <glyph glyph-name="uniF693" unicode="&#xf693;" horiz-adv-x="659" 
d="M35 261c0 152 118 271 294 271c170 0 295 -104 295 -271c0 -159 -125 -272 -295 -272c-169 0 -294 104 -294 272zM165 261c0 -89 72 -157 164 -157c108 0 165 69 165 157c0 95 -72 156 -165 156c-95 0 -164 -61 -164 -156zM190 597v93h279v-93h-279z" />
    <glyph glyph-name="uniF695" unicode="&#xf695;" horiz-adv-x="556" 
d="M200 0h-122v525c32 0 121 2 178 2c174 0 229 -76 229 -177c0 -98 -56 -138 -94 -153l150 -197h-156l-119 167h-66v-167zM263 412c-20 0 -49 -1 -63 -2v-128h64c52 0 91 23 91 67c0 28 -20 63 -92 63zM398 688l-149 -118l-55 64l133 142z" />
    <glyph glyph-name="uniF696" unicode="&#xf696;" horiz-adv-x="556" 
d="M200 0h-122v525c32 0 121 2 178 2c174 0 229 -76 229 -177c0 -98 -56 -138 -94 -153l150 -197h-156l-119 167h-66v-167zM263 412c-20 0 -49 -1 -63 -2v-128h64c52 0 91 23 91 67c0 28 -20 63 -92 63zM256 564l-155 122l54 67l104 -79l104 78l53 -67l-156 -121h-4z" />
    <glyph glyph-name="uniF697" unicode="&#xf697;" horiz-adv-x="556" 
d="M200 0h-122v525c32 0 121 2 178 2c174 0 229 -76 229 -177c0 -98 -56 -138 -94 -153l150 -197h-156l-119 167h-66v-167zM263 412c-20 0 -49 -1 -63 -2v-128h64c52 0 91 23 91 67c0 28 -20 63 -92 63zM206 -58l112 25c10 -6 20 -21 20 -49c0 -71 -67 -115 -124 -124
l-34 50c34 14 43 34 43 60c0 18 -7 31 -17 38z" />
    <glyph glyph-name="uniF698" unicode="&#xf698;" horiz-adv-x="500" 
d="M335 151c0 76 -287 50 -287 229c0 81 58 152 215 152c63 0 158 -31 197 -73l-56 -91c-39 29 -106 49 -146 49c-51 0 -80 -14 -80 -43c0 -70 287 -40 287 -229c0 -93 -87 -156 -212 -156c-84 0 -185 35 -226 91l70 83c33 -31 108 -59 165 -59c42 0 73 17 73 47zM395 688
l-149 -118l-55 64l133 142z" />
    <glyph glyph-name="uniF699" unicode="&#xf699;" horiz-adv-x="500" 
d="M122 -166l34 54c18 -14 45 -26 70 -26c22 0 39 9 39 25c0 18 -11 28 -41 28h-6v76c-76 8 -156 40 -191 89l70 83c33 -31 108 -59 165 -59c42 0 73 17 73 47c0 76 -287 50 -287 229c0 81 58 152 215 152c63 0 158 -31 197 -73l-56 -91c-39 29 -106 49 -146 49
c-51 0 -80 -14 -80 -43c0 -70 287 -40 287 -229c0 -87 -77 -147 -189 -155v-25c68 -4 104 -34 104 -85s-47 -88 -138 -88c-64 0 -97 25 -120 42z" />
    <glyph glyph-name="uniF69A" unicode="&#xf69a;" horiz-adv-x="500" 
d="M335 151c0 76 -287 50 -287 229c0 81 58 152 215 152c63 0 158 -31 197 -73l-56 -91c-39 29 -106 49 -146 49c-51 0 -80 -14 -80 -43c0 -70 287 -40 287 -229c0 -93 -87 -156 -212 -156c-84 0 -185 35 -226 91l70 83c33 -31 108 -59 165 -59c42 0 73 17 73 47zM253 749
l157 -122l-54 -68l-106 80l-107 -78l-52 67l158 121h4z" />
    <glyph glyph-name="uniF69B" unicode="&#xf69b;" horiz-adv-x="500" 
d="M335 151c0 76 -287 50 -287 229c0 81 58 152 215 152c63 0 158 -31 197 -73l-56 -91c-39 29 -106 49 -146 49c-51 0 -80 -14 -80 -43c0 -70 287 -40 287 -229c0 -93 -87 -156 -212 -156c-84 0 -185 35 -226 91l70 83c33 -31 108 -59 165 -59c42 0 73 17 73 47zM194 -58
l112 25c10 -6 20 -21 20 -49c0 -71 -67 -115 -124 -124l-34 50c34 14 43 34 43 60c0 18 -7 31 -17 38z" />
    <glyph glyph-name="uniF69D" unicode="&#xf69d;" horiz-adv-x="503" 
d="M9 410v115h485v-115h-182v-410h-122v410h-181zM249 564l-155 122l54 67l104 -79l104 78l53 -67l-156 -121h-4z" />
    <glyph glyph-name="uniF69E" unicode="&#xf69e;" horiz-adv-x="503" 
d="M9 410v115h485v-115h-182v-410h-122v410h-181zM189 -58l112 25c10 -6 20 -21 20 -49c0 -71 -67 -115 -124 -124l-34 50c34 14 43 34 43 60c0 18 -7 31 -17 38z" />
    <glyph glyph-name="uniF69F" unicode="&#xf69f;" horiz-adv-x="629" 
d="M560 525v-309c0 -160 -113 -226 -238 -226c-149 0 -253 78 -253 231v304h123v-277c0 -80 34 -143 130 -143c85 0 115 53 115 136v284h123zM158 671l51 58c21 -24 54 -57 110 -57c51 0 91 29 112 55l40 -55c-27 -41 -71 -92 -157 -92c-87 0 -138 60 -156 91z" />
    <glyph glyph-name="uniF6A0" unicode="&#xf6a0;" horiz-adv-x="629" 
d="M560 525v-309c0 -160 -113 -226 -238 -226c-149 0 -253 78 -253 231v304h123v-277c0 -80 34 -143 130 -143c85 0 115 53 115 136v284h123zM539 704l-158 -131l-51 42l124 153zM358 717l-124 -144l-59 40l101 166z" />
    <glyph glyph-name="uniF6A1" unicode="&#xf6a1;" horiz-adv-x="629" 
d="M560 525v-309c0 -160 -113 -226 -238 -226c-149 0 -253 78 -253 231v304h123v-277c0 -80 34 -143 130 -143c85 0 115 53 115 136v284h123zM175 597v93h279v-93h-279z" />
    <glyph glyph-name="uniF6A2" unicode="&#xf6a2;" horiz-adv-x="629" 
d="M560 525v-309c0 -114 -57 -180 -135 -209c-40 -25 -63 -49 -63 -75c0 -30 26 -40 46 -40c15 0 25 2 42 10l34 -70c-17 -17 -59 -32 -103 -32c-68 0 -134 26 -134 94c0 49 38 74 88 96h-13c-149 0 -253 78 -253 231v304h123v-277c0 -80 34 -143 130 -143
c85 0 115 53 115 136v284h123z" />
    <glyph glyph-name="uniF6A3" unicode="&#xf6a3;" horiz-adv-x="629" 
d="M560 525v-309c0 -160 -113 -226 -238 -226c-149 0 -253 78 -253 231v304h123v-277c0 -80 34 -143 130 -143c85 0 115 53 115 136v284h123zM187 653c0 66 53 120 126 120c74 0 128 -54 128 -120s-54 -119 -128 -119c-73 0 -126 53 -126 119zM261 654c0 -32 22 -57 54 -57
c31 0 52 25 52 57c0 31 -21 56 -52 56c-32 0 -54 -25 -54 -56z" />
    <glyph glyph-name="uniF6AB" unicode="&#xf6ab;" horiz-adv-x="542" 
d="M50 410v115h450v-86l-288 -324h296v-115h-475v85l288 325h-271zM408 688l-149 -118l-55 64l133 142z" />
    <glyph glyph-name="uniF6AC" unicode="&#xf6ac;" horiz-adv-x="542" 
d="M50 410v115h450v-86l-288 -324h296v-115h-475v85l288 325h-271zM201 659c0 42 33 67 72 67c33 0 66 -25 66 -67c0 -46 -33 -71 -66 -71c-39 0 -72 25 -72 71z" />
    <glyph glyph-name="uniF6AD" unicode="&#xf6ad;" horiz-adv-x="297" 
d="M87 0v525h123v-525h-123zM79 659c0 42 33 67 72 67c33 0 66 -25 66 -67c0 -46 -33 -71 -66 -71c-39 0 -72 25 -72 71z" />
    <glyph glyph-name="uniF6BA" unicode="&#xf6ba;" horiz-adv-x="376" 
d="M62 300v107h252v-107h-252z" />
    <glyph glyph-name="uniF6BB" unicode="&#xf6bb;" horiz-adv-x="599" 
d="M85 304v100h429v-100h-429z" />
    <glyph glyph-name="uniF6BC" unicode="&#xf6bc;" horiz-adv-x="814" 
d="M85 304v100h644v-100h-644z" />
    <glyph glyph-name="uniF6C3" unicode="&#xf6c3;" horiz-adv-x="278" 
d="M86 -58l112 25c10 -6 20 -21 20 -49c0 -71 -67 -115 -124 -124l-34 50c34 14 43 34 43 60c0 18 -7 31 -17 38z" />
    <glyph glyph-name="uniF6C9" unicode="&#xf6c9;" horiz-adv-x="377" 
d="M317 812l-225 -81l-32 69l214 111z" />
    <glyph glyph-name="uniF6CA" unicode="&#xf6ca;" horiz-adv-x="477" 
d="M239 735l-179 111l45 65l136 -79l135 79l41 -64l-174 -112h-4z" />
    <glyph glyph-name="uniF6CB" unicode="&#xf6cb;" horiz-adv-x="500" 
d="M60 825c0 39 35 62 77 62c36 0 71 -23 71 -62c0 -43 -35 -66 -71 -66c-42 0 -77 23 -77 66zM292 825c0 39 35 62 77 62c37 0 71 -23 71 -62c0 -43 -34 -66 -71 -66c-42 0 -77 23 -77 66z" />
    <glyph glyph-name="uniF6CE" unicode="&#xf6ce;" horiz-adv-x="377" 
d="M285 731l-225 81l43 99l214 -111z" />
    <glyph glyph-name="uniF6CF" unicode="&#xf6cf;" horiz-adv-x="540" 
d="M480 839l-191 -108l-47 49l158 131zM273 860l-164 -129l-49 46l114 134z" />
    <glyph glyph-name="uniF6D0" unicode="&#xf6d0;" horiz-adv-x="429" 
d="M60 760v92h309v-92h-309z" />
    <glyph glyph-name="uniF6D1" unicode="&#xf6d1;" horiz-adv-x="515" 
d="M60 870h115c8 -39 35 -58 85 -58c45 0 76 15 80 58h115c-3 -86 -85 -143 -195 -143c-120 0 -193 58 -200 143z" />
    <glyph glyph-name="uniF6D4" unicode="&#xf6d4;" horiz-adv-x="430" 
d="M60 675h105c0 -37 14 -73 52 -73c34 0 48 36 48 73h105c0 -86 -52 -155 -153 -155c-112 0 -157 68 -157 155z" />
    <glyph glyph-name="uniF6DC" unicode="&#xf6dc;" 
d="M117 568l179 134h82v-702h-115v538l-86 -65z" />
    <glyph glyph-name="uniF6DE" unicode="&#xf6de;" horiz-adv-x="610" 
d="M64 220v100h483v-100h-483z" />
    <glyph glyph-name="uniF6F4" unicode="&#xf6f4;" horiz-adv-x="433" 
d="M60 671l51 58c21 -24 54 -57 110 -57c51 0 91 29 112 55l40 -55c-27 -41 -71 -92 -157 -92c-87 0 -138 60 -156 91z" />
    <glyph glyph-name="uniF6F5" unicode="&#xf6f5;" horiz-adv-x="435" 
d="M215 564l-155 122l54 67l104 -79l104 78l53 -67l-156 -121h-4z" />
    <glyph glyph-name="uniF6F6" unicode="&#xf6f6;" horiz-adv-x="439" 
d="M222 749l157 -122l-54 -68l-106 80l-107 -78l-52 67l158 121h4z" />
    <glyph glyph-name="uniF6F7" unicode="&#xf6f7;" horiz-adv-x="258" 
d="M60 659c0 42 33 67 72 67c33 0 66 -25 66 -67c0 -46 -33 -71 -66 -71c-39 0 -72 25 -72 71z" />
    <glyph glyph-name="uniF6F8" unicode="&#xf6f8;" horiz-adv-x="484" 
d="M424 704l-158 -131l-51 42l124 153zM243 717l-124 -144l-59 40l101 166z" />
    <glyph glyph-name="uniF6F9" unicode="&#xf6f9;" horiz-adv-x="467" 
d="M20 141v119l58 26v239h122v-183l101 47v-118l-101 -47v-102h248v-122h-370v168z" />
    <glyph glyph-name="uniF6FA" unicode="&#xf6fa;" horiz-adv-x="868" 
d="M448 0v18c-35 -17 -78 -29 -128 -29c-168 0 -285 108 -285 272c0 150 98 271 287 271c52 0 93 -12 126 -27v20h360v-115h-237v-88h212v-115h-212v-92h245v-115h-368zM330 104c50 0 86 15 118 37v241c-29 20 -63 35 -116 35c-97 0 -167 -54 -167 -156
c0 -92 69 -157 165 -157z" />
    <glyph glyph-name="uniF6FB" unicode="&#xf6fb;" horiz-adv-x="357" 
d="M262 -98l35 -70c-17 -17 -60 -32 -103 -32c-68 0 -134 26 -134 94c0 87 122 126 224 126v-20c-60 0 -109 -34 -109 -68c0 -30 25 -40 45 -40c16 0 25 2 42 10z" />
    <glyph glyph-name="uniF6FC" unicode="&#xf6fc;" horiz-adv-x="374" 
d="M60 653c0 66 53 120 126 120c74 0 128 -54 128 -120s-54 -119 -128 -119c-73 0 -126 53 -126 119zM134 654c0 -32 22 -57 54 -57c31 0 52 25 52 57c0 31 -21 56 -52 56c-32 0 -54 -25 -54 -56z" />
    <glyph glyph-name="uniF6FD" unicode="&#xf6fd;" horiz-adv-x="500" 
d="M335 151c0 76 -287 50 -287 229c0 81 58 152 215 152c63 0 158 -31 197 -73l-56 -91c-39 29 -106 49 -146 49c-51 0 -80 -14 -80 -43c0 -70 287 -40 287 -229c0 -93 -87 -156 -212 -156c-84 0 -185 35 -226 91l70 83c33 -31 108 -59 165 -59c42 0 73 17 73 47zM246 564
l-155 122l54 67l104 -79l104 78l53 -67l-156 -121h-4z" />
    <glyph glyph-name="uniF6FE" unicode="&#xf6fe;" horiz-adv-x="464" 
d="M107 586l-47 52c38 48 82 68 121 68c47 0 74 -41 115 -41c30 0 43 11 69 31l39 -58c-37 -41 -79 -66 -117 -66c-44 0 -72 42 -117 42c-20 0 -43 -15 -63 -28z" />
    <glyph glyph-name="uniF6FF" unicode="&#xf6ff;" horiz-adv-x="542" 
d="M50 410v115h450v-86l-288 -324h296v-115h-475v85l288 325h-271zM266 564l-155 122l54 67l104 -79l104 78l53 -67l-156 -121h-4z" />
    <glyph glyph-name="uniF730" unicode="&#xf730;" horiz-adv-x="620" 
d="M45 250c0 135 96 261 265 261s265 -126 265 -261s-96 -261 -265 -261s-265 126 -265 261zM167 250c0 -81 55 -146 143 -146c93 0 142 65 142 146c0 86 -55 146 -142 146s-143 -61 -143 -146z" />
    <glyph glyph-name="uniF731" unicode="&#xf731;" horiz-adv-x="377" 
d="M30 415l170 93h80v-508h-123v362l-89 -51z" />
    <glyph glyph-name="uniF732" unicode="&#xf732;" horiz-adv-x="517" 
d="M37 0v85c104 43 291 127 291 227c0 49 -30 85 -84 85c-50 0 -94 -27 -118 -84l-74 74c28 74 110 125 196 125c136 0 195 -79 195 -173c0 -115 -106 -198 -164 -224h198v-115h-440z" />
    <glyph glyph-name="uniF733" unicode="&#xf733;" horiz-adv-x="530" 
d="M244 -211c-107 0 -185 47 -222 118l65 84c35 -52 89 -87 150 -87c75 0 113 44 113 97c0 64 -49 99 -130 99h-50v115h45c57 0 108 36 108 96c0 50 -29 85 -89 85c-56 0 -97 -24 -132 -75l-64 81c38 71 111 109 207 109c120 0 201 -68 201 -178c0 -79 -36 -135 -107 -166
v-3c87 -15 134 -84 134 -167c0 -129 -100 -208 -229 -208z" />
    <glyph glyph-name="uniF734" unicode="&#xf734;" horiz-adv-x="565" 
d="M335 -200v200h-320v84l250 416h132l-233 -385h171v172h115v-172h90v-115h-90v-200h-115z" />
    <glyph glyph-name="uniF735" unicode="&#xf735;" horiz-adv-x="514" 
d="M81 128l46 372h331v-115h-230l-20 -139c11 2 26 4 40 4c124 0 220 -85 220 -223c0 -151 -108 -238 -241 -238c-75 0 -162 34 -205 100l66 87c30 -44 89 -72 142 -72c67 0 115 49 115 118c0 70 -55 124 -149 124c-45 0 -94 -9 -115 -18z" />
    <glyph glyph-name="uniF736" unicode="&#xf736;" horiz-adv-x="559" 
d="M45 248c0 257 191 425 344 463l47 -87c-114 -34 -219 -121 -255 -256c29 40 74 65 144 65c107 0 196 -86 196 -214c0 -147 -114 -230 -226 -230c-156 0 -250 118 -250 259zM167 247c0 -80 45 -143 129 -143c64 0 103 51 103 107c0 64 -39 115 -113 115
c-63 0 -101 -41 -119 -79z" />
    <glyph glyph-name="uniF737" unicode="&#xf737;" horiz-adv-x="497" 
d="M25 385v115h440v-77l-248 -623h-126l236 585h-302z" />
    <glyph glyph-name="uniF738" unicode="&#xf738;" horiz-adv-x="600" 
d="M291 417h19c53 0 90 43 90 90c0 57 -42 89 -102 89s-99 -37 -99 -89c0 -47 37 -90 92 -90zM310 302h-17c-59 0 -113 -37 -113 -99c0 -55 44 -99 119 -99c83 0 122 43 121 99c-1 65 -49 99 -110 99zM300 -11c-136 0 -243 73 -243 192c0 90 52 154 120 177v3
c-54 23 -100 84 -100 166c0 110 99 184 222 184c124 0 224 -74 224 -184c0 -68 -40 -136 -108 -165v-3c69 -14 127 -77 127 -168c0 -129 -106 -202 -242 -202z" />
    <glyph glyph-name="uniF739" unicode="&#xf739;" horiz-adv-x="555" 
d="M510 244c0 -269 -159 -431 -359 -455l-38 91c144 29 233 114 261 244c-29 -40 -74 -63 -133 -63c-118 0 -211 93 -211 217c0 147 120 233 232 233c156 0 248 -111 248 -267zM388 245c0 80 -42 151 -126 151c-65 0 -110 -54 -110 -110c0 -61 43 -117 117 -117
c63 0 101 38 119 76z" />
    <glyph glyph-name="uniF760" unicode="&#xf760;" horiz-adv-x="324" 
d="M208 570l-148 118l70 88l134 -142z" />
    <glyph glyph-name="uniF761" unicode="&#xf761;" horiz-adv-x="611" 
d="M6 0l245 526h109l245 -526h-131l-49 108h-247l-49 -108h-123zM302 383l-73 -161h145z" />
    <glyph glyph-name="uniF762" unicode="&#xf762;" horiz-adv-x="540" 
d="M78 1v522c32 2 135 5 197 5c140 0 195 -58 195 -130c0 -55 -28 -101 -81 -122v-1c61 -11 99 -48 99 -116c0 -110 -95 -163 -221 -163c-56 0 -155 2 -189 5zM282 210h-82v-94c11 -2 49 -5 77 -5c58 0 88 17 88 51c0 32 -31 48 -83 48zM273 413c-19 0 -56 -1 -73 -3v-92h76
c39 0 72 14 72 48c0 32 -25 47 -75 47z" />
    <glyph glyph-name="uniF763" unicode="&#xf763;" horiz-adv-x="549" 
d="M476 142l47 -92c-36 -35 -112 -61 -189 -61c-182 0 -299 108 -299 272c0 144 96 271 296 271c78 0 143 -24 180 -54l-55 -92c-33 16 -68 31 -124 31c-97 0 -167 -54 -167 -156c0 -92 69 -157 180 -157c44 0 92 12 131 38z" />
    <glyph glyph-name="uniF764" unicode="&#xf764;" horiz-adv-x="622" 
d="M78 0v525h12c32 0 128 2 168 2c235 0 329 -111 329 -261c0 -154 -111 -268 -335 -268c-33 0 -106 2 -161 2h-13zM257 412c-19 0 -38 0 -57 -2v-295c22 -2 38 -2 56 -2c125 0 201 52 201 153c0 97 -71 146 -200 146z" />
    <glyph glyph-name="uniF765" unicode="&#xf765;" horiz-adv-x="498" 
d="M78 0v525h359v-115h-237v-88h213v-115h-213v-92h246v-115h-368z" />
    <glyph glyph-name="uniF766" unicode="&#xf766;" horiz-adv-x="464" 
d="M78 0v525h352v-115h-230v-107h205v-115h-205v-188h-122z" />
    <glyph glyph-name="uniF767" unicode="&#xf767;" horiz-adv-x="609" 
d="M320 191v108h246v-236c-52 -46 -147 -74 -220 -74c-197 0 -311 108 -311 272c0 150 113 271 296 271c86 0 142 -21 190 -54l-52 -96c-28 19 -76 35 -124 35c-102 0 -180 -49 -180 -156c0 -96 73 -157 183 -157c39 0 78 10 103 26v61h-131z" />
    <glyph glyph-name="uniF768" unicode="&#xf768;" horiz-adv-x="649" 
d="M449 0v210h-249v-210h-122v525h122v-200h249v200h122v-525h-122z" />
    <glyph glyph-name="uniF769" unicode="&#xf769;" horiz-adv-x="297" 
d="M87 0v525h123v-525h-123z" />
    <glyph glyph-name="uniF76A" unicode="&#xf76a;" horiz-adv-x="336" 
d="M258 525v-396c0 -90 -52 -138 -149 -138c-49 0 -93 19 -107 37l40 94c13 -9 32 -16 49 -16c29 0 45 15 45 44v375h122z" />
    <glyph glyph-name="uniF76B" unicode="&#xf76b;" horiz-adv-x="586" 
d="M78 0v525h122v-238l203 238h159l-224 -242l240 -283h-166l-212 260v-260h-122z" />
    <glyph glyph-name="uniF76C" unicode="&#xf76c;" horiz-adv-x="467" 
d="M78 0v525h122v-403h248v-122h-370z" />
    <glyph glyph-name="uniF76D" unicode="&#xf76d;" horiz-adv-x="761" 
d="M78 0v525h123l188 -219l178 219h116v-525h-122v338l-172 -202h-17l-172 199v-335h-122z" />
    <glyph glyph-name="uniF76E" unicode="&#xf76e;" horiz-adv-x="663" 
d="M585 0h-98l-294 326v-326h-115v525h98l294 -327v327h115v-525z" />
    <glyph glyph-name="uniF76F" unicode="&#xf76f;" horiz-adv-x="659" 
d="M35 261c0 152 118 271 294 271c170 0 295 -104 295 -271c0 -159 -125 -272 -295 -272c-169 0 -294 104 -294 272zM165 261c0 -89 72 -157 164 -157c108 0 165 69 165 157c0 95 -72 156 -165 156c-95 0 -164 -61 -164 -156z" />
    <glyph glyph-name="uniF770" unicode="&#xf770;" horiz-adv-x="521" 
d="M200 0h-122v525c32 0 131 2 174 2c177 0 234 -85 234 -186c0 -107 -79 -189 -216 -189c-15 0 -47 1 -70 3v-155zM265 412c-19 0 -45 -1 -65 -2v-139c21 -2 45 -4 66 -4c52 0 90 24 90 74c0 47 -29 71 -91 71z" />
    <glyph glyph-name="uniF771" unicode="&#xf771;" horiz-adv-x="659" 
d="M35 261c0 152 118 271 294 271c170 0 295 -104 295 -271c0 -69 -23 -128 -63 -174l79 -87h-143l-21 22c-43 -22 -92 -33 -147 -33c-169 0 -294 104 -294 272zM165 261c0 -89 72 -157 164 -157c23 0 44 3 63 9l-42 46l80 72l45 -50c13 23 19 50 19 80
c0 95 -72 156 -165 156c-95 0 -164 -61 -164 -156z" />
    <glyph glyph-name="uniF772" unicode="&#xf772;" horiz-adv-x="556" 
d="M200 0h-122v525c32 0 121 2 178 2c174 0 229 -76 229 -177c0 -98 -56 -138 -94 -153l150 -197h-156l-119 167h-66v-167zM263 412c-20 0 -49 -1 -63 -2v-128h64c52 0 91 23 91 67c0 28 -20 63 -92 63z" />
    <glyph glyph-name="uniF773" unicode="&#xf773;" horiz-adv-x="500" 
d="M335 151c0 76 -287 50 -287 229c0 81 58 152 215 152c63 0 158 -31 197 -73l-56 -91c-39 29 -106 49 -146 49c-51 0 -80 -14 -80 -43c0 -70 287 -40 287 -229c0 -93 -87 -156 -212 -156c-84 0 -185 35 -226 91l70 83c33 -31 108 -59 165 -59c42 0 73 17 73 47z" />
    <glyph glyph-name="uniF774" unicode="&#xf774;" horiz-adv-x="503" 
d="M9 410v115h485v-115h-182v-410h-122v410h-181z" />
    <glyph glyph-name="uniF775" unicode="&#xf775;" horiz-adv-x="629" 
d="M560 525v-309c0 -160 -113 -226 -238 -226c-149 0 -253 78 -253 231v304h123v-277c0 -80 34 -143 130 -143c85 0 115 53 115 136v284h123z" />
    <glyph glyph-name="uniF776" unicode="&#xf776;" horiz-adv-x="550" 
d="M556 525l-231 -525h-94l-237 525h139l149 -358l143 358h131z" />
    <glyph glyph-name="uniF777" unicode="&#xf777;" horiz-adv-x="833" 
d="M831 525l-165 -525h-117l-128 334l-125 -334h-121l-173 525h138l106 -342l117 342h123l121 -343l102 343h122z" />
    <glyph glyph-name="uniF778" unicode="&#xf778;" horiz-adv-x="563" 
d="M552 525l-191 -257l199 -268h-152l-128 174l-125 -174h-152l199 268l-190 257h152l120 -167l117 167h151z" />
    <glyph glyph-name="uniF779" unicode="&#xf779;" horiz-adv-x="540" 
d="M538 525l-208 -312v-213h-122v213l-206 312h148l124 -197l125 197h139z" />
    <glyph glyph-name="uniF77A" unicode="&#xf77a;" horiz-adv-x="542" 
d="M50 410v115h450v-86l-288 -324h296v-115h-475v85l288 325h-271z" />
    <glyph glyph-name="uniF7A8" unicode="&#xf7a8;" horiz-adv-x="423" 
d="M60 645c0 37 29 60 65 60c28 0 58 -23 58 -60c0 -40 -30 -62 -58 -62c-36 0 -65 22 -65 62zM239 645c0 37 30 60 64 60c30 0 60 -23 60 -60c0 -40 -30 -62 -60 -62c-34 0 -64 22 -64 62z" />
    <glyph glyph-name="uniF7AF" unicode="&#xf7af;" horiz-adv-x="399" 
d="M60 597v93h279v-93h-279z" />
    <glyph glyph-name="uniF7B4" unicode="&#xf7b4;" horiz-adv-x="324" 
d="M264 688l-149 -118l-55 64l133 142z" />
    <glyph glyph-name="uniF7B8" unicode="&#xf7b8;" horiz-adv-x="378" 
d="M60 -166l34 54c18 -14 45 -26 70 -26c22 0 39 9 39 25c0 18 -11 28 -41 28h-6v85h58v-35c68 -4 104 -34 104 -85s-47 -88 -138 -88c-64 0 -97 25 -120 42z" />
    <glyph glyph-name="uniF7E0" unicode="&#xf7e0;" horiz-adv-x="611" 
d="M6 0l245 526h109l245 -526h-131l-49 108h-247l-49 -108h-123zM302 383l-73 -161h145zM331 570l-148 118l70 88l134 -142z" />
    <glyph glyph-name="uniF7E1" unicode="&#xf7e1;" horiz-adv-x="611" 
d="M6 0l245 526h109l245 -526h-131l-49 108h-247l-49 -108h-123zM302 383l-73 -161h145zM432 688l-149 -118l-55 64l133 142z" />
    <glyph glyph-name="uniF7E2" unicode="&#xf7e2;" horiz-adv-x="611" 
d="M6 0l245 526h109l245 -526h-131l-49 108h-247l-49 -108h-123zM302 383l-73 -161h145zM308 749l157 -122l-54 -68l-106 80l-107 -78l-52 67l158 121h4z" />
    <glyph glyph-name="uniF7E3" unicode="&#xf7e3;" horiz-adv-x="611" 
d="M6 0l245 526h109l245 -526h-131l-49 108h-247l-49 -108h-123zM302 383l-73 -161h145zM181 586l-47 52c38 48 82 68 121 68c47 0 74 -41 115 -41c30 0 43 11 69 31l39 -58c-37 -41 -79 -66 -117 -66c-44 0 -72 42 -117 42c-20 0 -43 -15 -63 -28z" />
    <glyph glyph-name="uniF7E4" unicode="&#xf7e4;" horiz-adv-x="611" 
d="M6 0l245 526h109l245 -526h-131l-49 108h-247l-49 -108h-123zM302 383l-73 -161h145zM154 645c0 37 29 60 65 60c28 0 58 -23 58 -60c0 -40 -30 -62 -58 -62c-36 0 -65 22 -65 62zM333 645c0 37 30 60 64 60c30 0 60 -23 60 -60c0 -40 -30 -62 -60 -62
c-34 0 -64 22 -64 62z" />
    <glyph glyph-name="uniF7E5" unicode="&#xf7e5;" horiz-adv-x="611" 
d="M6 0l245 526h109l245 -526h-131l-49 108h-247l-49 -108h-123zM302 383l-73 -161h145zM178 662c0 66 53 120 126 120c74 0 128 -54 128 -120s-54 -119 -128 -119c-73 0 -126 53 -126 119zM252 663c0 -32 22 -57 54 -57c31 0 52 25 52 57c0 31 -21 56 -52 56
c-32 0 -54 -25 -54 -56z" />
    <glyph glyph-name="uniF7E6" unicode="&#xf7e6;" horiz-adv-x="795" 
d="M390 0v107h-194l-84 -107h-142l171 212s0 1 251 313h342v-115h-222v-88h197v-115h-197v-92h231v-115h-353zM390 353l-102 -131h102v131z" />
    <glyph glyph-name="uniF7E7" unicode="&#xf7e7;" horiz-adv-x="549" 
d="M185 -166l34 54c18 -14 45 -26 70 -26c22 0 39 9 39 25c0 18 -11 28 -41 28h-6v77c-152 19 -246 121 -246 269c0 144 96 271 296 271c78 0 143 -24 180 -54l-55 -92c-33 16 -68 31 -124 31c-97 0 -167 -54 -167 -156c0 -92 69 -157 180 -157c44 0 92 12 131 38l47 -92
c-35 -34 -109 -60 -184 -61v-24c68 -4 104 -34 104 -85s-47 -88 -138 -88c-64 0 -97 25 -120 42z" />
    <glyph glyph-name="uniF7E8" unicode="&#xf7e8;" horiz-adv-x="498" 
d="M78 0v525h359v-115h-237v-88h213v-115h-213v-92h246v-115h-368zM289 570l-148 118l70 88l134 -142z" />
    <glyph glyph-name="uniF7E9" unicode="&#xf7e9;" horiz-adv-x="498" 
d="M78 0v525h359v-115h-237v-88h213v-115h-213v-92h246v-115h-368zM378 688l-149 -118l-55 64l133 142z" />
    <glyph glyph-name="uniF7EA" unicode="&#xf7ea;" horiz-adv-x="498" 
d="M78 0v525h359v-115h-237v-88h213v-115h-213v-92h246v-115h-368zM260 749l157 -122l-54 -68l-106 80l-107 -78l-52 67l158 121h4z" />
    <glyph glyph-name="uniF7EB" unicode="&#xf7eb;" horiz-adv-x="498" 
d="M78 0v525h359v-115h-237v-88h213v-115h-213v-92h246v-115h-368zM110 645c0 37 29 60 65 60c28 0 58 -23 58 -60c0 -40 -30 -62 -58 -62c-36 0 -65 22 -65 62zM289 645c0 37 30 60 64 60c30 0 60 -23 60 -60c0 -40 -30 -62 -60 -62c-34 0 -64 22 -64 62z" />
    <glyph glyph-name="uniF7EC" unicode="&#xf7ec;" horiz-adv-x="297" 
d="M87 0v525h123v-525h-123zM174 570l-148 118l70 88l134 -142z" />
    <glyph glyph-name="uniF7ED" unicode="&#xf7ed;" horiz-adv-x="297" 
d="M87 0v525h123v-525h-123zM288 688l-149 -118l-55 64l133 142z" />
    <glyph glyph-name="uniF7EE" unicode="&#xf7ee;" horiz-adv-x="297" 
d="M87 0v525h123v-525h-123zM152 749l157 -122l-54 -68l-106 80l-107 -78l-52 67l158 121h4z" />
    <glyph glyph-name="uniF7EF" unicode="&#xf7ef;" horiz-adv-x="297" 
d="M87 0v525h123v-525h-123zM-2 645c0 37 29 60 65 60c28 0 58 -23 58 -60c0 -40 -30 -62 -58 -62c-36 0 -65 22 -65 62zM177 645c0 37 30 60 64 60c30 0 60 -23 60 -60c0 -40 -30 -62 -60 -62c-34 0 -64 22 -64 62z" />
    <glyph glyph-name="uniF7F0" unicode="&#xf7f0;" horiz-adv-x="625" 
d="M9 212v107h71v206h12c32 0 128 2 185 2c218 0 313 -120 313 -261c0 -146 -112 -268 -312 -268c-56 0 -130 2 -184 2h-14v212h-71zM280 412c-27 0 -58 -1 -78 -4v-89h142v-107h-142v-97c22 -1 49 -2 66 -2c120 0 192 55 192 153c0 97 -70 146 -180 146z" />
    <glyph glyph-name="uniF7F1" unicode="&#xf7f1;" horiz-adv-x="663" 
d="M585 0h-98l-294 326v-326h-115v525h98l294 -327v327h115v-525zM199 586l-47 52c38 48 82 68 121 68c47 0 74 -41 115 -41c30 0 43 11 69 31l39 -58c-37 -41 -79 -66 -117 -66c-44 0 -72 42 -117 42c-20 0 -43 -15 -63 -28z" />
    <glyph glyph-name="uniF7F2" unicode="&#xf7f2;" horiz-adv-x="659" 
d="M35 261c0 152 118 271 294 271c170 0 295 -104 295 -271c0 -159 -125 -272 -295 -272c-169 0 -294 104 -294 272zM165 261c0 -89 72 -157 164 -157c108 0 165 69 165 157c0 95 -72 156 -165 156c-95 0 -164 -61 -164 -156zM344 570l-148 118l70 88l134 -142z" />
    <glyph glyph-name="uniF7F3" unicode="&#xf7f3;" horiz-adv-x="659" 
d="M35 261c0 152 118 271 294 271c170 0 295 -104 295 -271c0 -159 -125 -272 -295 -272c-169 0 -294 104 -294 272zM165 261c0 -89 72 -157 164 -157c108 0 165 69 165 157c0 95 -72 156 -165 156c-95 0 -164 -61 -164 -156zM463 688l-149 -118l-55 64l133 142z" />
    <glyph glyph-name="uniF7F4" unicode="&#xf7f4;" horiz-adv-x="659" 
d="M35 261c0 152 118 271 294 271c170 0 295 -104 295 -271c0 -159 -125 -272 -295 -272c-169 0 -294 104 -294 272zM165 261c0 -89 72 -157 164 -157c108 0 165 69 165 157c0 95 -72 156 -165 156c-95 0 -164 -61 -164 -156zM332 749l157 -122l-54 -68l-106 80l-107 -78
l-52 67l158 121h4z" />
    <glyph glyph-name="uniF7F5" unicode="&#xf7f5;" horiz-adv-x="659" 
d="M35 261c0 152 118 271 294 271c170 0 295 -104 295 -271c0 -159 -125 -272 -295 -272c-169 0 -294 104 -294 272zM165 261c0 -89 72 -157 164 -157c108 0 165 69 165 157c0 95 -72 156 -165 156c-95 0 -164 -61 -164 -156zM205 586l-47 52c38 48 82 68 121 68
c47 0 74 -41 115 -41c30 0 43 11 69 31l39 -58c-37 -41 -79 -66 -117 -66c-44 0 -72 42 -117 42c-20 0 -43 -15 -63 -28z" />
    <glyph glyph-name="uniF7F6" unicode="&#xf7f6;" horiz-adv-x="659" 
d="M35 261c0 152 118 271 294 271c170 0 295 -104 295 -271c0 -159 -125 -272 -295 -272c-169 0 -294 104 -294 272zM165 261c0 -89 72 -157 164 -157c108 0 165 69 165 157c0 95 -72 156 -165 156c-95 0 -164 -61 -164 -156zM178 645c0 37 29 60 65 60c28 0 58 -23 58 -60
c0 -40 -30 -62 -58 -62c-36 0 -65 22 -65 62zM357 645c0 37 30 60 64 60c30 0 60 -23 60 -60c0 -40 -30 -62 -60 -62c-34 0 -64 22 -64 62z" />
    <glyph glyph-name="uniF7F8" unicode="&#xf7f8;" horiz-adv-x="659" 
d="M35 261c0 152 118 271 294 271c65 0 124 -16 172 -44l50 49l66 -68l-45 -44c33 -44 52 -99 52 -164c0 -159 -125 -272 -295 -272c-62 0 -118 14 -164 39l-48 -47l-66 68l41 40c-36 45 -57 103 -57 172zM165 261c0 -30 7 -57 21 -80l224 218c-24 12 -52 18 -81 18
c-95 0 -164 -61 -164 -156zM494 261c0 27 -6 51 -17 72l-219 -215c21 -9 45 -14 71 -14c108 0 165 69 165 157z" />
    <glyph glyph-name="uniF7F9" unicode="&#xf7f9;" horiz-adv-x="629" 
d="M560 525v-309c0 -160 -113 -226 -238 -226c-149 0 -253 78 -253 231v304h123v-277c0 -80 34 -143 130 -143c85 0 115 53 115 136v284h123zM324 570l-148 118l70 88l134 -142z" />
    </font>
</defs>
</svg>
