<?xml version="1.0" standalone="no"?>
<!DOCTYPE svg PUBLIC "-//W3C//DTD SVG 1.1//EN" "http://www.w3.org/Graphics/SVG/1.1/DTD/svg11.dtd" >
<svg xmlns="http://www.w3.org/2000/svg" xmlns:xlink="http://www.w3.org/1999/xlink" version="1.1">
<metadata>
Created by FontForge 20141024 at Fri Mar 27 11:05:14 2015
 By System Administrator
Circe is a geometric sans-serif with some humanist features in 6 weights from Thin to Extra Bold. Name of the font derives from both its geometric shapes and artificial, kinky nature. While being clean and simple in its basic form, Circe can become more intricate with its numerous decorative variations of characters, tempting and challenging the designer to use more and more of them and finally -- probably -- making him look foolish like the sailors who got to Circe's island. Its oversized character set not only allows using Circe for almost all European languages (based on Latin and Cyrillic scripts) but also contains a lot of alternates and swash variants organized in stylistic sets which make the font look in several completely different ways. Circe is good for both text setting in small point sizes and display purposes, such as magazine headlines, posters and so on. Designed by Alexandra Korolkova and released by ParaType in 2011.
</metadata>
<defs>
<font id="Circe-ExtraBold" horiz-adv-x="600" >
  <font-face 
    font-family="Circe Extra Bold"
    font-weight="800"
    font-stretch="normal"
    units-per-em="1000"
    panose-1="2 11 8 2 2 2 3 2 2 3"
    ascent="773"
    descent="-227"
    x-height="450"
    cap-height="700"
    bbox="-533 -454 1671 1020"
    underline-thickness="50"
    underline-position="-50"
    stemh="150"
    stemv="160"
    unicode-range="U+0020-FB02"
  />
<missing-glyph horiz-adv-x="200" 
 />
    <glyph glyph-name="uniF350.var.accented" unicode="&#xf350;`" horiz-adv-x="632" 
d="M0 0l244 525h144l244 -525h-171l-33 75h-234l-33 -75h-161zM312 340l-51 -115h101zM453 671l-162 -110l-71 83l141 142z" />
    <glyph glyph-name="uniF355.var.accented" unicode="&#xf355;`" horiz-adv-x="508" 
d="M72 0v525h379v-150h-219v-37h194v-150h-194v-38h228v-150h-388zM388 671l-162 -110l-71 83l141 142z" />
    <glyph glyph-name="uniF358.var.accented" unicode="&#xf358;`" horiz-adv-x="671" 
d="M212 0h-140v525h160v-270l227 270h140v-525h-160v270zM468 671l-162 -110l-71 83l141 142z" />
    <glyph glyph-name="uniF35E.var.accented" unicode="&#xf35e;`" horiz-adv-x="664" 
d="M31 261c0 152 117 272 301 272c174 0 301 -100 301 -272c0 -162 -127 -273 -301 -273s-301 100 -301 273zM201 261c0 -70 58 -123 131 -123c94 0 131 55 131 123c0 77 -57 122 -131 122c-77 0 -131 -45 -131 -122zM478 671l-162 -110l-71 83l141 142z" />
    <glyph glyph-name="uniF363.var.accented" unicode="&#xf363;`" horiz-adv-x="587" 
d="M583 525l-197 -393c-40 -81 -99 -132 -188 -132c-38 0 -70 15 -86 26l56 136c16 -9 22 -12 39 -12c18 0 25 8 28 12l8 12l-236 351h201l117 -193l94 193h164zM463 671l-162 -110l-71 83l141 142z" />
    <glyph glyph-name="uniF36B.var.accented" unicode="&#xf36b;`" horiz-adv-x="766" 
d="M534 0v525h160v-525h-160zM260 235c-8 0 -16 0 -28 -1v-84c12 -2 21 -2 28 -2c39 0 60 13 60 45s-27 42 -60 42zM232 525v-142c17 2 33 2 43 2c145 0 215 -74 215 -188s-88 -199 -249 -199c-65 0 -134 2 -169 2v525h160zM510 671l-162 -110l-71 83l141 142z" />
    <glyph glyph-name="uniF36D.var.accented" unicode="&#xf36d;`" horiz-adv-x="567" 
d="M150 193v150h201c-24 28 -65 42 -122 42c-71 0 -116 -11 -154 -35l-61 120c39 29 113 65 222 65c170 0 300 -110 300 -274c0 -175 -125 -271 -323 -271c-88 0 -170 28 -201 55l68 135c25 -18 73 -40 154 -40c57 0 105 9 128 53h-212zM378 671l-162 -110l-71 83l141 142z
" />
    <glyph glyph-name="uniF36E.var.accented" unicode="&#xf36e;`" horiz-adv-x="884" 
d="M72 0v525h160v-182h56c29 112 122 192 272 192c185 0 293 -100 293 -272c0 -162 -108 -273 -293 -273c-141 0 -248 73 -275 203h-53v-193h-160zM448 263c0 -70 44 -123 117 -123c86 0 118 55 118 123c0 77 -43 122 -118 122c-70 0 -117 -45 -117 -122zM509 671l-162 -110
l-71 83l141 142z" />
    <glyph glyph-name="uniF36F.var.accented" unicode="&#xf36f;`" horiz-adv-x="584" 
d="M352 0v140h-71l-88 -140h-189l123 179c-43 29 -75 76 -75 144c0 102 69 206 254 206c77 0 171 -4 206 -4v-525h-160zM268 290h84v85c-5 2 -40 4 -61 4c-41 0 -69 -15 -69 -45c0 -27 21 -39 46 -44zM448 671l-162 -110l-71 83l141 142z" />
    <glyph glyph-name="uniF371.var.accented" unicode="&#xf371;`" horiz-adv-x="508" 
d="M74 637c0 47 37 75 82 75c36 0 74 -28 74 -75c0 -51 -38 -79 -74 -79c-45 0 -82 28 -82 79zM295 637c0 47 38 75 80 75c39 0 76 -28 76 -75c0 -51 -37 -79 -76 -79c-42 0 -80 28 -80 79zM72 0v525h379v-150h-219v-37h194v-150h-194v-38h228v-150h-388zM418 781l-162 -110
l-71 83l141 142z" />
    <glyph glyph-name="afii10017.var.accented" unicode="&#x410;`" horiz-adv-x="725" 
d="M0 0l291 700h143l291 -700h-171l-58 147h-277l-58 -147h-161zM358 495l-79 -198h157zM547 806l-249 -78l-41 89l234 118z" />
    <glyph glyph-name="afii10022.var.accented" unicode="&#x415;`" horiz-adv-x="575" 
d="M90 0v700h415v-150h-255v-123h225v-150h-225v-127h265v-150h-425zM517 806l-249 -78l-41 89l234 118z" />
    <glyph glyph-name="afii10026.var.accented" unicode="&#x418;`" horiz-adv-x="790" 
d="M230 0h-140v700h160v-435l310 435h140v-700h-160v435zM607 806l-249 -78l-41 89l234 118z" />
    <glyph glyph-name="afii10032.var.accented" unicode="&#x41e;`" horiz-adv-x="824" 
d="M40 350c0 203 149 362 372 362c213 0 372 -139 372 -362c0 -212 -159 -362 -372 -362s-372 139 -372 362zM210 350c0 -120 90 -212 202 -212c133 0 202 94 202 212c0 128 -89 212 -202 212c-116 0 -202 -84 -202 -212zM617 806l-249 -78l-41 89l234 118z" />
    <glyph glyph-name="afii10037.var.accented" unicode="&#x423;`" horiz-adv-x="701" 
d="M691 700l-235 -534c-48 -107 -108 -166 -205 -166c-41 0 -87 16 -106 31l56 136c19 -13 29 -17 49 -17c26 0 43 8 52 28l9 21l-301 501h181l197 -342l142 342h161zM567 806l-249 -78l-41 89l234 118z" />
    <glyph glyph-name="afii10045.var.accented" unicode="&#x42b;`" horiz-adv-x="885" 
d="M635 0v700h160v-700h-160zM298 335c-13 0 -28 -2 -48 -5v-178c18 -2 32 -4 47 -4c65 0 100 31 100 97c0 62 -40 90 -99 90zM250 700v-219c25 3 47 4 62 4c172 0 255 -93 255 -236c0 -150 -104 -251 -289 -251c-72 0 -147 2 -188 2v700h160zM627 806l-249 -78l-41 89
l234 118z" />
    <glyph glyph-name="afii10047.var.accented" unicode="&#x42d;`" horiz-adv-x="670" 
d="M181 282v150h275c-31 85 -112 130 -218 130c-50 0 -105 -16 -152 -51l-61 120c47 41 133 81 252 81c203 0 353 -144 353 -362c0 -225 -145 -362 -374 -362c-101 0 -194 34 -236 73l68 135c36 -30 95 -58 165 -58c93 0 182 41 209 144h-281zM477 806l-249 -78l-41 89
l234 118z" />
    <glyph glyph-name="afii10048.var.accented" unicode="&#x42e;`" horiz-adv-x="1084" 
d="M90 0v700h160v-268h88c32 162 160 280 344 280c213 0 362 -139 362 -362c0 -212 -149 -362 -362 -362c-173 0 -318 111 -347 294h-85v-282h-160zM500 350c0 -120 85 -212 187 -212c133 0 187 94 187 212c0 128 -74 212 -187 212c-106 0 -187 -84 -187 -212zM767 806
l-249 -78l-41 89l234 118z" />
    <glyph glyph-name="afii10049.var.accented" unicode="&#x42f;`" horiz-adv-x="643" 
d="M393 0v225h-71l-133 -225h-179l164 260c-59 35 -108 96 -108 191c0 132 84 253 301 253c44 0 145 -4 186 -4v-700h-160zM309 375h84v175c-10 2 -47 4 -58 4c-53 0 -99 -34 -99 -92c0 -52 35 -79 73 -87zM557 806l-249 -78l-41 89l234 118z" />
    <glyph glyph-name="afii10023.var.accented" unicode="&#x401;`" horiz-adv-x="575" 
d="M70 836c0 50 33 79 74 79c35 0 70 -29 70 -79c0 -56 -35 -85 -70 -85c-41 0 -74 29 -74 85zM395 836c0 50 35 79 75 79c36 0 69 -29 69 -79c0 -56 -33 -85 -69 -85c-40 0 -75 29 -75 85zM398 901l-125 -161l-53 23l48 172zM90 0v700h415v-150h-255v-123h225v-150h-225
v-127h265v-150h-425z" />
    <glyph glyph-name="afii10065.var.accented" unicode="&#x430;`" horiz-adv-x="465" 
d="M103 309l-37 109c36 22 104 44 167 44c137 0 187 -69 187 -191v-271h-130v41c-22 -31 -69 -47 -118 -47c-81 0 -142 51 -142 142c0 102 73 149 162 149c40 0 74 -14 88 -25c3 54 -22 77 -62 77c-53 0 -87 -17 -115 -28zM223 119c30 0 48 11 57 23v28
c-14 10 -32 15 -57 15s-43 -12 -43 -34c0 -20 18 -32 43 -32zM384 649l-131 -146l-89 63l103 172z" />
    <glyph glyph-name="afii10070.var.accented" unicode="&#x435;`" horiz-adv-x="512" 
d="M408 145l41 -106c-47 -35 -111 -51 -175 -51c-148 0 -244 95 -244 237c0 131 96 237 244 237c116 0 218 -84 218 -212c0 -35 -3 -55 -9 -75h-298c14 -43 56 -62 105 -62c52 0 94 17 118 32zM269 337c-50 0 -75 -22 -89 -62h162c0 31 -25 62 -73 62zM408 649l-131 -146
l-89 63l103 172z" />
    <glyph glyph-name="afii10074.var.accented" unicode="&#x438;`" horiz-adv-x="570" 
d="M205 0h-150v450h150v-235l160 235h150v-450h-150v235zM419 649l-131 -146l-89 63l103 172z" />
    <glyph glyph-name="afii10080.var.accented" unicode="&#x43e;`" horiz-adv-x="560" 
d="M30 225c0 135 96 237 250 237s250 -102 250 -237s-96 -237 -250 -237s-250 102 -250 237zM190 225c0 -57 39 -97 90 -97s90 36 90 97c0 58 -40 97 -90 97c-48 0 -90 -36 -90 -97zM424 649l-131 -146l-89 63l103 172z" />
    <glyph glyph-name="afii10085.var.accented" unicode="&#x443;`" horiz-adv-x="516" 
d="M516 450l-175 -450c-66 -161 -108 -200 -177 -200c-48 0 -81 20 -107 42l48 113c9 -6 25 -16 43 -16c20 0 34 15 43 37l10 24l-201 450h181l77 -206c8 -21 12 -41 17 -62c2 20 4 40 11 63l59 205h171zM394 649l-131 -146l-89 63l103 172z" />
    <glyph glyph-name="afii10093.var.accented" unicode="&#x44b;`" horiz-adv-x="705" 
d="M55 0v450h150v-105h47c158 0 205 -82 205 -162c0 -89 -58 -183 -216 -183h-186zM500 0v450h150v-450h-150zM239 225h-34v-95h33c40 0 59 18 59 47s-17 48 -58 48zM464 649l-131 -146l-89 63l103 172z" />
    <glyph glyph-name="afii10095.var.accented" unicode="&#x44d;`" horiz-adv-x="496" 
d="M129 177v100h177c-17 40 -55 55 -94 55c-49 0 -81 -16 -120 -40l-61 104c45 46 122 66 178 66c160 0 257 -92 257 -237c0 -131 -86 -237 -248 -237c-94 0 -152 29 -193 72l70 98c19 -17 61 -40 114 -40c52 0 87 17 100 59h-180zM355 649l-131 -146l-89 63l103 172z" />
    <glyph glyph-name="afii10096.var.accented" unicode="&#x44e;`" horiz-adv-x="785" 
d="M55 0v450h160v-145h61c29 93 111 157 229 157c152 0 250 -102 250 -237s-101 -237 -250 -237c-122 0 -206 68 -232 167h-58v-155h-160zM435 225c0 -59 33 -87 75 -87c43 0 75 29 75 87c0 55 -27 87 -75 87c-43 0 -75 -31 -75 -87zM539 649l-131 -146l-89 63l103 172z" />
    <glyph glyph-name="afii10097.var.accented" unicode="&#x44f;`" horiz-adv-x="503" 
d="M293 450h155v-450h-150v115h-36l-71 -115h-171l107 148c-32 17 -75 57 -75 133c0 92 69 169 241 169zM212 269c0 -24 26 -44 59 -44h27v95h-29c-36 0 -57 -27 -57 -51zM411 649l-131 -146l-89 63l103 172z" />
    <glyph glyph-name="afii10071.var.accented" unicode="&#x451;`" horiz-adv-x="512" 
d="M47 574c0 42 30 66 67 66c31 0 62 -24 62 -66c0 -46 -31 -70 -62 -70c-37 0 -67 24 -67 70zM361 574c0 42 31 66 67 66c32 0 62 -24 62 -66c0 -46 -30 -70 -62 -70c-36 0 -67 24 -67 70zM388 649l-131 -146l-69 49l103 172zM408 145l41 -106c-47 -35 -111 -51 -175 -51
c-148 0 -244 95 -244 237c0 131 96 237 244 237c116 0 218 -84 218 -212c0 -35 -3 -55 -9 -75h-298c14 -43 56 -62 105 -62c52 0 94 17 118 32zM269 337c-50 0 -75 -22 -89 -62h162c0 31 -25 62 -73 62z" />
    <glyph glyph-name="fi" unicode="fi" horiz-adv-x="547" 
d="M342 0v310h-137v-310h-150v500c0 148 88 212 214 212c125 0 187 -56 220 -113l-109 -84c-13 30 -44 57 -84 57c-60 0 -91 -18 -91 -82v-40h287v-450h-150z" />
    <glyph glyph-name="fl" unicode="fl" horiz-adv-x="579" 
d="M325 129v421c-16 11 -41 22 -61 22c-38 0 -59 -18 -59 -58v-64h60v-140h-60v-310h-150v523c0 125 64 189 164 189c44 0 88 -8 119 -28h137v-498c0 -41 10 -58 25 -58s25 7 39 16l30 -114c-29 -24 -71 -42 -132 -42c-70 0 -112 43 -112 141z" />
    <glyph glyph-name=".notdef" horiz-adv-x="200" 
 />
    <glyph glyph-name="space" unicode=" " horiz-adv-x="200" 
 />
    <glyph glyph-name="exclam" unicode="!" horiz-adv-x="310" 
d="M75 270v430h160v-430h-160zM57 96c0 45 38 94 102 94c56 0 94 -49 94 -94c0 -53 -38 -102 -94 -102c-64 0 -102 49 -102 102z" />
    <glyph glyph-name="quotedbl" unicode="&#x22;" horiz-adv-x="450" 
d="M250 440v260h150v-260h-150zM50 440v260h150v-260h-150z" />
    <glyph glyph-name="numbersign" unicode="#" horiz-adv-x="744" 
d="M309 29l50 136h-120l-66 -177l-116 40l51 137h-68v130h116l41 110h-157v130h205l66 177l116 -42l-50 -135h118l66 177l116 -40l-51 -137h78v-130h-126l-41 -110h167v-130h-215l-65 -177zM328 405l-41 -110h120l40 110h-119z" />
    <glyph glyph-name="dollar" unicode="$" 
d="M367 192c0 105 -292 92 -292 318c0 85 60 162 155 190v90h150v-85c58 -11 105 -36 137 -70l-86 -120c-31 29 -54 47 -106 47c-57 0 -80 -20 -80 -52c0 -116 292 -88 292 -316c0 -99 -62 -173 -157 -197v-97h-150v97c-70 15 -135 51 -160 106l91 109
c40 -51 101 -74 150 -74c42 0 56 21 56 54z" />
    <glyph glyph-name="percent" unicode="%" horiz-adv-x="945" 
d="M180 47l497 665l84 -63l-495 -661zM30 526c0 114 88 186 211 186s211 -72 211 -186s-88 -188 -211 -188s-211 74 -211 188zM170 526c0 -43 30 -68 71 -68c43 0 71 25 71 68c0 41 -29 66 -71 66s-71 -25 -71 -66zM493 176c0 114 88 186 211 186s211 -72 211 -186
s-88 -188 -211 -188s-211 74 -211 188zM633 176c0 -43 30 -68 71 -68c43 0 71 25 71 68c0 41 -29 66 -71 66s-71 -25 -71 -66z" />
    <glyph glyph-name="ampersand" unicode="&#x26;" horiz-adv-x="762" 
d="M536 0l-45 55c-34 -31 -89 -67 -196 -67c-151 0 -245 86 -245 202c0 117 61 168 145 227c-42 29 -69 70 -69 136c0 102 87 159 178 159c92 0 179 -57 179 -159c0 -59 -36 -115 -77 -137l101 -135c15 33 37 84 37 169h149c0 -111 -38 -216 -96 -289l125 -161h-186z
M300 138c49 0 81 13 101 37l-108 156c-62 -53 -73 -77 -73 -110c0 -43 33 -83 80 -83zM266 553c0 -20 15 -38 38 -38c24 0 39 18 39 38c0 22 -18 39 -39 39c-22 0 -38 -16 -38 -39z" />
    <glyph glyph-name="quotesingle" unicode="'" horiz-adv-x="250" 
d="M50 440v260h150v-260h-150z" />
    <glyph glyph-name="parenleft" unicode="(" horiz-adv-x="337" 
d="M337 -124l-95 -82c-152 131 -202 284 -202 431s50 293 203 431l93 -82c-96 -98 -146 -202 -146 -349s70 -275 147 -349z" />
    <glyph glyph-name="parenright" unicode=")" horiz-adv-x="337" 
d="M95 -206l-95 82c77 74 147 202 147 349s-50 251 -146 349l93 82c153 -138 203 -284 203 -431s-50 -300 -202 -431z" />
    <glyph glyph-name="asterisk" unicode="*" horiz-adv-x="516" 
d="M186 638c0 40 32 73 72 73s73 -33 73 -73s-33 -72 -73 -72s-72 32 -72 72zM184 305c0 40 32 73 72 73s73 -33 73 -73s-33 -72 -73 -72s-72 32 -72 72zM331 557c0 40 32 73 72 73s73 -33 73 -73s-33 -72 -73 -72s-72 32 -72 72zM331 391c0 40 32 73 72 73s73 -33 73 -73
s-33 -72 -73 -72s-72 32 -72 72zM40 391c0 40 32 73 72 73s73 -33 73 -73s-33 -72 -73 -72s-72 32 -72 72zM40 557c0 40 32 73 72 73s73 -33 73 -73s-33 -72 -73 -72s-72 32 -72 72z" />
    <glyph glyph-name="plus" unicode="+" 
d="M63 295v130h166v171h140v-171h168v-130h-168v-173h-140v173h-166z" />
    <glyph glyph-name="comma" unicode="," horiz-adv-x="281" 
d="M40 81c0 54 33 93 97 93c66 0 104 -54 104 -126c0 -94 -51 -164 -143 -192l-41 69c23 10 39 16 58 39c12 14 22 31 20 43c-8 -8 -22 -7 -31 -7c-33 0 -64 34 -64 81z" />
    <glyph glyph-name="hyphen" unicode="-" horiz-adv-x="364" 
d="M50 205v140h264v-140h-264z" />
    <glyph glyph-name="period" unicode="." horiz-adv-x="276" 
d="M40 96c0 45 38 94 102 94c56 0 94 -49 94 -94c0 -53 -38 -102 -94 -102c-64 0 -102 49 -102 102z" />
    <glyph glyph-name="slash" unicode="/" horiz-adv-x="382" 
d="M-30 -165l327 877l115 -43l-326 -877z" />
    <glyph glyph-name="zero" unicode="0" horiz-adv-x="544" 
d="M30 350c0 218 79 358 242 358s242 -140 242 -358s-77 -358 -240 -358s-244 140 -244 358zM190 350c0 -162 34 -218 84 -218c57 0 80 54 80 218c0 165 -25 218 -82 218c-56 0 -82 -58 -82 -218z" />
    <glyph glyph-name="one" unicode="1" horiz-adv-x="398" 
d="M10 562l190 138h108v-700h-150v487l-70 -49z" />
    <glyph glyph-name="two" unicode="2" horiz-adv-x="522" 
d="M30 0v120c114 112 268 246 268 369c0 50 -24 69 -64 69c-43 0 -62 -33 -77 -75l-125 57c22 99 97 168 220 168c136 0 206 -90 206 -189c0 -197 -182 -339 -234 -379h258v-140h-452z" />
    <glyph glyph-name="three" unicode="3" horiz-adv-x="529" 
d="M241 -12c-117 0 -194 53 -231 116l83 111c35 -40 79 -77 138 -77c61 0 88 32 88 68c0 53 -41 77 -119 77h-44v150h40c53 0 96 22 96 70c0 30 -17 59 -64 59c-43 0 -82 -15 -121 -63l-82 108c43 69 118 105 217 105c123 0 210 -69 210 -179c0 -83 -34 -132 -104 -164v-3
c86 -17 131 -82 131 -166c0 -132 -104 -212 -238 -212z" />
    <glyph glyph-name="four" unicode="4" horiz-adv-x="580" 
d="M328 0v150h-318v112l250 438h172l-229 -400h125v150h150v-150h82v-150h-82v-150h-150z" />
    <glyph glyph-name="five" unicode="5" horiz-adv-x="512" 
d="M63 308l48 392h346v-150h-214l-14 -89h24c121 0 219 -85 219 -228c0 -157 -112 -245 -255 -245c-74 0 -165 34 -207 94l84 115c27 -32 80 -59 127 -59c54 0 91 36 91 88c0 57 -45 100 -129 100c-48 0 -101 -9 -120 -18z" />
    <glyph glyph-name="six" unicode="6" horiz-adv-x="564" 
d="M40 248c0 257 197 424 348 464l61 -113c-103 -35 -190 -105 -231 -201c30 28 66 38 123 38c100 0 193 -85 193 -213c0 -156 -121 -235 -236 -235c-156 0 -258 117 -258 260zM200 247c0 -66 36 -109 99 -109c53 0 75 38 75 74c0 48 -29 84 -85 84c-43 0 -71 -23 -89 -49z
" />
    <glyph glyph-name="seven" unicode="7" horiz-adv-x="510" 
d="M20 550v150h460v-102l-237 -598h-164l222 550h-281z" />
    <glyph glyph-name="eight" unicode="8" horiz-adv-x="605" 
d="M297 435h13c47 0 68 34 68 65c0 39 -26 62 -77 62c-52 0 -74 -29 -74 -62c0 -31 21 -65 70 -65zM310 285h-12c-45 0 -88 -24 -88 -74c0 -39 26 -73 92 -73c76 0 94 35 93 73c-1 50 -37 74 -85 74zM303 -12c-146 0 -253 74 -253 193c0 94 50 152 107 177v3
c-46 25 -90 79 -90 166c0 110 104 185 235 185s236 -75 236 -185c0 -68 -37 -134 -100 -165v-3c61 -16 117 -74 117 -165c0 -132 -106 -206 -252 -206z" />
    <glyph glyph-name="nine" unicode="9" horiz-adv-x="559" 
d="M519 442c0 -273 -165 -432 -368 -454l-49 119c132 29 206 91 239 185c-30 -28 -66 -38 -109 -38c-114 0 -212 90 -212 218c0 156 126 240 241 240c156 0 258 -107 258 -270zM359 443c0 66 -36 119 -99 119c-53 0 -80 -43 -80 -79c0 -48 34 -89 90 -89c43 0 71 23 89 49z
" />
    <glyph glyph-name="colon" unicode=":" horiz-adv-x="316" 
d="M60 368c0 45 38 94 102 94c56 0 94 -49 94 -94c0 -53 -38 -102 -94 -102c-64 0 -102 49 -102 102zM60 96c0 45 38 94 102 94c56 0 94 -49 94 -94c0 -53 -38 -102 -94 -102c-64 0 -102 49 -102 102z" />
    <glyph glyph-name="semicolon" unicode=";" horiz-adv-x="323" 
d="M60 368c0 45 38 94 102 94c56 0 94 -49 94 -94c0 -53 -38 -102 -94 -102c-64 0 -102 49 -102 102zM62 81c0 54 33 93 97 93c66 0 104 -54 104 -126c0 -94 -51 -164 -143 -192l-41 69c23 10 39 16 58 39c12 14 22 31 20 43c-8 -8 -22 -7 -31 -7c-33 0 -64 34 -64 81z" />
    <glyph glyph-name="less" unicode="&#x3c;" 
d="M530 54l-490 276v64l490 274v-162l-284 -144l284 -146v-162z" />
    <glyph glyph-name="equal" unicode="=" 
d="M63 395v130h474v-130h-474zM63 195v130h474v-130h-474z" />
    <glyph glyph-name="greater" unicode="&#x3e;" 
d="M560 330l-490 -276v162l284 146l-284 144v162l490 -274v-64z" />
    <glyph glyph-name="question" unicode="?" horiz-adv-x="481" 
d="M300 500c0 32 -29 62 -66 62c-51 0 -77 -17 -106 -54l-88 101c36 58 108 103 202 103c138 0 219 -81 219 -179c0 -194 -185 -200 -172 -301h-136c-23 166 147 156 147 268zM127 96c0 45 38 94 102 94c56 0 94 -49 94 -94c0 -53 -38 -102 -94 -102c-64 0 -102 49 -102 102
z" />
    <glyph glyph-name="at" unicode="@" horiz-adv-x="986" 
d="M569 0v23c-27 -21 -64 -35 -107 -35c-136 0 -220 96 -220 237c0 131 106 237 263 237c82 0 166 -26 214 -56v-266h19c28 0 58 43 58 136c0 132 -104 252 -293 252c-166 0 -313 -104 -313 -303c0 -182 146 -303 313 -303c38 0 74 4 108 12l5 -139c-36 -8 -74 -13 -113 -13
c-259 0 -453 182 -453 443c0 249 194 443 453 443c244 0 433 -153 433 -392c0 -136 -76 -265 -217 -276h-150zM489 128c31 0 60 14 80 33v145c-19 9 -40 16 -65 16c-76 0 -102 -51 -102 -104c0 -59 38 -90 87 -90z" />
    <glyph glyph-name="A" unicode="A" horiz-adv-x="725" 
d="M0 0l291 700h143l291 -700h-171l-58 147h-277l-58 -147h-161zM358 495l-79 -198h157z" />
    <glyph glyph-name="B" unicode="B" horiz-adv-x="617" 
d="M90 2v696c39 2 136 6 212 6c167 0 235 -77 235 -174c0 -73 -28 -122 -80 -156v-2c51 -19 100 -70 100 -160c0 -147 -114 -216 -266 -216c-67 0 -160 2 -201 6zM312 283h-62v-131c11 -3 24 -6 54 -6c62 0 93 27 93 74c0 44 -33 63 -85 63zM300 554c-20 0 -32 -2 -50 -4
v-127h53c41 0 74 17 74 68c0 42 -38 63 -77 63z" />
    <glyph glyph-name="C" unicode="C" horiz-adv-x="655" 
d="M574 189l61 -120c-42 -47 -133 -81 -228 -81c-217 0 -367 144 -367 362c0 201 125 362 366 362c93 0 172 -32 214 -73l-71 -120c-38 23 -77 43 -143 43c-108 0 -196 -74 -196 -212c0 -124 86 -212 212 -212c50 0 105 16 152 51z" />
    <glyph glyph-name="D" unicode="D" horiz-adv-x="744" 
d="M90 0v700h14c37 0 161 3 207 3c280 0 393 -161 393 -347c0 -196 -134 -358 -401 -358c-37 0 -129 2 -196 2h-17zM309 553c-17 0 -39 0 -59 -3v-400c21 -2 35 -2 58 -2c138 0 226 75 226 208c0 129 -95 197 -225 197z" />
    <glyph glyph-name="E" unicode="E" horiz-adv-x="575" 
d="M90 0v700h415v-150h-255v-123h225v-150h-225v-127h265v-150h-425z" />
    <glyph glyph-name="F" unicode="F" horiz-adv-x="535" 
d="M90 0v700h405v-150h-245v-148h215v-150h-215v-252h-160z" />
    <glyph glyph-name="G" unicode="G" horiz-adv-x="727" 
d="M378 249v150h299v-312c-62 -62 -175 -99 -262 -99c-240 0 -375 144 -375 362c0 201 135 362 355 362c104 0 172 -28 229 -73l-67 -129c-28 30 -89 52 -143 52c-115 0 -204 -68 -204 -212c0 -129 82 -212 207 -212c42 0 94 20 110 35v76h-149z" />
    <glyph glyph-name="H" unicode="H" horiz-adv-x="755" 
d="M505 0v282h-255v-282h-160v700h160v-268h255v268h160v-700h-160z" />
    <glyph glyph-name="I" unicode="I" horiz-adv-x="360" 
d="M100 0v700h160v-700h-160z" />
    <glyph glyph-name="J" unicode="J" horiz-adv-x="407" 
d="M317 700v-529c0 -119 -66 -183 -185 -183c-60 0 -114 26 -132 49l52 122c16 -12 38 -21 58 -21c28 0 47 21 47 62v500h160z" />
    <glyph glyph-name="K" unicode="K" horiz-adv-x="692" 
d="M90 0v700h160v-305l229 305h192l-263 -323l284 -377h-203l-239 333v-333h-160z" />
    <glyph glyph-name="L" unicode="L" horiz-adv-x="545" 
d="M90 0v700h160v-550h285v-150h-445z" />
    <glyph glyph-name="M" unicode="M" horiz-adv-x="912" 
d="M90 0v700h161l216 -295l204 295h151v-700h-160v446l-195 -273h-23l-194 270v-443h-160z" />
    <glyph glyph-name="N" unicode="N" horiz-adv-x="790" 
d="M700 0h-128l-332 420v-420h-150v700h128l332 -422v422h150v-700z" />
    <glyph glyph-name="O" unicode="O" horiz-adv-x="824" 
d="M40 350c0 203 149 362 372 362c213 0 372 -139 372 -362c0 -212 -159 -362 -372 -362s-372 139 -372 362zM210 350c0 -120 90 -212 202 -212c133 0 202 94 202 212c0 128 -89 212 -202 212c-116 0 -202 -84 -202 -212z" />
    <glyph glyph-name="P" unicode="P" horiz-adv-x="627" 
d="M250 0h-160v700c39 0 160 2 214 2c213 0 283 -111 283 -232c0 -125 -97 -235 -259 -235c-15 0 -53 0 -78 3v-238zM320 552c-21 0 -37 -1 -70 -2v-160c23 -3 50 -5 73 -5c42 0 94 18 94 86c0 62 -40 81 -97 81z" />
    <glyph glyph-name="Q" unicode="Q" horiz-adv-x="824" 
d="M40 350c0 203 149 362 372 362c213 0 372 -139 372 -362c0 -95 -32 -178 -87 -240l95 -110h-185l-22 25c-51 -24 -110 -37 -173 -37c-213 0 -372 139 -372 362zM210 350c0 -120 90 -212 202 -212c25 0 47 3 68 9l-55 64l105 94l58 -68c17 32 26 71 26 113
c0 128 -89 212 -202 212c-116 0 -202 -84 -202 -212z" />
    <glyph glyph-name="R" unicode="R" horiz-adv-x="673" 
d="M250 0h-160v700c39 0 218 2 238 2c191 0 259 -95 259 -224c0 -130 -80 -183 -118 -202l204 -276h-194l-170 245h-59v-245zM320 552c-24 0 -37 -1 -70 -2v-155h58c61 0 109 22 109 81c0 39 -20 76 -97 76z" />
    <glyph glyph-name="S" unicode="S" horiz-adv-x="557" 
d="M347 192c0 105 -292 92 -292 318c0 108 86 202 226 202c90 0 162 -30 206 -77l-86 -120c-31 29 -54 47 -106 47c-44 0 -70 -20 -70 -52c0 -116 292 -88 292 -316c0 -122 -105 -206 -240 -206c-94 0 -203 40 -237 115l91 109c40 -51 101 -74 150 -74c42 0 66 21 66 54z
" />
    <glyph glyph-name="T" unicode="T" 
d="M10 550v150h580v-150h-210v-550h-160v550h-210z" />
    <glyph glyph-name="U" unicode="U" horiz-adv-x="751" 
d="M671 700v-411c0 -214 -136 -301 -286 -301c-180 0 -305 103 -305 308v404h160v-370c0 -109 33 -192 145 -192c97 0 126 71 126 183v379h160z" />
    <glyph glyph-name="V" unicode="V" horiz-adv-x="656" 
d="M666 700l-273 -700h-123l-280 700h171l176 -462l168 462h161z" />
    <glyph glyph-name="W" unicode="W" horiz-adv-x="1000" 
d="M1000 700l-197 -700h-153l-146 450l-144 -450h-153l-207 700h181l118 -442l131 442h161l135 -442l120 442h154z" />
    <glyph glyph-name="X" unicode="X" horiz-adv-x="674" 
d="M665 700l-224 -343l233 -357h-188l-150 235l-148 -235h-188l233 357l-222 343h188l142 -225l136 225h188z" />
    <glyph glyph-name="Y" unicode="Y" horiz-adv-x="654" 
d="M654 700l-248 -415v-285h-160v285l-246 415h183l150 -265l148 265h173z" />
    <glyph glyph-name="Z" unicode="Z" horiz-adv-x="650" 
d="M60 550v150h540v-112l-347 -438h357v-150h-570v112l346 438h-326z" />
    <glyph glyph-name="bracketleft" unicode="[" horiz-adv-x="380" 
d="M60 -200v850h300v-140h-150v-570h150v-140h-300z" />
    <glyph glyph-name="backslash" unicode="\" horiz-adv-x="382" 
d="M85 712l327 -877l-116 -43l-326 877z" />
    <glyph glyph-name="bracketright" unicode="]" horiz-adv-x="380" 
d="M320 650v-850h-300v140h150v570h-150v140h300z" />
    <glyph glyph-name="asciicircum" unicode="^" horiz-adv-x="522" 
d="M20 450l190 258h104l188 -258h-162l-79 110l-79 -110h-162z" />
    <glyph glyph-name="underscore" unicode="_" horiz-adv-x="375" 
d="M0 -200v150h375v-150h-375z" />
    <glyph glyph-name="grave" unicode="`" horiz-adv-x="342" 
d="M193 503l-133 144l119 89l103 -170z" />
    <glyph glyph-name="a" unicode="a" horiz-adv-x="465" 
d="M103 309l-37 109c36 22 104 44 167 44c137 0 187 -69 187 -191v-271h-130v41c-22 -31 -69 -47 -118 -47c-81 0 -142 51 -142 142c0 102 73 149 162 149c40 0 74 -14 88 -25c3 54 -22 77 -62 77c-53 0 -87 -17 -115 -28zM223 119c30 0 48 11 57 23v28
c-14 10 -32 15 -57 15s-43 -12 -43 -34c0 -20 18 -32 43 -32z" />
    <glyph glyph-name="b" unicode="b" horiz-adv-x="547" 
d="M55 36v664h150v-262c25 13 58 24 99 24c133 0 213 -97 213 -230c0 -148 -98 -244 -263 -244c-76 0 -159 26 -199 48zM268 322c-27 0 -47 -13 -63 -29v-152c15 -8 32 -13 56 -13c54 0 96 33 96 95c0 71 -46 99 -89 99z" />
    <glyph glyph-name="c" unicode="c" horiz-adv-x="485" 
d="M391 178l70 -110c-38 -52 -106 -80 -184 -80c-150 0 -247 95 -247 237c0 131 96 237 238 237c77 0 143 -21 184 -64l-69 -118c-32 32 -62 42 -96 42c-47 0 -97 -33 -97 -97c0 -61 52 -97 99 -97c44 0 75 21 102 50z" />
    <glyph glyph-name="d" unicode="d" horiz-adv-x="557" 
d="M352 0v37c-27 -26 -61 -45 -114 -45c-128 0 -208 91 -208 227c0 143 101 243 248 243c31 0 55 -5 74 -14v252h150v-700h-150zM269 132c33 0 61 13 83 33v138c-21 12 -43 19 -67 19c-47 0 -95 -31 -95 -98c0 -61 41 -92 79 -92z" />
    <glyph glyph-name="e" unicode="e" horiz-adv-x="512" 
d="M408 145l41 -106c-47 -35 -111 -51 -175 -51c-148 0 -244 95 -244 237c0 131 96 237 244 237c116 0 218 -84 218 -212c0 -35 -3 -55 -9 -75h-298c14 -43 56 -62 105 -62c52 0 94 17 118 32zM269 337c-50 0 -75 -22 -89 -62h162c0 31 -25 62 -73 62z" />
    <glyph glyph-name="f" unicode="f" horiz-adv-x="320" 
d="M55 0v523c0 125 64 189 164 189c54 0 107 -18 131 -44l-50 -114c-12 13 -35 18 -54 18c-20 0 -41 -18 -41 -58v-64h95v-140h-95v-310h-150z" />
    <glyph glyph-name="g" unicode="g" horiz-adv-x="504" 
d="M0 -58c0 78 62 124 149 142c-4 8 -6 17 -6 25s2 18 7 26c-71 28 -111 88 -111 154c0 90 74 173 199 173c45 0 84 -11 115 -30l141 28l5 -120l-67 -13c3 -13 5 -25 5 -38c0 -86 -70 -162 -183 -169c-1 -4 -1 -8 -1 -11c0 -6 1 -11 3 -17c123 -4 222 -50 222 -150
c0 -104 -108 -150 -239 -150s-239 43 -239 150zM140 -58c0 -19 36 -30 99 -30c64 0 99 10 99 30c0 18 -29 31 -99 31c-69 0 -99 -13 -99 -31zM179 289c0 -28 21 -49 59 -49c34 0 59 17 59 49c0 28 -18 53 -59 53c-38 0 -59 -26 -59 -53z" />
    <glyph glyph-name="h" unicode="h" horiz-adv-x="544" 
d="M55 0v700h150v-281c26 23 65 39 111 39c104 0 183 -53 183 -194v-264h-150v245c0 45 -30 73 -72 73c-26 0 -51 -8 -72 -29v-289h-150z" />
    <glyph glyph-name="i" unicode="i" horiz-adv-x="286" 
d="M68 0v450h150v-450h-150zM55 605c0 53 42 85 91 85c43 0 85 -32 85 -85c0 -59 -42 -91 -85 -91c-49 0 -91 32 -91 91z" />
    <glyph glyph-name="j" unicode="j" horiz-adv-x="281" 
d="M226 450v-483c0 -110 -41 -175 -141 -175c-53 0 -101 16 -120 34l39 119c16 -9 26 -13 44 -13c21 0 28 21 28 49v469h150zM64 605c0 53 42 85 91 85c43 0 85 -32 85 -85c0 -59 -42 -91 -85 -91c-49 0 -91 32 -91 91z" />
    <glyph glyph-name="k" unicode="k" horiz-adv-x="537" 
d="M55 0v700h150v-445l123 195h188l-146 -203l167 -247h-192l-140 215v-215h-150z" />
    <glyph glyph-name="l" unicode="l" horiz-adv-x="309" 
d="M55 129v571h150v-514c0 -41 10 -58 25 -58s25 7 39 16l30 -114c-29 -24 -71 -42 -132 -42c-70 0 -112 43 -112 141z" />
    <glyph glyph-name="m" unicode="m" horiz-adv-x="798" 
d="M753 294v-294h-150v254c0 39 -14 64 -56 64c-31 0 -58 -16 -68 -39v-279h-150v255c0 38 -17 63 -53 63c-29 0 -53 -10 -71 -36v-282h-150v450h150v-42c32 32 80 50 133 50c69 0 112 -30 128 -66c31 38 74 66 145 66c80 0 142 -41 142 -164z" />
    <glyph glyph-name="n" unicode="n" horiz-adv-x="544" 
d="M55 0v450h150v-35c24 23 64 43 111 43c104 0 183 -49 183 -190v-268h-150v242c0 52 -30 76 -74 76c-27 0 -48 -9 -70 -31v-287h-150z" />
    <glyph glyph-name="o" unicode="o" horiz-adv-x="560" 
d="M30 225c0 135 96 237 250 237s250 -102 250 -237s-96 -237 -250 -237s-250 102 -250 237zM190 225c0 -57 39 -97 90 -97s90 36 90 97c0 58 -40 97 -90 97c-48 0 -90 -36 -90 -97z" />
    <glyph glyph-name="p" unicode="p" horiz-adv-x="561" 
d="M55 -200v650h150v-34c25 25 70 46 125 46c121 0 201 -97 201 -230c0 -137 -96 -244 -242 -244c-31 0 -63 5 -84 14v-202h-150zM283 322c-29 0 -53 -12 -78 -40v-137c22 -13 38 -17 70 -17c65 0 96 46 96 101c0 52 -31 93 -88 93z" />
    <glyph glyph-name="q" unicode="q" horiz-adv-x="562" 
d="M357 -200v209c-31 -14 -64 -21 -90 -21c-147 0 -237 95 -237 237c0 131 106 237 263 237c82 0 166 -26 214 -56v-606h-150zM287 128c25 0 51 8 70 26v152c-19 9 -40 16 -65 16c-76 0 -102 -51 -102 -104c0 -48 38 -90 97 -90z" />
    <glyph glyph-name="r" unicode="r" horiz-adv-x="368" 
d="M55 0v450h150v-36c18 26 42 44 93 44c37 0 55 -6 70 -17l-53 -140c-22 13 -34 17 -55 17c-30 0 -45 -14 -55 -32v-286h-150z" />
    <glyph glyph-name="s" unicode="s" horiz-adv-x="459" 
d="M279 133c0 48 -238 18 -238 182c0 97 80 147 176 147c101 0 159 -35 189 -61l-56 -106c-26 18 -75 42 -124 42c-22 0 -35 -10 -35 -20c0 -47 238 -17 238 -177c0 -91 -74 -152 -194 -152c-95 0 -184 51 -205 83l71 98c28 -27 99 -56 144 -56c22 0 34 7 34 20z" />
    <glyph glyph-name="t" unicode="t" horiz-adv-x="366" 
d="M45 171v404h150v-125h125v-140h-125v-132c0 -27 9 -50 29 -50c32 0 51 14 67 26l45 -115c-30 -26 -84 -51 -151 -51c-102 0 -140 68 -140 183z" />
    <glyph glyph-name="u" unicode="u" horiz-adv-x="530" 
d="M475 450v-450h-150v45c-22 -28 -61 -57 -129 -57c-76 0 -151 55 -151 179v283h150v-251c0 -35 14 -71 58 -71c25 0 49 12 72 41v281h150z" />
    <glyph glyph-name="v" unicode="v" horiz-adv-x="486" 
d="M496 450l-189 -450h-113l-204 450h178l58 -142c11 -26 24 -69 30 -104c6 34 18 77 29 105l53 141h158z" />
    <glyph glyph-name="w" unicode="w" horiz-adv-x="736" 
d="M736 450l-139 -450h-137l-80 208c-7 16 -9 34 -13 51c-3 -20 -7 -36 -14 -53l-80 -206h-129l-144 450h161l55 -206c6 -21 7 -37 10 -57c3 18 4 31 13 57l68 206h134l70 -205c7 -19 10 -39 14 -59c3 20 6 41 11 61l49 203h151z" />
    <glyph glyph-name="x" unicode="x" horiz-adv-x="537" 
d="M517 450l-140 -214l150 -236h-183l-78 142l-83 -142h-173l149 228l-139 222h183l69 -128l72 128h173z" />
    <glyph glyph-name="y" unicode="y" horiz-adv-x="516" 
d="M516 450l-175 -450c-66 -161 -108 -200 -177 -200c-48 0 -81 20 -107 42l48 113c9 -6 25 -16 43 -16c20 0 34 15 43 37l10 24l-201 450h181l77 -206c8 -21 12 -41 17 -62c2 20 4 40 11 63l59 205h171z" />
    <glyph glyph-name="z" unicode="z" horiz-adv-x="495" 
d="M55 310v140h400v-110l-207 -200h202v-140h-410v110l206 200h-191z" />
    <glyph glyph-name="braceleft" unicode="{" horiz-adv-x="390" 
d="M110 -43v105c0 79 -50 99 -90 98v130c36 0 90 21 90 110v85c0 112 45 165 177 165h83v-140h-45c-49 0 -65 -14 -65 -78v-92c0 -65 -30 -108 -75 -114c42 -5 75 -37 75 -114v-92c0 -58 17 -80 71 -80h39v-140h-95c-104 0 -165 40 -165 157z" />
    <glyph glyph-name="bar" unicode="|" horiz-adv-x="350" 
d="M100 0v700h150v-700h-150z" />
    <glyph glyph-name="braceright" unicode="}" horiz-adv-x="390" 
d="M280 62v-105c0 -117 -61 -157 -165 -157h-95v140h39c54 0 71 22 71 80v92c0 77 33 109 75 114c-45 6 -75 49 -75 114v92c0 64 -16 78 -65 78h-45v140h83c132 0 177 -53 177 -165v-85c0 -89 54 -110 90 -110v-130c-40 1 -90 -19 -90 -98z" />
    <glyph glyph-name="asciitilde" unicode="~" 
d="M97 269l-64 96c42 51 102 90 157 90c82 0 156 -66 234 -66c31 0 67 23 85 45l58 -103c-38 -36 -93 -72 -144 -72c-80 0 -156 66 -223 66c-45 0 -82 -35 -103 -56z" />
    <glyph glyph-name="uni00A0" unicode="&#xa0;" horiz-adv-x="200" 
 />
    <glyph glyph-name="exclamdown" unicode="&#xa1;" horiz-adv-x="310" 
d="M235 186v-430h-160v430h160zM253 360c0 -45 -38 -94 -102 -94c-56 0 -94 49 -94 94c0 53 38 102 94 102c64 0 102 -49 102 -102z" />
    <glyph glyph-name="cent" unicode="&#xa2;" 
d="M446 178l70 -110c-28 -38 -70 -63 -121 -73v-115h-150v120c-100 30 -160 112 -160 225c0 105 62 194 160 225v113h150v-108c45 -9 84 -28 112 -57l-69 -118c-32 32 -62 42 -96 42c-47 0 -97 -33 -97 -97c0 -61 52 -97 99 -97c44 0 75 21 102 50z" />
    <glyph glyph-name="sterling" unicode="&#xa3;" 
d="M61 255v120h80c-23 42 -50 84 -50 140c0 115 99 193 236 193c93 0 154 -32 201 -82l-82 -118c-39 34 -68 50 -112 50c-43 0 -73 -20 -73 -55c0 -47 38 -77 57 -128h137v-120h-138c-12 -27 -30 -51 -50 -72c50 -15 98 -37 147 -37c37 0 67 6 106 43l65 -117
c-43 -46 -107 -76 -173 -76c-77 0 -151 52 -228 52c-39 0 -73 -26 -101 -55l-59 120c30 37 65 63 104 75c17 22 32 44 38 67h-105z" />
    <glyph glyph-name="currency" unicode="&#xa4;" 
d="M66 340c0 40 10 80 29 114l-71 72l92 92l73 -74c31 15 69 23 111 23s79 -9 110 -23l74 73l92 -92l-71 -71c19 -34 29 -74 29 -114s-10 -79 -28 -113l70 -69l-92 -92l-72 71c-32 -15 -69 -24 -112 -24s-81 9 -112 24l-72 -72l-92 92l70 70c-19 34 -28 73 -28 113zM206 340
c0 -55 35 -97 94 -97c64 0 94 42 94 97c0 62 -35 97 -94 97c-57 0 -94 -36 -94 -97z" />
    <glyph glyph-name="yen" unicode="&#xa5;" 
d="M63 285v120h93l-153 295h183l120 -265l118 265h173l-155 -295h95v-120h-158v-60h158v-120h-158v-105h-160v105h-156v120h156v60h-156z" />
    <glyph glyph-name="brokenbar" unicode="&#xa6;" horiz-adv-x="350" 
d="M250 440h-150v260h150v-260zM100 260h150v-260h-150v260z" />
    <glyph glyph-name="section" unicode="&#xa7;" horiz-adv-x="524" 
d="M50 249c0 75 36 140 110 170c-37 28 -60 76 -60 136c0 75 59 145 181 145c61 0 117 -30 151 -75l-89 -100c-19 21 -35 35 -56 35c-19 0 -37 -17 -37 -36c0 -37 19 -64 57 -90c112 -16 167 -93 167 -185c0 -75 -37 -140 -111 -170c36 -28 59 -75 59 -134
c0 -75 -59 -145 -181 -145c-61 0 -117 30 -151 75l89 100c19 -21 35 -35 56 -35c19 0 37 17 37 36c0 38 -18 63 -58 88c-110 17 -164 94 -164 185zM200 249c0 -21 12 -58 62 -58c53 0 62 36 62 58s-13 59 -62 59c-48 0 -62 -36 -62 -59z" />
    <glyph glyph-name="dieresis" unicode="&#xa8;" horiz-adv-x="471" 
d="M60 589c0 51 37 81 82 81c38 0 76 -30 76 -81c0 -56 -38 -86 -76 -86c-45 0 -82 30 -82 86zM253 589c0 51 38 81 82 81c39 0 76 -30 76 -81c0 -56 -37 -86 -76 -86c-44 0 -82 30 -82 86z" />
    <glyph glyph-name="copyright" unicode="&#xa9;" horiz-adv-x="1018" 
d="M70 221c0 247 192 439 439 439s439 -192 439 -439s-192 -439 -439 -439s-439 192 -439 439zM200 220c0 -169 131 -308 310 -308c177 0 308 139 308 308c0 171 -131 310 -308 310c-179 0 -310 -139 -310 -310zM630 178l70 -110c-38 -52 -106 -80 -184 -80
c-150 0 -247 95 -247 237c0 131 96 237 238 237c77 0 143 -21 184 -64l-69 -118c-32 32 -62 42 -96 42c-47 0 -97 -33 -97 -97c0 -61 52 -97 99 -97c44 0 75 21 102 50z" />
    <glyph glyph-name="ordfeminine" unicode="&#xaa;" horiz-adv-x="465" 
d="M128 532l-51 88c33 18 78 38 163 38c78 0 165 -42 165 -143v-225h-130v38c-25 -28 -56 -44 -124 -44s-111 52 -111 115c0 82 48 123 132 123c41 0 73 -6 101 -17c-7 32 -29 43 -59 43c-41 0 -71 -8 -86 -16zM220 394c16 0 35 4 55 14v15c-18 5 -36 9 -56 9
c-32 0 -39 -10 -39 -19c0 -11 6 -19 40 -19z" />
    <glyph glyph-name="guillemotleft" unicode="&#xab;" horiz-adv-x="592" 
d="M460 13l-200 235v4l205 235l97 -87l-129 -150l129 -152zM230 13l-200 235v4l205 235l97 -87l-129 -150l129 -152z" />
    <glyph glyph-name="logicalnot" unicode="&#xac;" 
d="M43 295v130h514v-261h-130v131h-384z" />
    <glyph glyph-name="uni00AD" unicode="&#xad;" horiz-adv-x="364" 
d="M50 205v140h264v-140h-264z" />
    <glyph glyph-name="registered" unicode="&#xae;" horiz-adv-x="708" 
d="M40 498c0 172 139 312 316 312c172 0 312 -140 312 -312c0 -177 -140 -317 -312 -317c-177 0 -316 140 -316 317zM160 496c0 -107 87 -194 194 -194s194 87 194 194s-87 194 -194 194s-194 -87 -194 -194zM331 360h-100v280h136c81 0 120 -38 120 -98
c0 -42 -24 -72 -46 -83l43 -99h-114l-23 76h-16v-76zM352 570h-21v-64h19c30 0 37 18 37 34c0 18 -11 30 -35 30z" />
    <glyph glyph-name="macron" unicode="&#xaf;" horiz-adv-x="414" 
d="M60 520v120h294v-120h-294z" />
    <glyph glyph-name="degree" unicode="&#xb0;" horiz-adv-x="440" 
d="M40 568c0 105 81 182 178 182c100 0 182 -70 182 -175c0 -102 -82 -185 -182 -185c-97 0 -178 76 -178 178zM170 570c0 -27 23 -50 50 -50s50 23 50 50s-23 50 -50 50s-50 -23 -50 -50z" />
    <glyph glyph-name="plusminus" unicode="&#xb1;" 
d="M63 395v130h166v171h140v-171h168v-130h-168v-83h-140v83h-166zM63 145v130h474v-130h-474z" />
    <glyph glyph-name="twosuperior" unicode="&#xb2;" horiz-adv-x="376" 
d="M25 350v94c82 46 172 93 172 127c0 17 -12 23 -26 23c-23 0 -35 -28 -38 -43l-107 39c12 68 65 114 160 114c97 0 150 -45 150 -114c0 -81 -92 -113 -143 -130h158v-110h-326z" />
    <glyph glyph-name="threesuperior" unicode="&#xb3;" horiz-adv-x="372" 
d="M181 343c-74 0 -141 27 -171 78l74 70c11 -18 41 -43 74 -43s44 8 44 18c0 7 -6 15 -45 15h-27v90h25c26 0 36 7 36 18c0 6 -9 13 -29 13c-35 0 -62 -19 -80 -36l-61 71c26 35 75 70 168 70c81 0 142 -35 142 -90c0 -46 -32 -72 -80 -81v-1c61 -3 91 -38 91 -81
c0 -70 -77 -111 -161 -111z" />
    <glyph glyph-name="acute" unicode="&#xb4;" horiz-adv-x="340" 
d="M280 649l-131 -146l-89 63l103 172z" />
    <glyph glyph-name="mu" unicode="&#xb5;" horiz-adv-x="540" 
d="M485 450v-450h-150v45c-22 -28 -61 -57 -129 -57h-1v-188h-150v650h150v-251c0 -35 14 -71 58 -71c25 0 49 12 72 41v281h150z" />
    <glyph glyph-name="mu" unicode="&#x3bc;" horiz-adv-x="540" 
d="M485 450v-450h-150v45c-22 -28 -61 -57 -129 -57h-1v-188h-150v650h150v-251c0 -35 14 -71 58 -71c25 0 49 12 72 41v281h150z" />
    <glyph glyph-name="paragraph" unicode="&#xb6;" horiz-adv-x="521" 
d="M30 481c0 136 102 219 229 219h242v-140h-94v-532c0 -160 -77 -236 -209 -236c-59 0 -119 27 -147 57l59 108c16 -12 44 -25 77 -25c54 0 70 44 70 102v229c-114 1 -227 81 -227 218z" />
    <glyph glyph-name="periodcentered" unicode="&#xb7;" horiz-adv-x="200" 
d="M2 306c0 45 38 94 102 94c56 0 94 -49 94 -94c0 -53 -38 -102 -94 -102c-64 0 -102 49 -102 102z" />
    <glyph glyph-name="cedilla" unicode="&#xb8;" horiz-adv-x="404" 
d="M60 -161l44 69c14 -14 42 -28 68 -28c12 0 22 4 22 13c0 12 -7 17 -25 17h-6v90h75v-26c67 -6 106 -36 106 -90c0 -55 -50 -94 -151 -94c-76 0 -112 30 -133 49z" />
    <glyph glyph-name="onesuperior" unicode="&#xb9;" horiz-adv-x="285" 
d="M10 618l121 80h94v-348h-130v200l-38 -20z" />
    <glyph glyph-name="ordmasculine" unicode="&#xba;" horiz-adv-x="522" 
d="M50 472c0 114 88 186 211 186s211 -72 211 -186s-88 -188 -211 -188s-211 74 -211 188zM190 472c0 -43 30 -68 71 -68c43 0 71 25 71 68c0 41 -29 66 -71 66s-71 -25 -71 -66z" />
    <glyph glyph-name="guillemotright" unicode="&#xbb;" horiz-adv-x="592" 
d="M562 248l-200 -235l-102 85l129 152l-129 150l97 87l205 -235v-4zM332 248l-200 -235l-102 85l129 152l-129 150l97 87l205 -235v-4z" />
    <glyph glyph-name="onequarter" unicode="&#xbc;" horiz-adv-x="713" 
d="M10 618l121 80h94v-348h-130v200l-38 -20zM40 47l497 665l84 -63l-495 -661zM521 0v61h-191v87l141 202h123l-134 -189h61v64h120v-64h52v-100h-52v-61h-120z" />
    <glyph glyph-name="onehalf" unicode="&#xbd;" horiz-adv-x="731" 
d="M10 618l121 80h94v-348h-130v200l-38 -20zM40 47l497 665l84 -63l-495 -661zM365 0v94c82 46 172 93 172 127c0 17 -12 23 -26 23c-23 0 -35 -28 -38 -43l-107 39c12 68 65 114 160 114c97 0 150 -45 150 -114c0 -81 -92 -113 -143 -130h158v-110h-326z" />
    <glyph glyph-name="threequarters" unicode="&#xbe;" horiz-adv-x="783" 
d="M120 47l497 665l84 -63l-495 -661zM591 0v61h-191v87l141 202h123l-134 -189h61v64h120v-64h52v-100h-52v-61h-120zM191 343c-74 0 -141 27 -171 78l74 70c11 -18 41 -43 74 -43s44 8 44 18c0 7 -6 15 -45 15h-27v90h25c26 0 36 7 36 18c0 6 -9 13 -29 13
c-35 0 -62 -19 -80 -36l-61 71c26 35 75 70 168 70c81 0 142 -35 142 -90c0 -46 -32 -72 -80 -81v-1c61 -3 91 -38 91 -81c0 -70 -77 -111 -161 -111z" />
    <glyph glyph-name="questiondown" unicode="&#xbf;" horiz-adv-x="481" 
d="M181 -44c0 -32 29 -62 66 -62c51 0 77 17 106 54l88 -101c-36 -58 -108 -103 -202 -103c-138 0 -219 81 -219 179c0 194 185 200 172 301h136c23 -166 -147 -156 -147 -268zM354 360c0 -45 -38 -94 -102 -94c-56 0 -94 49 -94 94c0 53 38 102 94 102
c64 0 102 -49 102 -102z" />
    <glyph glyph-name="Agrave" unicode="&#xc0;" horiz-adv-x="725" 
d="M0 0l291 700h143l291 -700h-171l-58 147h-277l-58 -147h-161zM358 495l-79 -198h157zM426 728l-249 78l56 129l234 -118z" />
    <glyph glyph-name="Aacute" unicode="&#xc1;" horiz-adv-x="725" 
d="M0 0l291 700h143l291 -700h-171l-58 147h-277l-58 -147h-161zM358 495l-79 -198h157zM547 806l-249 -78l-41 89l234 118z" />
    <glyph glyph-name="Acircumflex" unicode="&#xc2;" horiz-adv-x="725" 
d="M0 0l291 700h143l291 -700h-171l-58 147h-277l-58 -147h-161zM358 495l-79 -198h157zM179 806l178 119h4l184 -117l-58 -85l-128 66l-128 -66z" />
    <glyph glyph-name="Atilde" unicode="&#xc3;" horiz-adv-x="725" 
d="M0 0l291 700h143l291 -700h-171l-58 147h-277l-58 -147h-161zM358 495l-79 -198h157zM220 746l-46 94c30 37 80 63 125 63c60 0 81 -30 135 -30c23 0 53 3 78 30l38 -94c-28 -45 -71 -66 -126 -66c-50 0 -81 30 -138 30c-21 0 -43 -8 -66 -27z" />
    <glyph glyph-name="Adieresis" unicode="&#xc4;" horiz-adv-x="725" 
d="M0 0l291 700h143l291 -700h-171l-58 147h-277l-58 -147h-161zM358 495l-79 -198h157zM152 837c0 49 44 78 98 78c46 0 91 -29 91 -78c0 -55 -45 -84 -91 -84c-54 0 -98 29 -98 84zM383 837c0 49 45 78 98 78c47 0 91 -29 91 -78c0 -55 -44 -84 -91 -84
c-53 0 -98 29 -98 84z" />
    <glyph glyph-name="Aring" unicode="&#xc5;" horiz-adv-x="725" 
d="M205 809c0 83 70 118 155 118c89 0 160 -35 160 -118c0 -57 -35 -93 -86 -110l291 -699h-171l-58 147h-277l-58 -147h-161l290 698c-50 17 -85 54 -85 111zM358 495l-79 -198h157zM315 809c0 -28 20 -41 47 -41s48 13 48 41c0 27 -21 38 -48 38s-47 -11 -47 -38z" />
    <glyph glyph-name="AE" unicode="&#xc6;" horiz-adv-x="946" 
d="M876 700v-150h-255v-123h225v-150h-225v-127h265v-150h-425v147h-215l-101 -147h-185l503 700h413zM461 457l-111 -160h111v160z" />
    <glyph glyph-name="Ccedilla" unicode="&#xc7;" horiz-adv-x="655" 
d="M233 -157l48 74c14 -14 48 -37 74 -37c12 0 22 4 22 13c0 12 -7 17 -25 17h-6v82c-184 24 -306 161 -306 358c0 201 125 362 366 362c93 0 172 -32 214 -73l-71 -120c-38 23 -77 43 -143 43c-108 0 -196 -74 -196 -212c0 -124 86 -212 212 -212c50 0 105 16 152 51
l61 -120c-40 -45 -124 -78 -214 -81v-14c80 -6 116 -36 116 -90c0 -55 -52 -94 -145 -94c-92 0 -138 34 -159 53z" />
    <glyph glyph-name="Egrave" unicode="&#xc8;" horiz-adv-x="575" 
d="M90 0v700h415v-150h-255v-123h225v-150h-225v-127h265v-150h-425zM366 728l-249 78l56 129l234 -118z" />
    <glyph glyph-name="Eacute" unicode="&#xc9;" horiz-adv-x="575" 
d="M90 0v700h415v-150h-255v-123h225v-150h-225v-127h265v-150h-425zM497 806l-249 -78l-41 89l234 118z" />
    <glyph glyph-name="Ecircumflex" unicode="&#xca;" horiz-adv-x="575" 
d="M90 0v700h415v-150h-255v-123h225v-150h-225v-127h265v-150h-425zM115 806l178 119h4l184 -117l-58 -85l-128 66l-128 -66z" />
    <glyph glyph-name="Edieresis" unicode="&#xcb;" horiz-adv-x="575" 
d="M90 0v700h415v-150h-255v-123h225v-150h-225v-127h265v-150h-425zM92 837c0 49 44 78 98 78c46 0 91 -29 91 -78c0 -55 -45 -84 -91 -84c-54 0 -98 29 -98 84zM323 837c0 49 45 78 98 78c47 0 91 -29 91 -78c0 -55 -44 -84 -91 -84c-53 0 -98 29 -98 84z" />
    <glyph glyph-name="Igrave" unicode="&#xcc;" horiz-adv-x="360" 
d="M100 0v700h160v-700h-160zM236 728l-249 78l56 129l234 -118z" />
    <glyph glyph-name="Iacute" unicode="&#xcd;" horiz-adv-x="360" 
d="M100 0v700h160v-700h-160zM377 806l-249 -78l-41 89l234 118z" />
    <glyph glyph-name="Icircumflex" unicode="&#xce;" horiz-adv-x="360" 
d="M100 0v700h160v-700h-160zM-3 806l178 119h4l184 -117l-58 -85l-128 66l-128 -66z" />
    <glyph glyph-name="Idieresis" unicode="&#xcf;" horiz-adv-x="360" 
d="M100 0v700h160v-700h-160zM-30 837c0 49 44 78 98 78c46 0 91 -29 91 -78c0 -55 -45 -84 -91 -84c-54 0 -98 29 -98 84zM201 837c0 49 45 78 98 78c47 0 91 -29 91 -78c0 -55 -44 -84 -91 -84c-53 0 -98 29 -98 84z" />
    <glyph glyph-name="Eth" unicode="&#xd0;" horiz-adv-x="744" 
d="M10 278v140h80v282h14c37 0 161 3 207 3c280 0 393 -161 393 -347c0 -196 -134 -358 -401 -358c-37 0 -129 2 -196 2h-17v278h-80zM309 553c-17 0 -39 0 -59 -3v-132h164v-140h-164v-128c21 -2 35 -2 58 -2c138 0 226 75 226 208c0 129 -95 197 -225 197z" />
    <glyph glyph-name="Ntilde" unicode="&#xd1;" horiz-adv-x="790" 
d="M700 0h-128l-332 420v-420h-150v700h128l332 -422v422h150v-700zM261 746l-46 94c30 37 80 63 125 63c60 0 81 -30 135 -30c23 0 53 3 78 30l38 -94c-28 -45 -71 -66 -126 -66c-50 0 -81 30 -138 30c-21 0 -43 -8 -66 -27z" />
    <glyph glyph-name="Ograve" unicode="&#xd2;" horiz-adv-x="824" 
d="M40 350c0 203 149 362 372 362c213 0 372 -139 372 -362c0 -212 -159 -362 -372 -362s-372 139 -372 362zM210 350c0 -120 90 -212 202 -212c133 0 202 94 202 212c0 128 -89 212 -202 212c-116 0 -202 -84 -202 -212zM486 728l-249 78l56 129l234 -118z" />
    <glyph glyph-name="Oacute" unicode="&#xd3;" horiz-adv-x="824" 
d="M40 350c0 203 149 362 372 362c213 0 372 -139 372 -362c0 -212 -159 -362 -372 -362s-372 139 -372 362zM210 350c0 -120 90 -212 202 -212c133 0 202 94 202 212c0 128 -89 212 -202 212c-116 0 -202 -84 -202 -212zM617 806l-249 -78l-41 89l234 118z" />
    <glyph glyph-name="Ocircumflex" unicode="&#xd4;" horiz-adv-x="824" 
d="M40 350c0 203 149 362 372 362c213 0 372 -139 372 -362c0 -212 -159 -362 -372 -362s-372 139 -372 362zM210 350c0 -120 90 -212 202 -212c133 0 202 94 202 212c0 128 -89 212 -202 212c-116 0 -202 -84 -202 -212zM232 806l178 119h4l184 -117l-58 -85l-128 66
l-128 -66z" />
    <glyph glyph-name="Otilde" unicode="&#xd5;" horiz-adv-x="824" 
d="M40 350c0 203 149 362 372 362c213 0 372 -139 372 -362c0 -212 -159 -362 -372 -362s-372 139 -372 362zM210 350c0 -120 90 -212 202 -212c133 0 202 94 202 212c0 128 -89 212 -202 212c-116 0 -202 -84 -202 -212zM263 746l-46 94c30 37 80 63 125 63
c60 0 81 -30 135 -30c23 0 53 3 78 30l38 -94c-28 -45 -71 -66 -126 -66c-50 0 -81 30 -138 30c-21 0 -43 -8 -66 -27z" />
    <glyph glyph-name="Odieresis" unicode="&#xd6;" horiz-adv-x="824" 
d="M40 350c0 203 149 362 372 362c213 0 372 -139 372 -362c0 -212 -159 -362 -372 -362s-372 139 -372 362zM210 350c0 -120 90 -212 202 -212c133 0 202 94 202 212c0 128 -89 212 -202 212c-116 0 -202 -84 -202 -212zM197 837c0 49 44 78 98 78c46 0 91 -29 91 -78
c0 -55 -45 -84 -91 -84c-54 0 -98 29 -98 84zM428 837c0 49 45 78 98 78c47 0 91 -29 91 -78c0 -55 -44 -84 -91 -84c-53 0 -98 29 -98 84z" />
    <glyph glyph-name="multiply" unicode="&#xd7;" 
d="M87 481l92 92l121 -121l121 121l92 -92l-121 -121l122 -122l-92 -92l-122 122l-122 -122l-92 92l122 122z" />
    <glyph glyph-name="Oslash" unicode="&#xd8;" horiz-adv-x="824" 
d="M40 350c0 203 149 362 372 362c80 0 152 -20 211 -56l37 36l86 -88l-31 -31c44 -58 69 -134 69 -223c0 -212 -159 -362 -372 -362c-88 0 -166 23 -228 66l-40 -39l-86 88l40 39c-37 57 -58 126 -58 208zM614 350c0 38 -8 73 -23 103l-288 -282c31 -21 68 -33 109 -33
c133 0 202 94 202 212zM210 350c0 -30 5 -58 15 -83l280 273c-28 14 -60 22 -93 22c-116 0 -202 -84 -202 -212z" />
    <glyph glyph-name="Ugrave" unicode="&#xd9;" horiz-adv-x="751" 
d="M671 700v-411c0 -214 -136 -301 -286 -301c-180 0 -305 103 -305 308v404h160v-370c0 -109 33 -192 145 -192c97 0 126 71 126 183v379h160zM436 728l-249 78l56 129l234 -118z" />
    <glyph glyph-name="Uacute" unicode="&#xda;" horiz-adv-x="751" 
d="M671 700v-411c0 -214 -136 -301 -286 -301c-180 0 -305 103 -305 308v404h160v-370c0 -109 33 -192 145 -192c97 0 126 71 126 183v379h160zM577 806l-249 -78l-41 89l234 118z" />
    <glyph glyph-name="Ucircumflex" unicode="&#xdb;" horiz-adv-x="751" 
d="M671 700v-411c0 -214 -136 -301 -286 -301c-180 0 -305 103 -305 308v404h160v-370c0 -109 33 -192 145 -192c97 0 126 71 126 183v379h160zM191 806l178 119h4l184 -117l-58 -85l-128 66l-128 -66z" />
    <glyph glyph-name="Udieresis" unicode="&#xdc;" horiz-adv-x="751" 
d="M671 700v-411c0 -214 -136 -301 -286 -301c-180 0 -305 103 -305 308v404h160v-370c0 -109 33 -192 145 -192c97 0 126 71 126 183v379h160zM157 837c0 49 44 78 98 78c46 0 91 -29 91 -78c0 -55 -45 -84 -91 -84c-54 0 -98 29 -98 84zM388 837c0 49 45 78 98 78
c47 0 91 -29 91 -78c0 -55 -44 -84 -91 -84c-53 0 -98 29 -98 84z" />
    <glyph glyph-name="Yacute" unicode="&#xdd;" horiz-adv-x="654" 
d="M654 700l-248 -415v-285h-160v285l-246 415h183l150 -265l148 265h173zM527 806l-249 -78l-41 89l234 118z" />
    <glyph glyph-name="Thorn" unicode="&#xde;" horiz-adv-x="627" 
d="M250 0h-160v700h160v-100c8 0 43 2 54 2c213 0 283 -111 283 -232c0 -125 -97 -235 -259 -235c-15 0 -53 0 -78 3v-138zM306 452c-16 0 -42 -2 -56 -4v-158c23 -3 50 -5 73 -5c42 0 94 18 94 86c0 62 -45 81 -111 81z" />
    <glyph glyph-name="germandbls" unicode="&#xdf;" horiz-adv-x="556" 
d="M376 167c0 70 -143 88 -143 197c0 110 69 120 69 170c0 21 -19 38 -49 38c-39 0 -53 -29 -53 -90v-482h-150v493c0 155 87 219 225 219c109 0 187 -68 187 -149c0 -101 -69 -101 -69 -169c0 -86 143 -76 143 -232c0 -91 -64 -174 -164 -174c-69 0 -118 22 -149 53l46 115
c24 -20 43 -28 66 -28c25 0 41 10 41 39z" />
    <glyph glyph-name="agrave" unicode="&#xe0;" horiz-adv-x="465" 
d="M103 309l-37 109c36 22 104 44 167 44c137 0 187 -69 187 -191v-271h-130v41c-22 -31 -69 -47 -118 -47c-81 0 -142 51 -142 142c0 102 73 149 162 149c40 0 74 -14 88 -25c3 54 -22 77 -62 77c-53 0 -87 -17 -115 -28zM223 119c30 0 48 11 57 23v28
c-14 10 -32 15 -57 15s-43 -12 -43 -34c0 -20 18 -32 43 -32zM244 503l-133 144l119 89l103 -170z" />
    <glyph glyph-name="aacute" unicode="&#xe1;" horiz-adv-x="465" 
d="M103 309l-37 109c36 22 104 44 167 44c137 0 187 -69 187 -191v-271h-130v41c-22 -31 -69 -47 -118 -47c-81 0 -142 51 -142 142c0 102 73 149 162 149c40 0 74 -14 88 -25c3 54 -22 77 -62 77c-53 0 -87 -17 -115 -28zM223 119c30 0 48 11 57 23v28
c-14 10 -32 15 -57 15s-43 -12 -43 -34c0 -20 18 -32 43 -32zM364 649l-131 -146l-89 63l103 172z" />
    <glyph glyph-name="acircumflex" unicode="&#xe2;" horiz-adv-x="465" 
d="M103 309l-37 109c36 22 104 44 167 44c137 0 187 -69 187 -191v-271h-130v41c-22 -31 -69 -47 -118 -47c-81 0 -142 51 -142 142c0 102 73 149 162 149c40 0 74 -14 88 -25c3 54 -22 77 -62 77c-53 0 -87 -17 -115 -28zM223 119c30 0 48 11 57 23v28
c-14 10 -32 15 -57 15s-43 -12 -43 -34c0 -20 18 -32 43 -32zM234 706l165 -136l-70 -88l-98 81l-100 -79l-67 87l166 135h4z" />
    <glyph glyph-name="atilde" unicode="&#xe3;" horiz-adv-x="465" 
d="M103 309l-37 109c36 22 104 44 167 44c137 0 187 -69 187 -191v-271h-130v41c-22 -31 -69 -47 -118 -47c-81 0 -142 51 -142 142c0 102 73 149 162 149c40 0 74 -14 88 -25c3 54 -22 77 -62 77c-53 0 -87 -17 -115 -28zM223 119c30 0 48 11 57 23v28
c-14 10 -32 15 -57 15s-43 -12 -43 -34c0 -20 18 -32 43 -32zM104 519l-60 67c38 54 88 78 132 78c47 0 77 -39 118 -39c33 0 42 11 66 27l49 -75c-36 -43 -83 -72 -127 -72s-74 39 -119 39c-20 0 -43 -16 -59 -25z" />
    <glyph glyph-name="adieresis" unicode="&#xe4;" horiz-adv-x="465" 
d="M103 309l-37 109c36 22 104 44 167 44c137 0 187 -69 187 -191v-271h-130v41c-22 -31 -69 -47 -118 -47c-81 0 -142 51 -142 142c0 102 73 149 162 149c40 0 74 -14 88 -25c3 54 -22 77 -62 77c-53 0 -87 -17 -115 -28zM223 119c30 0 48 11 57 23v28
c-14 10 -32 15 -57 15s-43 -12 -43 -34c0 -20 18 -32 43 -32zM67 589c0 51 37 81 82 81c38 0 76 -30 76 -81c0 -56 -38 -86 -76 -86c-45 0 -82 30 -82 86zM260 589c0 51 38 81 82 81c39 0 76 -30 76 -81c0 -56 -37 -86 -76 -86c-44 0 -82 30 -82 86z" />
    <glyph glyph-name="aring" unicode="&#xe5;" horiz-adv-x="465" 
d="M103 309l-37 109c36 22 104 44 167 44c137 0 187 -69 187 -191v-271h-130v41c-22 -31 -69 -47 -118 -47c-81 0 -142 51 -142 142c0 102 73 149 162 149c40 0 74 -14 88 -25c3 54 -22 77 -62 77c-53 0 -87 -17 -115 -28zM223 119c30 0 48 11 57 23v28
c-14 10 -32 15 -57 15s-43 -12 -43 -34c0 -20 18 -32 43 -32zM107 611c0 71 57 129 137 129c81 0 139 -58 139 -129c0 -70 -58 -127 -139 -127c-80 0 -137 57 -137 127zM202 613c0 -27 17 -49 44 -49c26 0 42 22 42 49c0 26 -16 47 -42 47c-27 0 -44 -21 -44 -47z" />
    <glyph glyph-name="ae" unicode="&#xe6;" horiz-adv-x="742" 
d="M233 462c59 0 103 -13 132 -38c38 24 85 38 139 38c116 0 218 -84 218 -212c0 -35 -3 -55 -9 -75h-293v-14c13 -27 51 -48 100 -48c52 0 94 17 118 32l41 -106c-49 -33 -111 -51 -171 -51c-69 0 -125 18 -166 50c-64 -45 -112 -48 -144 -48c-111 0 -168 55 -168 154
c0 85 65 141 162 141c32 0 74 -14 88 -25c6 49 -25 78 -56 78c-60 0 -93 -18 -121 -29l-37 109c36 21 104 44 167 44zM419 295c0 -6 1 -13 1 -20h152c-3 32 -25 63 -78 62c-23 0 -57 -10 -75 -42zM223 119c19 0 40 9 55 20l2 31c-14 10 -35 15 -57 15c-28 0 -43 -17 -43 -34
c0 -13 11 -32 43 -32z" />
    <glyph glyph-name="ccedilla" unicode="&#xe7;" horiz-adv-x="485" 
d="M119 -161l44 69c14 -14 42 -28 68 -28c12 0 22 4 22 13c0 12 -7 17 -25 17h-6v83c-118 20 -192 108 -192 232c0 131 96 237 238 237c77 0 143 -21 184 -64l-69 -118c-32 32 -62 42 -96 42c-47 0 -97 -33 -97 -97c0 -61 52 -97 99 -97c44 0 75 21 102 50l70 -110
c-35 -48 -95 -75 -164 -79v-15c67 -6 106 -36 106 -90c0 -55 -50 -94 -151 -94c-76 0 -112 30 -133 49z" />
    <glyph glyph-name="egrave" unicode="&#xe8;" horiz-adv-x="512" 
d="M408 145l41 -106c-47 -35 -111 -51 -175 -51c-148 0 -244 95 -244 237c0 131 96 237 244 237c116 0 218 -84 218 -212c0 -35 -3 -55 -9 -75h-298c14 -43 56 -62 105 -62c52 0 94 17 118 32zM269 337c-50 0 -75 -22 -89 -62h162c0 31 -25 62 -73 62zM289 503l-133 144
l119 89l103 -170z" />
    <glyph glyph-name="eacute" unicode="&#xe9;" horiz-adv-x="512" 
d="M408 145l41 -106c-47 -35 -111 -51 -175 -51c-148 0 -244 95 -244 237c0 131 96 237 244 237c116 0 218 -84 218 -212c0 -35 -3 -55 -9 -75h-298c14 -43 56 -62 105 -62c52 0 94 17 118 32zM269 337c-50 0 -75 -22 -89 -62h162c0 31 -25 62 -73 62zM409 649l-131 -146
l-89 63l103 172z" />
    <glyph glyph-name="ecircumflex" unicode="&#xea;" horiz-adv-x="512" 
d="M408 145l41 -106c-47 -35 -111 -51 -175 -51c-148 0 -244 95 -244 237c0 131 96 237 244 237c116 0 218 -84 218 -212c0 -35 -3 -55 -9 -75h-298c14 -43 56 -62 105 -62c52 0 94 17 118 32zM269 337c-50 0 -75 -22 -89 -62h162c0 31 -25 62 -73 62zM269 706l165 -136
l-70 -88l-98 81l-100 -79l-67 87l166 135h4z" />
    <glyph glyph-name="edieresis" unicode="&#xeb;" horiz-adv-x="512" 
d="M408 145l41 -106c-47 -35 -111 -51 -175 -51c-148 0 -244 95 -244 237c0 131 96 237 244 237c116 0 218 -84 218 -212c0 -35 -3 -55 -9 -75h-298c14 -43 56 -62 105 -62c52 0 94 17 118 32zM269 337c-50 0 -75 -22 -89 -62h162c0 31 -25 62 -73 62zM95 589
c0 51 37 81 82 81c38 0 76 -30 76 -81c0 -56 -38 -86 -76 -86c-45 0 -82 30 -82 86zM288 589c0 51 38 81 82 81c39 0 76 -30 76 -81c0 -56 -37 -86 -76 -86c-44 0 -82 30 -82 86z" />
    <glyph glyph-name="igrave" unicode="&#xec;" horiz-adv-x="286" 
d="M68 0v450h150v-450h-150zM119 503l-133 144l119 89l103 -170z" />
    <glyph glyph-name="iacute" unicode="&#xed;" horiz-adv-x="286" 
d="M68 0v450h150v-450h-150zM269 649l-131 -146l-89 63l103 172z" />
    <glyph glyph-name="icircumflex" unicode="&#xee;" horiz-adv-x="286" 
d="M68 0v450h150v-450h-150zM146 706l165 -136l-70 -88l-98 81l-100 -79l-67 87l166 135h4z" />
    <glyph glyph-name="idieresis" unicode="&#xef;" horiz-adv-x="286" 
d="M68 0v450h150v-450h-150zM-32 589c0 51 37 81 82 81c38 0 76 -30 76 -81c0 -56 -38 -86 -76 -86c-45 0 -82 30 -82 86zM161 589c0 51 38 81 82 81c39 0 76 -30 76 -81c0 -56 -37 -86 -76 -86c-44 0 -82 30 -82 86z" />
    <glyph glyph-name="eth" unicode="&#xf0;" horiz-adv-x="560" 
d="M181 473l-42 134l66 20c-23 22 -47 43 -71 63l169 22c18 -12 35 -25 51 -40l100 31l41 -134l-47 -15c54 -93 82 -202 82 -287c0 -177 -96 -279 -250 -279s-250 102 -250 237s96 237 250 237c18 0 41 -6 54 -12c-9 21 -20 41 -32 60zM190 225c0 -57 39 -97 90 -97
c59 0 99 54 90 145c-15 34 -49 49 -90 49c-48 0 -90 -36 -90 -97z" />
    <glyph glyph-name="ntilde" unicode="&#xf1;" horiz-adv-x="544" 
d="M55 0v450h150v-35c24 23 64 43 111 43c104 0 183 -49 183 -190v-268h-150v242c0 52 -30 76 -74 76c-27 0 -48 -9 -70 -31v-287h-150zM147 519l-60 67c38 54 88 78 132 78c47 0 77 -39 118 -39c33 0 42 11 66 27l49 -75c-36 -43 -83 -72 -127 -72s-74 39 -119 39
c-20 0 -43 -16 -59 -25z" />
    <glyph glyph-name="ograve" unicode="&#xf2;" horiz-adv-x="560" 
d="M30 225c0 135 96 237 250 237s250 -102 250 -237s-96 -237 -250 -237s-250 102 -250 237zM190 225c0 -57 39 -97 90 -97s90 36 90 97c0 58 -40 97 -90 97c-48 0 -90 -36 -90 -97zM276 503l-133 144l119 89l103 -170z" />
    <glyph glyph-name="oacute" unicode="&#xf3;" horiz-adv-x="560" 
d="M30 225c0 135 96 237 250 237s250 -102 250 -237s-96 -237 -250 -237s-250 102 -250 237zM190 225c0 -57 39 -97 90 -97s90 36 90 97c0 58 -40 97 -90 97c-48 0 -90 -36 -90 -97zM416 649l-131 -146l-89 63l103 172z" />
    <glyph glyph-name="ocircumflex" unicode="&#xf4;" horiz-adv-x="560" 
d="M30 225c0 135 96 237 250 237s250 -102 250 -237s-96 -237 -250 -237s-250 102 -250 237zM190 225c0 -57 39 -97 90 -97s90 36 90 97c0 58 -40 97 -90 97c-48 0 -90 -36 -90 -97zM285 706l165 -136l-70 -88l-98 81l-100 -79l-67 87l166 135h4z" />
    <glyph glyph-name="otilde" unicode="&#xf5;" horiz-adv-x="560" 
d="M30 225c0 135 96 237 250 237s250 -102 250 -237s-96 -237 -250 -237s-250 102 -250 237zM190 225c0 -57 39 -97 90 -97s90 36 90 97c0 58 -40 97 -90 97c-48 0 -90 -36 -90 -97zM155 519l-60 67c38 54 88 78 132 78c47 0 77 -39 118 -39c33 0 42 11 66 27l49 -75
c-36 -43 -83 -72 -127 -72s-74 39 -119 39c-20 0 -43 -16 -59 -25z" />
    <glyph glyph-name="odieresis" unicode="&#xf6;" horiz-adv-x="560" 
d="M30 225c0 135 96 237 250 237s250 -102 250 -237s-96 -237 -250 -237s-250 102 -250 237zM190 225c0 -57 39 -97 90 -97s90 36 90 97c0 58 -40 97 -90 97c-48 0 -90 -36 -90 -97zM113 589c0 51 37 81 82 81c38 0 76 -30 76 -81c0 -56 -38 -86 -76 -86
c-45 0 -82 30 -82 86zM306 589c0 51 38 81 82 81c39 0 76 -30 76 -81c0 -56 -37 -86 -76 -86c-44 0 -82 30 -82 86z" />
    <glyph glyph-name="divide" unicode="&#xf7;" 
d="M213 550c0 40 30 83 87 83c54 0 85 -43 85 -83c0 -45 -31 -89 -85 -89c-57 0 -87 44 -87 89zM213 172c0 39 30 83 87 83c52 0 85 -44 85 -83c0 -46 -31 -89 -85 -89c-57 0 -87 43 -87 89zM63 295v130h474v-130h-474z" />
    <glyph glyph-name="oslash" unicode="&#xf8;" horiz-adv-x="580" 
d="M44 67l27 24c-27 37 -41 83 -41 134c0 135 106 237 260 237c60 0 112 -16 154 -43l34 30l53 -62l-26 -23c29 -39 45 -86 45 -139c0 -135 -106 -237 -260 -237c-62 0 -117 16 -159 45l-33 -29zM390 225c0 12 -2 23 -5 33l-138 -123c12 -5 27 -7 43 -7c61 0 100 36 100 97z
M190 225c0 -10 1 -18 3 -27l134 118c-11 4 -24 6 -37 6c-58 0 -100 -36 -100 -97z" />
    <glyph glyph-name="ugrave" unicode="&#xf9;" horiz-adv-x="530" 
d="M475 450v-450h-150v45c-22 -28 -61 -57 -129 -57c-76 0 -151 55 -151 179v283h150v-251c0 -35 14 -71 58 -71c25 0 49 12 72 41v281h150zM256 503l-133 144l119 89l103 -170z" />
    <glyph glyph-name="uacute" unicode="&#xfa;" horiz-adv-x="530" 
d="M475 450v-450h-150v45c-22 -28 -61 -57 -129 -57c-76 0 -151 55 -151 179v283h150v-251c0 -35 14 -71 58 -71c25 0 49 12 72 41v281h150zM406 649l-131 -146l-89 63l103 172z" />
    <glyph glyph-name="ucircumflex" unicode="&#xfb;" horiz-adv-x="530" 
d="M475 450v-450h-150v45c-22 -28 -61 -57 -129 -57c-76 0 -151 55 -151 179v283h150v-251c0 -35 14 -71 58 -71c25 0 49 12 72 41v281h150zM268 706l165 -136l-70 -88l-98 81l-100 -79l-67 87l166 135h4z" />
    <glyph glyph-name="udieresis" unicode="&#xfc;" horiz-adv-x="530" 
d="M475 450v-450h-150v45c-22 -28 -61 -57 -129 -57c-76 0 -151 55 -151 179v283h150v-251c0 -35 14 -71 58 -71c25 0 49 12 72 41v281h150zM86 589c0 51 37 81 82 81c38 0 76 -30 76 -81c0 -56 -38 -86 -76 -86c-45 0 -82 30 -82 86zM279 589c0 51 38 81 82 81
c39 0 76 -30 76 -81c0 -56 -37 -86 -76 -86c-44 0 -82 30 -82 86z" />
    <glyph glyph-name="yacute" unicode="&#xfd;" horiz-adv-x="516" 
d="M516 450l-175 -450c-66 -161 -108 -200 -177 -200c-48 0 -81 20 -107 42l48 113c9 -6 25 -16 43 -16c20 0 34 15 43 37l10 24l-201 450h181l77 -206c8 -21 12 -41 17 -62c2 20 4 40 11 63l59 205h171zM389 649l-131 -146l-89 63l103 172z" />
    <glyph glyph-name="thorn" unicode="&#xfe;" horiz-adv-x="561" 
d="M55 -200v900h150v-276c28 21 68 38 125 38c121 0 201 -97 201 -230c0 -137 -96 -244 -242 -244c-31 0 -63 5 -84 14v-202h-150zM283 322c-29 0 -53 -12 -78 -40v-137c22 -13 38 -17 70 -17c65 0 96 46 96 101c0 52 -31 93 -88 93z" />
    <glyph glyph-name="ydieresis" unicode="&#xff;" horiz-adv-x="516" 
d="M516 450l-175 -450c-66 -161 -108 -200 -177 -200c-48 0 -81 20 -107 42l48 113c9 -6 25 -16 43 -16c20 0 34 15 43 37l10 24l-201 450h181l77 -206c8 -21 12 -41 17 -62c2 20 4 40 11 63l59 205h171zM92 589c0 51 37 81 82 81c38 0 76 -30 76 -81c0 -56 -38 -86 -76 -86
c-45 0 -82 30 -82 86zM285 589c0 51 38 81 82 81c39 0 76 -30 76 -81c0 -56 -37 -86 -76 -86c-44 0 -82 30 -82 86z" />
    <glyph glyph-name="Amacron" unicode="&#x100;" horiz-adv-x="725" 
d="M0 0l291 700h143l291 -700h-171l-58 147h-277l-58 -147h-161zM358 495l-79 -198h157zM205 750v120h314v-120h-314z" />
    <glyph glyph-name="amacron" unicode="&#x101;" horiz-adv-x="465" 
d="M103 309l-37 109c36 22 104 44 167 44c137 0 187 -69 187 -191v-271h-130v41c-22 -31 -69 -47 -118 -47c-81 0 -142 51 -142 142c0 102 73 149 162 149c40 0 74 -14 88 -25c3 54 -22 77 -62 77c-53 0 -87 -17 -115 -28zM223 119c30 0 48 11 57 23v28
c-14 10 -32 15 -57 15s-43 -12 -43 -34c0 -20 18 -32 43 -32zM91 520v120h294v-120h-294z" />
    <glyph glyph-name="Abreve" unicode="&#x102;" horiz-adv-x="725" 
d="M0 0l291 700h143l291 -700h-171l-58 147h-277l-58 -147h-161zM358 495l-79 -198h157zM161 843l64 77c26 -27 67 -60 143 -60c66 0 113 30 140 60l55 -78c-35 -59 -111 -112 -195 -112c-95 0 -174 59 -207 113z" />
    <glyph glyph-name="abreve" unicode="&#x103;" horiz-adv-x="465" 
d="M103 309l-37 109c36 22 104 44 167 44c137 0 187 -69 187 -191v-271h-130v41c-22 -31 -69 -47 -118 -47c-81 0 -142 51 -142 142c0 102 73 149 162 149c40 0 74 -14 88 -25c3 54 -22 77 -62 77c-53 0 -87 -17 -115 -28zM223 119c30 0 48 11 57 23v28
c-14 10 -32 15 -57 15s-43 -12 -43 -34c0 -20 18 -32 43 -32zM59 607l66 75c21 -23 52 -52 105 -52c49 0 90 26 110 50l51 -72c-28 -42 -73 -98 -167 -98c-92 0 -146 64 -165 97z" />
    <glyph glyph-name="Aogonek" unicode="&#x104;" horiz-adv-x="725" 
d="M677 -70l45 -90c-17 -21 -67 -40 -120 -40c-78 0 -145 29 -145 95c0 51 41 85 97 105l-58 147h-277l-58 -147h-161l291 700h143l291 -700h-19c-58 0 -99 -30 -99 -54c0 -18 13 -26 30 -26s23 2 40 10zM358 495l-79 -198h157z" />
    <glyph glyph-name="aogonek" unicode="&#x105;" horiz-adv-x="465" 
d="M391 -70l45 -90c-17 -21 -67 -40 -120 -40c-78 0 -145 29 -145 95c0 58 52 94 119 112v34c-22 -31 -69 -47 -118 -47c-81 0 -142 51 -142 142c0 102 73 149 162 149c40 0 74 -14 88 -25c3 54 -22 77 -62 77c-53 0 -87 -17 -115 -28l-37 109c36 22 104 44 167 44
c137 0 187 -69 187 -191v-271h-9c-53 -3 -90 -31 -90 -54c0 -18 13 -26 30 -26s23 2 40 10zM223 119c30 0 48 11 57 23v28c-14 10 -32 15 -57 15s-43 -12 -43 -34c0 -20 18 -32 43 -32z" />
    <glyph glyph-name="Cacute" unicode="&#x106;" horiz-adv-x="655" 
d="M574 189l61 -120c-42 -47 -133 -81 -228 -81c-217 0 -367 144 -367 362c0 201 125 362 366 362c93 0 172 -32 214 -73l-71 -120c-38 23 -77 43 -143 43c-108 0 -196 -74 -196 -212c0 -124 86 -212 212 -212c50 0 105 16 152 51zM577 806l-249 -78l-41 89l234 118z" />
    <glyph glyph-name="cacute" unicode="&#x107;" horiz-adv-x="485" 
d="M391 178l70 -110c-38 -52 -106 -80 -184 -80c-150 0 -247 95 -247 237c0 131 96 237 238 237c77 0 143 -21 184 -64l-69 -118c-32 32 -62 42 -96 42c-47 0 -97 -33 -97 -97c0 -61 52 -97 99 -97c44 0 75 21 102 50zM399 649l-131 -146l-89 63l103 172z" />
    <glyph glyph-name="Ccircumflex" unicode="&#x108;" horiz-adv-x="655" 
d="M574 189l61 -120c-42 -47 -133 -81 -228 -81c-217 0 -367 144 -367 362c0 201 125 362 366 362c93 0 172 -32 214 -73l-71 -120c-38 23 -77 43 -143 43c-108 0 -196 -74 -196 -212c0 -124 86 -212 212 -212c50 0 105 16 152 51zM202 806l178 119h4l184 -117l-58 -85
l-128 66l-128 -66z" />
    <glyph glyph-name="ccircumflex" unicode="&#x109;" horiz-adv-x="485" 
d="M391 178l70 -110c-38 -52 -106 -80 -184 -80c-150 0 -247 95 -247 237c0 131 96 237 238 237c77 0 143 -21 184 -64l-69 -118c-32 32 -62 42 -96 42c-47 0 -97 -33 -97 -97c0 -61 52 -97 99 -97c44 0 75 21 102 50zM279 706l165 -136l-70 -88l-98 81l-100 -79l-67 87
l166 135h4z" />
    <glyph glyph-name="Cdotaccent" unicode="&#x10a;" horiz-adv-x="655" 
d="M574 189l61 -120c-42 -47 -133 -81 -228 -81c-217 0 -367 144 -367 362c0 201 125 362 366 362c93 0 172 -32 214 -73l-71 -120c-38 23 -77 43 -143 43c-108 0 -196 -74 -196 -212c0 -124 86 -212 212 -212c50 0 105 16 152 51zM284 845c0 56 47 90 101 90
c49 0 96 -34 96 -90c0 -62 -47 -96 -96 -96c-54 0 -101 34 -101 96z" />
    <glyph glyph-name="cdotaccent" unicode="&#x10b;" horiz-adv-x="485" 
d="M391 178l70 -110c-38 -52 -106 -80 -184 -80c-150 0 -247 95 -247 237c0 131 96 237 238 237c77 0 143 -21 184 -64l-69 -118c-32 32 -62 42 -96 42c-47 0 -97 -33 -97 -97c0 -61 52 -97 99 -97c44 0 75 21 102 50zM180 605c0 53 42 85 91 85c43 0 85 -32 85 -85
c0 -59 -42 -91 -85 -91c-49 0 -91 32 -91 91z" />
    <glyph glyph-name="Ccaron" unicode="&#x10c;" horiz-adv-x="655" 
d="M574 189l61 -120c-42 -47 -133 -81 -228 -81c-217 0 -367 144 -367 362c0 201 125 362 366 362c93 0 172 -32 214 -73l-71 -120c-38 23 -77 43 -143 43c-108 0 -196 -74 -196 -212c0 -124 86 -212 212 -212c50 0 105 16 152 51zM385 733l-184 117l58 85l128 -76l128 76
l52 -83l-178 -119h-4z" />
    <glyph glyph-name="ccaron" unicode="&#x10d;" horiz-adv-x="485" 
d="M391 178l70 -110c-38 -52 -106 -80 -184 -80c-150 0 -247 95 -247 237c0 131 96 237 238 237c77 0 143 -21 184 -64l-69 -118c-32 32 -62 42 -96 42c-47 0 -97 -33 -97 -97c0 -61 52 -97 99 -97c44 0 75 21 102 50zM261 488l-165 136l70 88l98 -81l100 79l67 -87
l-166 -135h-4z" />
    <glyph glyph-name="Dcaron" unicode="&#x10e;" horiz-adv-x="744" 
d="M90 0v700h14c37 0 161 3 207 3c280 0 393 -161 393 -347c0 -196 -134 -358 -401 -358c-37 0 -129 2 -196 2h-17zM309 553c-17 0 -39 0 -59 -3v-400c21 -2 35 -2 58 -2c138 0 226 75 226 208c0 129 -95 197 -225 197zM335 733l-184 117l58 85l128 -76l128 76l52 -83
l-178 -119h-4z" />
    <glyph glyph-name="dcaron" unicode="&#x10f;" horiz-adv-x="557" 
d="M352 0v37c-27 -26 -61 -45 -114 -45c-128 0 -208 91 -208 227c0 143 101 243 248 243c31 0 55 -5 74 -14v252h150v-700h-150zM269 132c33 0 61 13 83 33v138c-21 12 -43 19 -67 19c-47 0 -95 -31 -95 -98c0 -61 41 -92 79 -92zM556 700h146c4 -10 5 -25 5 -32
c0 -106 -61 -165 -113 -194l-70 63c27 31 43 71 43 113c0 21 -4 34 -11 50z" />
    <glyph glyph-name="Dcroat" unicode="&#x110;" horiz-adv-x="744" 
d="M10 278v140h80v282h14c37 0 161 3 207 3c280 0 393 -161 393 -347c0 -196 -134 -358 -401 -358c-37 0 -129 2 -196 2h-17v278h-80zM309 553c-17 0 -39 0 -59 -3v-132h164v-140h-164v-128c21 -2 35 -2 58 -2c138 0 226 75 226 208c0 129 -95 197 -225 197z" />
    <glyph glyph-name="dcroat" unicode="&#x111;" horiz-adv-x="557" 
d="M248 507v120h104v73h150v-73h65v-120h-65v-507h-150v37c-27 -26 -61 -45 -114 -45c-128 0 -208 91 -208 227c0 143 101 243 248 243c31 0 55 -5 74 -14v59h-104zM269 132c33 0 61 13 83 33v138c-21 12 -43 19 -67 19c-47 0 -95 -31 -95 -98c0 -61 41 -92 79 -92z" />
    <glyph glyph-name="Emacron" unicode="&#x112;" horiz-adv-x="575" 
d="M90 0v700h415v-150h-255v-123h225v-150h-225v-127h265v-150h-425zM140 750v120h314v-120h-314z" />
    <glyph glyph-name="emacron" unicode="&#x113;" horiz-adv-x="512" 
d="M408 145l41 -106c-47 -35 -111 -51 -175 -51c-148 0 -244 95 -244 237c0 131 96 237 244 237c116 0 218 -84 218 -212c0 -35 -3 -55 -9 -75h-298c14 -43 56 -62 105 -62c52 0 94 17 118 32zM269 337c-50 0 -75 -22 -89 -62h162c0 31 -25 62 -73 62zM117 520v120h294v-120
h-294z" />
    <glyph glyph-name="Edotaccent" unicode="&#x116;" horiz-adv-x="575" 
d="M90 0v700h415v-150h-255v-123h225v-150h-225v-127h265v-150h-425zM204 845c0 56 47 90 101 90c49 0 96 -34 96 -90c0 -62 -47 -96 -96 -96c-54 0 -101 34 -101 96z" />
    <glyph glyph-name="edotaccent" unicode="&#x117;" horiz-adv-x="512" 
d="M408 145l41 -106c-47 -35 -111 -51 -175 -51c-148 0 -244 95 -244 237c0 131 96 237 244 237c116 0 218 -84 218 -212c0 -35 -3 -55 -9 -75h-298c14 -43 56 -62 105 -62c52 0 94 17 118 32zM269 337c-50 0 -75 -22 -89 -62h162c0 31 -25 62 -73 62zM180 605
c0 53 42 85 91 85c43 0 85 -32 85 -85c0 -59 -42 -91 -85 -91c-49 0 -91 32 -91 91z" />
    <glyph glyph-name="Eogonek" unicode="&#x118;" horiz-adv-x="575" 
d="M90 0v700h415v-150h-255v-123h225v-150h-225v-127h265v-150c-58 0 -99 -30 -99 -54c0 -18 13 -26 30 -26s23 2 40 10l45 -90c-17 -21 -67 -40 -120 -40c-78 0 -145 29 -145 95c0 51 41 85 97 105h-273z" />
    <glyph glyph-name="eogonek" unicode="&#x119;" horiz-adv-x="512" 
d="M408 145l41 -106c-15 -11 -31 -20 -48 -27c-39 -24 -60 -47 -60 -66c0 -18 13 -26 30 -26s23 2 40 10l45 -90c-17 -21 -67 -40 -120 -40c-78 0 -145 29 -145 95c0 36 31 69 81 93c-147 1 -242 95 -242 237c0 131 96 237 244 237c116 0 218 -84 218 -212
c0 -35 -3 -55 -9 -75h-298c14 -43 56 -62 105 -62c52 0 94 17 118 32zM269 337c-50 0 -75 -22 -89 -62h162c0 31 -25 62 -73 62z" />
    <glyph glyph-name="Ecaron" unicode="&#x11a;" horiz-adv-x="575" 
d="M90 0v700h415v-150h-255v-123h225v-150h-225v-127h265v-150h-425zM305 733l-184 117l58 85l128 -76l128 76l52 -83l-178 -119h-4z" />
    <glyph glyph-name="ecaron" unicode="&#x11b;" horiz-adv-x="512" 
d="M408 145l41 -106c-47 -35 -111 -51 -175 -51c-148 0 -244 95 -244 237c0 131 96 237 244 237c116 0 218 -84 218 -212c0 -35 -3 -55 -9 -75h-298c14 -43 56 -62 105 -62c52 0 94 17 118 32zM269 337c-50 0 -75 -22 -89 -62h162c0 31 -25 62 -73 62zM271 488l-165 136
l70 88l98 -81l100 79l67 -87l-166 -135h-4z" />
    <glyph glyph-name="Gcircumflex" unicode="&#x11c;" horiz-adv-x="727" 
d="M378 249v150h299v-312c-62 -62 -175 -99 -262 -99c-240 0 -375 144 -375 362c0 201 135 362 355 362c104 0 172 -28 229 -73l-67 -129c-28 30 -89 52 -143 52c-115 0 -204 -68 -204 -212c0 -129 82 -212 207 -212c42 0 94 20 110 35v76h-149zM202 806l178 119h4l184 -117
l-58 -85l-128 66l-128 -66z" />
    <glyph glyph-name="gcircumflex" unicode="&#x11d;" horiz-adv-x="504" 
d="M0 -58c0 78 62 124 149 142c-4 8 -6 17 -6 25s2 18 7 26c-71 28 -111 88 -111 154c0 90 74 173 199 173c45 0 84 -11 115 -30l141 28l5 -120l-67 -13c3 -13 5 -25 5 -38c0 -86 -70 -162 -183 -169c-1 -4 -1 -8 -1 -11c0 -6 1 -11 3 -17c123 -4 222 -50 222 -150
c0 -104 -108 -150 -239 -150s-239 43 -239 150zM140 -58c0 -19 36 -30 99 -30c64 0 99 10 99 30c0 18 -29 31 -99 31c-69 0 -99 -13 -99 -31zM179 289c0 -28 21 -49 59 -49c34 0 59 17 59 49c0 28 -18 53 -59 53c-38 0 -59 -26 -59 -53zM247 706l165 -136l-70 -88l-98 81
l-100 -79l-67 87l166 135h4z" />
    <glyph glyph-name="Gbreve" unicode="&#x11e;" horiz-adv-x="727" 
d="M378 249v150h299v-312c-62 -62 -175 -99 -262 -99c-240 0 -375 144 -375 362c0 201 135 362 355 362c104 0 172 -28 229 -73l-67 -129c-28 30 -89 52 -143 52c-115 0 -204 -68 -204 -212c0 -129 82 -212 207 -212c42 0 94 20 110 35v76h-149zM203 843l64 77
c26 -27 67 -60 143 -60c66 0 113 30 140 60l55 -78c-35 -59 -111 -112 -195 -112c-95 0 -174 59 -207 113z" />
    <glyph glyph-name="gbreve" unicode="&#x11f;" horiz-adv-x="504" 
d="M0 -58c0 78 62 124 149 142c-4 8 -6 17 -6 25s2 18 7 26c-71 28 -111 88 -111 154c0 90 74 173 199 173c45 0 84 -11 115 -30l141 28l5 -120l-67 -13c3 -13 5 -25 5 -38c0 -86 -70 -162 -183 -169c-1 -4 -1 -8 -1 -11c0 -6 1 -11 3 -17c123 -4 222 -50 222 -150
c0 -104 -108 -150 -239 -150s-239 43 -239 150zM140 -58c0 -19 36 -30 99 -30c64 0 99 10 99 30c0 18 -29 31 -99 31c-69 0 -99 -13 -99 -31zM179 289c0 -28 21 -49 59 -49c34 0 59 17 59 49c0 28 -18 53 -59 53c-38 0 -59 -26 -59 -53zM72 607l66 75c21 -23 52 -52 105 -52
c49 0 90 26 110 50l51 -72c-28 -42 -73 -98 -167 -98c-92 0 -146 64 -165 97z" />
    <glyph glyph-name="Gdotaccent" unicode="&#x120;" horiz-adv-x="727" 
d="M378 249v150h299v-312c-62 -62 -175 -99 -262 -99c-240 0 -375 144 -375 362c0 201 135 362 355 362c104 0 172 -28 229 -73l-67 -129c-28 30 -89 52 -143 52c-115 0 -204 -68 -204 -212c0 -129 82 -212 207 -212c42 0 94 20 110 35v76h-149zM274 845c0 56 47 90 101 90
c49 0 96 -34 96 -90c0 -62 -47 -96 -96 -96c-54 0 -101 34 -101 96z" />
    <glyph glyph-name="gdotaccent" unicode="&#x121;" horiz-adv-x="504" 
d="M0 -58c0 78 62 124 149 142c-4 8 -6 17 -6 25s2 18 7 26c-71 28 -111 88 -111 154c0 90 74 173 199 173c45 0 84 -11 115 -30l141 28l5 -120l-67 -13c3 -13 5 -25 5 -38c0 -86 -70 -162 -183 -169c-1 -4 -1 -8 -1 -11c0 -6 1 -11 3 -17c123 -4 222 -50 222 -150
c0 -104 -108 -150 -239 -150s-239 43 -239 150zM140 -58c0 -19 36 -30 99 -30c64 0 99 10 99 30c0 18 -29 31 -99 31c-69 0 -99 -13 -99 -31zM179 289c0 -28 21 -49 59 -49c34 0 59 17 59 49c0 28 -18 53 -59 53c-38 0 -59 -26 -59 -53zM150 605c0 53 42 85 91 85
c43 0 85 -32 85 -85c0 -59 -42 -91 -85 -91c-49 0 -91 32 -91 91z" />
    <glyph glyph-name="Gcommaaccent" unicode="&#x122;" horiz-adv-x="727" 
d="M378 249v150h299v-312c-62 -62 -175 -99 -262 -99c-240 0 -375 144 -375 362c0 201 135 362 355 362c104 0 172 -28 229 -73l-67 -129c-28 30 -89 52 -143 52c-115 0 -204 -68 -204 -212c0 -129 82 -212 207 -212c42 0 94 20 110 35v76h-149zM326 -50l149 29
c5 -7 13 -21 13 -48c0 -79 -83 -131 -147 -139l-44 64c34 15 41 35 41 58c0 14 -5 27 -12 36z" />
    <glyph glyph-name="gcommaaccent" unicode="&#x123;" horiz-adv-x="504" 
d="M0 -58c0 78 62 124 149 142c-4 8 -6 17 -6 25s2 18 7 26c-71 28 -111 88 -111 154c0 90 74 173 199 173c45 0 84 -11 115 -30l141 28l5 -120l-67 -13c3 -13 5 -25 5 -38c0 -86 -70 -162 -183 -169c-1 -4 -1 -8 -1 -11c0 -6 1 -11 3 -17c123 -4 222 -50 222 -150
c0 -104 -108 -150 -239 -150s-239 43 -239 150zM140 -58c0 -19 36 -30 99 -30c64 0 99 10 99 30c0 18 -29 31 -99 31c-69 0 -99 -13 -99 -31zM179 289c0 -28 21 -49 59 -49c34 0 59 17 59 49c0 28 -18 53 -59 53c-38 0 -59 -26 -59 -53zM316 547l-149 -29
c-5 7 -13 21 -13 48c0 79 83 131 147 139l44 -64c-34 -15 -41 -35 -41 -58c0 -14 5 -27 12 -36z" />
    <glyph glyph-name="Hcircumflex" unicode="&#x124;" horiz-adv-x="755" 
d="M505 0v282h-255v-282h-160v700h160v-268h255v268h160v-700h-160zM197 806l178 119h4l184 -117l-58 -85l-128 66l-128 -66z" />
    <glyph glyph-name="hcircumflex" unicode="&#x125;" horiz-adv-x="544" 
d="M55 0v700h150v-281c26 23 65 39 111 39c104 0 183 -53 183 -194v-264h-150v245c0 45 -30 73 -72 73c-26 0 -51 -8 -72 -29v-289h-150zM-33 806l178 119h4l184 -117l-58 -85l-128 66l-128 -66z" />
    <glyph glyph-name="Hbar" unicode="&#x126;" horiz-adv-x="765" 
d="M20 497v140h75v63h160v-63h255v63h160v-63h75v-140h-75v-497h-160v282h-255v-282h-160v497h-75zM255 432h255v65h-255v-65z" />
    <glyph glyph-name="hbar" unicode="&#x127;" horiz-adv-x="594" 
d="M10 490v140h95v70h150v-70h134v-140h-134v-71c26 23 65 39 111 39c104 0 183 -53 183 -194v-264h-150v245c0 45 -30 73 -72 73c-26 0 -51 -8 -72 -29v-289h-150v490h-95z" />
    <glyph glyph-name="Imacron" unicode="&#x12a;" horiz-adv-x="360" 
d="M100 0v700h160v-700h-160zM28 750v120h314v-120h-314z" />
    <glyph glyph-name="imacron" unicode="&#x12b;" horiz-adv-x="286" 
d="M68 0v450h150v-450h-150zM-4 520v120h294v-120h-294z" />
    <glyph glyph-name="Iogonek" unicode="&#x12e;" horiz-adv-x="360" 
d="M100 0v700h160v-700c-58 0 -99 -30 -99 -54c0 -18 13 -26 30 -26s23 2 40 10l45 -90c-17 -21 -67 -40 -120 -40c-78 0 -145 29 -145 95c0 51 41 85 97 105h-8z" />
    <glyph glyph-name="iogonek" unicode="&#x12f;" horiz-adv-x="286" 
d="M189 -70l45 -90c-17 -21 -67 -40 -120 -40c-78 0 -145 29 -145 95c0 52 42 86 99 105v450h150v-450h-9c-53 -3 -90 -31 -90 -54c0 -18 13 -26 30 -26s23 2 40 10zM51 605c0 53 42 85 91 85c43 0 85 -32 85 -85c0 -59 -42 -91 -85 -91c-49 0 -91 32 -91 91z" />
    <glyph glyph-name="Idotaccent" unicode="&#x130;" horiz-adv-x="360" 
d="M100 0v700h160v-700h-160zM82 845c0 56 47 90 101 90c49 0 96 -34 96 -90c0 -62 -47 -96 -96 -96c-54 0 -101 34 -101 96z" />
    <glyph glyph-name="dotlessi" unicode="&#x131;" horiz-adv-x="286" 
d="M68 0v450h150v-450h-150z" />
    <glyph glyph-name="Jcircumflex" unicode="&#x134;" horiz-adv-x="407" 
d="M317 700v-529c0 -119 -66 -183 -185 -183c-60 0 -114 26 -132 49l52 122c16 -12 38 -21 58 -21c28 0 47 21 47 62v500h160zM55 806l178 119h4l184 -117l-58 -85l-128 66l-128 -66z" />
    <glyph glyph-name="jcircumflex" unicode="&#x135;" horiz-adv-x="281" 
d="M226 450v-483c0 -110 -41 -175 -141 -175c-53 0 -101 16 -120 34l39 119c16 -9 26 -13 44 -13c21 0 28 21 28 49v469h150zM154 706l165 -136l-70 -88l-98 81l-100 -79l-67 87l166 135h4z" />
    <glyph glyph-name="Kcommaaccent" unicode="&#x136;" horiz-adv-x="692" 
d="M90 0v700h160v-305l229 305h192l-263 -323l284 -377h-203l-239 333v-333h-160zM266 -50l149 29c5 -7 13 -21 13 -48c0 -79 -83 -131 -147 -139l-44 64c34 15 41 35 41 58c0 14 -5 27 -12 36z" />
    <glyph glyph-name="kcommaaccent" unicode="&#x137;" horiz-adv-x="537" 
d="M55 0v700h150v-445l123 195h188l-146 -203l167 -247h-192l-140 215v-215h-150zM173 -50l149 29c5 -7 13 -21 13 -48c0 -79 -83 -131 -147 -139l-44 64c34 15 41 35 41 58c0 14 -5 27 -12 36z" />
    <glyph glyph-name="Lacute" unicode="&#x139;" horiz-adv-x="545" 
d="M90 0v700h160v-550h285v-150h-445zM467 806l-249 -78l-41 89l234 118z" />
    <glyph glyph-name="lacute" unicode="&#x13a;" horiz-adv-x="309" 
d="M55 129v571h150v-514c0 -41 10 -58 25 -58s25 7 39 16l30 -114c-29 -24 -71 -42 -132 -42c-70 0 -112 43 -112 141zM362 806l-249 -78l-41 89l234 118z" />
    <glyph glyph-name="Lcommaaccent" unicode="&#x13b;" horiz-adv-x="545" 
d="M90 0v700h160v-550h285v-150h-445zM226 -50l149 29c5 -7 13 -21 13 -48c0 -79 -83 -131 -147 -139l-44 64c34 15 41 35 41 58c0 14 -5 27 -12 36z" />
    <glyph glyph-name="lcommaaccent" unicode="&#x13c;" horiz-adv-x="309" 
d="M55 129v571h150v-514c0 -41 10 -58 25 -58s25 7 39 16l30 -114c-29 -24 -71 -42 -132 -42c-70 0 -112 43 -112 141zM101 -50l149 29c5 -7 13 -21 13 -48c0 -79 -83 -131 -147 -139l-44 64c34 15 41 35 41 58c0 14 -5 27 -12 36z" />
    <glyph glyph-name="Lcaron" unicode="&#x13d;" horiz-adv-x="545" 
d="M90 0v700h160v-550h285v-150h-445zM356 700h146c4 -10 5 -25 5 -32c0 -106 -61 -165 -113 -194l-70 63c27 31 43 71 43 113c0 21 -4 34 -11 50z" />
    <glyph glyph-name="lcaron" unicode="&#x13e;" horiz-adv-x="309" 
d="M55 129v571h150v-514c0 -41 10 -58 25 -58s25 7 39 16l30 -114c-29 -24 -71 -42 -132 -42c-70 0 -112 43 -112 141zM266 700h146c4 -10 5 -25 5 -32c0 -106 -61 -165 -113 -194l-70 63c27 31 43 71 43 113c0 21 -4 34 -11 50z" />
    <glyph glyph-name="Ldot" unicode="&#x13f;" horiz-adv-x="545" 
d="M90 0v700h160v-550h285v-150h-445zM344 376c0 45 38 94 102 94c56 0 94 -49 94 -94c0 -53 -38 -102 -94 -102c-64 0 -102 49 -102 102z" />
    <glyph glyph-name="ldot" unicode="&#x140;" horiz-adv-x="377" 
d="M55 129v571h150v-514c0 -41 10 -58 25 -58s25 7 39 16l30 -114c-29 -24 -71 -42 -132 -42c-70 0 -112 43 -112 141zM231 350c0 53 42 85 91 85c43 0 85 -32 85 -85c0 -59 -42 -91 -85 -91c-49 0 -91 32 -91 91z" />
    <glyph glyph-name="Lslash" unicode="&#x141;" horiz-adv-x="555" 
d="M20 189v154l80 35v322h160v-251l149 66v-153l-149 -67v-145h285v-150h-445v224z" />
    <glyph glyph-name="lslash" unicode="&#x142;" horiz-adv-x="339" 
d="M10 182v154l65 28v336h150v-270l84 37v-153l-84 -37v-91c0 -41 10 -58 25 -58s25 7 39 16l30 -114c-29 -24 -71 -42 -132 -42c-70 0 -112 43 -112 141v81z" />
    <glyph glyph-name="Nacute" unicode="&#x143;" horiz-adv-x="790" 
d="M700 0h-128l-332 420v-420h-150v700h128l332 -422v422h150v-700zM597 806l-249 -78l-41 89l234 118z" />
    <glyph glyph-name="nacute" unicode="&#x144;" horiz-adv-x="544" 
d="M55 0v450h150v-35c24 23 64 43 111 43c104 0 183 -49 183 -190v-268h-150v242c0 52 -30 76 -74 76c-27 0 -48 -9 -70 -31v-287h-150zM418 649l-131 -146l-89 63l103 172z" />
    <glyph glyph-name="Ncommaaccent" unicode="&#x145;" horiz-adv-x="790" 
d="M700 0h-128l-332 420v-420h-150v700h128l332 -422v422h150v-700zM316 -50l149 29c5 -7 13 -21 13 -48c0 -79 -83 -131 -147 -139l-44 64c34 15 41 35 41 58c0 14 -5 27 -12 36z" />
    <glyph glyph-name="ncommaaccent" unicode="&#x146;" horiz-adv-x="544" 
d="M55 0v450h150v-35c24 23 64 43 111 43c104 0 183 -49 183 -190v-268h-150v242c0 52 -30 76 -74 76c-27 0 -48 -9 -70 -31v-287h-150zM187 -50l149 29c5 -7 13 -21 13 -48c0 -79 -83 -131 -147 -139l-44 64c34 15 41 35 41 58c0 14 -5 27 -12 36z" />
    <glyph glyph-name="Ncaron" unicode="&#x147;" horiz-adv-x="790" 
d="M700 0h-128l-332 420v-420h-150v700h128l332 -422v422h150v-700zM397 733l-184 117l58 85l128 -76l128 76l52 -83l-178 -119h-4z" />
    <glyph glyph-name="ncaron" unicode="&#x148;" horiz-adv-x="544" 
d="M55 0v450h150v-35c24 23 64 43 111 43c104 0 183 -49 183 -190v-268h-150v242c0 52 -30 76 -74 76c-27 0 -48 -9 -70 -31v-287h-150zM269 488l-165 136l70 88l98 -81l100 79l67 -87l-166 -135h-4z" />
    <glyph glyph-name="Omacron" unicode="&#x14c;" horiz-adv-x="824" 
d="M40 350c0 203 149 362 372 362c213 0 372 -139 372 -362c0 -212 -159 -362 -372 -362s-372 139 -372 362zM210 350c0 -120 90 -212 202 -212c133 0 202 94 202 212c0 128 -89 212 -202 212c-116 0 -202 -84 -202 -212zM265 750v120h314v-120h-314z" />
    <glyph glyph-name="omacron" unicode="&#x14d;" horiz-adv-x="560" 
d="M30 225c0 135 96 237 250 237s250 -102 250 -237s-96 -237 -250 -237s-250 102 -250 237zM190 225c0 -57 39 -97 90 -97s90 36 90 97c0 58 -40 97 -90 97c-48 0 -90 -36 -90 -97zM143 520v120h294v-120h-294z" />
    <glyph glyph-name="Ohungarumlaut" unicode="&#x150;" horiz-adv-x="824" 
d="M40 350c0 203 149 362 372 362c213 0 372 -139 372 -362c0 -212 -159 -362 -372 -362s-372 139 -372 362zM210 350c0 -120 90 -212 202 -212c133 0 202 94 202 212c0 128 -89 212 -202 212c-116 0 -202 -84 -202 -212zM695 841l-204 -113l-61 63l159 144zM475 870
l-167 -142l-64 58l101 149z" />
    <glyph glyph-name="ohungarumlaut" unicode="&#x151;" horiz-adv-x="560" 
d="M30 225c0 135 96 237 250 237s250 -102 250 -237s-96 -237 -250 -237s-250 102 -250 237zM190 225c0 -57 39 -97 90 -97s90 36 90 97c0 58 -40 97 -90 97c-48 0 -90 -36 -90 -97zM513 642l-140 -139l-89 63l118 160zM319 660l-116 -157l-89 63l97 174z" />
    <glyph glyph-name="OE" unicode="&#x152;" horiz-adv-x="1034" 
d="M549 0v14c-42 -16 -92 -26 -142 -26c-217 0 -367 144 -367 362c0 201 125 362 366 362c54 0 103 -11 143 -28v16h415v-150h-255v-123h225v-150h-225v-127h265v-150h-425zM422 138c41 0 86 11 127 34v347c-38 23 -77 43 -143 43c-108 0 -196 -74 -196 -212
c0 -124 86 -212 212 -212z" />
    <glyph glyph-name="oe" unicode="&#x153;" horiz-adv-x="828" 
d="M724 145l41 -106c-47 -35 -111 -51 -175 -51c-62 0 -114 16 -154 45c-41 -29 -94 -45 -156 -45c-154 0 -250 102 -250 237s96 237 250 237c63 0 117 -17 158 -47c40 29 92 47 152 47c116 0 218 -84 218 -212c0 -35 -3 -55 -9 -75h-298c14 -43 56 -62 105 -62
c52 0 94 17 118 32zM280 128c32 0 57 11 74 28c-6 21 -8 44 -8 69c0 24 3 48 9 70c-16 14 -40 27 -75 27c-48 0 -90 -36 -90 -97c0 -57 39 -97 90 -97zM585 337c-50 0 -75 -22 -89 -62h162c0 31 -25 62 -73 62z" />
    <glyph glyph-name="Racute" unicode="&#x154;" horiz-adv-x="673" 
d="M250 0h-160v700c39 0 218 2 238 2c191 0 259 -95 259 -224c0 -130 -80 -183 -118 -202l204 -276h-194l-170 245h-59v-245zM320 552c-24 0 -37 -1 -70 -2v-155h58c61 0 109 22 109 81c0 39 -20 76 -97 76zM497 806l-249 -78l-41 89l234 118z" />
    <glyph glyph-name="racute" unicode="&#x155;" horiz-adv-x="368" 
d="M55 0v450h150v-36c18 26 42 44 93 44c37 0 55 -6 70 -17l-53 -140c-22 13 -34 17 -55 17c-30 0 -45 -14 -55 -32v-286h-150zM327 649l-131 -146l-89 63l103 172z" />
    <glyph glyph-name="Rcommaaccent" unicode="&#x156;" horiz-adv-x="673" 
d="M250 0h-160v700c39 0 218 2 238 2c191 0 259 -95 259 -224c0 -130 -80 -183 -118 -202l204 -276h-194l-170 245h-59v-245zM320 552c-24 0 -37 -1 -70 -2v-155h58c61 0 109 22 109 81c0 39 -20 76 -97 76zM256 -50l149 29c5 -7 13 -21 13 -48c0 -79 -83 -131 -147 -139
l-44 64c34 15 41 35 41 58c0 14 -5 27 -12 36z" />
    <glyph glyph-name="rcommaaccent" unicode="&#x157;" horiz-adv-x="368" 
d="M55 0v450h150v-36c18 26 42 44 93 44c37 0 55 -6 70 -17l-53 -140c-22 13 -34 17 -55 17c-30 0 -45 -14 -55 -32v-286h-150zM97 -50l149 29c5 -7 13 -21 13 -48c0 -79 -83 -131 -147 -139l-44 64c34 15 41 35 41 58c0 14 -5 27 -12 36z" />
    <glyph glyph-name="Rcaron" unicode="&#x158;" horiz-adv-x="673" 
d="M250 0h-160v700c39 0 218 2 238 2c191 0 259 -95 259 -224c0 -130 -80 -183 -118 -202l204 -276h-194l-170 245h-59v-245zM320 552c-24 0 -37 -1 -70 -2v-155h58c61 0 109 22 109 81c0 39 -20 76 -97 76zM315 733l-184 117l58 85l128 -76l128 76l52 -83l-178 -119h-4z
" />
    <glyph glyph-name="rcaron" unicode="&#x159;" horiz-adv-x="368" 
d="M55 0v450h150v-36c18 26 42 44 93 44c37 0 55 -6 70 -17l-53 -140c-22 13 -34 17 -55 17c-30 0 -45 -14 -55 -32v-286h-150zM199 488l-165 136l70 88l98 -81l100 79l67 -87l-166 -135h-4z" />
    <glyph glyph-name="Sacute" unicode="&#x15a;" horiz-adv-x="557" 
d="M347 192c0 105 -292 92 -292 318c0 108 86 202 226 202c90 0 162 -30 206 -77l-86 -120c-31 29 -54 47 -106 47c-44 0 -70 -20 -70 -52c0 -116 292 -88 292 -316c0 -122 -105 -206 -240 -206c-94 0 -203 40 -237 115l91 109c40 -51 101 -74 150 -74c42 0 66 21 66 54z
M493 806l-249 -78l-41 89l234 118z" />
    <glyph glyph-name="sacute" unicode="&#x15b;" horiz-adv-x="459" 
d="M279 133c0 48 -238 18 -238 182c0 97 80 147 176 147c101 0 159 -35 189 -61l-56 -106c-26 18 -75 42 -124 42c-22 0 -35 -10 -35 -20c0 -47 238 -17 238 -177c0 -91 -74 -152 -194 -152c-95 0 -184 51 -205 83l71 98c28 -27 99 -56 144 -56c22 0 34 7 34 20zM354 649
l-131 -146l-89 63l103 172z" />
    <glyph glyph-name="Scircumflex" unicode="&#x15c;" horiz-adv-x="557" 
d="M347 192c0 105 -292 92 -292 318c0 108 86 202 226 202c90 0 162 -30 206 -77l-86 -120c-31 29 -54 47 -106 47c-44 0 -70 -20 -70 -52c0 -116 292 -88 292 -316c0 -122 -105 -206 -240 -206c-94 0 -203 40 -237 115l91 109c40 -51 101 -74 150 -74c42 0 66 21 66 54z
M95 806l178 119h4l184 -117l-58 -85l-128 66l-128 -66z" />
    <glyph glyph-name="scircumflex" unicode="&#x15d;" horiz-adv-x="459" 
d="M279 133c0 48 -238 18 -238 182c0 97 80 147 176 147c101 0 159 -35 189 -61l-56 -106c-26 18 -75 42 -124 42c-22 0 -35 -10 -35 -20c0 -47 238 -17 238 -177c0 -91 -74 -152 -194 -152c-95 0 -184 51 -205 83l71 98c28 -27 99 -56 144 -56c22 0 34 7 34 20zM232 706
l165 -136l-70 -88l-98 81l-100 -79l-67 87l166 135h4z" />
    <glyph glyph-name="Scedilla" unicode="&#x15e;" horiz-adv-x="557" 
d="M120 -157l48 74c14 -14 48 -37 74 -37c12 0 22 4 22 13c0 12 -7 17 -25 17h-6v81c-82 10 -164 48 -193 112l91 109c40 -51 101 -74 150 -74c42 0 66 21 66 54c0 105 -292 92 -292 318c0 108 86 202 226 202c90 0 162 -30 206 -77l-86 -120c-31 29 -54 47 -106 47
c-44 0 -70 -20 -70 -52c0 -116 292 -88 292 -316c0 -113 -89 -193 -209 -204v-16c80 -6 116 -36 116 -90c0 -55 -52 -94 -145 -94c-92 0 -138 34 -159 53z" />
    <glyph glyph-name="scedilla" unicode="&#x15f;" horiz-adv-x="459" 
d="M74 -161l44 69c14 -14 42 -28 68 -28c12 0 22 4 22 13c0 12 -7 17 -25 17h-6v84c-71 14 -131 51 -147 77l71 98c28 -27 99 -56 144 -56c22 0 34 7 34 20c0 48 -238 18 -238 182c0 97 80 147 176 147c101 0 159 -35 189 -61l-56 -106c-26 18 -75 42 -124 42
c-22 0 -35 -10 -35 -20c0 -47 238 -17 238 -177c0 -87 -67 -146 -177 -151v-15c67 -6 106 -36 106 -90c0 -55 -50 -94 -151 -94c-76 0 -112 30 -133 49z" />
    <glyph glyph-name="Scaron" unicode="&#x160;" horiz-adv-x="557" 
d="M347 192c0 105 -292 92 -292 318c0 108 86 202 226 202c90 0 162 -30 206 -77l-86 -120c-31 29 -54 47 -106 47c-44 0 -70 -20 -70 -52c0 -116 292 -88 292 -316c0 -122 -105 -206 -240 -206c-94 0 -203 40 -237 115l91 109c40 -51 101 -74 150 -74c42 0 66 21 66 54z
M281 733l-184 117l58 85l128 -76l128 76l52 -83l-178 -119h-4z" />
    <glyph glyph-name="scaron" unicode="&#x161;" horiz-adv-x="459" 
d="M279 133c0 48 -238 18 -238 182c0 97 80 147 176 147c101 0 159 -35 189 -61l-56 -106c-26 18 -75 42 -124 42c-22 0 -35 -10 -35 -20c0 -47 238 -17 238 -177c0 -91 -74 -152 -194 -152c-95 0 -184 51 -205 83l71 98c28 -27 99 -56 144 -56c22 0 34 7 34 20zM226 488
l-165 136l70 88l98 -81l100 79l67 -87l-166 -135h-4z" />
    <glyph glyph-name="Tcedilla" unicode="&#x162;" 
d="M151 -157l48 74c14 -14 48 -37 74 -37c12 0 22 4 22 13c0 12 -7 17 -25 17h-6v90h-44v550h-210v150h580v-150h-210v-550h-41v-26c80 -6 116 -36 116 -90c0 -55 -52 -94 -145 -94c-92 0 -138 34 -159 53z" />
    <glyph glyph-name="tcedilla" unicode="&#x163;" horiz-adv-x="366" 
d="M30 -161l44 69c14 -14 42 -28 68 -28c12 0 22 4 22 13c0 12 -7 17 -25 17h-6v86c-63 20 -88 82 -88 175v404h150v-125h125v-140h-125v-132c0 -27 9 -50 29 -50c32 0 51 14 67 26l45 -115c-27 -23 -72 -45 -128 -50v-15c67 -6 106 -36 106 -90c0 -55 -50 -94 -151 -94
c-76 0 -112 30 -133 49z" />
    <glyph glyph-name="Tcaron" unicode="&#x164;" 
d="M10 550v150h580v-150h-210v-550h-160v550h-210zM294 733l-184 117l58 85l128 -76l128 76l52 -83l-178 -119h-4z" />
    <glyph glyph-name="tcaron" unicode="&#x165;" horiz-adv-x="366" 
d="M45 171v404h150v-125h125v-140h-125v-132c0 -27 9 -50 29 -50c32 0 51 14 67 26l45 -115c-30 -26 -84 -51 -151 -51c-102 0 -140 68 -140 183zM256 700h146c4 -10 5 -25 5 -32c0 -106 -61 -165 -113 -194l-70 63c27 31 43 71 43 113c0 21 -4 34 -11 50z" />
    <glyph glyph-name="Umacron" unicode="&#x16a;" horiz-adv-x="751" 
d="M671 700v-411c0 -214 -136 -301 -286 -301c-180 0 -305 103 -305 308v404h160v-370c0 -109 33 -192 145 -192c97 0 126 71 126 183v379h160zM228 750v120h314v-120h-314z" />
    <glyph glyph-name="umacron" unicode="&#x16b;" horiz-adv-x="530" 
d="M475 450v-450h-150v45c-22 -28 -61 -57 -129 -57c-76 0 -151 55 -151 179v283h150v-251c0 -35 14 -71 58 -71c25 0 49 12 72 41v281h150zM113 520v120h294v-120h-294z" />
    <glyph glyph-name="Ubreve" unicode="&#x16c;" horiz-adv-x="751" 
d="M671 700v-411c0 -214 -136 -301 -286 -301c-180 0 -305 103 -305 308v404h160v-370c0 -109 33 -192 145 -192c97 0 126 71 126 183v379h160zM170 843l64 77c26 -27 67 -60 143 -60c66 0 113 30 140 60l55 -78c-35 -59 -111 -112 -195 -112c-95 0 -174 59 -207 113z" />
    <glyph glyph-name="ubreve" unicode="&#x16d;" horiz-adv-x="530" 
d="M475 450v-450h-150v45c-22 -28 -61 -57 -129 -57c-76 0 -151 55 -151 179v283h150v-251c0 -35 14 -71 58 -71c25 0 49 12 72 41v281h150zM93 607l66 75c21 -23 52 -52 105 -52c49 0 90 26 110 50l51 -72c-28 -42 -73 -98 -167 -98c-92 0 -146 64 -165 97z" />
    <glyph glyph-name="Uring" unicode="&#x16e;" horiz-adv-x="751" 
d="M671 700v-411c0 -214 -136 -301 -286 -301c-180 0 -305 103 -305 308v404h160v-370c0 -109 33 -192 145 -192c97 0 126 71 126 183v379h160zM220 809c0 83 70 118 155 118c89 0 160 -35 160 -118c0 -81 -71 -121 -160 -121c-85 0 -155 40 -155 121zM330 809
c0 -28 20 -41 47 -41s48 13 48 41c0 27 -21 38 -48 38s-47 -11 -47 -38z" />
    <glyph glyph-name="uring" unicode="&#x16f;" horiz-adv-x="530" 
d="M475 450v-450h-150v45c-22 -28 -61 -57 -129 -57c-76 0 -151 55 -151 179v283h150v-251c0 -35 14 -71 58 -71c25 0 49 12 72 41v281h150zM123 611c0 71 57 129 137 129c81 0 139 -58 139 -129c0 -70 -58 -127 -139 -127c-80 0 -137 57 -137 127zM218 613
c0 -27 17 -49 44 -49c26 0 42 22 42 49c0 26 -16 47 -42 47c-27 0 -44 -21 -44 -47z" />
    <glyph glyph-name="Uhungarumlaut" unicode="&#x170;" horiz-adv-x="751" 
d="M671 700v-411c0 -214 -136 -301 -286 -301c-180 0 -305 103 -305 308v404h160v-370c0 -109 33 -192 145 -192c97 0 126 71 126 183v379h160zM645 841l-204 -113l-61 63l159 144zM425 870l-167 -142l-64 58l101 149z" />
    <glyph glyph-name="uhungarumlaut" unicode="&#x171;" horiz-adv-x="530" 
d="M475 450v-450h-150v45c-22 -28 -61 -57 -129 -57c-76 0 -151 55 -151 179v283h150v-251c0 -35 14 -71 58 -71c25 0 49 12 72 41v281h150zM493 642l-140 -139l-89 63l118 160zM299 660l-116 -157l-89 63l97 174z" />
    <glyph glyph-name="Uogonek" unicode="&#x172;" horiz-adv-x="751" 
d="M671 700v-411c0 -163 -79 -252 -183 -286c-39 -19 -64 -38 -64 -57c0 -18 13 -26 30 -26s23 2 40 10l45 -90c-17 -21 -67 -40 -120 -40c-78 0 -145 29 -145 95c0 45 32 73 78 94c-162 12 -272 114 -272 307v404h160v-370c0 -109 33 -192 145 -192c97 0 126 71 126 183
v379h160z" />
    <glyph glyph-name="uogonek" unicode="&#x173;" horiz-adv-x="530" 
d="M446 -70l45 -90c-17 -21 -67 -40 -120 -40c-78 0 -145 29 -145 95c0 52 42 86 99 105v45c-22 -28 -61 -57 -129 -57c-76 0 -151 55 -151 179v283h150v-251c0 -35 14 -71 58 -71c25 0 49 12 72 41v281h150v-450c-58 0 -99 -30 -99 -54c0 -18 13 -26 30 -26s23 2 40 10z
" />
    <glyph glyph-name="Ydieresis" unicode="&#x178;" horiz-adv-x="654" 
d="M654 700l-248 -415v-285h-160v285l-246 415h183l150 -265l148 265h173zM117 837c0 49 44 78 98 78c46 0 91 -29 91 -78c0 -55 -45 -84 -91 -84c-54 0 -98 29 -98 84zM348 837c0 49 45 78 98 78c47 0 91 -29 91 -78c0 -55 -44 -84 -91 -84c-53 0 -98 29 -98 84z" />
    <glyph glyph-name="Zacute" unicode="&#x179;" horiz-adv-x="650" 
d="M60 550v150h540v-112l-347 -438h357v-150h-570v112l346 438h-326zM527 806l-249 -78l-41 89l234 118z" />
    <glyph glyph-name="zacute" unicode="&#x17a;" horiz-adv-x="495" 
d="M55 310v140h400v-110l-207 -200h202v-140h-410v110l206 200h-191zM383 649l-131 -146l-89 63l103 172z" />
    <glyph glyph-name="Zdotaccent" unicode="&#x17b;" horiz-adv-x="650" 
d="M60 550v150h540v-112l-347 -438h357v-150h-570v112l346 438h-326zM234 845c0 56 47 90 101 90c49 0 96 -34 96 -90c0 -62 -47 -96 -96 -96c-54 0 -101 34 -101 96z" />
    <glyph glyph-name="zdotaccent" unicode="&#x17c;" horiz-adv-x="495" 
d="M55 310v140h400v-110l-207 -200h202v-140h-410v110l206 200h-191zM156 605c0 53 42 85 91 85c43 0 85 -32 85 -85c0 -59 -42 -91 -85 -91c-49 0 -91 32 -91 91z" />
    <glyph glyph-name="Zcaron" unicode="&#x17d;" horiz-adv-x="650" 
d="M60 550v150h540v-112l-347 -438h357v-150h-570v112l346 438h-326zM335 733l-184 117l58 85l128 -76l128 76l52 -83l-178 -119h-4z" />
    <glyph glyph-name="zcaron" unicode="&#x17e;" horiz-adv-x="495" 
d="M55 310v140h400v-110l-207 -200h202v-140h-410v110l206 200h-191zM255 488l-165 136l70 88l98 -81l100 79l67 -87l-166 -135h-4z" />
    <glyph glyph-name="longs" unicode="&#x17f;" horiz-adv-x="260" 
d="M55 0v523c0 125 64 189 164 189c54 0 107 -18 131 -44l-50 -114c-12 13 -35 18 -54 18c-20 0 -41 -18 -41 -58v-514h-150z" />
    <glyph glyph-name="uni018F" unicode="&#x18f;" horiz-adv-x="783" 
d="M46 432h523c-31 85 -112 130 -218 130c-50 0 -105 -16 -152 -51l-61 120c47 41 133 81 252 81c203 0 353 -144 353 -362c0 -225 -145 -362 -361 -362c-217 0 -373 162 -336 444zM380 138c96 0 168 41 195 144h-363c10 -74 67 -144 168 -144z" />
    <glyph glyph-name="florin" unicode="&#x192;" 
d="M428 514l-11 -64h89v-140h-113l-59 -343c-21 -110 -54 -175 -154 -175c-53 0 -101 16 -120 34l39 119c16 -9 26 -13 44 -13c21 0 36 22 41 49l57 329h-95v140h119l13 73c25 129 67 189 167 189c54 0 107 -18 131 -44l-50 -114c-12 13 -35 18 -54 18
c-20 0 -37 -18 -44 -58z" />
    <glyph glyph-name="uni01DD" unicode="&#x1dd;" horiz-adv-x="512" 
d="M110 305l-41 106c47 35 111 51 175 51c148 0 238 -95 238 -237c0 -131 -80 -237 -233 -237c-127 0 -229 84 -229 212c0 35 3 55 9 75h304c-14 43 -56 62 -105 62c-52 0 -94 -17 -118 -32zM249 113c50 0 75 22 89 62h-162c0 -31 25 -62 73 -62z" />
    <glyph glyph-name="Scommaaccent" unicode="&#x218;" horiz-adv-x="557" 
d="M347 192c0 105 -292 92 -292 318c0 108 86 202 226 202c90 0 162 -30 206 -77l-86 -120c-31 29 -54 47 -106 47c-44 0 -70 -20 -70 -52c0 -116 292 -88 292 -316c0 -122 -105 -206 -240 -206c-94 0 -203 40 -237 115l91 109c40 -51 101 -74 150 -74c42 0 66 21 66 54z
M212 -50l149 29c5 -7 13 -21 13 -48c0 -79 -83 -131 -147 -139l-44 64c34 15 41 35 41 58c0 14 -5 27 -12 36z" />
    <glyph glyph-name="scommaaccent" unicode="&#x219;" horiz-adv-x="459" 
d="M279 133c0 48 -238 18 -238 182c0 97 80 147 176 147c101 0 159 -35 189 -61l-56 -106c-26 18 -75 42 -124 42c-22 0 -35 -10 -35 -20c0 -47 238 -17 238 -177c0 -91 -74 -152 -194 -152c-95 0 -184 51 -205 83l71 98c28 -27 99 -56 144 -56c22 0 34 7 34 20zM154 -50
l149 29c5 -7 13 -21 13 -48c0 -79 -83 -131 -147 -139l-44 64c34 15 41 35 41 58c0 14 -5 27 -12 36z" />
    <glyph glyph-name="Tcommaaccent" unicode="&#x21a;" 
d="M10 550v150h580v-150h-210v-550h-160v550h-210zM211 -50l149 29c5 -7 13 -21 13 -48c0 -79 -83 -131 -147 -139l-44 64c34 15 41 35 41 58c0 14 -5 27 -12 36z" />
    <glyph glyph-name="tcommaaccent" unicode="&#x21b;" horiz-adv-x="366" 
d="M45 171v404h150v-125h125v-140h-125v-132c0 -27 9 -50 29 -50c32 0 51 14 67 26l45 -115c-30 -26 -84 -51 -151 -51c-102 0 -140 68 -140 183zM86 -50l149 29c5 -7 13 -21 13 -48c0 -79 -83 -131 -147 -139l-44 64c34 15 41 35 41 58c0 14 -5 27 -12 36z" />
    <glyph glyph-name="uni0237" unicode="&#x237;" horiz-adv-x="281" 
d="M226 450v-483c0 -110 -41 -175 -141 -175c-53 0 -101 16 -120 34l39 119c16 -9 26 -13 44 -13c21 0 28 21 28 49v469h150z" />
    <glyph glyph-name="uni0259" unicode="&#x259;" horiz-adv-x="512" 
d="M110 305l-41 106c47 35 111 51 175 51c148 0 238 -95 238 -237c0 -131 -80 -237 -233 -237c-127 0 -229 84 -229 212c0 35 3 55 9 75h304c-14 43 -56 62 -105 62c-52 0 -94 -17 -118 -32zM249 113c50 0 75 22 89 62h-162c0 -31 25 -62 73 -62z" />
    <glyph glyph-name="afii57929" unicode="&#x2bc;" horiz-adv-x="303" 
d="M79 627l126 73c25 -26 38 -70 38 -105c0 -106 -69 -168 -113 -194l-70 63c28 26 43 63 43 98c0 23 -8 49 -24 65z" />
    <glyph glyph-name="circumflex" unicode="&#x2c6;" horiz-adv-x="455" 
d="M230 706l165 -136l-70 -88l-98 81l-100 -79l-67 87l166 135h4z" />
    <glyph glyph-name="caron" unicode="&#x2c7;" horiz-adv-x="455" 
d="M225 488l-165 136l70 88l98 -81l100 79l67 -87l-166 -135h-4z" />
    <glyph glyph-name="breve" unicode="&#x2d8;" horiz-adv-x="452" 
d="M60 607l66 75c21 -23 52 -52 105 -52c49 0 90 26 110 50l51 -72c-28 -42 -73 -98 -167 -98c-92 0 -146 64 -165 97z" />
    <glyph glyph-name="dotaccent" unicode="&#x2d9;" horiz-adv-x="296" 
d="M60 605c0 53 42 85 91 85c43 0 85 -32 85 -85c0 -59 -42 -91 -85 -91c-49 0 -91 32 -91 91z" />
    <glyph glyph-name="ring" unicode="&#x2da;" horiz-adv-x="396" 
d="M60 611c0 71 57 129 137 129c81 0 139 -58 139 -129c0 -70 -58 -127 -139 -127c-80 0 -137 57 -137 127zM155 613c0 -27 17 -49 44 -49c26 0 42 22 42 49c0 26 -16 47 -42 47c-27 0 -44 -21 -44 -47z" />
    <glyph glyph-name="ogonek" unicode="&#x2db;" horiz-adv-x="385" 
d="M280 -70l45 -90c-17 -21 -67 -40 -120 -40c-78 0 -145 29 -145 95c0 93 137 129 249 128v-23c-58 0 -99 -30 -99 -54c0 -18 13 -26 30 -26s23 2 40 10z" />
    <glyph glyph-name="tilde" unicode="&#x2dc;" horiz-adv-x="485" 
d="M120 519l-60 67c38 54 88 78 132 78c47 0 77 -39 118 -39c33 0 42 11 66 27l49 -75c-36 -43 -83 -72 -127 -72s-74 39 -119 39c-20 0 -43 -16 -59 -25z" />
    <glyph glyph-name="hungarumlaut" unicode="&#x2dd;" horiz-adv-x="519" 
d="M459 642l-140 -139l-89 63l118 160zM265 660l-116 -157l-89 63l97 174z" />
    <glyph glyph-name="gravecomb" unicode="&#x300;" horiz-adv-x="0" 
d="M-296 503l-133 144l119 89l103 -170z" />
    <glyph glyph-name="acutecomb" unicode="&#x301;" horiz-adv-x="0" 
d="M-123 649l-131 -146l-89 63l103 172z" />
    <glyph glyph-name="uni0394" unicode="&#x394;" horiz-adv-x="756" 
d="M20 0l303 708h103l310 -708h-716zM371 440l-119 -290h246z" />
    <glyph glyph-name="uni0394" unicode="&#x2206;" horiz-adv-x="756" 
d="M20 0l303 708h103l310 -708h-716zM371 440l-119 -290h246z" />
    <glyph glyph-name="uni03A9" unicode="&#x3a9;" horiz-adv-x="829" 
d="M40 0v150h144c-50 16 -131 111 -131 240c0 203 161 322 362 322c207 0 362 -119 362 -322c0 -141 -85 -223 -132 -240h144v-150h-341v150c102 31 159 127 159 213c0 99 -65 199 -192 199c-135 0 -192 -100 -192 -202c0 -69 53 -183 158 -210v-150h-341z" />
    <glyph glyph-name="uni03A9" unicode="&#x2126;" horiz-adv-x="829" 
d="M40 0v150h144c-50 16 -131 111 -131 240c0 203 161 322 362 322c207 0 362 -119 362 -322c0 -141 -85 -223 -132 -240h144v-150h-341v150c102 31 159 127 159 213c0 99 -65 199 -192 199c-135 0 -192 -100 -192 -202c0 -69 53 -183 158 -210v-150h-341z" />
    <glyph glyph-name="pi" unicode="&#x3c0;" horiz-adv-x="619" 
d="M37 310v140h533v-140h-65v-124c0 -41 10 -58 25 -58s25 7 39 16l30 -114c-29 -24 -71 -42 -132 -42c-70 0 -112 43 -112 141v181h-96v-30c0 -235 -76 -292 -226 -292l-13 146c38 -4 83 12 88 126l2 50h-73z" />
    <glyph glyph-name="afii10023" unicode="&#x401;" horiz-adv-x="575" 
d="M90 0v700h415v-150h-255v-123h225v-150h-225v-127h265v-150h-425zM100 837c0 49 44 78 98 78c46 0 91 -29 91 -78c0 -55 -45 -84 -91 -84c-54 0 -98 29 -98 84zM331 837c0 49 45 78 98 78c47 0 91 -29 91 -78c0 -55 -44 -84 -91 -84c-53 0 -98 29 -98 84z" />
    <glyph glyph-name="afii10051" unicode="&#x402;" horiz-adv-x="767" 
d="M727 203c0 -142 -70 -215 -185 -215c-60 0 -114 26 -132 49l52 122c16 -12 38 -21 58 -21c29 0 47 18 47 62c0 54 -31 73 -82 73c-46 0 -78 -10 -105 -26v-247h-160v550h-210v150h580v-150h-210v-157c30 17 74 30 135 30c115 0 212 -50 212 -220z" />
    <glyph glyph-name="afii10052" unicode="&#x403;" horiz-adv-x="510" 
d="M90 0v700h400v-150h-240v-550h-160zM537 806l-249 -78l-41 89l234 118z" />
    <glyph glyph-name="afii10053" unicode="&#x404;" horiz-adv-x="670" 
d="M489 432v-150h-280c29 -103 124 -144 218 -144c70 0 129 28 165 58l58 -135c-42 -39 -135 -73 -236 -73c-229 0 -374 137 -374 362c0 218 150 362 353 362c119 0 205 -40 252 -81l-71 -120c-47 35 -102 51 -152 51c-106 0 -182 -45 -210 -130h277z" />
    <glyph glyph-name="afii10054" unicode="&#x405;" horiz-adv-x="557" 
d="M347 192c0 105 -292 92 -292 318c0 108 86 202 226 202c90 0 162 -30 206 -77l-86 -120c-31 29 -54 47 -106 47c-44 0 -70 -20 -70 -52c0 -116 292 -88 292 -316c0 -122 -105 -206 -240 -206c-94 0 -203 40 -237 115l91 109c40 -51 101 -74 150 -74c42 0 66 21 66 54z
" />
    <glyph glyph-name="afii10055" unicode="&#x406;" horiz-adv-x="360" 
d="M100 0v700h160v-700h-160z" />
    <glyph glyph-name="afii10056" unicode="&#x407;" horiz-adv-x="360" 
d="M10 837c0 49 38 78 83 78c42 0 80 -29 80 -78c0 -55 -38 -84 -80 -84c-45 0 -83 29 -83 84zM188 837c0 49 38 78 84 78c41 0 79 -29 79 -78c0 -55 -38 -84 -79 -84c-46 0 -84 29 -84 84zM100 0v700h160v-700h-160z" />
    <glyph glyph-name="afii10057" unicode="&#x408;" horiz-adv-x="407" 
d="M317 700v-529c0 -119 -66 -183 -185 -183c-60 0 -114 26 -132 49l52 122c16 -12 38 -21 58 -21c28 0 47 21 47 62v500h160z" />
    <glyph glyph-name="afii10058" unicode="&#x409;" horiz-adv-x="999" 
d="M483 0v550h-154l-15 -132c-42 -369 -130 -445 -294 -418l3 160c58 -10 118 12 146 400l10 140h464v-219c24 3 46 4 61 4c172 0 255 -93 255 -236c0 -152 -104 -251 -289 -251c-72 0 -147 2 -187 2zM690 335c-13 0 -28 -2 -47 -5v-178c17 -2 31 -4 46 -4
c65 0 100 31 100 97c0 62 -40 90 -99 90z" />
    <glyph glyph-name="afii10059" unicode="&#x40a;" horiz-adv-x="1012" 
d="M90 0v700h160v-246h245v246h160v-239c25 3 47 4 62 4c172 0 255 -93 255 -226c0 -140 -104 -241 -289 -241c-58 0 -117 2 -159 2h-29v304h-245v-304h-160zM655 310v-158c18 -2 32 -4 47 -4c65 0 100 31 100 87c0 52 -40 80 -99 80c-13 0 -28 -2 -48 -5z" />
    <glyph glyph-name="afii10060" unicode="&#x40b;" horiz-adv-x="768" 
d="M10 550v150h580v-150h-210v-157c30 17 75 30 133 30c101 0 215 -53 215 -223v-200h-160v152c0 103 -47 121 -98 121c-34 0 -63 -10 -90 -27v-246h-160v550h-210z" />
    <glyph glyph-name="afii10061" unicode="&#x40c;" horiz-adv-x="692" 
d="M90 0v700h160v-305l229 305h192l-263 -323l284 -377h-203l-239 333v-333h-160zM597 806l-249 -78l-41 89l234 118z" />
    <glyph glyph-name="afii10062" unicode="&#x40e;" horiz-adv-x="701" 
d="M691 700l-235 -534c-48 -107 -108 -166 -205 -166c-41 0 -87 16 -106 31l56 136c19 -13 29 -17 49 -17c26 0 43 8 52 28l9 21l-301 501h181l197 -342l142 342h161zM154 880h150c0 -38 18 -50 62 -50c38 0 58 7 58 50h150c2 -97 -83 -160 -208 -160
c-135 0 -212 64 -212 160z" />
    <glyph glyph-name="afii10145" unicode="&#x40f;" horiz-adv-x="735" 
d="M90 0v700h160v-550h235v550h160v-700h-203v-150h-150v150h-202z" />
    <glyph glyph-name="afii10017" unicode="&#x410;" horiz-adv-x="725" 
d="M0 0l291 700h143l291 -700h-171l-58 147h-277l-58 -147h-161zM358 495l-79 -198h157z" />
    <glyph glyph-name="afii10018" unicode="&#x411;" horiz-adv-x="617" 
d="M90 0v700h422v-150h-262v-111c19 4 58 6 80 6c135 0 227 -84 227 -216c0 -146 -97 -234 -272 -234c-92 0 -154 5 -195 5zM317 295c-20 0 -43 -2 -67 -6v-139c26 -3 42 -5 60 -5c66 0 87 33 87 72c0 41 -22 78 -80 78z" />
    <glyph glyph-name="afii10019" unicode="&#x412;" horiz-adv-x="617" 
d="M90 2v696c39 2 136 6 212 6c167 0 235 -77 235 -174c0 -73 -28 -122 -80 -156v-2c51 -19 100 -70 100 -160c0 -147 -114 -216 -266 -216c-67 0 -160 2 -201 6zM312 283h-62v-131c11 -3 24 -6 54 -6c62 0 93 27 93 74c0 44 -33 63 -85 63zM300 554c-20 0 -32 -2 -50 -4
v-127h53c41 0 74 17 74 68c0 42 -38 63 -77 63z" />
    <glyph glyph-name="afii10020" unicode="&#x413;" horiz-adv-x="510" 
d="M90 0v700h400v-150h-240v-550h-160z" />
    <glyph glyph-name="afii10021" unicode="&#x414;" horiz-adv-x="764" 
d="M10 -120v270h75c28 36 91 181 101 410l6 140h457v-550h95v-270h-150v120h-434v-120h-150zM336 432c-11 -121 -51 -251 -75 -282h228v400h-142z" />
    <glyph glyph-name="afii10022" unicode="&#x415;" horiz-adv-x="575" 
d="M90 0v700h415v-150h-255v-123h225v-150h-225v-127h265v-150h-425z" />
    <glyph glyph-name="afii10024" unicode="&#x416;" horiz-adv-x="974" 
d="M254 365l-243 335h184l212 -306v306h160v-306l212 306h184l-243 -334l254 -366h-184l-223 335v-335h-160v335l-223 -335h-184z" />
    <glyph glyph-name="afii10025" unicode="&#x417;" horiz-adv-x="592" 
d="M281 -12c-142 0 -214 70 -251 126l87 109c41 -46 100 -85 157 -85c43 0 98 17 98 74c0 41 -33 71 -109 71h-64v150h60c46 0 86 20 86 64s-32 65 -77 65c-46 0 -87 -21 -124 -73l-92 108c45 65 134 115 237 115c125 0 216 -69 216 -197c0 -50 -25 -107 -88 -149v-3
c83 -26 115 -87 115 -167c0 -129 -126 -208 -251 -208z" />
    <glyph glyph-name="afii10026" unicode="&#x418;" horiz-adv-x="790" 
d="M230 0h-140v700h160v-435l310 435h140v-700h-160v435z" />
    <glyph glyph-name="afii10027" unicode="&#x419;" horiz-adv-x="790" 
d="M230 0h-140v700h160v-435l310 435h140v-700h-160v435zM200 880h150c0 -38 18 -50 62 -50c38 0 58 7 58 50h150c2 -97 -83 -160 -208 -160c-135 0 -212 64 -212 160z" />
    <glyph glyph-name="afii10028" unicode="&#x41a;" horiz-adv-x="692" 
d="M90 0v700h160v-305l229 305h192l-263 -323l284 -377h-203l-239 333v-333h-160z" />
    <glyph glyph-name="afii10029" unicode="&#x41b;" horiz-adv-x="733" 
d="M483 0v550h-154l-15 -132c-42 -369 -130 -445 -294 -418l3 160c58 -10 118 12 146 400l10 140h464v-700h-160z" />
    <glyph glyph-name="afii10030" unicode="&#x41c;" horiz-adv-x="912" 
d="M90 0v700h161l216 -295l204 295h151v-700h-160v446l-195 -273h-23l-194 270v-443h-160z" />
    <glyph glyph-name="afii10031" unicode="&#x41d;" horiz-adv-x="755" 
d="M505 0v282h-255v-282h-160v700h160v-268h255v268h160v-700h-160z" />
    <glyph glyph-name="afii10032" unicode="&#x41e;" horiz-adv-x="824" 
d="M40 350c0 203 149 362 372 362c213 0 372 -139 372 -362c0 -212 -159 -362 -372 -362s-372 139 -372 362zM210 350c0 -120 90 -212 202 -212c133 0 202 94 202 212c0 128 -89 212 -202 212c-116 0 -202 -84 -202 -212z" />
    <glyph glyph-name="afii10033" unicode="&#x41f;" horiz-adv-x="745" 
d="M495 0v550h-245v-550h-160v700h565v-700h-160z" />
    <glyph glyph-name="afii10034" unicode="&#x420;" horiz-adv-x="627" 
d="M250 0h-160v700c39 0 160 2 214 2c213 0 283 -111 283 -232c0 -125 -97 -235 -259 -235c-15 0 -53 0 -78 3v-238zM320 552c-21 0 -37 -1 -70 -2v-160c23 -3 50 -5 73 -5c42 0 94 18 94 86c0 62 -40 81 -97 81z" />
    <glyph glyph-name="afii10035" unicode="&#x421;" horiz-adv-x="655" 
d="M574 189l61 -120c-42 -47 -133 -81 -228 -81c-217 0 -367 144 -367 362c0 201 125 362 366 362c93 0 172 -32 214 -73l-71 -120c-38 23 -77 43 -143 43c-108 0 -196 -74 -196 -212c0 -124 86 -212 212 -212c50 0 105 16 152 51z" />
    <glyph glyph-name="afii10036" unicode="&#x422;" 
d="M10 550v150h580v-150h-210v-550h-160v550h-210z" />
    <glyph glyph-name="afii10037" unicode="&#x423;" horiz-adv-x="701" 
d="M691 700l-235 -534c-48 -107 -108 -166 -205 -166c-41 0 -87 16 -106 31l56 136c19 -13 29 -17 49 -17c26 0 43 8 52 28l9 21l-301 501h181l197 -342l142 342h161z" />
    <glyph glyph-name="afii10038" unicode="&#x424;" horiz-adv-x="844" 
d="M341 -8v94c-187 2 -311 99 -311 274c0 173 127 269 311 274v74h160v-74c182 -4 313 -103 313 -274c0 -174 -127 -272 -313 -274v-94h-160zM644 360c0 66 -36 124 -143 127v-254c105 2 143 45 143 127zM200 360c0 -81 43 -125 141 -127v254c-102 -3 -141 -59 -141 -127z
" />
    <glyph glyph-name="afii10039" unicode="&#x425;" horiz-adv-x="674" 
d="M665 700l-224 -343l233 -357h-188l-150 235l-148 -235h-188l233 357l-222 343h188l142 -225l136 225h188z" />
    <glyph glyph-name="afii10040" unicode="&#x426;" horiz-adv-x="765" 
d="M90 0v700h160v-550h240v550h160v-550h95v-270h-150v120h-505z" />
    <glyph glyph-name="afii10041" unicode="&#x427;" horiz-adv-x="685" 
d="M595 700v-700h-160v268c-29 -23 -80 -41 -150 -41c-101 0 -215 53 -215 223v250h160v-202c0 -103 47 -121 98 -121c40 0 75 14 107 37v286h160z" />
    <glyph glyph-name="afii10042" unicode="&#x428;" horiz-adv-x="1000" 
d="M90 0v700h160v-550h170v550h160v-550h170v550h160v-700h-820z" />
    <glyph glyph-name="afii10043" unicode="&#x429;" horiz-adv-x="1025" 
d="M90 0v700h160v-550h170v550h160v-550h170v550h160v-550h95v-270h-150v120h-765z" />
    <glyph glyph-name="afii10044" unicode="&#x42a;" horiz-adv-x="677" 
d="M10 550v150h300v-219c25 3 47 4 62 4c182 0 265 -93 265 -236c0 -150 -104 -251 -299 -251c-72 0 -147 2 -188 2v550h-140zM358 335c-13 0 -28 -2 -48 -5v-178c18 -2 32 -4 47 -4c65 0 110 26 110 97c0 67 -50 90 -109 90z" />
    <glyph glyph-name="afii10045" unicode="&#x42b;" horiz-adv-x="885" 
d="M635 0v700h160v-700h-160zM298 335c-13 0 -28 -2 -48 -5v-178c18 -2 32 -4 47 -4c65 0 100 31 100 97c0 62 -40 90 -99 90zM250 700v-219c25 3 47 4 62 4c172 0 255 -93 255 -236c0 -150 -104 -251 -289 -251c-72 0 -147 2 -188 2v700h160z" />
    <glyph glyph-name="afii10046" unicode="&#x42c;" horiz-adv-x="617" 
d="M298 335c-13 0 -28 -2 -48 -5v-178c18 -2 32 -4 47 -4c65 0 110 26 110 97c0 67 -50 90 -109 90zM250 700v-219c25 3 47 4 62 4c182 0 265 -93 265 -236c0 -150 -104 -251 -299 -251c-72 0 -147 2 -188 2v700h160z" />
    <glyph glyph-name="afii10047" unicode="&#x42d;" horiz-adv-x="670" 
d="M181 282v150h275c-31 85 -112 130 -218 130c-50 0 -105 -16 -152 -51l-61 120c47 41 133 81 252 81c203 0 353 -144 353 -362c0 -225 -145 -362 -374 -362c-101 0 -194 34 -236 73l68 135c36 -30 95 -58 165 -58c93 0 182 41 209 144h-281z" />
    <glyph glyph-name="afii10048" unicode="&#x42e;" horiz-adv-x="1084" 
d="M90 0v700h160v-268h88c32 162 160 280 344 280c213 0 362 -139 362 -362c0 -212 -149 -362 -362 -362c-173 0 -318 111 -347 294h-85v-282h-160zM500 350c0 -120 85 -212 187 -212c133 0 187 94 187 212c0 128 -74 212 -187 212c-106 0 -187 -84 -187 -212z" />
    <glyph glyph-name="afii10049" unicode="&#x42f;" horiz-adv-x="643" 
d="M393 0v225h-71l-133 -225h-179l164 260c-59 35 -108 96 -108 191c0 132 84 253 301 253c44 0 145 -4 186 -4v-700h-160zM309 375h84v175c-10 2 -47 4 -58 4c-53 0 -99 -34 -99 -92c0 -52 35 -79 73 -87z" />
    <glyph glyph-name="afii10065" unicode="&#x430;" horiz-adv-x="465" 
d="M103 309l-37 109c36 22 104 44 167 44c137 0 187 -69 187 -191v-271h-130v41c-22 -31 -69 -47 -118 -47c-81 0 -142 51 -142 142c0 102 73 149 162 149c40 0 74 -14 88 -25c3 54 -22 77 -62 77c-53 0 -87 -17 -115 -28zM223 119c30 0 48 11 57 23v28
c-14 10 -32 15 -57 15s-43 -12 -43 -34c0 -20 18 -32 43 -32z" />
    <glyph glyph-name="afii10066" unicode="&#x431;" horiz-adv-x="544" 
d="M383 712l78 -124c-64 -68 -132 -52 -208 -92c-45 -24 -71 -63 -78 -119h2c26 34 81 63 138 63c118 0 199 -84 199 -219c0 -126 -92 -233 -240 -233c-157 0 -249 113 -249 289c0 163 41 304 173 362c91 40 138 24 185 73zM185 245c1 -58 28 -117 85 -117s84 40 84 86
s-25 86 -78 86c-42 0 -75 -20 -91 -55z" />
    <glyph glyph-name="afii10067" unicode="&#x432;" horiz-adv-x="511" 
d="M55 0v450c39 1 117 6 193 6c136 0 213 -37 213 -120c0 -56 -42 -92 -79 -98v-2c55 -16 89 -53 89 -101c0 -93 -72 -141 -222 -141c-56 0 -153 6 -194 6zM253 180h-48v-62c11 -1 40 -4 61 -4c28 0 46 15 46 32c0 21 -21 34 -59 34zM262 336c-19 0 -51 -2 -57 -3v-63h50
c23 0 47 9 47 34c0 17 -14 32 -40 32z" />
    <glyph glyph-name="afii10068" unicode="&#x433;" horiz-adv-x="385" 
d="M55 0v450h320v-140h-170v-310h-150z" />
    <glyph glyph-name="afii10069" unicode="&#x434;" horiz-adv-x="574" 
d="M10 -100v240h58c34 45 53 134 58 213l6 97h357v-310h75v-240h-140v100h-274v-100h-140zM270 292c-9 -75 -27 -124 -45 -152h114v170h-67z" />
    <glyph glyph-name="afii10070" unicode="&#x435;" horiz-adv-x="512" 
d="M408 145l41 -106c-47 -35 -111 -51 -175 -51c-148 0 -244 95 -244 237c0 131 96 237 244 237c116 0 218 -84 218 -212c0 -35 -3 -55 -9 -75h-298c14 -43 56 -62 105 -62c52 0 94 17 118 32zM269 337c-50 0 -75 -22 -89 -62h162c0 31 -25 62 -73 62z" />
    <glyph glyph-name="afii10072" unicode="&#x436;" horiz-adv-x="739" 
d="M141 231l-132 219h181l103 -200v200h150v-201l107 201h177l-132 -219l144 -231h-177l-119 213v-213h-150v212l-116 -212h-177z" />
    <glyph glyph-name="afii10073" unicode="&#x437;" horiz-adv-x="479" 
d="M226 -12c-89 0 -173 36 -206 81l76 92c23 -27 76 -53 118 -53c46 0 65 14 65 32c0 19 -15 34 -48 34h-86v100h81c31 0 43 18 43 36c0 20 -20 32 -58 32c-47 0 -89 -30 -115 -52l-62 90c43 52 113 82 206 82c126 0 189 -52 189 -132c0 -43 -32 -81 -82 -97v-2
c62 -14 92 -54 92 -106c0 -84 -84 -137 -213 -137z" />
    <glyph glyph-name="afii10074" unicode="&#x438;" horiz-adv-x="570" 
d="M205 0h-150v450h150v-235l160 235h150v-450h-150v235z" />
    <glyph glyph-name="afii10075" unicode="&#x439;" horiz-adv-x="570" 
d="M205 0h-150v450h150v-235l160 235h150v-450h-150v235zM117 670h130c0 -40 15 -58 42 -58c23 0 38 18 38 58h130c0 -93 -55 -170 -168 -170c-124 0 -172 76 -172 170z" />
    <glyph glyph-name="afii10076" unicode="&#x43a;" horiz-adv-x="533" 
d="M55 0v450h150v-208l122 208h188l-146 -214l168 -236h-194l-138 210v-210h-150z" />
    <glyph glyph-name="afii10077" unicode="&#x43b;" horiz-adv-x="545" 
d="M340 0v300h-79l-2 -20c-23 -234 -76 -292 -226 -292l-13 146c44 -5 87 37 94 176l7 140h369v-450h-150z" />
    <glyph glyph-name="afii10078" unicode="&#x43c;" horiz-adv-x="636" 
d="M55 0v450h135l135 -153l125 153h131v-450h-150v221l-109 -125h-3l-114 125v-221h-150z" />
    <glyph glyph-name="afii10079" unicode="&#x43d;" horiz-adv-x="555" 
d="M350 0v155h-145v-155h-150v450h150v-155h145v155h150v-450h-150z" />
    <glyph glyph-name="afii10080" unicode="&#x43e;" horiz-adv-x="560" 
d="M30 225c0 135 96 237 250 237s250 -102 250 -237s-96 -237 -250 -237s-250 102 -250 237zM190 225c0 -57 39 -97 90 -97s90 36 90 97c0 58 -40 97 -90 97c-48 0 -90 -36 -90 -97z" />
    <glyph glyph-name="afii10081" unicode="&#x43f;" horiz-adv-x="550" 
d="M345 0v310h-140v-310h-150v450h440v-450h-150z" />
    <glyph glyph-name="afii10082" unicode="&#x440;" horiz-adv-x="561" 
d="M55 -200v650h150v-34c25 25 70 46 125 46c121 0 201 -97 201 -230c0 -137 -96 -244 -242 -244c-31 0 -63 5 -84 14v-202h-150zM283 322c-29 0 -53 -12 -78 -40v-137c22 -13 38 -17 70 -17c65 0 96 46 96 101c0 52 -31 93 -88 93z" />
    <glyph glyph-name="afii10083" unicode="&#x441;" horiz-adv-x="485" 
d="M391 178l70 -110c-38 -52 -106 -80 -184 -80c-150 0 -247 95 -247 237c0 131 96 237 238 237c77 0 143 -21 184 -64l-69 -118c-32 32 -62 42 -96 42c-47 0 -97 -33 -97 -97c0 -61 52 -97 99 -97c44 0 75 21 102 50z" />
    <glyph glyph-name="afii10084" unicode="&#x442;" horiz-adv-x="450" 
d="M20 300v150h410v-150h-130v-300h-150v300h-130z" />
    <glyph glyph-name="afii10085" unicode="&#x443;" horiz-adv-x="516" 
d="M516 450l-175 -450c-66 -161 -108 -200 -177 -200c-48 0 -81 20 -107 42l48 113c9 -6 25 -16 43 -16c20 0 34 15 43 37l10 24l-201 450h181l77 -206c8 -21 12 -41 17 -62c2 20 4 40 11 63l59 205h171z" />
    <glyph glyph-name="afii10086" unicode="&#x444;" horiz-adv-x="700" 
d="M275 -200v188h-1c-160 0 -244 103 -244 237c0 122 83 237 243 237h2v238h150v-238h3c160 0 242 -105 242 -237c0 -134 -74 -237 -242 -237h-3v-188h-150zM190 225c0 -57 25 -96 85 -97v194h-3c-67 0 -82 -47 -82 -97zM428 322h-3v-194c61 0 85 39 85 97
c0 50 -22 97 -82 97z" />
    <glyph glyph-name="afii10087" unicode="&#x445;" horiz-adv-x="537" 
d="M517 450l-140 -214l150 -236h-183l-78 142l-83 -142h-173l149 228l-139 222h183l69 -128l72 128h173z" />
    <glyph glyph-name="afii10088" unicode="&#x446;" horiz-adv-x="570" 
d="M55 0v450h150v-310h130v310h150v-310h75v-240h-140v100h-365z" />
    <glyph glyph-name="afii10089" unicode="&#x447;" horiz-adv-x="500" 
d="M445 450v-450h-150v136c-27 -12 -64 -19 -100 -19c-123 0 -165 69 -165 181v152h160v-132c0 -41 19 -61 48 -61c16 0 43 3 57 10v183h150z" />
    <glyph glyph-name="afii10090" unicode="&#x448;" horiz-adv-x="740" 
d="M55 0v450h150v-310h90v310h150v-310h90v310h150v-450h-630z" />
    <glyph glyph-name="afii10091" unicode="&#x449;" horiz-adv-x="770" 
d="M55 0v450h150v-310h90v310h150v-310h90v310h150v-310h75v-240h-140v100h-565z" />
    <glyph glyph-name="afii10092" unicode="&#x44a;" horiz-adv-x="552" 
d="M20 310v140h255v-105h52c158 0 205 -82 205 -162c0 -89 -58 -183 -216 -183h-191v310h-105zM314 225h-39v-95h38c40 0 59 18 59 47s-17 48 -58 48z" />
    <glyph glyph-name="afii10093" unicode="&#x44b;" horiz-adv-x="705" 
d="M55 0v450h150v-105h47c158 0 205 -82 205 -162c0 -89 -58 -183 -216 -183h-186zM500 0v450h150v-450h-150zM239 225h-34v-95h33c40 0 59 18 59 47s-17 48 -58 48z" />
    <glyph glyph-name="afii10094" unicode="&#x44c;" horiz-adv-x="482" 
d="M55 0v450h150v-105h52c158 0 205 -82 205 -162c0 -89 -58 -183 -216 -183h-191zM244 225h-39v-95h38c40 0 59 18 59 47s-17 48 -58 48z" />
    <glyph glyph-name="afii10095" unicode="&#x44d;" horiz-adv-x="496" 
d="M129 177v100h177c-17 40 -55 55 -94 55c-49 0 -81 -16 -120 -40l-61 104c45 46 122 66 178 66c160 0 257 -92 257 -237c0 -131 -86 -237 -248 -237c-94 0 -152 29 -193 72l70 98c19 -17 61 -40 114 -40c52 0 87 17 100 59h-180z" />
    <glyph glyph-name="afii10096" unicode="&#x44e;" horiz-adv-x="785" 
d="M55 0v450h160v-145h61c29 93 111 157 229 157c152 0 250 -102 250 -237s-101 -237 -250 -237c-122 0 -206 68 -232 167h-58v-155h-160zM435 225c0 -59 33 -87 75 -87c43 0 75 29 75 87c0 55 -27 87 -75 87c-43 0 -75 -31 -75 -87z" />
    <glyph glyph-name="afii10097" unicode="&#x44f;" horiz-adv-x="503" 
d="M293 450h155v-450h-150v115h-36l-71 -115h-171l107 148c-32 17 -75 57 -75 133c0 92 69 169 241 169zM212 269c0 -24 26 -44 59 -44h27v95h-29c-36 0 -57 -27 -57 -51z" />
    <glyph glyph-name="afii10071" unicode="&#x451;" horiz-adv-x="512" 
d="M408 145l41 -106c-47 -35 -111 -51 -175 -51c-148 0 -244 95 -244 237c0 131 96 237 244 237c116 0 218 -84 218 -212c0 -35 -3 -55 -9 -75h-298c14 -43 56 -62 105 -62c52 0 94 17 118 32zM269 337c-50 0 -75 -22 -89 -62h162c0 31 -25 62 -73 62zM97 589
c0 51 37 81 82 81c38 0 76 -30 76 -81c0 -56 -38 -86 -76 -86c-45 0 -82 30 -82 86zM290 589c0 51 38 81 82 81c39 0 76 -30 76 -81c0 -56 -37 -86 -76 -86c-44 0 -82 30 -82 86z" />
    <glyph glyph-name="afii10099" unicode="&#x452;" horiz-adv-x="584" 
d="M10 405v120h105v175h150v-175h136v-120h-136v-86c26 23 65 39 111 39c104 0 183 -53 183 -188c0 -190 -81 -309 -158 -370h-158c99 93 165 210 165 333c0 57 -29 85 -71 85c-26 0 -51 -8 -72 -29v-189h-150v405h-105z" />
    <glyph glyph-name="afii10100" unicode="&#x453;" horiz-adv-x="385" 
d="M55 0v450h320v-140h-170v-310h-150zM376 649l-131 -146l-89 63l103 172z" />
    <glyph glyph-name="afii10101" unicode="&#x454;" horiz-adv-x="496" 
d="M367 277v-100h-179c16 -42 57 -59 109 -59c53 0 85 23 104 40l70 -98c-41 -43 -89 -72 -183 -72c-169 0 -258 106 -258 237c0 145 97 237 257 237c56 0 133 -20 178 -66l-61 -104c-31 24 -71 40 -120 40c-39 0 -78 -15 -95 -55h178z" />
    <glyph glyph-name="afii10102" unicode="&#x455;" horiz-adv-x="459" 
d="M279 133c0 48 -238 18 -238 182c0 97 80 147 176 147c101 0 159 -35 189 -61l-56 -106c-26 18 -75 42 -124 42c-22 0 -35 -10 -35 -20c0 -47 238 -17 238 -177c0 -91 -74 -152 -194 -152c-95 0 -184 51 -205 83l71 98c28 -27 99 -56 144 -56c22 0 34 7 34 20z" />
    <glyph glyph-name="afii10103" unicode="&#x456;" horiz-adv-x="286" 
d="M68 0v450h150v-450h-150zM55 605c0 53 42 85 91 85c43 0 85 -32 85 -85c0 -59 -42 -91 -85 -91c-49 0 -91 32 -91 91z" />
    <glyph glyph-name="afii10104" unicode="&#x457;" horiz-adv-x="337" 
d="M15 586c0 44 33 71 74 71c34 0 68 -27 68 -71c0 -48 -34 -75 -68 -75c-41 0 -74 27 -74 75zM180 586c0 44 34 71 74 71c35 0 68 -27 68 -71c0 -48 -33 -75 -68 -75c-40 0 -74 27 -74 75zM93 0v450h150v-450h-150z" />
    <glyph glyph-name="afii10105" unicode="&#x458;" horiz-adv-x="281" 
d="M226 450v-483c0 -110 -41 -175 -141 -175c-53 0 -101 16 -120 34l39 119c16 -9 26 -13 44 -13c21 0 28 21 28 49v469h150zM64 605c0 53 42 85 91 85c43 0 85 -32 85 -85c0 -59 -42 -91 -85 -91c-49 0 -91 32 -91 91z" />
    <glyph glyph-name="afii10106" unicode="&#x459;" horiz-adv-x="743" 
d="M340 0v300h-79l-2 -20c-23 -234 -76 -292 -226 -292l-13 146c44 -5 87 37 94 176l7 140h369v-105h28c158 0 205 -82 205 -162c0 -89 -58 -183 -216 -183h-167zM505 225h-15v-95h14c40 0 59 18 59 47s-17 48 -58 48z" />
    <glyph glyph-name="afii10107" unicode="&#x45a;" horiz-adv-x="753" 
d="M350 0v155h-145v-155h-150v450h150v-155h145v155h150v-105h28c158 0 205 -82 205 -162c0 -89 -58 -183 -216 -183h-167zM515 225h-15v-95h14c40 0 59 18 59 47s-17 48 -58 48z" />
    <glyph glyph-name="afii10108" unicode="&#x45b;" horiz-adv-x="584" 
d="M10 405v120h105v175h150v-175h136v-120h-136v-86c26 23 65 39 111 39c104 0 183 -53 183 -194v-164h-150v145c0 45 -30 73 -72 73c-26 0 -51 -8 -72 -29v-189h-150v405h-105z" />
    <glyph glyph-name="afii10109" unicode="&#x45c;" horiz-adv-x="533" 
d="M55 0v450h150v-208l122 208h188l-146 -214l168 -236h-194l-138 210v-210h-150zM402 649l-131 -146l-89 63l103 172z" />
    <glyph glyph-name="afii10110" unicode="&#x45e;" horiz-adv-x="516" 
d="M516 450l-175 -450c-66 -161 -108 -200 -177 -200c-48 0 -81 20 -107 42l48 113c9 -6 25 -16 43 -16c20 0 34 15 43 37l10 24l-201 450h181l77 -206c8 -21 12 -41 17 -62c2 20 4 40 11 63l59 205h171zM95 670h130c0 -40 15 -58 42 -58c23 0 38 18 38 58h130
c0 -93 -55 -170 -168 -170c-124 0 -172 76 -172 170z" />
    <glyph glyph-name="afii10193" unicode="&#x45f;" horiz-adv-x="540" 
d="M55 0v450h150v-310h130v310h150v-450h-145v-110h-140v110h-145z" />
    <glyph glyph-name="afii10146" unicode="&#x462;" horiz-adv-x="657" 
d="M290 700v-60h137v-150h-137v-49c25 3 47 4 62 4c182 0 265 -73 265 -216c0 -150 -104 -231 -299 -231c-72 0 -147 2 -188 2v490h-110v150h110v60h160zM338 295c-13 0 -28 -2 -48 -5v-138c18 -2 32 -4 47 -4c65 0 110 6 110 77c0 67 -50 70 -109 70z" />
    <glyph glyph-name="afii10194" unicode="&#x463;" horiz-adv-x="527" 
d="M10 330v120h105v250h150v-250h124v-120h-124v-25h37c158 0 205 -62 205 -142c0 -89 -58 -163 -216 -163h-176v330h-105zM289 195h-24v-75h23c40 0 59 8 59 37s-17 38 -58 38z" />
    <glyph glyph-name="afii10147" unicode="&#x472;" horiz-adv-x="824" 
d="M40 350c0 203 149 362 372 362c213 0 372 -139 372 -362c0 -212 -159 -362 -372 -362s-372 139 -372 362zM320 320c-37 0 -74 -23 -98 -43c28 -82 102 -139 190 -139c104 0 169 58 192 140c-31 -14 -64 -24 -91 -24c-80 0 -126 66 -193 66zM524 394c24 0 57 13 79 30
c-27 85 -102 138 -191 138s-160 -49 -189 -130c33 17 68 28 97 28c82 0 126 -66 204 -66z" />
    <glyph glyph-name="afii10195" unicode="&#x473;" horiz-adv-x="580" 
d="M30 225c0 135 96 237 260 237s260 -102 260 -237s-96 -237 -260 -237s-260 102 -260 237zM353 254c15 0 29 3 40 16c-17 53 -63 72 -103 72c-38 0 -83 -16 -102 -66c19 13 37 19 50 19c56 0 85 -41 115 -41zM232 195c-16 0 -28 -4 -44 -20c17 -49 62 -67 102 -67
s85 16 102 67c-19 -15 -40 -21 -58 -21c-54 0 -69 41 -102 41z" />
    <glyph glyph-name="afii10148" unicode="&#x474;" horiz-adv-x="664" 
d="M578 495l-185 -495h-123l-280 700h171l176 -462l112 330c36 105 83 169 235 132l-21 -140c-52 17 -65 -12 -85 -65z" />
    <glyph glyph-name="afii10196" unicode="&#x475;" horiz-adv-x="499" 
d="M411 248l-104 -248h-113l-204 450h178l58 -142c11 -26 24 -69 30 -104c6 34 19 77 29 105l11 30c32 87 71 146 223 109l-21 -140c-52 17 -65 -8 -87 -60z" />
    <glyph glyph-name="afii10050" unicode="&#x490;" horiz-adv-x="510" 
d="M90 0v700h250v110h150v-260h-240v-550h-160z" />
    <glyph glyph-name="afii10098" unicode="&#x491;" horiz-adv-x="385" 
d="M55 0v450h180v90h140v-230h-170v-310h-150z" />
    <glyph glyph-name="uni1E9E" unicode="&#x1e9e;" horiz-adv-x="704" 
d="M484 195c0 60 -100 107 -200 159l130 171c-11 22 -45 37 -78 37c-52 0 -86 -29 -86 -100v-462h-160v449c0 189 103 263 253 263c89 0 198 -50 264 -150l-133 -159c89 -39 180 -121 180 -233c0 -114 -102 -182 -188 -182c-95 0 -151 35 -185 66l68 126
c31 -26 52 -42 81 -42c33 0 54 21 54 57z" />
    <glyph glyph-name="uni2010" unicode="&#x2010;" horiz-adv-x="364" 
d="M50 205v140h264v-140h-264z" />
    <glyph glyph-name="uni2011" unicode="&#x2011;" horiz-adv-x="364" 
d="M50 205v140h264v-140h-264z" />
    <glyph glyph-name="figuredash" unicode="&#x2012;" horiz-adv-x="604" 
d="M80 289v130h444v-130h-444z" />
    <glyph glyph-name="endash" unicode="&#x2013;" horiz-adv-x="604" 
d="M80 205v130h444v-130h-444z" />
    <glyph glyph-name="emdash" unicode="&#x2014;" horiz-adv-x="824" 
d="M80 205v130h664v-130h-664z" />
    <glyph glyph-name="afii00208" unicode="&#x2015;" horiz-adv-x="824" 
d="M80 205v130h664v-130h-664z" />
    <glyph glyph-name="quoteleft" unicode="&#x2018;" horiz-adv-x="243" 
d="M194 549l-126 -73c-25 26 -38 70 -38 105c0 106 69 168 113 194l70 -63c-28 -26 -43 -63 -43 -98c0 -23 8 -49 24 -65z" />
    <glyph glyph-name="quoteright" unicode="&#x2019;" horiz-adv-x="243" 
d="M49 697l126 73c25 -26 38 -70 38 -105c0 -106 -69 -168 -113 -194l-70 63c28 26 43 63 43 98c0 23 -8 49 -24 65z" />
    <glyph glyph-name="quotesinglbase" unicode="&#x201a;" horiz-adv-x="243" 
d="M49 32l126 73c25 -26 38 -70 38 -105c0 -106 -69 -168 -113 -194l-70 63c28 26 43 63 43 98c0 23 -8 49 -24 65z" />
    <glyph glyph-name="quotedblleft" unicode="&#x201c;" horiz-adv-x="423" 
d="M374 549l-126 -73c-25 26 -38 70 -38 105c0 106 69 168 113 194l70 -63c-28 -26 -43 -63 -43 -98c0 -23 8 -49 24 -65zM194 549l-126 -73c-25 26 -38 70 -38 105c0 106 69 168 113 194l70 -63c-28 -26 -43 -63 -43 -98c0 -23 8 -49 24 -65z" />
    <glyph glyph-name="quotedblright" unicode="&#x201d;" horiz-adv-x="423" 
d="M229 697l126 73c25 -26 38 -70 38 -105c0 -106 -69 -168 -113 -194l-70 63c28 26 43 63 43 98c0 23 -8 49 -24 65zM49 697l126 73c25 -26 38 -70 38 -105c0 -106 -69 -168 -113 -194l-70 63c28 26 43 63 43 98c0 23 -8 49 -24 65z" />
    <glyph glyph-name="quotedblbase" unicode="&#x201e;" horiz-adv-x="423" 
d="M229 32l126 73c25 -26 38 -70 38 -105c0 -106 -69 -168 -113 -194l-70 63c28 26 43 63 43 98c0 23 -8 49 -24 65zM49 32l126 73c25 -26 38 -70 38 -105c0 -106 -69 -168 -113 -194l-70 63c28 26 43 63 43 98c0 23 -8 49 -24 65z" />
    <glyph glyph-name="dagger" unicode="&#x2020;" horiz-adv-x="524" 
d="M40 380v130h152v190h140v-190h152v-130h-152v-480h-140v480h-152z" />
    <glyph glyph-name="daggerdbl" unicode="&#x2021;" horiz-adv-x="524" 
d="M40 380v130h152v190h140v-190h152v-130h-152v-130h152v-130h-152v-220h-140v220h-152v130h152v130h-152z" />
    <glyph glyph-name="bullet" unicode="&#x2022;" horiz-adv-x="340" 
d="M20 266c0 82 68 150 149 150c82 0 151 -68 151 -150c0 -81 -69 -150 -151 -150c-81 0 -149 69 -149 150z" />
    <glyph glyph-name="ellipsis" unicode="&#x2026;" horiz-adv-x="876" 
d="M640 96c0 45 38 94 102 94c56 0 94 -49 94 -94c0 -53 -38 -102 -94 -102c-64 0 -102 49 -102 102zM340 96c0 45 38 94 102 94c56 0 94 -49 94 -94c0 -53 -38 -102 -94 -102c-64 0 -102 49 -102 102zM40 96c0 45 38 94 102 94c56 0 94 -49 94 -94c0 -53 -38 -102 -94 -102
c-64 0 -102 49 -102 102z" />
    <glyph glyph-name="perthousand" unicode="&#x2030;" horiz-adv-x="1391" 
d="M939 176c0 114 88 186 211 186s211 -72 211 -186s-88 -188 -211 -188s-211 74 -211 188zM1079 176c0 -43 30 -68 71 -68c43 0 71 25 71 68c0 41 -29 66 -71 66s-71 -25 -71 -66zM180 47l497 665l84 -63l-495 -661zM30 526c0 114 88 186 211 186s211 -72 211 -186
s-88 -188 -211 -188s-211 74 -211 188zM170 526c0 -43 30 -68 71 -68c43 0 71 25 71 68c0 41 -29 66 -71 66s-71 -25 -71 -66zM493 176c0 114 88 186 211 186s211 -72 211 -186s-88 -188 -211 -188s-211 74 -211 188zM633 176c0 -43 30 -68 71 -68c43 0 71 25 71 68
c0 41 -29 66 -71 66s-71 -25 -71 -66z" />
    <glyph glyph-name="guilsinglleft" unicode="&#x2039;" horiz-adv-x="362" 
d="M230 13l-200 235v4l205 235l97 -87l-129 -150l129 -152z" />
    <glyph glyph-name="guilsinglright" unicode="&#x203a;" horiz-adv-x="362" 
d="M332 248l-200 -235l-102 85l129 152l-129 150l97 87l205 -235v-4z" />
    <glyph glyph-name="fraction" unicode="&#x2044;" horiz-adv-x="221" 
d="M-180 47l497 665l84 -63l-495 -661z" />
    <glyph glyph-name="uni2070" unicode="&#x2070;" horiz-adv-x="412" 
d="M30 525c0 99 60 179 176 179s176 -84 176 -179c0 -97 -59 -179 -175 -179s-177 75 -177 179zM170 525c0 -62 20 -69 37 -69c24 0 35 11 35 69c0 59 -13 69 -36 69s-36 -13 -36 -69z" />
    <glyph glyph-name="uni2074" unicode="&#x2074;" horiz-adv-x="393" 
d="M201 350v61h-191v87l141 202h123l-134 -189h61v64h120v-64h52v-100h-52v-61h-120z" />
    <glyph glyph-name="uni2075" unicode="&#x2075;" horiz-adv-x="357" 
d="M51 484l19 216h243v-100h-153l-3 -27c6 3 25 8 47 8c75 0 123 -40 123 -108c0 -85 -65 -130 -162 -130c-78 0 -131 22 -155 57l65 70c13 -12 38 -27 67 -27c37 0 46 7 46 24c0 14 -15 24 -60 24c-25 0 -65 -3 -77 -7z" />
    <glyph glyph-name="uni2076" unicode="&#x2076;" horiz-adv-x="410" 
d="M25 487c0 116 113 219 277 220l25 -88c-86 -7 -133 -35 -162 -68c22 11 56 20 87 20c79 0 133 -41 133 -106c0 -74 -73 -122 -173 -122c-122 0 -187 57 -187 144zM165 468c2 -13 19 -25 48 -25c24 0 32 9 32 19c0 11 -11 19 -33 19c-16 0 -33 -5 -47 -13z" />
    <glyph glyph-name="uni2077" unicode="&#x2077;" horiz-adv-x="346" 
d="M10 590v110h326v-79l-148 -271h-142l140 240h-176z" />
    <glyph glyph-name="uni2078" unicode="&#x2078;" horiz-adv-x="430" 
d="M214 575h4c27 0 32 9 32 16c0 9 -8 16 -36 16c-24 0 -34 -7 -34 -17c0 -8 9 -15 34 -15zM218 485h-4c-26 0 -44 -6 -44 -21c0 -12 7 -21 45 -21c32 0 45 9 45 21c0 14 -17 21 -42 21zM215 343c-109 0 -175 38 -175 98c0 50 25 74 57 88v2c-27 14 -47 34 -47 83
c0 55 67 93 165 93c97 0 165 -38 165 -93c0 -34 -15 -66 -56 -83v-1c37 -10 66 -35 66 -79c0 -70 -65 -108 -175 -108z" />
    <glyph glyph-name="uni2079" unicode="&#x2079;" horiz-adv-x="410" 
d="M385 546c0 -128 -113 -202 -277 -203l-20 91c86 7 151 29 157 65c-22 -20 -56 -30 -87 -30c-79 0 -133 51 -133 110c0 80 73 128 173 128c122 0 187 -57 187 -161zM245 572c-3 24 -19 35 -48 35c-24 0 -32 -9 -32 -19c0 -11 11 -29 33 -29c16 0 33 5 47 13z" />
    <glyph glyph-name="uni207A" unicode="&#x207a;" horiz-adv-x="360" 
d="M40 480v100h89v85h100v-85h91v-100h-91v-86h-100v86h-89z" />
    <glyph glyph-name="uni207B" unicode="&#x207b;" horiz-adv-x="360" 
d="M40 480v100h280v-100h-280z" />
    <glyph glyph-name="uni207C" unicode="&#x207c;" horiz-adv-x="360" 
d="M40 400v100h280v-100h-280zM40 560v100h280v-100h-280z" />
    <glyph glyph-name="uni207D" unicode="&#x207d;" horiz-adv-x="257" 
d="M247 383l-76 -76c-108 52 -141 142 -141 216c0 73 39 155 142 215l68 -74c-51 -34 -80 -68 -80 -141c0 -74 47 -113 87 -140z" />
    <glyph glyph-name="uni207E" unicode="&#x207e;" horiz-adv-x="257" 
d="M10 662l76 76c108 -52 141 -142 141 -216c0 -73 -39 -155 -142 -215l-68 74c51 34 80 68 80 141c0 74 -47 113 -87 140z" />
    <glyph glyph-name="uni2080" unicode="&#x2080;" horiz-adv-x="412" 
d="M30 175c0 99 60 179 176 179s176 -84 176 -179c0 -97 -59 -179 -175 -179s-177 75 -177 179zM170 175c0 -62 20 -69 37 -69c24 0 35 11 35 69c0 59 -13 69 -36 69s-36 -13 -36 -69z" />
    <glyph glyph-name="uni2081" unicode="&#x2081;" horiz-adv-x="285" 
d="M10 268l121 80h94v-348h-130v200l-38 -20z" />
    <glyph glyph-name="uni2082" unicode="&#x2082;" horiz-adv-x="376" 
d="M25 0v94c82 46 172 93 172 127c0 17 -12 23 -26 23c-23 0 -35 -28 -38 -43l-107 39c12 68 65 114 160 114c97 0 150 -45 150 -114c0 -81 -92 -113 -143 -130h158v-110h-326z" />
    <glyph glyph-name="uni2083" unicode="&#x2083;" horiz-adv-x="372" 
d="M181 -7c-74 0 -141 27 -171 78l74 70c11 -18 41 -43 74 -43s44 8 44 18c0 7 -6 15 -45 15h-27v90h25c26 0 36 7 36 18c0 6 -9 13 -29 13c-35 0 -62 -19 -80 -36l-61 71c26 35 75 70 168 70c81 0 142 -35 142 -90c0 -46 -32 -72 -80 -81v-1c61 -3 91 -38 91 -81
c0 -70 -77 -111 -161 -111z" />
    <glyph glyph-name="uni2084" unicode="&#x2084;" horiz-adv-x="393" 
d="M201 0v61h-191v87l141 202h123l-134 -189h61v64h120v-64h52v-100h-52v-61h-120z" />
    <glyph glyph-name="uni2085" unicode="&#x2085;" horiz-adv-x="357" 
d="M51 134l19 216h243v-100h-153l-3 -27c6 3 25 8 47 8c75 0 123 -40 123 -108c0 -85 -65 -130 -162 -130c-78 0 -131 22 -155 57l65 70c13 -12 38 -27 67 -27c37 0 46 7 46 24c0 14 -15 24 -60 24c-25 0 -65 -3 -77 -7z" />
    <glyph glyph-name="uni2086" unicode="&#x2086;" horiz-adv-x="410" 
d="M25 137c0 116 113 219 277 220l25 -88c-86 -7 -133 -35 -162 -68c22 11 56 20 87 20c79 0 133 -41 133 -106c0 -74 -73 -122 -173 -122c-122 0 -187 57 -187 144zM165 118c2 -13 19 -25 48 -25c24 0 32 9 32 19c0 11 -11 19 -33 19c-16 0 -33 -5 -47 -13z" />
    <glyph glyph-name="uni2087" unicode="&#x2087;" horiz-adv-x="346" 
d="M10 240v110h326v-79l-148 -271h-142l140 240h-176z" />
    <glyph glyph-name="uni2088" unicode="&#x2088;" horiz-adv-x="430" 
d="M214 225h4c27 0 32 9 32 16c0 9 -8 16 -36 16c-24 0 -34 -7 -34 -17c0 -8 9 -15 34 -15zM218 135h-4c-26 0 -44 -6 -44 -21c0 -12 7 -21 45 -21c32 0 45 9 45 21c0 14 -17 21 -42 21zM215 -7c-109 0 -175 38 -175 98c0 50 25 74 57 88v2c-27 14 -47 34 -47 83
c0 55 67 93 165 93c97 0 165 -38 165 -93c0 -34 -15 -66 -56 -83v-1c37 -10 66 -35 66 -79c0 -70 -65 -108 -175 -108z" />
    <glyph glyph-name="uni2089" unicode="&#x2089;" horiz-adv-x="410" 
d="M385 196c0 -128 -113 -202 -277 -203l-20 91c86 7 151 29 157 65c-22 -20 -56 -30 -87 -30c-79 0 -133 51 -133 110c0 80 73 128 173 128c122 0 187 -57 187 -161zM245 222c-3 24 -19 35 -48 35c-24 0 -32 -9 -32 -19c0 -11 11 -29 33 -29c16 0 33 5 47 13z" />
    <glyph glyph-name="uni208A" unicode="&#x208a;" horiz-adv-x="360" 
d="M40 130v100h89v85h100v-85h91v-100h-91v-86h-100v86h-89z" />
    <glyph glyph-name="uni208B" unicode="&#x208b;" horiz-adv-x="360" 
d="M40 130v100h280v-100h-280z" />
    <glyph glyph-name="uni208C" unicode="&#x208c;" horiz-adv-x="360" 
d="M40 50v100h280v-100h-280zM40 210v100h280v-100h-280z" />
    <glyph glyph-name="uni208D" unicode="&#x208d;" horiz-adv-x="257" 
d="M247 33l-76 -76c-108 52 -141 142 -141 216c0 73 39 155 142 215l68 -74c-51 -34 -80 -68 -80 -141c0 -74 47 -113 87 -140z" />
    <glyph glyph-name="uni208E" unicode="&#x208e;" horiz-adv-x="257" 
d="M10 312l76 76c108 -52 141 -142 141 -216c0 -73 -39 -155 -142 -215l-68 74c51 34 80 68 80 141c0 74 -47 113 -87 140z" />
    <glyph glyph-name="Euro" unicode="&#x20ac;" 
d="M17 385l46 120h74c49 122 159 207 323 207c48 0 100 -12 130 -28l-57 -137c-19 10 -51 15 -75 15c-48 0 -96 -18 -130 -57h194l-45 -120h-196c-1 -11 -2 -23 -2 -35c0 -9 0 -17 1 -25h178l-40 -120h-89c35 -42 88 -67 147 -67c32 0 62 5 77 12l25 -145
c-24 -7 -60 -17 -115 -17c-155 0 -278 82 -329 217h-115l45 120h46c-1 8 -1 16 -1 25c0 12 0 23 1 35h-93z" />
    <glyph glyph-name="uni20B4" unicode="&#x20b4;" 
d="M63 390v120h279c0 35 -12 52 -50 52c-42 0 -71 -15 -98 -37l-76 113c44 52 114 74 184 74c114 0 190 -67 190 -161c0 -9 -3 -36 -6 -41h51v-120h-123c-23 -26 -35 -42 -54 -60h177v-120h-283c-2 -6 -4 -15 -4 -22c0 -26 22 -50 71 -50c34 0 73 11 116 46l78 -102
c-47 -59 -121 -94 -215 -94c-95 0 -200 62 -200 173c0 12 3 34 8 49h-45v120h130c18 19 31 38 57 60h-187z" />
    <glyph glyph-name="uni20B6" unicode="&#x20b6;" 
d="M7 287v120h90v293c39 0 160 2 214 2c213 0 283 -91 283 -212c0 -125 -97 -203 -259 -203h-78v-60h154v-120h-154v-107h-160v107h-90v120h90v60h-90zM327 552c-21 0 -37 -1 -70 -2v-143h73c42 0 94 10 94 69c0 62 -40 76 -97 76z" />
    <glyph glyph-name="uni20B6" unicode="&#x20cf;" 
d="M7 287v120h90v293c39 0 160 2 214 2c213 0 283 -91 283 -212c0 -125 -97 -203 -259 -203h-78v-60h154v-120h-154v-107h-160v107h-90v120h90v60h-90zM327 552c-21 0 -37 -1 -70 -2v-143h73c42 0 94 10 94 69c0 62 -40 76 -97 76z" />
    <glyph glyph-name="uni20B6" unicode="&#x20ce;" 
d="M7 287v120h90v293c39 0 160 2 214 2c213 0 283 -91 283 -212c0 -125 -97 -203 -259 -203h-78v-60h154v-120h-154v-107h-160v107h-90v120h90v60h-90zM327 552c-21 0 -37 -1 -70 -2v-143h73c42 0 94 10 94 69c0 62 -40 76 -97 76z" />
    <glyph glyph-name="uni20B6" unicode="&#x20cd;" 
d="M7 287v120h90v293c39 0 160 2 214 2c213 0 283 -91 283 -212c0 -125 -97 -203 -259 -203h-78v-60h154v-120h-154v-107h-160v107h-90v120h90v60h-90zM327 552c-21 0 -37 -1 -70 -2v-143h73c42 0 94 10 94 69c0 62 -40 76 -97 76z" />
    <glyph glyph-name="uni20B6" unicode="&#x20cc;" 
d="M7 287v120h90v293c39 0 160 2 214 2c213 0 283 -91 283 -212c0 -125 -97 -203 -259 -203h-78v-60h154v-120h-154v-107h-160v107h-90v120h90v60h-90zM327 552c-21 0 -37 -1 -70 -2v-143h73c42 0 94 10 94 69c0 62 -40 76 -97 76z" />
    <glyph glyph-name="uni20B6" unicode="&#x20cb;" 
d="M7 287v120h90v293c39 0 160 2 214 2c213 0 283 -91 283 -212c0 -125 -97 -203 -259 -203h-78v-60h154v-120h-154v-107h-160v107h-90v120h90v60h-90zM327 552c-21 0 -37 -1 -70 -2v-143h73c42 0 94 10 94 69c0 62 -40 76 -97 76z" />
    <glyph glyph-name="uni20B6" unicode="&#x20ca;" 
d="M7 287v120h90v293c39 0 160 2 214 2c213 0 283 -91 283 -212c0 -125 -97 -203 -259 -203h-78v-60h154v-120h-154v-107h-160v107h-90v120h90v60h-90zM327 552c-21 0 -37 -1 -70 -2v-143h73c42 0 94 10 94 69c0 62 -40 76 -97 76z" />
    <glyph glyph-name="uni20B6" unicode="&#x20c9;" 
d="M7 287v120h90v293c39 0 160 2 214 2c213 0 283 -91 283 -212c0 -125 -97 -203 -259 -203h-78v-60h154v-120h-154v-107h-160v107h-90v120h90v60h-90zM327 552c-21 0 -37 -1 -70 -2v-143h73c42 0 94 10 94 69c0 62 -40 76 -97 76z" />
    <glyph glyph-name="uni20B6" unicode="&#x20c8;" 
d="M7 287v120h90v293c39 0 160 2 214 2c213 0 283 -91 283 -212c0 -125 -97 -203 -259 -203h-78v-60h154v-120h-154v-107h-160v107h-90v120h90v60h-90zM327 552c-21 0 -37 -1 -70 -2v-143h73c42 0 94 10 94 69c0 62 -40 76 -97 76z" />
    <glyph glyph-name="uni20B6" unicode="&#x20c7;" 
d="M7 287v120h90v293c39 0 160 2 214 2c213 0 283 -91 283 -212c0 -125 -97 -203 -259 -203h-78v-60h154v-120h-154v-107h-160v107h-90v120h90v60h-90zM327 552c-21 0 -37 -1 -70 -2v-143h73c42 0 94 10 94 69c0 62 -40 76 -97 76z" />
    <glyph glyph-name="uni20B6" unicode="&#x20c6;" 
d="M7 287v120h90v293c39 0 160 2 214 2c213 0 283 -91 283 -212c0 -125 -97 -203 -259 -203h-78v-60h154v-120h-154v-107h-160v107h-90v120h90v60h-90zM327 552c-21 0 -37 -1 -70 -2v-143h73c42 0 94 10 94 69c0 62 -40 76 -97 76z" />
    <glyph glyph-name="uni20B6" unicode="&#x20c5;" 
d="M7 287v120h90v293c39 0 160 2 214 2c213 0 283 -91 283 -212c0 -125 -97 -203 -259 -203h-78v-60h154v-120h-154v-107h-160v107h-90v120h90v60h-90zM327 552c-21 0 -37 -1 -70 -2v-143h73c42 0 94 10 94 69c0 62 -40 76 -97 76z" />
    <glyph glyph-name="uni20B6" unicode="&#x20c4;" 
d="M7 287v120h90v293c39 0 160 2 214 2c213 0 283 -91 283 -212c0 -125 -97 -203 -259 -203h-78v-60h154v-120h-154v-107h-160v107h-90v120h90v60h-90zM327 552c-21 0 -37 -1 -70 -2v-143h73c42 0 94 10 94 69c0 62 -40 76 -97 76z" />
    <glyph glyph-name="uni20B6" unicode="&#x20c3;" 
d="M7 287v120h90v293c39 0 160 2 214 2c213 0 283 -91 283 -212c0 -125 -97 -203 -259 -203h-78v-60h154v-120h-154v-107h-160v107h-90v120h90v60h-90zM327 552c-21 0 -37 -1 -70 -2v-143h73c42 0 94 10 94 69c0 62 -40 76 -97 76z" />
    <glyph glyph-name="uni20B6" unicode="&#x20c2;" 
d="M7 287v120h90v293c39 0 160 2 214 2c213 0 283 -91 283 -212c0 -125 -97 -203 -259 -203h-78v-60h154v-120h-154v-107h-160v107h-90v120h90v60h-90zM327 552c-21 0 -37 -1 -70 -2v-143h73c42 0 94 10 94 69c0 62 -40 76 -97 76z" />
    <glyph glyph-name="uni20B6" unicode="&#x20c1;" 
d="M7 287v120h90v293c39 0 160 2 214 2c213 0 283 -91 283 -212c0 -125 -97 -203 -259 -203h-78v-60h154v-120h-154v-107h-160v107h-90v120h90v60h-90zM327 552c-21 0 -37 -1 -70 -2v-143h73c42 0 94 10 94 69c0 62 -40 76 -97 76z" />
    <glyph glyph-name="uni20B6" unicode="&#x20c0;" 
d="M7 287v120h90v293c39 0 160 2 214 2c213 0 283 -91 283 -212c0 -125 -97 -203 -259 -203h-78v-60h154v-120h-154v-107h-160v107h-90v120h90v60h-90zM327 552c-21 0 -37 -1 -70 -2v-143h73c42 0 94 10 94 69c0 62 -40 76 -97 76z" />
    <glyph glyph-name="uni20B6" unicode="&#x20bf;" 
d="M7 287v120h90v293c39 0 160 2 214 2c213 0 283 -91 283 -212c0 -125 -97 -203 -259 -203h-78v-60h154v-120h-154v-107h-160v107h-90v120h90v60h-90zM327 552c-21 0 -37 -1 -70 -2v-143h73c42 0 94 10 94 69c0 62 -40 76 -97 76z" />
    <glyph glyph-name="uni20B6" unicode="&#x20be;" 
d="M7 287v120h90v293c39 0 160 2 214 2c213 0 283 -91 283 -212c0 -125 -97 -203 -259 -203h-78v-60h154v-120h-154v-107h-160v107h-90v120h90v60h-90zM327 552c-21 0 -37 -1 -70 -2v-143h73c42 0 94 10 94 69c0 62 -40 76 -97 76z" />
    <glyph glyph-name="uni20B6" unicode="&#x20bd;" 
d="M7 287v120h90v293c39 0 160 2 214 2c213 0 283 -91 283 -212c0 -125 -97 -203 -259 -203h-78v-60h154v-120h-154v-107h-160v107h-90v120h90v60h-90zM327 552c-21 0 -37 -1 -70 -2v-143h73c42 0 94 10 94 69c0 62 -40 76 -97 76z" />
    <glyph glyph-name="uni20B6" unicode="&#x20bc;" 
d="M7 287v120h90v293c39 0 160 2 214 2c213 0 283 -91 283 -212c0 -125 -97 -203 -259 -203h-78v-60h154v-120h-154v-107h-160v107h-90v120h90v60h-90zM327 552c-21 0 -37 -1 -70 -2v-143h73c42 0 94 10 94 69c0 62 -40 76 -97 76z" />
    <glyph glyph-name="uni20B6" unicode="&#x20bb;" 
d="M7 287v120h90v293c39 0 160 2 214 2c213 0 283 -91 283 -212c0 -125 -97 -203 -259 -203h-78v-60h154v-120h-154v-107h-160v107h-90v120h90v60h-90zM327 552c-21 0 -37 -1 -70 -2v-143h73c42 0 94 10 94 69c0 62 -40 76 -97 76z" />
    <glyph glyph-name="uni20B6" unicode="&#x20ba;" 
d="M7 287v120h90v293c39 0 160 2 214 2c213 0 283 -91 283 -212c0 -125 -97 -203 -259 -203h-78v-60h154v-120h-154v-107h-160v107h-90v120h90v60h-90zM327 552c-21 0 -37 -1 -70 -2v-143h73c42 0 94 10 94 69c0 62 -40 76 -97 76z" />
    <glyph glyph-name="uni20B6" unicode="&#x20b9;" 
d="M7 287v120h90v293c39 0 160 2 214 2c213 0 283 -91 283 -212c0 -125 -97 -203 -259 -203h-78v-60h154v-120h-154v-107h-160v107h-90v120h90v60h-90zM327 552c-21 0 -37 -1 -70 -2v-143h73c42 0 94 10 94 69c0 62 -40 76 -97 76z" />
    <glyph glyph-name="uni20B6" unicode="&#x20b7;" 
d="M7 287v120h90v293c39 0 160 2 214 2c213 0 283 -91 283 -212c0 -125 -97 -203 -259 -203h-78v-60h154v-120h-154v-107h-160v107h-90v120h90v60h-90zM327 552c-21 0 -37 -1 -70 -2v-143h73c42 0 94 10 94 69c0 62 -40 76 -97 76z" />
    <glyph glyph-name="afii61352" unicode="&#x2116;" horiz-adv-x="1202" 
d="M680 0h-128l-312 420v-420h-150v700h128l312 -422v422h150v-700zM720 472c0 114 88 186 211 186s211 -72 211 -186s-88 -188 -211 -188s-211 74 -211 188zM860 472c0 -43 30 -68 71 -68c43 0 71 25 71 68c0 41 -29 66 -71 66s-71 -25 -71 -66zM760 106v140h342v-140h-342
z" />
    <glyph glyph-name="trademark" unicode="&#x2122;" horiz-adv-x="884" 
d="M377 385v315h126l106 -77l98 77h122v-315h-141v139l-82 -62h-2l-86 62v-139h-141zM20 565v135h328v-135h-94v-180h-140v180h-94z" />
    <glyph glyph-name="arrowleft" unicode="&#x2190;" horiz-adv-x="643" 
d="M323 556l106 -106l-102 -102h276v-150h-276l102 -102l-106 -106l-283 283z" />
    <glyph glyph-name="arrowup" unicode="&#x2191;" horiz-adv-x="646" 
d="M146 174l-106 106l283 283l283 -283l-106 -106l-102 102v-276h-150v276z" />
    <glyph glyph-name="arrowright" unicode="&#x2192;" horiz-adv-x="643" 
d="M214 450l106 106l283 -283l-283 -283l-106 106l102 102h-276v150h276z" />
    <glyph glyph-name="arrowdown" unicode="&#x2193;" horiz-adv-x="646" 
d="M40 263l106 106l102 -102v276h150v-276l102 102l106 -106l-283 -283z" />
    <glyph glyph-name="partialdiff" unicode="&#x2202;" horiz-adv-x="601" 
d="M30 200c0 140 96 262 256 262c58 0 101 -17 125 -40c0 116 -84 153 -214 156l22 134c221 0 352 -101 352 -299c0 -238 -98 -425 -310 -425c-147 0 -231 97 -231 212zM190 213c0 -45 31 -85 88 -85c67 0 108 66 121 158c-33 27 -69 36 -106 36c-61 0 -103 -48 -103 -109z
" />
    <glyph glyph-name="product" unicode="&#x220f;" horiz-adv-x="885" 
d="M635 -200v750h-385v-750h-160v900h705v-900h-160z" />
    <glyph glyph-name="summation" unicode="&#x2211;" horiz-adv-x="650" 
d="M307 250l-267 338v112h570v-150h-347l228 -300l-238 -300h357v-150h-570v112z" />
    <glyph glyph-name="minus" unicode="&#x2212;" 
d="M63 295v130h474v-130h-474z" />
    <glyph glyph-name="uni2215" unicode="&#x2215;" horiz-adv-x="382" 
d="M-30 -165l327 877l115 -43l-326 -877z" />
    <glyph glyph-name="radical" unicode="&#x221a;" horiz-adv-x="643" 
d="M10 300v150h196l135 -197l114 447h308v-150h-177l-144 -550h-133l-206 300h-93z" />
    <glyph glyph-name="infinity" unicode="&#x221e;" horiz-adv-x="766" 
d="M557 153c-80 0 -134 37 -175 83c-38 -46 -88 -83 -165 -83c-91 0 -177 73 -177 188c0 99 69 190 180 190c74 0 123 -41 163 -89c36 48 85 89 173 89c102 0 170 -81 170 -194c0 -99 -69 -184 -169 -184zM234 283c34 0 57 20 78 49c-26 39 -49 69 -78 69
c-35 0 -54 -25 -54 -60c0 -36 19 -58 54 -58zM530 401c-30 0 -53 -25 -76 -59c26 -34 51 -59 84 -59c26 0 48 23 48 60c0 29 -19 58 -56 58z" />
    <glyph glyph-name="integral" unicode="&#x222b;" horiz-adv-x="320" 
d="M205 0c0 -129 -26 -208 -142 -208c-18 0 -34 2 -50 5c-31 6 -57 17 -70 29l39 119c16 -9 26 -13 44 -13c34 0 29 40 29 78v513c0 125 64 189 164 189c18 0 36 -2 53 -6c33 -7 62 -21 78 -38l-50 -114c-6 6 -14 11 -24 14s-21 4 -30 4c-20 0 -41 -18 -41 -58v-514z" />
    <glyph glyph-name="approxequal" unicode="&#x2248;" 
d="M97 169l-64 96c42 51 102 90 157 90c82 0 156 -66 234 -66c31 0 67 23 85 45l58 -103c-38 -36 -93 -72 -144 -72c-80 0 -156 66 -223 66c-45 0 -82 -35 -103 -56zM97 369l-64 96c42 51 102 90 157 90c82 0 156 -66 234 -66c31 0 67 23 85 45l58 -103
c-38 -36 -93 -72 -144 -72c-80 0 -156 66 -223 66c-45 0 -82 -35 -103 -56z" />
    <glyph glyph-name="notequal" unicode="&#x2260;" 
d="M63 395v130h234l70 187l115 -43l-54 -144h109v-130h-158l-26 -70h184v-130h-233l-77 -207l-116 43l61 164h-109v130h158l27 70h-185z" />
    <glyph glyph-name="lessequal" unicode="&#x2264;" 
d="M40 230v135l490 -269v-142zM530 154l-490 276v64l490 274v-162l-284 -144l284 -146v-162z" />
    <glyph glyph-name="greaterequal" unicode="&#x2265;" 
d="M560 365v-135l-490 -276v142zM560 430l-490 -276v162l284 146l-284 144v162l490 -274v-64z" />
    <glyph glyph-name="lozenge" unicode="&#x25ca;" horiz-adv-x="498" 
d="M187 0l-167 249l168 266h123l167 -255l-168 -260h-123zM171 250l78 -115l78 125l-78 111z" />
    <glyph glyph-name="spade" unicode="&#x2660;" horiz-adv-x="632" 
d="M316 510c105 -66 256 -220 256 -311c0 -51 -35 -104 -117 -104c-63 0 -103 33 -131 72c17 -72 46 -130 107 -167h-230c51 36 85 93 105 164c-28 -38 -68 -69 -129 -69c-82 0 -117 53 -117 105c0 90 151 244 256 310z" />
    <glyph glyph-name="club" unicode="&#x2663;" horiz-adv-x="612" 
d="M177 381c0 71 58 129 129 129s129 -58 129 -129c0 -6 -1 -13 -2 -19c66 -5 119 -61 119 -128c0 -71 -58 -129 -129 -129c-43 0 -81 21 -104 53c17 -63 46 -124 102 -158h-230c46 32 80 95 100 156c-23 -29 -62 -51 -102 -51c-71 0 -129 58 -129 129c0 67 52 123 118 128
c-1 6 -1 13 -1 19z" />
    <glyph glyph-name="heart" unicode="&#x2665;" horiz-adv-x="649" 
d="M325 0c-109 82 -265 259 -265 370c0 64 36 130 121 130c71 0 115 -50 144 -104c28 54 72 104 143 104c85 0 121 -66 121 -129c0 -112 -156 -289 -264 -371z" />
    <glyph glyph-name="diamond" unicode="&#x2666;" horiz-adv-x="583" 
d="M523 249c-85 -85 -160 -175 -232 -268c-70 92 -147 181 -231 268c85 89 160 179 231 269c73 -93 149 -183 232 -269z" />
    <glyph glyph-name="uniF350" unicode="&#xf350;" horiz-adv-x="632" 
d="M0 0l244 525h144l244 -525h-171l-33 75h-234l-33 -75h-161zM312 340l-51 -115h101z" />
    <glyph glyph-name="uniF351" unicode="&#xf351;" horiz-adv-x="557" 
d="M72 0v525h397v-150h-237v-35c11 3 49 4 78 4c119 0 199 -56 199 -167c0 -124 -82 -182 -233 -182c-85 0 -169 5 -204 5zM290 195c-17 0 -42 0 -58 -3v-44c21 -2 38 -3 61 -3c49 0 56 10 56 24c0 18 -12 26 -59 26z" />
    <glyph glyph-name="uniF352" unicode="&#xf352;" horiz-adv-x="555" 
d="M72 2v521c33 2 148 6 217 6c142 0 203 -59 203 -131c0 -48 -18 -95 -66 -120v-1c49 -12 81 -47 81 -112c0 -113 -99 -169 -230 -169c-59 0 -170 2 -205 6zM298 192h-66v-40c5 -3 36 -6 59 -6c39 0 56 8 56 23c0 17 -20 23 -49 23zM287 379c-12 0 -42 -2 -55 -4v-43h56
c24 0 44 3 44 23c0 17 -17 24 -45 24z" />
    <glyph glyph-name="uniF353" unicode="&#xf353;" horiz-adv-x="455" 
d="M72 0v525h363v-150h-203v-375h-160z" />
    <glyph glyph-name="uniF354" unicode="&#xf354;" horiz-adv-x="655" 
d="M7 -85v235h64c24 27 74 133 81 270l5 105h403v-375h81v-235h-150v85h-334v-85h-150zM301 308c-11 -66 -35 -137 -54 -158h153v225h-88z" />
    <glyph glyph-name="uniF355" unicode="&#xf355;" horiz-adv-x="508" 
d="M72 0v525h379v-150h-219v-37h194v-150h-194v-38h228v-150h-388z" />
    <glyph glyph-name="uniF356" unicode="&#xf356;" horiz-adv-x="853" 
d="M198 274l-189 251h194l144 -209v209h160v-209l144 209h193l-188 -248l197 -277h-193l-153 230v-230h-160v230l-153 -230h-194z" />
    <glyph glyph-name="uniF357" unicode="&#xf357;" horiz-adv-x="537" 
d="M261 -12c-134 0 -208 61 -239 103l87 109c33 -31 78 -62 154 -62c43 0 66 6 66 23c0 16 -15 30 -83 30h-79v150h76c35 0 63 4 63 19c0 16 -16 23 -49 23c-44 0 -94 -12 -124 -52l-92 109c38 51 116 93 223 93c110 0 202 -53 202 -154c0 -46 -18 -85 -60 -105v-3
c60 -17 83 -66 83 -126c0 -97 -92 -157 -228 -157z" />
    <glyph glyph-name="uniF358" unicode="&#xf358;" horiz-adv-x="671" 
d="M212 0h-140v525h160v-270l227 270h140v-525h-160v270z" />
    <glyph glyph-name="uniF359" unicode="&#xf359;" horiz-adv-x="671" 
d="M212 0h-140v525h160v-270l227 270h140v-525h-160v270zM156 720h140c0 -30 15 -40 42 -40c23 0 38 10 38 40h140c0 -93 -65 -150 -178 -150c-124 0 -182 56 -182 150z" />
    <glyph glyph-name="uniF35A" unicode="&#xf35a;" horiz-adv-x="617" 
d="M72 0v525h160v-211l159 211h207l-202 -239l221 -286h-217l-168 232v-232h-160z" />
    <glyph glyph-name="uniF35B" unicode="&#xf35b;" horiz-adv-x="625" 
d="M393 0v375h-102l-13 -99c-31 -236 -106 -303 -263 -276l3 154c52 -10 96 11 118 266l9 105h408v-525h-160z" />
    <glyph glyph-name="uniF35C" unicode="&#xf35c;" horiz-adv-x="782" 
d="M72 0v525h161l168 -187l158 187h151v-525h-160v281l-149 -165h-22l-147 162v-278h-160z" />
    <glyph glyph-name="uniF35D" unicode="&#xf35d;" horiz-adv-x="659" 
d="M427 0v193h-195v-193h-160v525h160v-182h195v182h160v-525h-160z" />
    <glyph glyph-name="uniF35E" unicode="&#xf35e;" horiz-adv-x="664" 
d="M31 261c0 152 117 272 301 272c174 0 301 -100 301 -272c0 -162 -127 -273 -301 -273s-301 100 -301 273zM201 261c0 -70 58 -123 131 -123c94 0 131 55 131 123c0 77 -57 122 -131 122c-77 0 -131 -45 -131 -122z" />
    <glyph glyph-name="uniF35F" unicode="&#xf35f;" horiz-adv-x="659" 
d="M427 0v375h-195v-375h-160v525h515v-525h-160z" />
    <glyph glyph-name="uniF360" unicode="&#xf360;" horiz-adv-x="543" 
d="M232 0h-160v525c33 0 143 2 192 2c185 0 248 -87 248 -197c0 -117 -88 -200 -222 -200c-9 0 -40 0 -58 2v-132zM280 377c-16 0 -30 -1 -48 -2v-91c16 -2 37 -4 53 -4c26 0 57 10 57 50c0 36 -22 47 -62 47z" />
    <glyph glyph-name="uniF361" unicode="&#xf361;" horiz-adv-x="557" 
d="M472 170l61 -120c-34 -35 -113 -62 -196 -62c-187 0 -306 109 -306 273c0 142 92 272 306 272c81 0 149 -28 183 -57l-71 -120c-30 11 -58 27 -112 27c-77 0 -136 -34 -136 -122c0 -71 55 -123 151 -123c37 0 81 8 120 32z" />
    <glyph glyph-name="uniF362" unicode="&#xf362;" horiz-adv-x="513" 
d="M9 375v150h495v-150h-168v-375h-160v375h-167z" />
    <glyph glyph-name="uniF363" unicode="&#xf363;" horiz-adv-x="587" 
d="M583 525l-197 -393c-40 -81 -99 -132 -188 -132c-38 0 -70 15 -86 26l56 136c16 -9 22 -12 39 -12c18 0 25 8 28 12l8 12l-236 351h201l117 -193l94 193h164z" />
    <glyph glyph-name="uniF364" unicode="&#xf364;" horiz-adv-x="720" 
d="M279 -6v52c-155 3 -257 84 -257 224c0 139 105 219 257 224v37h160v-37c149 -4 259 -77 259 -224c0 -140 -104 -221 -259 -224v-52h-160zM528 270c0 21 -14 74 -89 78v-156c73 3 89 42 89 78zM192 270c0 -36 21 -75 87 -78v156c-70 -4 -87 -55 -87 -78z" />
    <glyph glyph-name="uniF365" unicode="&#xf365;" horiz-adv-x="577" 
d="M575 525l-183 -257l191 -268h-198l-98 146l-95 -146h-198l190 268l-181 257h198l91 -139l85 139h198z" />
    <glyph glyph-name="uniF366" unicode="&#xf366;" horiz-adv-x="668" 
d="M72 0v525h160v-375h181v375h160v-375h81v-235h-150v85h-432z" />
    <glyph glyph-name="uniF367" unicode="&#xf367;" horiz-adv-x="604" 
d="M532 525v-525h-160v181c-23 -15 -61 -24 -117 -24c-82 0 -194 36 -194 167v201h160v-141c0 -63 30 -77 68 -77c35 0 57 3 83 20v198h160z" />
    <glyph glyph-name="uniF368" unicode="&#xf368;" horiz-adv-x="852" 
d="M72 0v525h160v-375h114v375h160v-375h114v375h160v-525h-708z" />
    <glyph glyph-name="uniF369" unicode="&#xf369;" horiz-adv-x="875" 
d="M72 0v525h160v-375h114v375h160v-375h114v375h160v-375h81v-235h-150v85h-639z" />
    <glyph glyph-name="uniF36A" unicode="&#xf36a;" horiz-adv-x="578" 
d="M10 375v150h270v-142c17 2 31 2 41 2c156 0 226 -74 226 -188s-88 -199 -259 -199c-65 0 -133 2 -168 2v375h-110zM307 235c-8 0 -15 -1 -27 -2v-83c13 -2 27 -2 38 -2c28 0 59 8 59 45c0 34 -29 42 -70 42z" />
    <glyph glyph-name="uniF36B" unicode="&#xf36b;" horiz-adv-x="766" 
d="M534 0v525h160v-525h-160zM260 235c-8 0 -16 0 -28 -1v-84c12 -2 21 -2 28 -2c39 0 60 13 60 45s-27 42 -60 42zM232 525v-142c17 2 33 2 43 2c145 0 215 -74 215 -188s-88 -199 -249 -199c-65 0 -134 2 -169 2v525h160z" />
    <glyph glyph-name="uniF36C" unicode="&#xf36c;" horiz-adv-x="530" 
d="M259 235c-8 0 -15 -1 -27 -1v-84c12 -1 19 -2 26 -2c40 0 71 8 71 45c0 34 -29 42 -70 42zM232 525v-142c17 2 31 2 41 2c155 0 226 -74 226 -188s-89 -199 -260 -199c-65 0 -132 2 -167 2v525h160z" />
    <glyph glyph-name="uniF36D" unicode="&#xf36d;" horiz-adv-x="567" 
d="M150 193v150h201c-24 28 -65 42 -122 42c-71 0 -116 -11 -154 -35l-61 120c39 29 113 65 222 65c170 0 300 -110 300 -274c0 -175 -125 -271 -323 -271c-88 0 -170 28 -201 55l68 135c25 -18 73 -40 154 -40c57 0 105 9 128 53h-212z" />
    <glyph glyph-name="uniF36E" unicode="&#xf36e;" horiz-adv-x="884" 
d="M72 0v525h160v-182h56c29 112 122 192 272 192c185 0 293 -100 293 -272c0 -162 -108 -273 -293 -273c-141 0 -248 73 -275 203h-53v-193h-160zM448 263c0 -70 44 -123 117 -123c86 0 118 55 118 123c0 77 -43 122 -118 122c-70 0 -117 -45 -117 -122z" />
    <glyph glyph-name="uniF36F" unicode="&#xf36f;" horiz-adv-x="584" 
d="M352 0v140h-71l-88 -140h-189l123 179c-43 29 -75 76 -75 144c0 102 69 206 254 206c77 0 171 -4 206 -4v-525h-160zM268 290h84v85c-5 2 -40 4 -61 4c-41 0 -69 -15 -69 -45c0 -27 21 -39 46 -44z" />
    <glyph glyph-name="uniF371" unicode="&#xf371;" horiz-adv-x="508" 
d="M72 0v525h379v-150h-219v-37h194v-150h-194v-38h228v-150h-388zM98 637c0 47 37 75 82 75c36 0 74 -28 74 -75c0 -51 -38 -79 -74 -79c-45 0 -82 28 -82 79zM279 637c0 47 38 75 80 75c39 0 76 -28 76 -75c0 -51 -37 -79 -76 -79c-42 0 -80 28 -80 79z" />
    <glyph glyph-name="uniF372" unicode="&#xf372;" horiz-adv-x="654" 
d="M623 162c0 -113 -59 -172 -161 -172c-55 0 -104 22 -120 43l51 122c14 -9 31 -15 47 -15c15 0 23 2 23 15c0 14 -20 22 -51 22s-55 -8 -76 -17v-160h-160v375h-167v150h495v-150h-168v-60c29 8 59 12 106 12c97 0 181 -45 181 -165z" />
    <glyph glyph-name="uniF373" unicode="&#xf373;" horiz-adv-x="455" 
d="M72 0v525h363v-150h-203v-375h-160zM398 671l-162 -110l-71 83l141 142z" />
    <glyph glyph-name="uniF374" unicode="&#xf374;" horiz-adv-x="567" 
d="M418 339v-150h-207c27 -39 79 -49 137 -49c75 0 124 22 150 40l57 -135c-31 -27 -114 -55 -203 -55c-198 0 -321 101 -321 273c0 167 130 272 301 272c109 0 182 -36 221 -65l-71 -120c-38 24 -106 35 -145 35c-76 0 -114 -14 -132 -46h213z" />
    <glyph glyph-name="uniF375" unicode="&#xf375;" horiz-adv-x="516" 
d="M315 160c0 43 -272 31 -272 211c0 85 58 162 231 162c65 0 169 -35 211 -81l-72 -119c-41 28 -110 50 -145 50c-36 0 -55 -4 -55 -20c0 -37 272 -22 272 -212c0 -96 -90 -163 -227 -163c-83 0 -195 37 -238 98l91 109c31 -29 112 -57 159 -57c32 0 45 9 45 22z" />
    <glyph glyph-name="uniF376" unicode="&#xf376;" horiz-adv-x="314" 
d="M77 0v525h160v-525h-160z" />
    <glyph glyph-name="uniF377" unicode="&#xf377;" horiz-adv-x="347" 
d="M20 636c0 44 33 71 74 71c34 0 68 -27 68 -71c0 -48 -34 -75 -68 -75c-41 0 -74 27 -74 75zM185 636c0 44 34 71 74 71c35 0 68 -27 68 -71c0 -48 -33 -75 -68 -75c-40 0 -74 27 -74 75zM94 0v525h160v-525h-160z" />
    <glyph glyph-name="uniF378" unicode="&#xf378;" horiz-adv-x="357" 
d="M285 525v-390c0 -97 -63 -145 -167 -145c-56 0 -106 23 -121 43l52 122c13 -9 31 -15 46 -15c13 0 30 4 30 24v361h160z" />
    <glyph glyph-name="uniF379" unicode="&#xf379;" horiz-adv-x="841" 
d="M393 0v375h-98l-15 -99c-36 -236 -108 -303 -265 -276l3 160c52 -10 96 5 118 260l9 105h408v-142c16 2 32 2 42 2c145 0 215 -74 215 -188c0 -116 -88 -199 -249 -199c-65 0 -134 2 -168 2zM580 235c-8 0 -16 -1 -27 -2v-82c11 -2 20 -3 27 -3c39 0 60 13 60 45
s-27 42 -60 42z" />
    <glyph glyph-name="uniF37A" unicode="&#xf37a;" horiz-adv-x="868" 
d="M72 0v525h160v-167h187v167h160v-160c17 2 32 2 42 2c145 0 216 -75 216 -178c0 -105 -88 -191 -249 -191c-65 0 -134 2 -169 2v208h-187v-208h-160zM579 215v-64c12 -2 20 -3 28 -3c39 0 60 15 60 36c0 22 -27 34 -60 34c-8 0 -16 -1 -28 -3z" />
    <glyph glyph-name="uniF37B" unicode="&#xf37b;" horiz-adv-x="654" 
d="M9 375v150h495v-150h-168v-74c27 10 65 16 101 16c83 0 186 -35 186 -167v-150h-160v101c0 58 -29 66 -60 66c-27 0 -47 -2 -67 -11v-156h-160v375h-167z" />
    <glyph glyph-name="uniF37C" unicode="&#xf37c;" horiz-adv-x="617" 
d="M72 0v525h160v-211l159 211h207l-202 -239l221 -286h-217l-168 232v-232h-160zM438 671l-162 -110l-71 83l141 142z" />
    <glyph glyph-name="uniF37E" unicode="&#xf37e;" horiz-adv-x="587" 
d="M583 525l-197 -393c-40 -81 -99 -132 -188 -132c-38 0 -70 15 -86 26l56 136c16 -9 22 -12 39 -12c18 0 25 8 28 12l8 12l-236 351h201l117 -193l94 193h164zM115 720h140c0 -30 15 -40 42 -40c23 0 38 10 38 40h140c0 -93 -65 -150 -178 -150c-124 0 -182 56 -182 150z
" />
    <glyph glyph-name="uniF37F" unicode="&#xf37f;" horiz-adv-x="651" 
d="M72 0v525h160v-375h187v375h160v-525h-179v-110h-150v110h-178z" />
    <glyph glyph-name="uniF381" unicode="&#xf381;" horiz-adv-x="540" 
d="M10 364v130h72v31h160v-31h115v-130h-115v-21c17 2 31 2 41 2c155 0 226 -54 226 -168s-89 -179 -260 -179c-65 0 -132 2 -167 2v364h-72zM269 205c-8 0 -15 -1 -27 -1v-64c12 -1 19 -2 26 -2c40 0 71 5 71 35c0 27 -29 32 -70 32z" />
    <glyph glyph-name="uniF389" unicode="&#xf389;" horiz-adv-x="664" 
d="M31 261c0 152 117 272 301 272c174 0 301 -100 301 -272c0 -162 -127 -273 -301 -273s-301 100 -301 273zM261 227c-22 0 -36 -4 -50 -15c19 -44 66 -74 121 -74c28 0 51 4 69 13c-66 5 -101 76 -140 76zM422 291c10 0 23 3 35 10c-16 52 -65 82 -125 82
c-27 0 -51 -6 -71 -16c79 0 111 -76 161 -76z" />
    <glyph glyph-name="uniF38A" unicode="&#xf38a;" horiz-adv-x="556" 
d="M482 340l-138 -338h-124l-233 523h181l120 -306l64 189c38 111 86 143 214 117v-130c-39 3 -64 -6 -84 -55z" />
    <glyph glyph-name="uniF393" unicode="&#xf393;" horiz-adv-x="465" 
d="M72 0v525h223v75h150v-225h-213v-375h-160z" />
    <glyph glyph-name="uniF3CF" unicode="&#xf3cf;" horiz-adv-x="1031" 
d="M582 0h-129l-231 266v-266h-150v525h128l232 -267v267h150v-525zM606 355c0 92 78 149 188 149c111 0 189 -57 189 -149s-78 -151 -189 -151c-110 0 -188 59 -188 151zM746 355c0 -21 18 -31 48 -31c31 0 49 10 49 31c0 19 -18 29 -49 29c-30 0 -48 -10 -48 -29zM642 37
v140h305v-140h-305z" />
    <glyph glyph-name="uniF3D0" unicode="&#xf3d0;" horiz-adv-x="480" 
d="M60 720h140c0 -30 15 -40 42 -40c23 0 38 10 38 40h140c0 -93 -65 -150 -178 -150c-124 0 -182 56 -182 150z" />
    <glyph glyph-name="uniF400" unicode="&#xf400;" horiz-adv-x="0" 
d="M-123 649l-131 -146l-89 63l103 172z" />
    <glyph glyph-name="uniF401" unicode="&#xf401;" horiz-adv-x="0" 
d="M-220 806l-249 -78l-41 89l234 118z" />
    <glyph glyph-name="uniF406" unicode="&#xf406;" horiz-adv-x="522" 
d="M60 843l64 77c26 -27 67 -60 143 -60c66 0 113 30 140 60l55 -78c-35 -59 -111 -112 -195 -112c-95 0 -174 59 -207 113z" />
    <glyph glyph-name="uniF407" unicode="&#xf407;" horiz-adv-x="424" 
d="M60 -157l48 74c14 -14 48 -37 74 -37c12 0 22 4 22 13c0 12 -7 17 -25 17h-6v90h75v-26c80 -6 116 -36 116 -90c0 -55 -52 -94 -145 -94c-92 0 -138 34 -159 53z" />
    <glyph glyph-name="uniF408" unicode="&#xf408;" horiz-adv-x="486" 
d="M60 806l178 119h4l184 -117l-58 -85l-128 66l-128 -66z" />
    <glyph glyph-name="uniF409" unicode="&#xf409;" horiz-adv-x="311" 
d="M89 -50l149 29c5 -7 13 -21 13 -48c0 -79 -83 -131 -147 -139l-44 64c34 15 41 35 41 58c0 14 -5 27 -12 36z" />
    <glyph glyph-name="uniF40A" unicode="&#xf40a;" horiz-adv-x="303" 
d="M79 715l126 73c25 -26 38 -70 38 -105c0 -106 -69 -168 -113 -194l-70 63c28 26 43 63 43 98c0 23 -8 49 -24 65z" />
    <glyph glyph-name="uniF40B" unicode="&#xf40b;" horiz-adv-x="317" 
d="M60 845c0 56 47 90 101 90c49 0 96 -34 96 -90c0 -62 -47 -96 -96 -96c-54 0 -101 34 -101 96z" />
    <glyph glyph-name="uniF40C" unicode="&#xf40c;" horiz-adv-x="435" 
d="M60 809c0 83 70 118 155 118c89 0 160 -35 160 -118c0 -81 -71 -121 -160 -121c-85 0 -155 40 -155 121zM170 809c0 -28 20 -41 47 -41s48 13 48 41c0 27 -21 38 -48 38s-47 -11 -47 -38z" />
    <glyph glyph-name="uniF40D" unicode="&#xf40d;" horiz-adv-x="496" 
d="M106 746l-46 94c30 37 80 63 125 63c60 0 81 -30 135 -30c23 0 53 3 78 30l38 -94c-28 -45 -71 -66 -126 -66c-50 0 -81 30 -138 30c-21 0 -43 -8 -66 -27z" />
    <glyph glyph-name="uniF40E" unicode="&#xf40e;" horiz-adv-x="385" 
d="M280 -70l45 -90c-17 -21 -67 -40 -120 -40c-78 0 -145 29 -145 95c0 93 137 129 249 128v-23c-58 0 -99 -30 -99 -54c0 -18 13 -26 30 -26s23 2 40 10z" />
    <glyph glyph-name="uniF410" unicode="&#xf410;" horiz-adv-x="0" 
d="M-284 728l-249 78l56 129l234 -118z" />
    <glyph glyph-name="uniF416" unicode="&#xf416;" horiz-adv-x="311" 
d="M89 -50l149 29c5 -7 13 -21 13 -48c0 -79 -83 -131 -147 -139l-44 64c34 15 41 35 41 58c0 14 -5 27 -12 36z" />
    <glyph glyph-name="uniF418" unicode="&#xf418;" horiz-adv-x="303" 
d="M79 515l126 73c25 -26 38 -70 38 -105c0 -106 -69 -168 -113 -194l-70 63c28 26 43 63 43 98c0 23 -8 49 -24 65z" />
    <glyph glyph-name="uniF447" unicode="&#xf447;" horiz-adv-x="513" 
d="M114 -161l44 69c14 -14 42 -28 68 -28c12 0 22 4 22 13c0 12 -7 17 -25 17h-6v90h-41v375h-167v150h495v-150h-168v-375h-44v-26c67 -6 106 -36 106 -90c0 -55 -50 -94 -151 -94c-76 0 -112 30 -133 49z" />
    <glyph glyph-name="uniF44E" unicode="&#xf44e;" horiz-adv-x="626" 
d="M38 341h383c-22 32 -72 42 -123 42c-62 0 -86 -11 -124 -35l-61 120c39 29 92 65 201 65c171 0 281 -110 281 -274c0 -175 -125 -271 -291 -271c-182 0 -304 121 -266 353zM302 138c78 0 111 15 125 53h-223c0 -25 37 -53 98 -53z" />
    <glyph glyph-name="uniF639" unicode="&#xf639;" 
d="M58 350c0 218 79 358 242 358s242 -140 242 -358s-77 -358 -240 -358s-244 140 -244 358zM218 350c0 -162 34 -218 84 -218c57 0 80 54 80 218c0 165 -25 218 -82 218c-56 0 -82 -58 -82 -218z" />
    <glyph glyph-name="uniF63A" unicode="&#xf63a;" 
d="M78 0v120c114 112 268 246 268 369c0 50 -24 69 -64 69c-43 0 -62 -33 -77 -75l-125 57c22 99 97 168 220 168c136 0 206 -90 206 -189c0 -197 -182 -339 -234 -379h258v-140h-452z" />
    <glyph glyph-name="uniF63B" unicode="&#xf63b;" 
d="M295 -12c-117 0 -194 53 -231 116l83 111c35 -40 79 -77 138 -77c61 0 88 32 88 68c0 53 -41 77 -119 77h-44v150h40c53 0 96 22 96 70c0 30 -17 59 -64 59c-43 0 -82 -15 -121 -63l-82 108c43 69 118 105 217 105c123 0 210 -69 210 -179c0 -83 -34 -132 -104 -164v-3
c86 -17 131 -82 131 -166c0 -132 -104 -212 -238 -212z" />
    <glyph glyph-name="uniF63C" unicode="&#xf63c;" 
d="M338 0v150h-318v112l250 438h172l-229 -400h125v150h150v-150h82v-150h-82v-150h-150z" />
    <glyph glyph-name="uniF63D" unicode="&#xf63d;" 
d="M117 308l48 392h346v-150h-214l-14 -89h24c121 0 219 -85 219 -228c0 -157 -112 -245 -255 -245c-74 0 -165 34 -207 94l84 115c27 -32 80 -59 127 -59c54 0 91 36 91 88c0 57 -45 100 -129 100c-48 0 -101 -9 -120 -18z" />
    <glyph glyph-name="uniF63E" unicode="&#xf63e;" 
d="M40 248c0 257 197 424 348 464l61 -113c-103 -35 -190 -105 -231 -201c30 28 66 38 123 38c100 0 193 -85 193 -213c0 -156 -121 -235 -236 -235c-156 0 -258 117 -258 260zM200 247c0 -66 36 -109 99 -109c53 0 75 38 75 74c0 48 -29 84 -85 84c-43 0 -71 -23 -89 -49z
" />
    <glyph glyph-name="uniF63F" unicode="&#xf63f;" 
d="M80 550v150h460v-102l-237 -598h-164l222 550h-281z" />
    <glyph glyph-name="uniF640" unicode="&#xf640;" 
d="M295 435h13c47 0 68 34 68 65c0 39 -26 62 -77 62c-52 0 -74 -29 -74 -62c0 -31 21 -65 70 -65zM308 285h-12c-45 0 -88 -24 -88 -74c0 -39 26 -73 92 -73c76 0 94 35 93 73c-1 50 -37 74 -85 74zM301 -12c-146 0 -253 74 -253 193c0 94 50 152 107 177v3
c-46 25 -90 79 -90 166c0 110 104 185 235 185s236 -75 236 -185c0 -68 -37 -134 -100 -165v-3c61 -16 117 -74 117 -165c0 -132 -106 -206 -252 -206z" />
    <glyph glyph-name="uniF641" unicode="&#xf641;" 
d="M555 442c0 -273 -165 -432 -368 -454l-49 119c132 29 206 91 239 185c-30 -28 -66 -38 -109 -38c-114 0 -212 90 -212 218c0 156 126 240 241 240c156 0 258 -107 258 -270zM395 443c0 66 -36 119 -99 119c-53 0 -80 -43 -80 -79c0 -48 34 -89 90 -89c43 0 71 23 89 49z
" />
    <glyph glyph-name="uniF643" unicode="&#xf643;" 
d="M30 250c0 135 96 262 270 262s270 -127 270 -262s-96 -262 -270 -262s-270 127 -270 262zM190 250c0 -64 42 -112 110 -112c74 0 110 48 110 112c0 71 -43 112 -110 112c-66 0 -110 -42 -110 -112z" />
    <glyph glyph-name="uniF644" unicode="&#xf644;" 
d="M105 424l178 84h105v-508h-160v319l-75 -31z" />
    <glyph glyph-name="uniF645" unicode="&#xf645;" 
d="M78 0v110c95 40 258 113 258 193c0 35 -17 60 -51 60c-44 0 -69 -23 -96 -62l-95 98c33 63 111 114 201 114c140 0 201 -80 201 -174s-77 -164 -129 -189h163v-150h-452z" />
    <glyph glyph-name="uniF646" unicode="&#xf646;" 
d="M295 -212c-117 0 -194 53 -231 116l83 111c35 -40 79 -77 138 -77c61 0 88 32 88 68c0 53 -41 77 -119 77h-44v150h40c53 0 96 22 96 70c0 30 -17 59 -64 59c-43 0 -82 -15 -121 -63l-82 108c43 69 118 105 217 105c123 0 210 -69 210 -179c0 -83 -34 -132 -104 -164v-3
c86 -17 131 -82 131 -166c0 -132 -104 -212 -238 -212z" />
    <glyph glyph-name="uniF647" unicode="&#xf647;" 
d="M338 -200v200h-318v112l224 388h172l-203 -350h125v150h150v-150h82v-150h-82v-200h-150z" />
    <glyph glyph-name="uniF648" unicode="&#xf648;" 
d="M117 108l48 392h346v-150h-214l-14 -89h24c121 0 219 -85 219 -228c0 -157 -112 -245 -255 -245c-74 0 -165 34 -207 94l84 115c27 -32 80 -59 127 -59c54 0 91 36 91 88c0 57 -45 100 -129 100c-48 0 -101 -9 -120 -18z" />
    <glyph glyph-name="uniF649" unicode="&#xf649;" 
d="M40 248c0 257 197 424 348 464l61 -113c-103 -35 -190 -105 -231 -201c30 28 66 38 123 38c100 0 193 -85 193 -213c0 -156 -121 -235 -236 -235c-156 0 -258 117 -258 260zM200 247c0 -66 36 -109 99 -109c53 0 75 38 75 74c0 48 -29 84 -85 84c-43 0 -71 -23 -89 -49z
" />
    <glyph glyph-name="uniF64A" unicode="&#xf64a;" 
d="M80 350v150h460v-102l-237 -598h-164l222 550h-281z" />
    <glyph glyph-name="uniF64B" unicode="&#xf64b;" 
d="M295 435h13c47 0 68 34 68 65c0 39 -26 62 -77 62c-52 0 -74 -29 -74 -62c0 -31 21 -65 70 -65zM308 285h-12c-45 0 -88 -24 -88 -74c0 -39 26 -73 92 -73c76 0 94 35 93 73c-1 50 -37 74 -85 74zM301 -12c-146 0 -253 74 -253 193c0 94 50 152 107 177v3
c-46 25 -90 79 -90 166c0 110 104 185 235 185s236 -75 236 -185c0 -68 -37 -134 -100 -165v-3c61 -16 117 -74 117 -165c0 -132 -106 -206 -252 -206z" />
    <glyph glyph-name="uniF64C" unicode="&#xf64c;" 
d="M555 242c0 -273 -165 -432 -368 -454l-49 119c132 29 206 91 239 185c-30 -28 -66 -38 -109 -38c-114 0 -212 90 -212 218c0 156 126 240 241 240c156 0 258 -107 258 -270zM395 243c0 66 -36 119 -99 119c-53 0 -80 -43 -80 -79c0 -48 34 -89 90 -89c43 0 71 23 89 49z
" />
    <glyph glyph-name="uniF66D" unicode="&#xf66d;" horiz-adv-x="632" 
d="M0 0l244 525h144l244 -525h-171l-33 75h-234l-33 -75h-161zM312 340l-51 -115h101zM150 657l66 75c21 -23 52 -52 105 -52c49 0 90 26 110 50l51 -72c-28 -42 -73 -98 -167 -98c-92 0 -146 64 -165 97z" />
    <glyph glyph-name="uniF66E" unicode="&#xf66e;" horiz-adv-x="632" 
d="M0 0l244 525h144l244 -525h-171l-33 75h-234l-33 -75h-161zM312 340l-51 -115h101zM169 570v120h294v-120h-294z" />
    <glyph glyph-name="uniF66F" unicode="&#xf66f;" horiz-adv-x="632" 
d="M579 -70l45 -90c-17 -21 -67 -40 -120 -40c-78 0 -145 29 -145 95c0 53 43 87 101 106l-32 74h-234l-33 -75h-161l244 525h144l244 -525h-33c-53 -3 -90 -31 -90 -54c0 -18 13 -26 30 -26s23 2 40 10zM312 340l-51 -115h101z" />
    <glyph glyph-name="uniF671" unicode="&#xf671;" horiz-adv-x="557" 
d="M472 170l61 -120c-34 -35 -113 -62 -196 -62c-187 0 -306 109 -306 273c0 142 92 272 306 272c81 0 149 -28 183 -57l-71 -120c-30 11 -58 27 -112 27c-77 0 -136 -34 -136 -122c0 -71 55 -123 151 -123c37 0 81 8 120 32zM458 671l-162 -110l-71 83l141 142z" />
    <glyph glyph-name="uniF672" unicode="&#xf672;" horiz-adv-x="557" 
d="M472 170l61 -120c-34 -35 -113 -62 -196 -62c-187 0 -306 109 -306 273c0 142 92 272 306 272c81 0 149 -28 183 -57l-71 -120c-30 11 -58 27 -112 27c-77 0 -136 -34 -136 -122c0 -71 55 -123 151 -123c37 0 81 8 120 32zM314 548l-165 126l70 88l98 -71l100 69l67 -87
l-166 -125h-4z" />
    <glyph glyph-name="uniF673" unicode="&#xf673;" horiz-adv-x="557" 
d="M472 170l61 -120c-34 -35 -113 -62 -196 -62c-187 0 -306 109 -306 273c0 142 92 272 306 272c81 0 149 -28 183 -57l-71 -120c-30 11 -58 27 -112 27c-77 0 -136 -34 -136 -122c0 -71 55 -123 151 -123c37 0 81 8 120 32zM322 756l165 -126l-70 -88l-98 71l-100 -69
l-67 87l166 125h4z" />
    <glyph glyph-name="uniF674" unicode="&#xf674;" horiz-adv-x="557" 
d="M472 170l61 -120c-34 -35 -113 -62 -196 -62c-187 0 -306 109 -306 273c0 142 92 272 306 272c81 0 149 -28 183 -57l-71 -120c-30 11 -58 27 -112 27c-77 0 -136 -34 -136 -122c0 -71 55 -123 151 -123c37 0 81 8 120 32zM223 655c0 53 42 85 91 85c43 0 85 -32 85 -85
c0 -59 -42 -91 -85 -91c-49 0 -91 32 -91 91z" />
    <glyph glyph-name="uniF675" unicode="&#xf675;" horiz-adv-x="634" 
d="M72 0v525h13c28 0 149 2 184 2c238 0 334 -108 334 -262c0 -156 -113 -267 -340 -267c-29 0 -115 2 -175 2h-16zM268 377c-7 0 -24 1 -36 -2v-225c10 -2 12 -2 36 -2c97 0 165 29 165 117c0 85 -66 112 -165 112zM284 548l-165 126l70 88l98 -71l100 69l67 -87l-166 -125
h-4z" />
    <glyph glyph-name="uniF676" unicode="&#xf676;" horiz-adv-x="630" 
d="M9 194v140h58v191h13c28 0 149 2 206 2c217 0 313 -120 313 -262c0 -145 -114 -267 -309 -267c-60 0 -147 2 -206 2h-17v194h-58zM291 377c-18 0 -52 -1 -64 -4v-39h132v-140h-132v-44c10 -1 27 -2 50 -2c90 0 152 34 152 117c0 85 -65 112 -138 112z" />
    <glyph glyph-name="uniF678" unicode="&#xf678;" horiz-adv-x="508" 
d="M72 0v525h379v-150h-219v-37h194v-150h-194v-38h228v-150h-388zM264 548l-165 126l70 88l98 -71l100 69l67 -87l-166 -125h-4z" />
    <glyph glyph-name="uniF679" unicode="&#xf679;" horiz-adv-x="508" 
d="M72 0v525h379v-150h-219v-37h194v-150h-194v-38h228v-150h-388zM173 655c0 53 42 85 91 85c43 0 85 -32 85 -85c0 -59 -42 -91 -85 -91c-49 0 -91 32 -91 91z" />
    <glyph glyph-name="uniF67A" unicode="&#xf67a;" horiz-adv-x="508" 
d="M72 0v525h379v-150h-219v-37h194v-150h-194v-38h228v-150h-388zM112 570v120h294v-120h-294z" />
    <glyph glyph-name="uniF67C" unicode="&#xf67c;" horiz-adv-x="508" 
d="M72 0v525h379v-150h-219v-37h194v-150h-194v-38h228v-150h-9c-53 -3 -90 -31 -90 -54c0 -18 13 -26 30 -26s23 2 40 10l45 -90c-17 -21 -67 -40 -120 -40c-78 0 -145 29 -145 95c0 51 41 85 97 105h-236z" />
    <glyph glyph-name="uniF67D" unicode="&#xf67d;" horiz-adv-x="618" 
d="M315 180v140h264v-257c-53 -46 -149 -75 -223 -75c-211 0 -325 109 -325 273c0 150 115 272 305 272c92 0 149 -24 198 -57l-67 -125c-24 14 -70 32 -112 32c-84 0 -154 -28 -154 -122c0 -76 61 -123 157 -123c28 0 53 5 71 12v30h-114zM159 657l66 75
c21 -23 52 -52 105 -52c49 0 90 26 110 50l51 -72c-28 -42 -73 -98 -167 -98c-92 0 -146 64 -165 97z" />
    <glyph glyph-name="uniF67E" unicode="&#xf67e;" horiz-adv-x="618" 
d="M315 180v140h264v-257c-53 -46 -149 -75 -223 -75c-211 0 -325 109 -325 273c0 150 115 272 305 272c92 0 149 -24 198 -57l-67 -125c-24 14 -70 32 -112 32c-84 0 -154 -28 -154 -122c0 -76 61 -123 157 -123c28 0 53 5 71 12v30h-114zM332 756l165 -126l-70 -88l-98 71
l-100 -69l-67 87l166 125h4z" />
    <glyph glyph-name="uniF67F" unicode="&#xf67f;" horiz-adv-x="618" 
d="M315 180v140h264v-257c-53 -46 -149 -75 -223 -75c-211 0 -325 109 -325 273c0 150 115 272 305 272c92 0 149 -24 198 -57l-67 -125c-24 14 -70 32 -112 32c-84 0 -154 -28 -154 -122c0 -76 61 -123 157 -123c28 0 53 5 71 12v30h-114zM256 -50l149 29
c5 -7 13 -21 13 -48c0 -79 -83 -131 -147 -139l-44 64c34 15 41 35 41 58c0 14 -5 27 -12 36z" />
    <glyph glyph-name="uniF680" unicode="&#xf680;" horiz-adv-x="618" 
d="M315 180v140h264v-257c-53 -46 -149 -75 -223 -75c-211 0 -325 109 -325 273c0 150 115 272 305 272c92 0 149 -24 198 -57l-67 -125c-24 14 -70 32 -112 32c-84 0 -154 -28 -154 -122c0 -76 61 -123 157 -123c28 0 53 5 71 12v30h-114zM243 655c0 53 42 85 91 85
c43 0 85 -32 85 -85c0 -59 -42 -91 -85 -91c-49 0 -91 32 -91 91z" />
    <glyph glyph-name="uniF681" unicode="&#xf681;" horiz-adv-x="659" 
d="M30 363v140h42v22h160v-22h195v22h160v-22h42v-140h-42v-363h-160v193h-195v-193h-160v363h-42zM232 343h195v20h-195v-20z" />
    <glyph glyph-name="uniF682" unicode="&#xf682;" horiz-adv-x="659" 
d="M427 0v193h-195v-193h-160v525h160v-182h195v182h160v-525h-160zM332 756l165 -126l-70 -88l-98 71l-100 -69l-67 87l166 125h4z" />
    <glyph glyph-name="uniF685" unicode="&#xf685;" horiz-adv-x="314" 
d="M77 0v525h160v-525h-160zM10 570v120h294v-120h-294z" />
    <glyph glyph-name="uniF686" unicode="&#xf686;" horiz-adv-x="314" 
d="M197 -70l45 -90c-17 -21 -67 -40 -120 -40c-78 0 -145 29 -145 95c0 52 43 86 100 106v524h160v-525h-20c-53 -3 -90 -31 -90 -54c0 -18 13 -26 30 -26s23 2 40 10z" />
    <glyph glyph-name="uniF688" unicode="&#xf688;" horiz-adv-x="357" 
d="M285 525v-390c0 -97 -63 -145 -167 -145c-56 0 -106 23 -121 43l52 122c13 -9 31 -15 46 -15c13 0 30 4 30 24v361h160zM202 756l165 -126l-70 -88l-98 71l-100 -69l-67 87l166 125h4z" />
    <glyph glyph-name="uniF689" unicode="&#xf689;" horiz-adv-x="617" 
d="M72 0v525h160v-211l159 211h207l-202 -239l221 -286h-217l-168 232v-232h-160zM206 -50l149 29c5 -7 13 -21 13 -48c0 -79 -83 -131 -147 -139l-44 64c34 15 41 35 41 58c0 14 -5 27 -12 36z" />
    <glyph glyph-name="uniF68A" unicode="&#xf68a;" horiz-adv-x="475" 
d="M72 0v525h160v-365h223v-160h-383zM378 671l-162 -110l-71 83l141 142z" />
    <glyph glyph-name="uniF68B" unicode="&#xf68b;" horiz-adv-x="475" 
d="M72 0v525h160v-365h223v-160h-383zM296 525h146c4 -10 5 -25 5 -32c0 -106 -61 -165 -113 -194l-70 63c27 31 43 71 43 113c0 21 -4 34 -11 50z" />
    <glyph glyph-name="uniF68C" unicode="&#xf68c;" horiz-adv-x="475" 
d="M72 0v525h160v-365h223v-160h-383zM196 -50l149 29c5 -7 13 -21 13 -48c0 -79 -83 -131 -147 -139l-44 64c34 15 41 35 41 58c0 14 -5 27 -12 36z" />
    <glyph glyph-name="uniF68D" unicode="&#xf68d;" horiz-adv-x="475" 
d="M72 0v525h160v-365h223v-160h-383zM291 316c0 45 38 94 102 94c56 0 94 -49 94 -94c0 -53 -38 -102 -94 -102c-64 0 -102 49 -102 102z" />
    <glyph glyph-name="uniF68E" unicode="&#xf68e;" horiz-adv-x="671" 
d="M599 0h-129l-248 266v-266h-150v525h128l249 -267v267h150v-525zM488 671l-162 -110l-71 83l141 142z" />
    <glyph glyph-name="uniF68F" unicode="&#xf68f;" horiz-adv-x="671" 
d="M599 0h-129l-248 266v-266h-150v525h128l249 -267v267h150v-525zM333 548l-165 126l70 88l98 -71l100 69l67 -87l-166 -125h-4z" />
    <glyph glyph-name="uniF690" unicode="&#xf690;" horiz-adv-x="671" 
d="M599 0h-129l-248 266v-266h-150v525h128l249 -267v267h150v-525zM256 -50l149 29c5 -7 13 -21 13 -48c0 -79 -83 -131 -147 -139l-44 64c34 15 41 35 41 58c0 14 -5 27 -12 36z" />
    <glyph glyph-name="uniF692" unicode="&#xf692;" horiz-adv-x="664" 
d="M31 261c0 152 117 272 301 272c174 0 301 -100 301 -272c0 -162 -127 -273 -301 -273s-301 100 -301 273zM201 261c0 -70 58 -123 131 -123c94 0 131 55 131 123c0 77 -57 122 -131 122c-77 0 -131 -45 -131 -122zM573 692l-174 -127l-66 54l129 157zM379 710l-129 -145
l-76 51l97 174z" />
    <glyph glyph-name="uniF693" unicode="&#xf693;" horiz-adv-x="664" 
d="M31 261c0 152 117 272 301 272c174 0 301 -100 301 -272c0 -162 -127 -273 -301 -273s-301 100 -301 273zM201 261c0 -70 58 -123 131 -123c94 0 131 55 131 123c0 77 -57 122 -131 122c-77 0 -131 -45 -131 -122zM185 570v120h294v-120h-294z" />
    <glyph glyph-name="uniF695" unicode="&#xf695;" horiz-adv-x="578" 
d="M232 0h-160v525c33 0 130 2 200 2c181 0 242 -77 242 -187c0 -109 -56 -142 -76 -156l130 -184h-203l-90 145h-43v-145zM282 377c-21 0 -40 -1 -50 -2v-80h46c43 0 66 11 66 43c0 12 -11 39 -62 39zM428 671l-162 -110l-71 83l141 142z" />
    <glyph glyph-name="uniF696" unicode="&#xf696;" horiz-adv-x="578" 
d="M232 0h-160v525c33 0 130 2 200 2c181 0 242 -77 242 -187c0 -109 -56 -142 -76 -156l130 -184h-203l-90 145h-43v-145zM282 377c-21 0 -40 -1 -50 -2v-80h46c43 0 66 11 66 43c0 12 -11 39 -62 39zM274 548l-165 126l70 88l98 -71l100 69l67 -87l-166 -125h-4z" />
    <glyph glyph-name="uniF697" unicode="&#xf697;" horiz-adv-x="578" 
d="M232 0h-160v525c33 0 130 2 200 2c181 0 242 -77 242 -187c0 -109 -56 -142 -76 -156l130 -184h-203l-90 145h-43v-145zM282 377c-21 0 -40 -1 -50 -2v-80h46c43 0 66 11 66 43c0 12 -11 39 -62 39zM196 -50l149 29c5 -7 13 -21 13 -48c0 -79 -83 -131 -147 -139l-44 64
c34 15 41 35 41 58c0 14 -5 27 -12 36z" />
    <glyph glyph-name="uniF698" unicode="&#xf698;" horiz-adv-x="516" 
d="M315 160c0 43 -272 31 -272 211c0 85 58 162 231 162c65 0 169 -35 211 -81l-72 -119c-41 28 -110 50 -145 50c-36 0 -55 -4 -55 -20c0 -37 272 -22 272 -212c0 -96 -90 -163 -227 -163c-83 0 -195 37 -238 98l91 109c31 -29 112 -57 159 -57c32 0 45 9 45 22zM418 671
l-162 -110l-71 83l141 142z" />
    <glyph glyph-name="uniF699" unicode="&#xf699;" horiz-adv-x="516" 
d="M114 -161l44 69c14 -14 42 -28 68 -28c12 0 22 4 22 13c0 12 -7 17 -25 17h-6v81c-76 9 -161 43 -197 95l91 109c31 -29 112 -57 159 -57c32 0 45 9 45 22c0 43 -272 31 -272 211c0 85 58 162 231 162c65 0 169 -35 211 -81l-72 -119c-41 28 -110 50 -145 50
c-36 0 -55 -4 -55 -20c0 -37 272 -22 272 -212c0 -88 -76 -151 -193 -161v-16c67 -6 106 -36 106 -90c0 -55 -50 -94 -151 -94c-76 0 -112 30 -133 49z" />
    <glyph glyph-name="uniF69A" unicode="&#xf69a;" horiz-adv-x="516" 
d="M315 160c0 43 -272 31 -272 211c0 85 58 162 231 162c65 0 169 -35 211 -81l-72 -119c-41 28 -110 50 -145 50c-36 0 -55 -4 -55 -20c0 -37 272 -22 272 -212c0 -96 -90 -163 -227 -163c-83 0 -195 37 -238 98l91 109c31 -29 112 -57 159 -57c32 0 45 9 45 22zM262 756
l165 -126l-70 -88l-98 71l-100 -69l-67 87l166 125h4z" />
    <glyph glyph-name="uniF69B" unicode="&#xf69b;" horiz-adv-x="516" 
d="M315 160c0 43 -272 31 -272 211c0 85 58 162 231 162c65 0 169 -35 211 -81l-72 -119c-41 28 -110 50 -145 50c-36 0 -55 -4 -55 -20c0 -37 272 -22 272 -212c0 -96 -90 -163 -227 -163c-83 0 -195 37 -238 98l91 109c31 -29 112 -57 159 -57c32 0 45 9 45 22zM186 -50
l149 29c5 -7 13 -21 13 -48c0 -79 -83 -131 -147 -139l-44 64c34 15 41 35 41 58c0 14 -5 27 -12 36z" />
    <glyph glyph-name="uniF69D" unicode="&#xf69d;" horiz-adv-x="513" 
d="M9 375v150h495v-150h-168v-375h-160v375h-167zM254 548l-165 126l70 88l98 -71l100 69l67 -87l-166 -125h-4z" />
    <glyph glyph-name="uniF69E" unicode="&#xf69e;" horiz-adv-x="513" 
d="M9 375v150h495v-150h-168v-375h-160v375h-167zM176 -50l149 29c5 -7 13 -21 13 -48c0 -79 -83 -131 -147 -139l-44 64c34 15 41 35 41 58c0 14 -5 27 -12 36z" />
    <glyph glyph-name="uniF69F" unicode="&#xf69f;" horiz-adv-x="638" 
d="M575 525v-310c0 -160 -118 -226 -248 -226c-157 0 -264 78 -264 231v305h160v-270c0 -58 15 -116 104 -116c77 0 88 49 88 108v278h160zM153 657l66 75c21 -23 52 -52 105 -52c49 0 90 26 110 50l51 -72c-28 -42 -73 -98 -167 -98c-92 0 -146 64 -165 97z" />
    <glyph glyph-name="uniF6A0" unicode="&#xf6a0;" horiz-adv-x="638" 
d="M575 525v-310c0 -160 -118 -226 -248 -226c-157 0 -264 78 -264 231v305h160v-270c0 -58 15 -116 104 -116c77 0 88 49 88 108v278h160zM563 692l-174 -127l-66 54l129 157zM369 710l-129 -145l-76 51l97 174z" />
    <glyph glyph-name="uniF6A1" unicode="&#xf6a1;" horiz-adv-x="638" 
d="M575 525v-310c0 -160 -118 -226 -248 -226c-157 0 -264 78 -264 231v305h160v-270c0 -58 15 -116 104 -116c77 0 88 49 88 108v278h160zM172 570v120h294v-120h-294z" />
    <glyph glyph-name="uniF6A2" unicode="&#xf6a2;" horiz-adv-x="638" 
d="M575 525v-310c0 -109 -55 -174 -130 -205c-38 -24 -55 -46 -55 -64s13 -26 30 -26s23 2 40 10l45 -90c-17 -21 -67 -40 -120 -40c-78 0 -145 29 -145 95c0 48 36 73 86 94c-156 0 -263 78 -263 231v305h160v-270c0 -58 15 -116 104 -116c77 0 88 49 88 108v278h160z" />
    <glyph glyph-name="uniF6A3" unicode="&#xf6a3;" horiz-adv-x="638" 
d="M575 525v-310c0 -160 -118 -226 -248 -226c-157 0 -264 78 -264 231v305h160v-270c0 -58 15 -116 104 -116c77 0 88 49 88 108v278h160zM181 652c0 71 57 129 137 129c81 0 139 -58 139 -129c0 -70 -58 -127 -139 -127c-80 0 -137 57 -137 127zM276 654
c0 -27 17 -49 44 -49c26 0 42 22 42 49c0 26 -16 47 -42 47c-27 0 -44 -21 -44 -47z" />
    <glyph glyph-name="uniF6AB" unicode="&#xf6ab;" horiz-adv-x="557" 
d="M51 375v150h464v-113l-249 -262h257v-150h-489v113l248 262h-231zM428 671l-162 -110l-71 83l141 142z" />
    <glyph glyph-name="uniF6AC" unicode="&#xf6ac;" horiz-adv-x="557" 
d="M51 375v150h464v-113l-249 -262h257v-150h-489v113l248 262h-231zM190 655c0 53 42 85 91 85c43 0 85 -32 85 -85c0 -59 -42 -91 -85 -91c-49 0 -91 32 -91 91z" />
    <glyph glyph-name="uniF6AD" unicode="&#xf6ad;" horiz-adv-x="314" 
d="M77 0v525h160v-525h-160zM69 655c0 53 42 85 91 85c43 0 85 -32 85 -85c0 -59 -42 -91 -85 -91c-49 0 -91 32 -91 91z" />
    <glyph glyph-name="uniF6BA" unicode="&#xf6ba;" horiz-adv-x="364" 
d="M50 284v140h264v-140h-264z" />
    <glyph glyph-name="uniF6BB" unicode="&#xf6bb;" horiz-adv-x="604" 
d="M80 289v130h444v-130h-444z" />
    <glyph glyph-name="uniF6BC" unicode="&#xf6bc;" horiz-adv-x="824" 
d="M80 289v130h664v-130h-664z" />
    <glyph glyph-name="uniF6C3" unicode="&#xf6c3;" horiz-adv-x="311" 
d="M89 -50l149 29c5 -7 13 -21 13 -48c0 -79 -83 -131 -147 -139l-44 64c34 15 41 35 41 58c0 14 -5 27 -12 36z" />
    <glyph glyph-name="uniF6C9" unicode="&#xf6c9;" horiz-adv-x="410" 
d="M350 806l-249 -78l-41 89l234 118z" />
    <glyph glyph-name="uniF6CA" unicode="&#xf6ca;" horiz-adv-x="486" 
d="M244 733l-184 117l58 85l128 -76l128 76l52 -83l-178 -119h-4z" />
    <glyph glyph-name="uniF6CB" unicode="&#xf6cb;" horiz-adv-x="540" 
d="M60 837c0 49 44 78 98 78c46 0 91 -29 91 -78c0 -55 -45 -84 -91 -84c-54 0 -98 29 -98 84zM291 837c0 49 45 78 98 78c47 0 91 -29 91 -78c0 -55 -44 -84 -91 -84c-53 0 -98 29 -98 84z" />
    <glyph glyph-name="uniF6CE" unicode="&#xf6ce;" horiz-adv-x="410" 
d="M309 728l-249 78l56 129l234 -118z" />
    <glyph glyph-name="uniF6CF" unicode="&#xf6cf;" horiz-adv-x="571" 
d="M511 841l-204 -113l-61 63l159 144zM291 870l-167 -142l-64 58l101 149z" />
    <glyph glyph-name="uniF6D0" unicode="&#xf6d0;" horiz-adv-x="434" 
d="M60 750v120h314v-120h-314z" />
    <glyph glyph-name="uniF6D1" unicode="&#xf6d1;" horiz-adv-x="541" 
d="M60 880h150c0 -38 18 -50 62 -50c38 0 58 7 58 50h150c2 -97 -83 -160 -208 -160c-135 0 -212 64 -212 160z" />
    <glyph glyph-name="uniF6D4" unicode="&#xf6d4;" horiz-adv-x="460" 
d="M60 670h130c0 -40 15 -58 42 -58c23 0 38 18 38 58h130c0 -93 -55 -170 -168 -170c-124 0 -172 76 -172 170z" />
    <glyph glyph-name="uniF6DC" unicode="&#xf6dc;" 
d="M100 562l190 138h108v-700h-150v487l-70 -49z" />
    <glyph glyph-name="uniF6DE" unicode="&#xf6de;" horiz-adv-x="618" 
d="M60 205v130h498v-130h-498z" />
    <glyph glyph-name="uniF6F4" unicode="&#xf6f4;" horiz-adv-x="452" 
d="M60 657l66 75c21 -23 52 -52 105 -52c49 0 90 26 110 50l51 -72c-28 -42 -73 -98 -167 -98c-92 0 -146 64 -165 97z" />
    <glyph glyph-name="uniF6F5" unicode="&#xf6f5;" horiz-adv-x="455" 
d="M225 548l-165 126l70 88l98 -71l100 69l67 -87l-166 -125h-4z" />
    <glyph glyph-name="uniF6F6" unicode="&#xf6f6;" horiz-adv-x="455" 
d="M230 756l165 -126l-70 -88l-98 71l-100 -69l-67 87l166 125h4z" />
    <glyph glyph-name="uniF6F7" unicode="&#xf6f7;" horiz-adv-x="296" 
d="M60 655c0 53 42 85 91 85c43 0 85 -32 85 -85c0 -59 -42 -91 -85 -91c-49 0 -91 32 -91 91z" />
    <glyph glyph-name="uniF6F8" unicode="&#xf6f8;" horiz-adv-x="519" 
d="M459 692l-174 -127l-66 54l129 157zM265 710l-129 -145l-76 51l97 174z" />
    <glyph glyph-name="uniF6F9" unicode="&#xf6f9;" horiz-adv-x="475" 
d="M20 129v154l52 23v219h160v-149l90 40v-153l-90 -40v-63h223v-160h-383v152z" />
    <glyph glyph-name="uniF6FA" unicode="&#xf6fa;" horiz-adv-x="875" 
d="M439 0v13c-33 -14 -74 -25 -120 -25c-169 0 -288 109 -288 273c0 150 95 272 294 272c46 0 83 -10 114 -23v15h380v-150h-220v-37h194v-150h-194v-38h228v-150h-388zM332 138c45 0 78 14 107 34v178c-23 17 -52 33 -102 33c-77 0 -136 -34 -136 -122
c0 -71 55 -123 131 -123z" />
    <glyph glyph-name="uniF6FB" unicode="&#xf6fb;" horiz-adv-x="385" 
d="M280 -70l45 -90c-17 -21 -67 -40 -120 -40c-78 0 -145 29 -145 95c0 93 137 129 249 128v-23c-58 0 -99 -30 -99 -54c0 -18 13 -26 30 -26s23 2 40 10z" />
    <glyph glyph-name="uniF6FC" unicode="&#xf6fc;" horiz-adv-x="396" 
d="M60 652c0 71 57 129 137 129c81 0 139 -58 139 -129c0 -70 -58 -127 -139 -127c-80 0 -137 57 -137 127zM155 654c0 -27 17 -49 44 -49c26 0 42 22 42 49c0 26 -16 47 -42 47c-27 0 -44 -21 -44 -47z" />
    <glyph glyph-name="uniF6FD" unicode="&#xf6fd;" horiz-adv-x="516" 
d="M315 160c0 43 -272 31 -272 211c0 85 58 162 231 162c65 0 169 -35 211 -81l-72 -119c-41 28 -110 50 -145 50c-36 0 -55 -4 -55 -20c0 -37 272 -22 272 -212c0 -96 -90 -163 -227 -163c-83 0 -195 37 -238 98l91 109c31 -29 112 -57 159 -57c32 0 45 9 45 22zM254 548
l-165 126l70 88l98 -71l100 69l67 -87l-166 -125h-4z" />
    <glyph glyph-name="uniF6FE" unicode="&#xf6fe;" horiz-adv-x="485" 
d="M120 569l-60 67c38 54 88 78 132 78c47 0 77 -39 118 -39c33 0 42 11 66 27l49 -75c-36 -43 -83 -72 -127 -72s-74 39 -119 39c-20 0 -43 -16 -59 -25z" />
    <glyph glyph-name="uniF6FF" unicode="&#xf6ff;" horiz-adv-x="557" 
d="M51 375v150h464v-113l-249 -262h257v-150h-489v113l248 262h-231zM274 548l-165 126l70 88l98 -71l100 69l67 -87l-166 -125h-4z" />
    <glyph glyph-name="uniF730" unicode="&#xf730;" horiz-adv-x="620" 
d="M40 250c0 135 96 262 270 262s270 -127 270 -262s-96 -262 -270 -262s-270 127 -270 262zM200 250c0 -64 42 -112 110 -112c74 0 110 48 110 112c0 71 -43 112 -110 112c-66 0 -110 -42 -110 -112z" />
    <glyph glyph-name="uniF731" unicode="&#xf731;" horiz-adv-x="383" 
d="M20 424l178 84h105v-508h-160v319l-75 -31z" />
    <glyph glyph-name="uniF732" unicode="&#xf732;" horiz-adv-x="512" 
d="M30 0v110c95 40 258 113 258 193c0 35 -17 60 -51 60c-44 0 -69 -23 -96 -62l-95 98c33 63 111 114 201 114c140 0 201 -80 201 -174s-77 -164 -129 -189h163v-150h-452z" />
    <glyph glyph-name="uniF733" unicode="&#xf733;" horiz-adv-x="529" 
d="M241 -212c-117 0 -194 53 -231 116l83 111c35 -40 79 -77 138 -77c61 0 88 32 88 68c0 53 -41 77 -119 77h-44v150h40c53 0 96 22 96 70c0 30 -17 59 -64 59c-43 0 -82 -15 -121 -63l-82 108c43 69 118 105 217 105c123 0 210 -69 210 -179c0 -83 -34 -132 -104 -164v-3
c86 -17 131 -82 131 -166c0 -132 -104 -212 -238 -212z" />
    <glyph glyph-name="uniF734" unicode="&#xf734;" horiz-adv-x="580" 
d="M328 -200v200h-318v112l224 388h172l-203 -350h125v150h150v-150h82v-150h-82v-200h-150z" />
    <glyph glyph-name="uniF735" unicode="&#xf735;" horiz-adv-x="512" 
d="M63 108l48 392h346v-150h-214l-14 -89h24c121 0 219 -85 219 -228c0 -157 -112 -245 -255 -245c-74 0 -165 34 -207 94l84 115c27 -32 80 -59 127 -59c54 0 91 36 91 88c0 57 -45 100 -129 100c-48 0 -101 -9 -120 -18z" />
    <glyph glyph-name="uniF736" unicode="&#xf736;" horiz-adv-x="564" 
d="M40 248c0 257 197 424 348 464l61 -113c-103 -35 -190 -105 -231 -201c30 28 66 38 123 38c100 0 193 -85 193 -213c0 -156 -121 -235 -236 -235c-156 0 -258 117 -258 260zM200 247c0 -66 36 -109 99 -109c53 0 75 38 75 74c0 48 -29 84 -85 84c-43 0 -71 -23 -89 -49z
" />
    <glyph glyph-name="uniF737" unicode="&#xf737;" horiz-adv-x="510" 
d="M20 350v150h460v-102l-237 -598h-164l222 550h-281z" />
    <glyph glyph-name="uniF738" unicode="&#xf738;" horiz-adv-x="605" 
d="M297 435h13c47 0 68 34 68 65c0 39 -26 62 -77 62c-52 0 -74 -29 -74 -62c0 -31 21 -65 70 -65zM310 285h-12c-45 0 -88 -24 -88 -74c0 -39 26 -73 92 -73c76 0 94 35 93 73c-1 50 -37 74 -85 74zM303 -12c-146 0 -253 74 -253 193c0 94 50 152 107 177v3
c-46 25 -90 79 -90 166c0 110 104 185 235 185s236 -75 236 -185c0 -68 -37 -134 -100 -165v-3c61 -16 117 -74 117 -165c0 -132 -106 -206 -252 -206z" />
    <glyph glyph-name="uniF739" unicode="&#xf739;" horiz-adv-x="559" 
d="M519 242c0 -273 -165 -432 -368 -454l-49 119c132 29 206 91 239 185c-30 -28 -66 -38 -109 -38c-114 0 -212 90 -212 218c0 156 126 240 241 240c156 0 258 -107 258 -270zM359 243c0 66 -36 119 -99 119c-53 0 -80 -43 -80 -79c0 -48 34 -89 90 -89c43 0 71 23 89 49z
" />
    <glyph glyph-name="uniF760" unicode="&#xf760;" horiz-adv-x="353" 
d="M222 561l-162 110l92 115l141 -142z" />
    <glyph glyph-name="uniF761" unicode="&#xf761;" horiz-adv-x="632" 
d="M0 0l244 525h144l244 -525h-171l-33 75h-234l-33 -75h-161zM312 340l-51 -115h101z" />
    <glyph glyph-name="uniF762" unicode="&#xf762;" horiz-adv-x="555" 
d="M72 2v521c33 2 148 6 217 6c142 0 203 -59 203 -131c0 -48 -18 -95 -66 -120v-1c49 -12 81 -47 81 -112c0 -113 -99 -169 -230 -169c-59 0 -170 2 -205 6zM298 192h-66v-40c5 -3 36 -6 59 -6c39 0 56 8 56 23c0 17 -20 23 -49 23zM287 379c-12 0 -42 -2 -55 -4v-43h56
c24 0 44 3 44 23c0 17 -17 24 -45 24z" />
    <glyph glyph-name="uniF763" unicode="&#xf763;" horiz-adv-x="557" 
d="M472 170l61 -120c-34 -35 -113 -62 -196 -62c-187 0 -306 109 -306 273c0 142 92 272 306 272c81 0 149 -28 183 -57l-71 -120c-30 11 -58 27 -112 27c-77 0 -136 -34 -136 -122c0 -71 55 -123 151 -123c37 0 81 8 120 32z" />
    <glyph glyph-name="uniF764" unicode="&#xf764;" horiz-adv-x="634" 
d="M72 0v525h13c28 0 149 2 184 2c238 0 334 -108 334 -262c0 -156 -113 -267 -340 -267c-29 0 -115 2 -175 2h-16zM268 377c-7 0 -24 1 -36 -2v-225c10 -2 12 -2 36 -2c97 0 165 29 165 117c0 85 -66 112 -165 112z" />
    <glyph glyph-name="uniF765" unicode="&#xf765;" horiz-adv-x="508" 
d="M72 0v525h379v-150h-219v-37h194v-150h-194v-38h228v-150h-388z" />
    <glyph glyph-name="uniF766" unicode="&#xf766;" horiz-adv-x="473" 
d="M72 0v525h367v-150h-207v-57h182v-150h-182v-168h-160z" />
    <glyph glyph-name="uniF767" unicode="&#xf767;" horiz-adv-x="618" 
d="M315 180v140h264v-257c-53 -46 -149 -75 -223 -75c-211 0 -325 109 -325 273c0 150 115 272 305 272c92 0 149 -24 198 -57l-67 -125c-24 14 -70 32 -112 32c-84 0 -154 -28 -154 -122c0 -76 61 -123 157 -123c28 0 53 5 71 12v30h-114z" />
    <glyph glyph-name="uniF768" unicode="&#xf768;" horiz-adv-x="659" 
d="M427 0v193h-195v-193h-160v525h160v-182h195v182h160v-525h-160z" />
    <glyph glyph-name="uniF769" unicode="&#xf769;" horiz-adv-x="314" 
d="M77 0v525h160v-525h-160z" />
    <glyph glyph-name="uniF76A" unicode="&#xf76a;" horiz-adv-x="357" 
d="M285 525v-390c0 -97 -63 -145 -167 -145c-56 0 -106 23 -121 43l52 122c13 -9 31 -15 46 -15c13 0 30 4 30 24v361h160z" />
    <glyph glyph-name="uniF76B" unicode="&#xf76b;" horiz-adv-x="617" 
d="M72 0v525h160v-211l159 211h207l-202 -239l221 -286h-217l-168 232v-232h-160z" />
    <glyph glyph-name="uniF76C" unicode="&#xf76c;" horiz-adv-x="475" 
d="M72 0v525h160v-365h223v-160h-383z" />
    <glyph glyph-name="uniF76D" unicode="&#xf76d;" horiz-adv-x="782" 
d="M72 0v525h161l168 -187l158 187h151v-525h-160v281l-149 -165h-22l-147 162v-278h-160z" />
    <glyph glyph-name="uniF76E" unicode="&#xf76e;" horiz-adv-x="671" 
d="M599 0h-129l-248 266v-266h-150v525h128l249 -267v267h150v-525z" />
    <glyph glyph-name="uniF76F" unicode="&#xf76f;" horiz-adv-x="664" 
d="M31 261c0 152 117 272 301 272c174 0 301 -100 301 -272c0 -162 -127 -273 -301 -273s-301 100 -301 273zM201 261c0 -70 58 -123 131 -123c94 0 131 55 131 123c0 77 -57 122 -131 122c-77 0 -131 -45 -131 -122z" />
    <glyph glyph-name="uniF770" unicode="&#xf770;" horiz-adv-x="543" 
d="M232 0h-160v525c33 0 143 2 192 2c185 0 248 -87 248 -197c0 -117 -88 -200 -222 -200c-9 0 -40 0 -58 2v-132zM280 377c-16 0 -30 -1 -48 -2v-91c16 -2 37 -4 53 -4c26 0 57 10 57 50c0 36 -22 47 -62 47z" />
    <glyph glyph-name="uniF771" unicode="&#xf771;" horiz-adv-x="664" 
d="M31 261c0 152 117 272 301 272c174 0 301 -100 301 -272c0 -63 -19 -118 -53 -162l91 -99h-185l-15 15c-41 -17 -88 -27 -139 -27c-174 0 -301 100 -301 273zM201 261c0 -70 58 -123 131 -123c8 0 16 0 23 1l-33 36l105 94l33 -37c2 9 3 19 3 29c0 77 -57 122 -131 122
c-77 0 -131 -45 -131 -122z" />
    <glyph glyph-name="uniF772" unicode="&#xf772;" horiz-adv-x="578" 
d="M232 0h-160v525c33 0 130 2 200 2c181 0 242 -77 242 -187c0 -109 -56 -142 -76 -156l130 -184h-203l-90 145h-43v-145zM282 377c-21 0 -40 -1 -50 -2v-80h46c43 0 66 11 66 43c0 12 -11 39 -62 39z" />
    <glyph glyph-name="uniF773" unicode="&#xf773;" horiz-adv-x="516" 
d="M315 160c0 43 -272 31 -272 211c0 85 58 162 231 162c65 0 169 -35 211 -81l-72 -119c-41 28 -110 50 -145 50c-36 0 -55 -4 -55 -20c0 -37 272 -22 272 -212c0 -96 -90 -163 -227 -163c-83 0 -195 37 -238 98l91 109c31 -29 112 -57 159 -57c32 0 45 9 45 22z" />
    <glyph glyph-name="uniF774" unicode="&#xf774;" horiz-adv-x="513" 
d="M9 375v150h495v-150h-168v-375h-160v375h-167z" />
    <glyph glyph-name="uniF775" unicode="&#xf775;" horiz-adv-x="638" 
d="M575 525v-310c0 -160 -118 -226 -248 -226c-157 0 -264 78 -264 231v305h160v-270c0 -58 15 -116 104 -116c77 0 88 49 88 108v278h160z" />
    <glyph glyph-name="uniF776" unicode="&#xf776;" horiz-adv-x="558" 
d="M571 525l-227 -523h-124l-233 523h181l120 -306l112 306h171z" />
    <glyph glyph-name="uniF777" unicode="&#xf777;" horiz-adv-x="860" 
d="M863 525l-166 -525h-154l-107 278l-106 -278h-159l-174 525h181l86 -290l95 290h162l99 -290l83 290h160z" />
    <glyph glyph-name="uniF778" unicode="&#xf778;" horiz-adv-x="577" 
d="M575 525l-183 -257l191 -268h-198l-98 146l-95 -146h-198l190 268l-181 257h198l91 -139l85 139h198z" />
    <glyph glyph-name="uniF779" unicode="&#xf779;" horiz-adv-x="572" 
d="M575 525l-210 -319v-206h-160v206l-208 319h193l102 -169l101 169h182z" />
    <glyph glyph-name="uniF77A" unicode="&#xf77a;" horiz-adv-x="557" 
d="M51 375v150h464v-113l-249 -262h257v-150h-489v113l248 262h-231z" />
    <glyph glyph-name="uniF7A8" unicode="&#xf7a8;" horiz-adv-x="457" 
d="M60 637c0 47 37 75 82 75c36 0 74 -28 74 -75c0 -51 -38 -79 -74 -79c-45 0 -82 28 -82 79zM241 637c0 47 38 75 80 75c39 0 76 -28 76 -75c0 -51 -37 -79 -76 -79c-42 0 -80 28 -80 79z" />
    <glyph glyph-name="uniF7AF" unicode="&#xf7af;" horiz-adv-x="414" 
d="M60 570v120h294v-120h-294z" />
    <glyph glyph-name="uniF7B4" unicode="&#xf7b4;" horiz-adv-x="353" 
d="M293 671l-162 -110l-71 83l141 142z" />
    <glyph glyph-name="uniF7B8" unicode="&#xf7b8;" horiz-adv-x="404" 
d="M60 -161l44 69c14 -14 42 -28 68 -28c12 0 22 4 22 13c0 12 -7 17 -25 17h-6v90h75v-26c67 -6 106 -36 106 -90c0 -55 -50 -94 -151 -94c-76 0 -112 30 -133 49z" />
    <glyph glyph-name="uniF7E0" unicode="&#xf7e0;" horiz-adv-x="632" 
d="M0 0l244 525h144l244 -525h-171l-33 75h-234l-33 -75h-161zM312 340l-51 -115h101zM342 561l-162 110l92 115l141 -142z" />
    <glyph glyph-name="uniF7E1" unicode="&#xf7e1;" horiz-adv-x="632" 
d="M0 0l244 525h144l244 -525h-171l-33 75h-234l-33 -75h-161zM312 340l-51 -115h101zM453 671l-162 -110l-71 83l141 142z" />
    <glyph glyph-name="uniF7E2" unicode="&#xf7e2;" horiz-adv-x="632" 
d="M0 0l244 525h144l244 -525h-171l-33 75h-234l-33 -75h-161zM312 340l-51 -115h101zM319 756l165 -126l-70 -88l-98 71l-100 -69l-67 87l166 125h4z" />
    <glyph glyph-name="uniF7E3" unicode="&#xf7e3;" horiz-adv-x="632" 
d="M0 0l244 525h144l244 -525h-171l-33 75h-234l-33 -75h-161zM312 340l-51 -115h101zM194 569l-60 67c38 54 88 78 132 78c47 0 77 -39 118 -39c33 0 42 11 66 27l49 -75c-36 -43 -83 -72 -127 -72s-74 39 -119 39c-20 0 -43 -16 -59 -25z" />
    <glyph glyph-name="uniF7E4" unicode="&#xf7e4;" horiz-adv-x="632" 
d="M0 0l244 525h144l244 -525h-171l-33 75h-234l-33 -75h-161zM312 340l-51 -115h101zM148 637c0 47 37 75 82 75c36 0 74 -28 74 -75c0 -51 -38 -79 -74 -79c-45 0 -82 28 -82 79zM329 637c0 47 38 75 80 75c39 0 76 -28 76 -75c0 -51 -37 -79 -76 -79c-42 0 -80 28 -80 79
z" />
    <glyph glyph-name="uniF7E5" unicode="&#xf7e5;" horiz-adv-x="632" 
d="M0 0l244 525h144l244 -525h-171l-33 75h-234l-33 -75h-161zM312 340l-51 -115h101zM178 664c0 71 57 129 137 129c81 0 139 -58 139 -129c0 -70 -58 -127 -139 -127c-80 0 -137 57 -137 127zM273 666c0 -27 17 -49 44 -49c26 0 42 22 42 49c0 26 -16 47 -42 47
c-27 0 -44 -21 -44 -47z" />
    <glyph glyph-name="uniF7E6" unicode="&#xf7e6;" horiz-adv-x="800" 
d="M384 0v73h-183l-58 -73h-185l171 210l257 315h357v-150h-199v-37h174v-150h-174v-38h208v-150h-368zM384 301l-63 -78h63v78z" />
    <glyph glyph-name="uniF7E7" unicode="&#xf7e7;" horiz-adv-x="557" 
d="M174 -161l44 69c14 -14 42 -28 68 -28c12 0 22 4 22 13c0 12 -7 17 -25 17h-6v82c-152 21 -246 123 -246 269c0 142 92 272 306 272c81 0 149 -28 183 -57l-71 -120c-30 11 -58 27 -112 27c-77 0 -136 -34 -136 -122c0 -71 55 -123 151 -123c37 0 81 8 120 32l61 -120
c-32 -33 -104 -59 -181 -62v-14c67 -6 106 -36 106 -90c0 -55 -50 -94 -151 -94c-76 0 -112 30 -133 49z" />
    <glyph glyph-name="uniF7E8" unicode="&#xf7e8;" horiz-adv-x="508" 
d="M72 0v525h379v-150h-219v-37h194v-150h-194v-38h228v-150h-388zM297 561l-162 110l92 115l141 -142z" />
    <glyph glyph-name="uniF7E9" unicode="&#xf7e9;" horiz-adv-x="508" 
d="M72 0v525h379v-150h-219v-37h194v-150h-194v-38h228v-150h-388zM388 671l-162 -110l-71 83l141 142z" />
    <glyph glyph-name="uniF7EA" unicode="&#xf7ea;" horiz-adv-x="508" 
d="M72 0v525h379v-150h-219v-37h194v-150h-194v-38h228v-150h-388zM262 756l165 -126l-70 -88l-98 71l-100 -69l-67 87l166 125h4z" />
    <glyph glyph-name="uniF7EB" unicode="&#xf7eb;" horiz-adv-x="508" 
d="M72 0v525h379v-150h-219v-37h194v-150h-194v-38h228v-150h-388zM100 637c0 47 37 75 82 75c36 0 74 -28 74 -75c0 -51 -38 -79 -74 -79c-45 0 -82 28 -82 79zM281 637c0 47 38 75 80 75c39 0 76 -28 76 -75c0 -51 -37 -79 -76 -79c-42 0 -80 28 -80 79z" />
    <glyph glyph-name="uniF7EC" unicode="&#xf7ec;" horiz-adv-x="314" 
d="M77 0v525h160v-525h-160zM187 561l-162 110l92 115l141 -142z" />
    <glyph glyph-name="uniF7ED" unicode="&#xf7ed;" horiz-adv-x="314" 
d="M77 0v525h160v-525h-160zM308 671l-162 -110l-71 83l141 142z" />
    <glyph glyph-name="uniF7EE" unicode="&#xf7ee;" horiz-adv-x="314" 
d="M77 0v525h160v-525h-160zM160 756l165 -126l-70 -88l-98 71l-100 -69l-67 87l166 125h4z" />
    <glyph glyph-name="uniF7EF" unicode="&#xf7ef;" horiz-adv-x="314" 
d="M77 0v525h160v-525h-160zM-11 637c0 47 37 75 82 75c36 0 74 -28 74 -75c0 -51 -38 -79 -74 -79c-45 0 -82 28 -82 79zM170 637c0 47 38 75 80 75c39 0 76 -28 76 -75c0 -51 -37 -79 -76 -79c-42 0 -80 28 -80 79z" />
    <glyph glyph-name="uniF7F0" unicode="&#xf7f0;" horiz-adv-x="630" 
d="M9 194v140h58v191h13c28 0 149 2 206 2c217 0 313 -120 313 -262c0 -145 -114 -267 -309 -267c-60 0 -147 2 -206 2h-17v194h-58zM291 377c-18 0 -52 -1 -64 -4v-39h132v-140h-132v-44c10 -1 27 -2 50 -2c90 0 152 34 152 117c0 85 -65 112 -138 112z" />
    <glyph glyph-name="uniF7F1" unicode="&#xf7f1;" horiz-adv-x="671" 
d="M599 0h-129l-248 266v-266h-150v525h128l249 -267v267h150v-525zM203 569l-60 67c38 54 88 78 132 78c47 0 77 -39 118 -39c33 0 42 11 66 27l49 -75c-36 -43 -83 -72 -127 -72s-74 39 -119 39c-20 0 -43 -16 -59 -25z" />
    <glyph glyph-name="uniF7F2" unicode="&#xf7f2;" horiz-adv-x="664" 
d="M31 261c0 152 117 272 301 272c174 0 301 -100 301 -272c0 -162 -127 -273 -301 -273s-301 100 -301 273zM201 261c0 -70 58 -123 131 -123c94 0 131 55 131 123c0 77 -57 122 -131 122c-77 0 -131 -45 -131 -122zM347 561l-162 110l92 115l141 -142z" />
    <glyph glyph-name="uniF7F3" unicode="&#xf7f3;" horiz-adv-x="664" 
d="M31 261c0 152 117 272 301 272c174 0 301 -100 301 -272c0 -162 -127 -273 -301 -273s-301 100 -301 273zM201 261c0 -70 58 -123 131 -123c94 0 131 55 131 123c0 77 -57 122 -131 122c-77 0 -131 -45 -131 -122zM478 671l-162 -110l-71 83l141 142z" />
    <glyph glyph-name="uniF7F4" unicode="&#xf7f4;" horiz-adv-x="664" 
d="M31 261c0 152 117 272 301 272c174 0 301 -100 301 -272c0 -162 -127 -273 -301 -273s-301 100 -301 273zM201 261c0 -70 58 -123 131 -123c94 0 131 55 131 123c0 77 -57 122 -131 122c-77 0 -131 -45 -131 -122zM335 756l165 -126l-70 -88l-98 71l-100 -69l-67 87
l166 125h4z" />
    <glyph glyph-name="uniF7F5" unicode="&#xf7f5;" horiz-adv-x="664" 
d="M31 261c0 152 117 272 301 272c174 0 301 -100 301 -272c0 -162 -127 -273 -301 -273s-301 100 -301 273zM201 261c0 -70 58 -123 131 -123c94 0 131 55 131 123c0 77 -57 122 -131 122c-77 0 -131 -45 -131 -122zM210 569l-60 67c38 54 88 78 132 78
c47 0 77 -39 118 -39c33 0 42 11 66 27l49 -75c-36 -43 -83 -72 -127 -72s-74 39 -119 39c-20 0 -43 -16 -59 -25z" />
    <glyph glyph-name="uniF7F6" unicode="&#xf7f6;" horiz-adv-x="664" 
d="M31 261c0 152 117 272 301 272c174 0 301 -100 301 -272c0 -162 -127 -273 -301 -273s-301 100 -301 273zM201 261c0 -70 58 -123 131 -123c94 0 131 55 131 123c0 77 -57 122 -131 122c-77 0 -131 -45 -131 -122zM164 637c0 47 37 75 82 75c36 0 74 -28 74 -75
c0 -51 -38 -79 -74 -79c-45 0 -82 28 -82 79zM345 637c0 47 38 75 80 75c39 0 76 -28 76 -75c0 -51 -37 -79 -76 -79c-42 0 -80 28 -80 79z" />
    <glyph glyph-name="uniF7F8" unicode="&#xf7f8;" horiz-adv-x="664" 
d="M31 261c0 152 117 272 301 272c59 0 113 -12 159 -34l47 46l86 -88l-39 -38c30 -42 48 -95 48 -158c0 -162 -127 -273 -301 -273c-58 0 -110 11 -155 32l-46 -45l-86 88l36 35c-32 43 -50 98 -50 163zM201 261c0 -14 2 -27 6 -40l161 158c-11 2 -23 4 -36 4
c-77 0 -131 -45 -131 -122zM463 261c0 12 -2 24 -4 34l-158 -154c10 -2 20 -3 31 -3c94 0 131 55 131 123z" />
    <glyph glyph-name="uniF7F9" unicode="&#xf7f9;" horiz-adv-x="638" 
d="M575 525v-310c0 -160 -118 -226 -248 -226c-157 0 -264 78 -264 231v305h160v-270c0 -58 15 -116 104 -116c77 0 88 49 88 108v278h160zM327 561l-162 110l92 115l141 -142z" />
    <glyph glyph-name="uniF7FA" unicode="&#xf7fa;" horiz-adv-x="638" 
d="M575 525v-310c0 -160 -118 -226 -248 -226c-157 0 -264 78 -264 231v305h160v-270c0 -58 15 -116 104 -116c77 0 88 49 88 108v278h160zM468 671l-162 -110l-71 83l141 142z" />
    <glyph glyph-name="uniF7FB" unicode="&#xf7fb;" horiz-adv-x="638" 
d="M575 525v-310c0 -160 -118 -226 -248 -226c-157 0 -264 78 -264 231v305h160v-270c0 -58 15 -116 104 -116c77 0 88 49 88 108v278h160zM322 756l165 -126l-70 -88l-98 71l-100 -69l-67 87l166 125h4z" />
    <glyph glyph-name="uniF7FC" unicode="&#xf7fc;" horiz-adv-x="638" 
d="M575 525v-310c0 -160 -118 -226 -248 -226c-157 0 -264 78 -264 231v305h160v-270c0 -58 15 -116 104 -116c77 0 88 49 88 108v278h160zM151 637c0 47 37 75 82 75c36 0 74 -28 74 -75c0 -51 -38 -79 -74 -79c-45 0 -82 28 -82 79zM332 637c0 47 38 75 80 75
c39 0 76 -28 76 -75c0 -51 -37 -79 -76 -79c-42 0 -80 28 -80 79z" />
    <glyph glyph-name="uniF7FD" unicode="&#xf7fd;" horiz-adv-x="572" 
d="M575 525l-210 -319v-206h-160v206l-208 319h193l102 -169l101 169h182zM418 671l-162 -110l-71 83l141 142z" />
    <glyph glyph-name="uniF7FE" unicode="&#xf7fe;" horiz-adv-x="543" 
d="M232 0h-160v525h160v-52c1 0 26 1 53 1c164 0 227 -105 227 -202c0 -100 -76 -204 -218 -204c-16 0 -44 1 -62 4v-72zM279 324c-24 0 -38 -1 -47 -3v-99c16 -3 31 -4 45 -4c40 0 65 25 65 55c0 24 -17 51 -63 51z" />
    <glyph glyph-name="uniF7FF" unicode="&#xf7ff;" horiz-adv-x="572" 
d="M575 525l-210 -319v-206h-160v206l-208 319h193l102 -169l101 169h182zM118 637c0 47 37 75 82 75c36 0 74 -28 74 -75c0 -51 -38 -79 -74 -79c-45 0 -82 28 -82 79zM299 637c0 47 38 75 80 75c39 0 76 -28 76 -75c0 -51 -37 -79 -76 -79c-42 0 -80 28 -80 79z" />
    <glyph glyph-name="uniF770.alt02" horiz-adv-x="493" 
d="M232 0h-160v525h108c199 0 262 -101 262 -198c0 -100 -83 -185 -210 -207v-120zM232 375v-105c20 6 40 26 40 58c0 22 -16 47 -40 47z" />
    <glyph glyph-name="uniF68C.alt02" horiz-adv-x="397" 
d="M72 0v525h160v-375h141v-150h-301zM136 -50l149 29c5 -7 13 -21 13 -48c0 -79 -83 -131 -147 -139l-44 64c34 15 41 35 41 58c0 14 -5 27 -12 36z" />
    </font>
</defs>
</svg>
